%TF.GenerationSoftware,KiCad,Pcbnew,5.1.10*%
%TF.CreationDate,2021-11-24T03:02:33+13:00*%
%TF.ProjectId,buck_converter,6275636b-5f63-46f6-9e76-65727465722e,rev?*%
%TF.SameCoordinates,Original*%
%TF.FileFunction,Soldermask,Top*%
%TF.FilePolarity,Negative*%
%FSLAX46Y46*%
G04 Gerber Fmt 4.6, Leading zero omitted, Abs format (unit mm)*
G04 Created by KiCad (PCBNEW 5.1.10) date 2021-11-24 03:02:33*
%MOMM*%
%LPD*%
G01*
G04 APERTURE LIST*
%ADD10C,1.560000*%
%ADD11R,1.560000X1.560000*%
%ADD12O,1.600000X1.600000*%
%ADD13R,1.600000X1.600000*%
%ADD14C,2.400000*%
%ADD15R,2.400000X2.400000*%
%ADD16C,2.000000*%
%ADD17R,2.000000X2.000000*%
%ADD18C,0.800000*%
%ADD19C,7.000000*%
%ADD20C,1.590000*%
%ADD21O,1.800000X1.800000*%
%ADD22R,1.800000X1.800000*%
%ADD23C,1.440000*%
%ADD24O,1.905000X2.000000*%
%ADD25R,1.905000X2.000000*%
%ADD26C,1.600000*%
G04 APERTURE END LIST*
%TO.C,R13*%
G36*
G01*
X-194420500Y87228500D02*
X-193945500Y87228500D01*
G75*
G02*
X-193708000Y86991000I0J-237500D01*
G01*
X-193708000Y86491000D01*
G75*
G02*
X-193945500Y86253500I-237500J0D01*
G01*
X-194420500Y86253500D01*
G75*
G02*
X-194658000Y86491000I0J237500D01*
G01*
X-194658000Y86991000D01*
G75*
G02*
X-194420500Y87228500I237500J0D01*
G01*
G37*
G36*
G01*
X-194420500Y89053500D02*
X-193945500Y89053500D01*
G75*
G02*
X-193708000Y88816000I0J-237500D01*
G01*
X-193708000Y88316000D01*
G75*
G02*
X-193945500Y88078500I-237500J0D01*
G01*
X-194420500Y88078500D01*
G75*
G02*
X-194658000Y88316000I0J237500D01*
G01*
X-194658000Y88816000D01*
G75*
G02*
X-194420500Y89053500I237500J0D01*
G01*
G37*
%TD*%
D10*
%TO.C,U6*%
X-132016500Y79946500D03*
X-134556500Y79946500D03*
X-137096500Y79946500D03*
X-139636500Y79946500D03*
X-142176500Y79946500D03*
X-144716500Y79946500D03*
X-147256500Y79946500D03*
X-149796500Y79946500D03*
X-152336500Y79946500D03*
X-154876500Y79946500D03*
X-157416500Y79946500D03*
X-159956500Y79946500D03*
X-162496500Y79946500D03*
X-165036500Y79946500D03*
X-167576500Y79946500D03*
X-170116500Y79946500D03*
X-172656500Y79946500D03*
X-175196500Y79946500D03*
X-177736500Y79946500D03*
X-134556500Y54546500D03*
X-137096500Y54546500D03*
X-139636500Y54546500D03*
X-142176500Y54546500D03*
X-144716500Y54546500D03*
X-147256500Y54546500D03*
X-149796500Y54546500D03*
X-152336500Y54546500D03*
X-154876500Y54546500D03*
X-157416500Y54546500D03*
X-159956500Y54546500D03*
X-162496500Y54546500D03*
X-165036500Y54546500D03*
X-167576500Y54546500D03*
X-170116500Y54546500D03*
X-172656500Y54546500D03*
X-132016500Y54546500D03*
X-175196500Y54546500D03*
D11*
X-177736500Y54546500D03*
%TD*%
%TO.C,C1*%
G36*
G01*
X-182939700Y79621500D02*
X-182464700Y79621500D01*
G75*
G02*
X-182227200Y79384000I0J-237500D01*
G01*
X-182227200Y78784000D01*
G75*
G02*
X-182464700Y78546500I-237500J0D01*
G01*
X-182939700Y78546500D01*
G75*
G02*
X-183177200Y78784000I0J237500D01*
G01*
X-183177200Y79384000D01*
G75*
G02*
X-182939700Y79621500I237500J0D01*
G01*
G37*
G36*
G01*
X-182939700Y81346500D02*
X-182464700Y81346500D01*
G75*
G02*
X-182227200Y81109000I0J-237500D01*
G01*
X-182227200Y80509000D01*
G75*
G02*
X-182464700Y80271500I-237500J0D01*
G01*
X-182939700Y80271500D01*
G75*
G02*
X-183177200Y80509000I0J237500D01*
G01*
X-183177200Y81109000D01*
G75*
G02*
X-182939700Y81346500I237500J0D01*
G01*
G37*
%TD*%
D12*
%TO.C,U1*%
X-184607200Y86702900D03*
X-192227200Y71462900D03*
X-184607200Y84162900D03*
X-192227200Y74002900D03*
X-184607200Y81622900D03*
X-192227200Y76542900D03*
X-184607200Y79082900D03*
X-192227200Y79082900D03*
X-184607200Y76542900D03*
X-192227200Y81622900D03*
X-184607200Y74002900D03*
X-192227200Y84162900D03*
X-184607200Y71462900D03*
D13*
X-192227200Y86702900D03*
%TD*%
D14*
%TO.C,C16*%
X-210629500Y111379000D03*
D15*
X-198120000Y111379000D03*
D16*
X-205700000Y111379000D03*
D17*
X-203200000Y111379000D03*
D15*
X-200660000Y111379000D03*
D14*
X-208160000Y111379000D03*
%TD*%
D18*
%TO.C,OUT  -*%
X-211249845Y129618155D03*
X-213106000Y130387000D03*
X-214962155Y129618155D03*
X-215731000Y127762000D03*
X-214962155Y125905845D03*
X-213106000Y125137000D03*
X-211249845Y125905845D03*
X-210481000Y127762000D03*
D19*
X-213106000Y127762000D03*
%TD*%
D18*
%TO.C,OUT +*%
X-198803845Y129618155D03*
X-200660000Y130387000D03*
X-202516155Y129618155D03*
X-203285000Y127762000D03*
X-202516155Y125905845D03*
X-200660000Y125137000D03*
X-198803845Y125905845D03*
X-198035000Y127762000D03*
D19*
X-200660000Y127762000D03*
%TD*%
D18*
%TO.C,IN +*%
X-166291845Y129872155D03*
X-168148000Y130641000D03*
X-170004155Y129872155D03*
X-170773000Y128016000D03*
X-170004155Y126159845D03*
X-168148000Y125391000D03*
X-166291845Y126159845D03*
X-165523000Y128016000D03*
D19*
X-168148000Y128016000D03*
%TD*%
D18*
%TO.C,IN -*%
X-153083845Y129872155D03*
X-154940000Y130641000D03*
X-156796155Y129872155D03*
X-157565000Y128016000D03*
X-156796155Y126159845D03*
X-154940000Y125391000D03*
X-153083845Y126159845D03*
X-152315000Y128016000D03*
D19*
X-154940000Y128016000D03*
%TD*%
%TO.C,R16*%
G36*
G01*
X-214265500Y75421000D02*
X-214740500Y75421000D01*
G75*
G02*
X-214978000Y75658500I0J237500D01*
G01*
X-214978000Y76233500D01*
G75*
G02*
X-214740500Y76471000I237500J0D01*
G01*
X-214265500Y76471000D01*
G75*
G02*
X-214028000Y76233500I0J-237500D01*
G01*
X-214028000Y75658500D01*
G75*
G02*
X-214265500Y75421000I-237500J0D01*
G01*
G37*
G36*
G01*
X-214265500Y73671000D02*
X-214740500Y73671000D01*
G75*
G02*
X-214978000Y73908500I0J237500D01*
G01*
X-214978000Y74483500D01*
G75*
G02*
X-214740500Y74721000I237500J0D01*
G01*
X-214265500Y74721000D01*
G75*
G02*
X-214028000Y74483500I0J-237500D01*
G01*
X-214028000Y73908500D01*
G75*
G02*
X-214265500Y73671000I-237500J0D01*
G01*
G37*
%TD*%
%TO.C,R15*%
G36*
G01*
X-214265500Y79090000D02*
X-214740500Y79090000D01*
G75*
G02*
X-214978000Y79327500I0J237500D01*
G01*
X-214978000Y79902500D01*
G75*
G02*
X-214740500Y80140000I237500J0D01*
G01*
X-214265500Y80140000D01*
G75*
G02*
X-214028000Y79902500I0J-237500D01*
G01*
X-214028000Y79327500D01*
G75*
G02*
X-214265500Y79090000I-237500J0D01*
G01*
G37*
G36*
G01*
X-214265500Y77340000D02*
X-214740500Y77340000D01*
G75*
G02*
X-214978000Y77577500I0J237500D01*
G01*
X-214978000Y78152500D01*
G75*
G02*
X-214740500Y78390000I237500J0D01*
G01*
X-214265500Y78390000D01*
G75*
G02*
X-214028000Y78152500I0J-237500D01*
G01*
X-214028000Y77577500D01*
G75*
G02*
X-214265500Y77340000I-237500J0D01*
G01*
G37*
%TD*%
D20*
%TO.C,INDUCTOR*%
X-190500000Y110236000D03*
X-177546000Y110236000D03*
%TD*%
%TO.C,R10*%
G36*
G01*
X-195387000Y98904999D02*
X-195387000Y101755001D01*
G75*
G02*
X-195137001Y102005000I249999J0D01*
G01*
X-194111999Y102005000D01*
G75*
G02*
X-193862000Y101755001I0J-249999D01*
G01*
X-193862000Y98904999D01*
G75*
G02*
X-194111999Y98655000I-249999J0D01*
G01*
X-195137001Y98655000D01*
G75*
G02*
X-195387000Y98904999I0J249999D01*
G01*
G37*
G36*
G01*
X-201362000Y98904999D02*
X-201362000Y101755001D01*
G75*
G02*
X-201112001Y102005000I249999J0D01*
G01*
X-200086999Y102005000D01*
G75*
G02*
X-199837000Y101755001I0J-249999D01*
G01*
X-199837000Y98904999D01*
G75*
G02*
X-200086999Y98655000I-249999J0D01*
G01*
X-201112001Y98655000D01*
G75*
G02*
X-201362000Y98904999I0J249999D01*
G01*
G37*
%TD*%
%TO.C,U2*%
G36*
G01*
X-210734000Y73556000D02*
X-210734000Y73256000D01*
G75*
G02*
X-210884000Y73106000I-150000J0D01*
G01*
X-212534000Y73106000D01*
G75*
G02*
X-212684000Y73256000I0J150000D01*
G01*
X-212684000Y73556000D01*
G75*
G02*
X-212534000Y73706000I150000J0D01*
G01*
X-210884000Y73706000D01*
G75*
G02*
X-210734000Y73556000I0J-150000D01*
G01*
G37*
G36*
G01*
X-210734000Y74826000D02*
X-210734000Y74526000D01*
G75*
G02*
X-210884000Y74376000I-150000J0D01*
G01*
X-212534000Y74376000D01*
G75*
G02*
X-212684000Y74526000I0J150000D01*
G01*
X-212684000Y74826000D01*
G75*
G02*
X-212534000Y74976000I150000J0D01*
G01*
X-210884000Y74976000D01*
G75*
G02*
X-210734000Y74826000I0J-150000D01*
G01*
G37*
G36*
G01*
X-210734000Y76096000D02*
X-210734000Y75796000D01*
G75*
G02*
X-210884000Y75646000I-150000J0D01*
G01*
X-212534000Y75646000D01*
G75*
G02*
X-212684000Y75796000I0J150000D01*
G01*
X-212684000Y76096000D01*
G75*
G02*
X-212534000Y76246000I150000J0D01*
G01*
X-210884000Y76246000D01*
G75*
G02*
X-210734000Y76096000I0J-150000D01*
G01*
G37*
G36*
G01*
X-210734000Y77366000D02*
X-210734000Y77066000D01*
G75*
G02*
X-210884000Y76916000I-150000J0D01*
G01*
X-212534000Y76916000D01*
G75*
G02*
X-212684000Y77066000I0J150000D01*
G01*
X-212684000Y77366000D01*
G75*
G02*
X-212534000Y77516000I150000J0D01*
G01*
X-210884000Y77516000D01*
G75*
G02*
X-210734000Y77366000I0J-150000D01*
G01*
G37*
G36*
G01*
X-205784000Y77366000D02*
X-205784000Y77066000D01*
G75*
G02*
X-205934000Y76916000I-150000J0D01*
G01*
X-207584000Y76916000D01*
G75*
G02*
X-207734000Y77066000I0J150000D01*
G01*
X-207734000Y77366000D01*
G75*
G02*
X-207584000Y77516000I150000J0D01*
G01*
X-205934000Y77516000D01*
G75*
G02*
X-205784000Y77366000I0J-150000D01*
G01*
G37*
G36*
G01*
X-205784000Y76096000D02*
X-205784000Y75796000D01*
G75*
G02*
X-205934000Y75646000I-150000J0D01*
G01*
X-207584000Y75646000D01*
G75*
G02*
X-207734000Y75796000I0J150000D01*
G01*
X-207734000Y76096000D01*
G75*
G02*
X-207584000Y76246000I150000J0D01*
G01*
X-205934000Y76246000D01*
G75*
G02*
X-205784000Y76096000I0J-150000D01*
G01*
G37*
G36*
G01*
X-205784000Y74826000D02*
X-205784000Y74526000D01*
G75*
G02*
X-205934000Y74376000I-150000J0D01*
G01*
X-207584000Y74376000D01*
G75*
G02*
X-207734000Y74526000I0J150000D01*
G01*
X-207734000Y74826000D01*
G75*
G02*
X-207584000Y74976000I150000J0D01*
G01*
X-205934000Y74976000D01*
G75*
G02*
X-205784000Y74826000I0J-150000D01*
G01*
G37*
G36*
G01*
X-205784000Y73556000D02*
X-205784000Y73256000D01*
G75*
G02*
X-205934000Y73106000I-150000J0D01*
G01*
X-207584000Y73106000D01*
G75*
G02*
X-207734000Y73256000I0J150000D01*
G01*
X-207734000Y73556000D01*
G75*
G02*
X-207584000Y73706000I150000J0D01*
G01*
X-205934000Y73706000D01*
G75*
G02*
X-205784000Y73556000I0J-150000D01*
G01*
G37*
%TD*%
D21*
%TO.C,D3*%
X-170688000Y96012000D03*
D22*
X-170688000Y103632000D03*
%TD*%
D21*
%TO.C,D2*%
X-147828000Y97028000D03*
D22*
X-155448000Y97028000D03*
%TD*%
D23*
%TO.C,RV1*%
X-200787000Y79057500D03*
X-200787000Y76517500D03*
X-200787000Y73977500D03*
%TD*%
D12*
%TO.C,D1*%
X-206692500Y70929500D03*
D13*
X-199072500Y70929500D03*
%TD*%
%TO.C,U8*%
G36*
G01*
X-188882500Y65073500D02*
X-188882500Y65273500D01*
G75*
G02*
X-188782500Y65373500I100000J0D01*
G01*
X-187357500Y65373500D01*
G75*
G02*
X-187257500Y65273500I0J-100000D01*
G01*
X-187257500Y65073500D01*
G75*
G02*
X-187357500Y64973500I-100000J0D01*
G01*
X-188782500Y64973500D01*
G75*
G02*
X-188882500Y65073500I0J100000D01*
G01*
G37*
G36*
G01*
X-188882500Y64423500D02*
X-188882500Y64623500D01*
G75*
G02*
X-188782500Y64723500I100000J0D01*
G01*
X-187357500Y64723500D01*
G75*
G02*
X-187257500Y64623500I0J-100000D01*
G01*
X-187257500Y64423500D01*
G75*
G02*
X-187357500Y64323500I-100000J0D01*
G01*
X-188782500Y64323500D01*
G75*
G02*
X-188882500Y64423500I0J100000D01*
G01*
G37*
G36*
G01*
X-188882500Y63773500D02*
X-188882500Y63973500D01*
G75*
G02*
X-188782500Y64073500I100000J0D01*
G01*
X-187357500Y64073500D01*
G75*
G02*
X-187257500Y63973500I0J-100000D01*
G01*
X-187257500Y63773500D01*
G75*
G02*
X-187357500Y63673500I-100000J0D01*
G01*
X-188782500Y63673500D01*
G75*
G02*
X-188882500Y63773500I0J100000D01*
G01*
G37*
G36*
G01*
X-188882500Y63123500D02*
X-188882500Y63323500D01*
G75*
G02*
X-188782500Y63423500I100000J0D01*
G01*
X-187357500Y63423500D01*
G75*
G02*
X-187257500Y63323500I0J-100000D01*
G01*
X-187257500Y63123500D01*
G75*
G02*
X-187357500Y63023500I-100000J0D01*
G01*
X-188782500Y63023500D01*
G75*
G02*
X-188882500Y63123500I0J100000D01*
G01*
G37*
G36*
G01*
X-193107500Y63123500D02*
X-193107500Y63323500D01*
G75*
G02*
X-193007500Y63423500I100000J0D01*
G01*
X-191582500Y63423500D01*
G75*
G02*
X-191482500Y63323500I0J-100000D01*
G01*
X-191482500Y63123500D01*
G75*
G02*
X-191582500Y63023500I-100000J0D01*
G01*
X-193007500Y63023500D01*
G75*
G02*
X-193107500Y63123500I0J100000D01*
G01*
G37*
G36*
G01*
X-193107500Y63773500D02*
X-193107500Y63973500D01*
G75*
G02*
X-193007500Y64073500I100000J0D01*
G01*
X-191582500Y64073500D01*
G75*
G02*
X-191482500Y63973500I0J-100000D01*
G01*
X-191482500Y63773500D01*
G75*
G02*
X-191582500Y63673500I-100000J0D01*
G01*
X-193007500Y63673500D01*
G75*
G02*
X-193107500Y63773500I0J100000D01*
G01*
G37*
G36*
G01*
X-193107500Y64423500D02*
X-193107500Y64623500D01*
G75*
G02*
X-193007500Y64723500I100000J0D01*
G01*
X-191582500Y64723500D01*
G75*
G02*
X-191482500Y64623500I0J-100000D01*
G01*
X-191482500Y64423500D01*
G75*
G02*
X-191582500Y64323500I-100000J0D01*
G01*
X-193007500Y64323500D01*
G75*
G02*
X-193107500Y64423500I0J100000D01*
G01*
G37*
G36*
G01*
X-193107500Y65073500D02*
X-193107500Y65273500D01*
G75*
G02*
X-193007500Y65373500I100000J0D01*
G01*
X-191582500Y65373500D01*
G75*
G02*
X-191482500Y65273500I0J-100000D01*
G01*
X-191482500Y65073500D01*
G75*
G02*
X-191582500Y64973500I-100000J0D01*
G01*
X-193007500Y64973500D01*
G75*
G02*
X-193107500Y65073500I0J100000D01*
G01*
G37*
%TD*%
D12*
%TO.C,U7*%
X-155448000Y101854000D03*
X-147828000Y109474000D03*
X-155448000Y104394000D03*
X-147828000Y106934000D03*
X-155448000Y106934000D03*
X-147828000Y104394000D03*
X-155448000Y109474000D03*
D13*
X-147828000Y101854000D03*
%TD*%
%TO.C,U3*%
G36*
G01*
X-207477500Y81494500D02*
X-207177500Y81494500D01*
G75*
G02*
X-207027500Y81344500I0J-150000D01*
G01*
X-207027500Y79694500D01*
G75*
G02*
X-207177500Y79544500I-150000J0D01*
G01*
X-207477500Y79544500D01*
G75*
G02*
X-207627500Y79694500I0J150000D01*
G01*
X-207627500Y81344500D01*
G75*
G02*
X-207477500Y81494500I150000J0D01*
G01*
G37*
G36*
G01*
X-208747500Y81494500D02*
X-208447500Y81494500D01*
G75*
G02*
X-208297500Y81344500I0J-150000D01*
G01*
X-208297500Y79694500D01*
G75*
G02*
X-208447500Y79544500I-150000J0D01*
G01*
X-208747500Y79544500D01*
G75*
G02*
X-208897500Y79694500I0J150000D01*
G01*
X-208897500Y81344500D01*
G75*
G02*
X-208747500Y81494500I150000J0D01*
G01*
G37*
G36*
G01*
X-210017500Y81494500D02*
X-209717500Y81494500D01*
G75*
G02*
X-209567500Y81344500I0J-150000D01*
G01*
X-209567500Y79694500D01*
G75*
G02*
X-209717500Y79544500I-150000J0D01*
G01*
X-210017500Y79544500D01*
G75*
G02*
X-210167500Y79694500I0J150000D01*
G01*
X-210167500Y81344500D01*
G75*
G02*
X-210017500Y81494500I150000J0D01*
G01*
G37*
G36*
G01*
X-211287500Y81494500D02*
X-210987500Y81494500D01*
G75*
G02*
X-210837500Y81344500I0J-150000D01*
G01*
X-210837500Y79694500D01*
G75*
G02*
X-210987500Y79544500I-150000J0D01*
G01*
X-211287500Y79544500D01*
G75*
G02*
X-211437500Y79694500I0J150000D01*
G01*
X-211437500Y81344500D01*
G75*
G02*
X-211287500Y81494500I150000J0D01*
G01*
G37*
G36*
G01*
X-211287500Y86444500D02*
X-210987500Y86444500D01*
G75*
G02*
X-210837500Y86294500I0J-150000D01*
G01*
X-210837500Y84644500D01*
G75*
G02*
X-210987500Y84494500I-150000J0D01*
G01*
X-211287500Y84494500D01*
G75*
G02*
X-211437500Y84644500I0J150000D01*
G01*
X-211437500Y86294500D01*
G75*
G02*
X-211287500Y86444500I150000J0D01*
G01*
G37*
G36*
G01*
X-210017500Y86444500D02*
X-209717500Y86444500D01*
G75*
G02*
X-209567500Y86294500I0J-150000D01*
G01*
X-209567500Y84644500D01*
G75*
G02*
X-209717500Y84494500I-150000J0D01*
G01*
X-210017500Y84494500D01*
G75*
G02*
X-210167500Y84644500I0J150000D01*
G01*
X-210167500Y86294500D01*
G75*
G02*
X-210017500Y86444500I150000J0D01*
G01*
G37*
G36*
G01*
X-208747500Y86444500D02*
X-208447500Y86444500D01*
G75*
G02*
X-208297500Y86294500I0J-150000D01*
G01*
X-208297500Y84644500D01*
G75*
G02*
X-208447500Y84494500I-150000J0D01*
G01*
X-208747500Y84494500D01*
G75*
G02*
X-208897500Y84644500I0J150000D01*
G01*
X-208897500Y86294500D01*
G75*
G02*
X-208747500Y86444500I150000J0D01*
G01*
G37*
G36*
G01*
X-207477500Y86444500D02*
X-207177500Y86444500D01*
G75*
G02*
X-207027500Y86294500I0J-150000D01*
G01*
X-207027500Y84644500D01*
G75*
G02*
X-207177500Y84494500I-150000J0D01*
G01*
X-207477500Y84494500D01*
G75*
G02*
X-207627500Y84644500I0J150000D01*
G01*
X-207627500Y86294500D01*
G75*
G02*
X-207477500Y86444500I150000J0D01*
G01*
G37*
%TD*%
D24*
%TO.C,U4*%
X-147853400Y88633300D03*
X-145313400Y88633300D03*
D25*
X-142773400Y88633300D03*
%TD*%
%TO.C,R12*%
G36*
G01*
X-204580500Y95460000D02*
X-204105500Y95460000D01*
G75*
G02*
X-203868000Y95222500I0J-237500D01*
G01*
X-203868000Y94722500D01*
G75*
G02*
X-204105500Y94485000I-237500J0D01*
G01*
X-204580500Y94485000D01*
G75*
G02*
X-204818000Y94722500I0J237500D01*
G01*
X-204818000Y95222500D01*
G75*
G02*
X-204580500Y95460000I237500J0D01*
G01*
G37*
G36*
G01*
X-204580500Y97285000D02*
X-204105500Y97285000D01*
G75*
G02*
X-203868000Y97047500I0J-237500D01*
G01*
X-203868000Y96547500D01*
G75*
G02*
X-204105500Y96310000I-237500J0D01*
G01*
X-204580500Y96310000D01*
G75*
G02*
X-204818000Y96547500I0J237500D01*
G01*
X-204818000Y97047500D01*
G75*
G02*
X-204580500Y97285000I237500J0D01*
G01*
G37*
%TD*%
%TO.C,R11*%
G36*
G01*
X-204580500Y98992500D02*
X-204105500Y98992500D01*
G75*
G02*
X-203868000Y98755000I0J-237500D01*
G01*
X-203868000Y98255000D01*
G75*
G02*
X-204105500Y98017500I-237500J0D01*
G01*
X-204580500Y98017500D01*
G75*
G02*
X-204818000Y98255000I0J237500D01*
G01*
X-204818000Y98755000D01*
G75*
G02*
X-204580500Y98992500I237500J0D01*
G01*
G37*
G36*
G01*
X-204580500Y100817500D02*
X-204105500Y100817500D01*
G75*
G02*
X-203868000Y100580000I0J-237500D01*
G01*
X-203868000Y100080000D01*
G75*
G02*
X-204105500Y99842500I-237500J0D01*
G01*
X-204580500Y99842500D01*
G75*
G02*
X-204818000Y100080000I0J237500D01*
G01*
X-204818000Y100580000D01*
G75*
G02*
X-204580500Y100817500I237500J0D01*
G01*
G37*
%TD*%
%TO.C,R14*%
G36*
G01*
X-185273500Y68246000D02*
X-185273500Y67771000D01*
G75*
G02*
X-185511000Y67533500I-237500J0D01*
G01*
X-186011000Y67533500D01*
G75*
G02*
X-186248500Y67771000I0J237500D01*
G01*
X-186248500Y68246000D01*
G75*
G02*
X-186011000Y68483500I237500J0D01*
G01*
X-185511000Y68483500D01*
G75*
G02*
X-185273500Y68246000I0J-237500D01*
G01*
G37*
G36*
G01*
X-183448500Y68246000D02*
X-183448500Y67771000D01*
G75*
G02*
X-183686000Y67533500I-237500J0D01*
G01*
X-184186000Y67533500D01*
G75*
G02*
X-184423500Y67771000I0J237500D01*
G01*
X-184423500Y68246000D01*
G75*
G02*
X-184186000Y68483500I237500J0D01*
G01*
X-183686000Y68483500D01*
G75*
G02*
X-183448500Y68246000I0J-237500D01*
G01*
G37*
%TD*%
%TO.C,R8*%
G36*
G01*
X-169625000Y60964000D02*
X-170100000Y60964000D01*
G75*
G02*
X-170337500Y61201500I0J237500D01*
G01*
X-170337500Y61701500D01*
G75*
G02*
X-170100000Y61939000I237500J0D01*
G01*
X-169625000Y61939000D01*
G75*
G02*
X-169387500Y61701500I0J-237500D01*
G01*
X-169387500Y61201500D01*
G75*
G02*
X-169625000Y60964000I-237500J0D01*
G01*
G37*
G36*
G01*
X-169625000Y59139000D02*
X-170100000Y59139000D01*
G75*
G02*
X-170337500Y59376500I0J237500D01*
G01*
X-170337500Y59876500D01*
G75*
G02*
X-170100000Y60114000I237500J0D01*
G01*
X-169625000Y60114000D01*
G75*
G02*
X-169387500Y59876500I0J-237500D01*
G01*
X-169387500Y59376500D01*
G75*
G02*
X-169625000Y59139000I-237500J0D01*
G01*
G37*
%TD*%
%TO.C,R7*%
G36*
G01*
X-171878000Y60090500D02*
X-171403000Y60090500D01*
G75*
G02*
X-171165500Y59853000I0J-237500D01*
G01*
X-171165500Y59353000D01*
G75*
G02*
X-171403000Y59115500I-237500J0D01*
G01*
X-171878000Y59115500D01*
G75*
G02*
X-172115500Y59353000I0J237500D01*
G01*
X-172115500Y59853000D01*
G75*
G02*
X-171878000Y60090500I237500J0D01*
G01*
G37*
G36*
G01*
X-171878000Y61915500D02*
X-171403000Y61915500D01*
G75*
G02*
X-171165500Y61678000I0J-237500D01*
G01*
X-171165500Y61178000D01*
G75*
G02*
X-171403000Y60940500I-237500J0D01*
G01*
X-171878000Y60940500D01*
G75*
G02*
X-172115500Y61178000I0J237500D01*
G01*
X-172115500Y61678000D01*
G75*
G02*
X-171878000Y61915500I237500J0D01*
G01*
G37*
%TD*%
%TO.C,R9*%
G36*
G01*
X-191118500Y60241000D02*
X-190643500Y60241000D01*
G75*
G02*
X-190406000Y60003500I0J-237500D01*
G01*
X-190406000Y59503500D01*
G75*
G02*
X-190643500Y59266000I-237500J0D01*
G01*
X-191118500Y59266000D01*
G75*
G02*
X-191356000Y59503500I0J237500D01*
G01*
X-191356000Y60003500D01*
G75*
G02*
X-191118500Y60241000I237500J0D01*
G01*
G37*
G36*
G01*
X-191118500Y62066000D02*
X-190643500Y62066000D01*
G75*
G02*
X-190406000Y61828500I0J-237500D01*
G01*
X-190406000Y61328500D01*
G75*
G02*
X-190643500Y61091000I-237500J0D01*
G01*
X-191118500Y61091000D01*
G75*
G02*
X-191356000Y61328500I0J237500D01*
G01*
X-191356000Y61828500D01*
G75*
G02*
X-191118500Y62066000I237500J0D01*
G01*
G37*
%TD*%
%TO.C,R6*%
G36*
G01*
X-159595000Y109998500D02*
X-159595000Y110473500D01*
G75*
G02*
X-159357500Y110711000I237500J0D01*
G01*
X-158857500Y110711000D01*
G75*
G02*
X-158620000Y110473500I0J-237500D01*
G01*
X-158620000Y109998500D01*
G75*
G02*
X-158857500Y109761000I-237500J0D01*
G01*
X-159357500Y109761000D01*
G75*
G02*
X-159595000Y109998500I0J237500D01*
G01*
G37*
G36*
G01*
X-161420000Y109998500D02*
X-161420000Y110473500D01*
G75*
G02*
X-161182500Y110711000I237500J0D01*
G01*
X-160682500Y110711000D01*
G75*
G02*
X-160445000Y110473500I0J-237500D01*
G01*
X-160445000Y109998500D01*
G75*
G02*
X-160682500Y109761000I-237500J0D01*
G01*
X-161182500Y109761000D01*
G75*
G02*
X-161420000Y109998500I0J237500D01*
G01*
G37*
%TD*%
%TO.C,R4*%
G36*
G01*
X-194453500Y76030000D02*
X-194928500Y76030000D01*
G75*
G02*
X-195166000Y76267500I0J237500D01*
G01*
X-195166000Y76767500D01*
G75*
G02*
X-194928500Y77005000I237500J0D01*
G01*
X-194453500Y77005000D01*
G75*
G02*
X-194216000Y76767500I0J-237500D01*
G01*
X-194216000Y76267500D01*
G75*
G02*
X-194453500Y76030000I-237500J0D01*
G01*
G37*
G36*
G01*
X-194453500Y74205000D02*
X-194928500Y74205000D01*
G75*
G02*
X-195166000Y74442500I0J237500D01*
G01*
X-195166000Y74942500D01*
G75*
G02*
X-194928500Y75180000I237500J0D01*
G01*
X-194453500Y75180000D01*
G75*
G02*
X-194216000Y74942500I0J-237500D01*
G01*
X-194216000Y74442500D01*
G75*
G02*
X-194453500Y74205000I-237500J0D01*
G01*
G37*
%TD*%
%TO.C,R3*%
G36*
G01*
X-205025000Y63900500D02*
X-204550000Y63900500D01*
G75*
G02*
X-204312500Y63663000I0J-237500D01*
G01*
X-204312500Y63163000D01*
G75*
G02*
X-204550000Y62925500I-237500J0D01*
G01*
X-205025000Y62925500D01*
G75*
G02*
X-205262500Y63163000I0J237500D01*
G01*
X-205262500Y63663000D01*
G75*
G02*
X-205025000Y63900500I237500J0D01*
G01*
G37*
G36*
G01*
X-205025000Y65725500D02*
X-204550000Y65725500D01*
G75*
G02*
X-204312500Y65488000I0J-237500D01*
G01*
X-204312500Y64988000D01*
G75*
G02*
X-204550000Y64750500I-237500J0D01*
G01*
X-205025000Y64750500D01*
G75*
G02*
X-205262500Y64988000I0J237500D01*
G01*
X-205262500Y65488000D01*
G75*
G02*
X-205025000Y65725500I237500J0D01*
G01*
G37*
%TD*%
%TO.C,R2*%
G36*
G01*
X-196655700Y80283500D02*
X-196180700Y80283500D01*
G75*
G02*
X-195943200Y80046000I0J-237500D01*
G01*
X-195943200Y79546000D01*
G75*
G02*
X-196180700Y79308500I-237500J0D01*
G01*
X-196655700Y79308500D01*
G75*
G02*
X-196893200Y79546000I0J237500D01*
G01*
X-196893200Y80046000D01*
G75*
G02*
X-196655700Y80283500I237500J0D01*
G01*
G37*
G36*
G01*
X-196655700Y82108500D02*
X-196180700Y82108500D01*
G75*
G02*
X-195943200Y81871000I0J-237500D01*
G01*
X-195943200Y81371000D01*
G75*
G02*
X-196180700Y81133500I-237500J0D01*
G01*
X-196655700Y81133500D01*
G75*
G02*
X-196893200Y81371000I0J237500D01*
G01*
X-196893200Y81871000D01*
G75*
G02*
X-196655700Y82108500I237500J0D01*
G01*
G37*
%TD*%
%TO.C,R1*%
G36*
G01*
X-194478900Y81133500D02*
X-194953900Y81133500D01*
G75*
G02*
X-195191400Y81371000I0J237500D01*
G01*
X-195191400Y81871000D01*
G75*
G02*
X-194953900Y82108500I237500J0D01*
G01*
X-194478900Y82108500D01*
G75*
G02*
X-194241400Y81871000I0J-237500D01*
G01*
X-194241400Y81371000D01*
G75*
G02*
X-194478900Y81133500I-237500J0D01*
G01*
G37*
G36*
G01*
X-194478900Y79308500D02*
X-194953900Y79308500D01*
G75*
G02*
X-195191400Y79546000I0J237500D01*
G01*
X-195191400Y80046000D01*
G75*
G02*
X-194953900Y80283500I237500J0D01*
G01*
X-194478900Y80283500D01*
G75*
G02*
X-194241400Y80046000I0J-237500D01*
G01*
X-194241400Y79546000D01*
G75*
G02*
X-194478900Y79308500I-237500J0D01*
G01*
G37*
%TD*%
D24*
%TO.C,Q1*%
X-170688000Y110236000D03*
X-168148000Y110236000D03*
D25*
X-165608000Y110236000D03*
%TD*%
%TO.C,C18*%
G36*
G01*
X-174210000Y56468000D02*
X-174210000Y56943000D01*
G75*
G02*
X-173972500Y57180500I237500J0D01*
G01*
X-173372500Y57180500D01*
G75*
G02*
X-173135000Y56943000I0J-237500D01*
G01*
X-173135000Y56468000D01*
G75*
G02*
X-173372500Y56230500I-237500J0D01*
G01*
X-173972500Y56230500D01*
G75*
G02*
X-174210000Y56468000I0J237500D01*
G01*
G37*
G36*
G01*
X-175935000Y56468000D02*
X-175935000Y56943000D01*
G75*
G02*
X-175697500Y57180500I237500J0D01*
G01*
X-175097500Y57180500D01*
G75*
G02*
X-174860000Y56943000I0J-237500D01*
G01*
X-174860000Y56468000D01*
G75*
G02*
X-175097500Y56230500I-237500J0D01*
G01*
X-175697500Y56230500D01*
G75*
G02*
X-175935000Y56468000I0J237500D01*
G01*
G37*
%TD*%
%TO.C,C19*%
G36*
G01*
X-184197000Y65117000D02*
X-183722000Y65117000D01*
G75*
G02*
X-183484500Y64879500I0J-237500D01*
G01*
X-183484500Y64279500D01*
G75*
G02*
X-183722000Y64042000I-237500J0D01*
G01*
X-184197000Y64042000D01*
G75*
G02*
X-184434500Y64279500I0J237500D01*
G01*
X-184434500Y64879500D01*
G75*
G02*
X-184197000Y65117000I237500J0D01*
G01*
G37*
G36*
G01*
X-184197000Y66842000D02*
X-183722000Y66842000D01*
G75*
G02*
X-183484500Y66604500I0J-237500D01*
G01*
X-183484500Y66004500D01*
G75*
G02*
X-183722000Y65767000I-237500J0D01*
G01*
X-184197000Y65767000D01*
G75*
G02*
X-184434500Y66004500I0J237500D01*
G01*
X-184434500Y66604500D01*
G75*
G02*
X-184197000Y66842000I237500J0D01*
G01*
G37*
%TD*%
%TO.C,C17*%
G36*
G01*
X-185975000Y65117000D02*
X-185500000Y65117000D01*
G75*
G02*
X-185262500Y64879500I0J-237500D01*
G01*
X-185262500Y64279500D01*
G75*
G02*
X-185500000Y64042000I-237500J0D01*
G01*
X-185975000Y64042000D01*
G75*
G02*
X-186212500Y64279500I0J237500D01*
G01*
X-186212500Y64879500D01*
G75*
G02*
X-185975000Y65117000I237500J0D01*
G01*
G37*
G36*
G01*
X-185975000Y66842000D02*
X-185500000Y66842000D01*
G75*
G02*
X-185262500Y66604500I0J-237500D01*
G01*
X-185262500Y66004500D01*
G75*
G02*
X-185500000Y65767000I-237500J0D01*
G01*
X-185975000Y65767000D01*
G75*
G02*
X-186212500Y66004500I0J237500D01*
G01*
X-186212500Y66604500D01*
G75*
G02*
X-185975000Y66842000I237500J0D01*
G01*
G37*
%TD*%
%TO.C,C15*%
G36*
G01*
X-170426500Y56468000D02*
X-170426500Y56943000D01*
G75*
G02*
X-170189000Y57180500I237500J0D01*
G01*
X-169589000Y57180500D01*
G75*
G02*
X-169351500Y56943000I0J-237500D01*
G01*
X-169351500Y56468000D01*
G75*
G02*
X-169589000Y56230500I-237500J0D01*
G01*
X-170189000Y56230500D01*
G75*
G02*
X-170426500Y56468000I0J237500D01*
G01*
G37*
G36*
G01*
X-172151500Y56468000D02*
X-172151500Y56943000D01*
G75*
G02*
X-171914000Y57180500I237500J0D01*
G01*
X-171314000Y57180500D01*
G75*
G02*
X-171076500Y56943000I0J-237500D01*
G01*
X-171076500Y56468000D01*
G75*
G02*
X-171314000Y56230500I-237500J0D01*
G01*
X-171914000Y56230500D01*
G75*
G02*
X-172151500Y56468000I0J237500D01*
G01*
G37*
%TD*%
%TO.C,C14*%
G36*
G01*
X-192358000Y60941000D02*
X-192833000Y60941000D01*
G75*
G02*
X-193070500Y61178500I0J237500D01*
G01*
X-193070500Y61778500D01*
G75*
G02*
X-192833000Y62016000I237500J0D01*
G01*
X-192358000Y62016000D01*
G75*
G02*
X-192120500Y61778500I0J-237500D01*
G01*
X-192120500Y61178500D01*
G75*
G02*
X-192358000Y60941000I-237500J0D01*
G01*
G37*
G36*
G01*
X-192358000Y59216000D02*
X-192833000Y59216000D01*
G75*
G02*
X-193070500Y59453500I0J237500D01*
G01*
X-193070500Y60053500D01*
G75*
G02*
X-192833000Y60291000I237500J0D01*
G01*
X-192358000Y60291000D01*
G75*
G02*
X-192120500Y60053500I0J-237500D01*
G01*
X-192120500Y59453500D01*
G75*
G02*
X-192358000Y59216000I-237500J0D01*
G01*
G37*
%TD*%
%TO.C,C13*%
G36*
G01*
X-167814000Y57116000D02*
X-167339000Y57116000D01*
G75*
G02*
X-167101500Y56878500I0J-237500D01*
G01*
X-167101500Y56278500D01*
G75*
G02*
X-167339000Y56041000I-237500J0D01*
G01*
X-167814000Y56041000D01*
G75*
G02*
X-168051500Y56278500I0J237500D01*
G01*
X-168051500Y56878500D01*
G75*
G02*
X-167814000Y57116000I237500J0D01*
G01*
G37*
G36*
G01*
X-167814000Y58841000D02*
X-167339000Y58841000D01*
G75*
G02*
X-167101500Y58603500I0J-237500D01*
G01*
X-167101500Y58003500D01*
G75*
G02*
X-167339000Y57766000I-237500J0D01*
G01*
X-167814000Y57766000D01*
G75*
G02*
X-168051500Y58003500I0J237500D01*
G01*
X-168051500Y58603500D01*
G75*
G02*
X-167814000Y58841000I237500J0D01*
G01*
G37*
%TD*%
D26*
%TO.C,C12*%
X-163544000Y101854000D03*
D13*
X-161544000Y101854000D03*
%TD*%
D26*
%TO.C,C11*%
X-140748000Y101854000D03*
D13*
X-142748000Y101854000D03*
%TD*%
%TO.C,C10*%
G36*
G01*
X-199533500Y84145000D02*
X-200008500Y84145000D01*
G75*
G02*
X-200246000Y84382500I0J237500D01*
G01*
X-200246000Y84982500D01*
G75*
G02*
X-200008500Y85220000I237500J0D01*
G01*
X-199533500Y85220000D01*
G75*
G02*
X-199296000Y84982500I0J-237500D01*
G01*
X-199296000Y84382500D01*
G75*
G02*
X-199533500Y84145000I-237500J0D01*
G01*
G37*
G36*
G01*
X-199533500Y82420000D02*
X-200008500Y82420000D01*
G75*
G02*
X-200246000Y82657500I0J237500D01*
G01*
X-200246000Y83257500D01*
G75*
G02*
X-200008500Y83495000I237500J0D01*
G01*
X-199533500Y83495000D01*
G75*
G02*
X-199296000Y83257500I0J-237500D01*
G01*
X-199296000Y82657500D01*
G75*
G02*
X-199533500Y82420000I-237500J0D01*
G01*
G37*
%TD*%
%TO.C,C9*%
G36*
G01*
X-196295000Y75953500D02*
X-196770000Y75953500D01*
G75*
G02*
X-197007500Y76191000I0J237500D01*
G01*
X-197007500Y76791000D01*
G75*
G02*
X-196770000Y77028500I237500J0D01*
G01*
X-196295000Y77028500D01*
G75*
G02*
X-196057500Y76791000I0J-237500D01*
G01*
X-196057500Y76191000D01*
G75*
G02*
X-196295000Y75953500I-237500J0D01*
G01*
G37*
G36*
G01*
X-196295000Y74228500D02*
X-196770000Y74228500D01*
G75*
G02*
X-197007500Y74466000I0J237500D01*
G01*
X-197007500Y75066000D01*
G75*
G02*
X-196770000Y75303500I237500J0D01*
G01*
X-196295000Y75303500D01*
G75*
G02*
X-196057500Y75066000I0J-237500D01*
G01*
X-196057500Y74466000D01*
G75*
G02*
X-196295000Y74228500I-237500J0D01*
G01*
G37*
%TD*%
%TO.C,C8*%
G36*
G01*
X-195596500Y87981500D02*
X-196071500Y87981500D01*
G75*
G02*
X-196309000Y88219000I0J237500D01*
G01*
X-196309000Y88819000D01*
G75*
G02*
X-196071500Y89056500I237500J0D01*
G01*
X-195596500Y89056500D01*
G75*
G02*
X-195359000Y88819000I0J-237500D01*
G01*
X-195359000Y88219000D01*
G75*
G02*
X-195596500Y87981500I-237500J0D01*
G01*
G37*
G36*
G01*
X-195596500Y86256500D02*
X-196071500Y86256500D01*
G75*
G02*
X-196309000Y86494000I0J237500D01*
G01*
X-196309000Y87094000D01*
G75*
G02*
X-196071500Y87331500I237500J0D01*
G01*
X-195596500Y87331500D01*
G75*
G02*
X-195359000Y87094000I0J-237500D01*
G01*
X-195359000Y86494000D01*
G75*
G02*
X-195596500Y86256500I-237500J0D01*
G01*
G37*
%TD*%
D26*
%TO.C,C7*%
X-208463000Y63436500D03*
D13*
X-211963000Y63436500D03*
%TD*%
%TO.C,C6*%
G36*
G01*
X-143868900Y83332300D02*
X-143868900Y84282300D01*
G75*
G02*
X-143618900Y84532300I250000J0D01*
G01*
X-142943900Y84532300D01*
G75*
G02*
X-142693900Y84282300I0J-250000D01*
G01*
X-142693900Y83332300D01*
G75*
G02*
X-142943900Y83082300I-250000J0D01*
G01*
X-143618900Y83082300D01*
G75*
G02*
X-143868900Y83332300I0J250000D01*
G01*
G37*
G36*
G01*
X-145943900Y83332300D02*
X-145943900Y84282300D01*
G75*
G02*
X-145693900Y84532300I250000J0D01*
G01*
X-145018900Y84532300D01*
G75*
G02*
X-144768900Y84282300I0J-250000D01*
G01*
X-144768900Y83332300D01*
G75*
G02*
X-145018900Y83082300I-250000J0D01*
G01*
X-145693900Y83082300D01*
G75*
G02*
X-145943900Y83332300I0J250000D01*
G01*
G37*
%TD*%
%TO.C,C5*%
G36*
G01*
X-149091700Y83994000D02*
X-149091700Y83519000D01*
G75*
G02*
X-149329200Y83281500I-237500J0D01*
G01*
X-149929200Y83281500D01*
G75*
G02*
X-150166700Y83519000I0J237500D01*
G01*
X-150166700Y83994000D01*
G75*
G02*
X-149929200Y84231500I237500J0D01*
G01*
X-149329200Y84231500D01*
G75*
G02*
X-149091700Y83994000I0J-237500D01*
G01*
G37*
G36*
G01*
X-147366700Y83994000D02*
X-147366700Y83519000D01*
G75*
G02*
X-147604200Y83281500I-237500J0D01*
G01*
X-148204200Y83281500D01*
G75*
G02*
X-148441700Y83519000I0J237500D01*
G01*
X-148441700Y83994000D01*
G75*
G02*
X-148204200Y84231500I237500J0D01*
G01*
X-147604200Y84231500D01*
G75*
G02*
X-147366700Y83994000I0J-237500D01*
G01*
G37*
%TD*%
%TO.C,C2*%
G36*
G01*
X-205914000Y84728000D02*
X-205439000Y84728000D01*
G75*
G02*
X-205201500Y84490500I0J-237500D01*
G01*
X-205201500Y83890500D01*
G75*
G02*
X-205439000Y83653000I-237500J0D01*
G01*
X-205914000Y83653000D01*
G75*
G02*
X-206151500Y83890500I0J237500D01*
G01*
X-206151500Y84490500D01*
G75*
G02*
X-205914000Y84728000I237500J0D01*
G01*
G37*
G36*
G01*
X-205914000Y86453000D02*
X-205439000Y86453000D01*
G75*
G02*
X-205201500Y86215500I0J-237500D01*
G01*
X-205201500Y85615500D01*
G75*
G02*
X-205439000Y85378000I-237500J0D01*
G01*
X-205914000Y85378000D01*
G75*
G02*
X-206151500Y85615500I0J237500D01*
G01*
X-206151500Y86215500D01*
G75*
G02*
X-205914000Y86453000I237500J0D01*
G01*
G37*
%TD*%
D16*
%TO.C,C3*%
X-159258000Y118618000D03*
D17*
X-164258000Y118618000D03*
%TD*%
%TO.C,C4*%
G36*
G01*
X-212246500Y71136500D02*
X-212246500Y71611500D01*
G75*
G02*
X-212009000Y71849000I237500J0D01*
G01*
X-211409000Y71849000D01*
G75*
G02*
X-211171500Y71611500I0J-237500D01*
G01*
X-211171500Y71136500D01*
G75*
G02*
X-211409000Y70899000I-237500J0D01*
G01*
X-212009000Y70899000D01*
G75*
G02*
X-212246500Y71136500I0J237500D01*
G01*
G37*
G36*
G01*
X-213971500Y71136500D02*
X-213971500Y71611500D01*
G75*
G02*
X-213734000Y71849000I237500J0D01*
G01*
X-213134000Y71849000D01*
G75*
G02*
X-212896500Y71611500I0J-237500D01*
G01*
X-212896500Y71136500D01*
G75*
G02*
X-213134000Y70899000I-237500J0D01*
G01*
X-213734000Y70899000D01*
G75*
G02*
X-213971500Y71136500I0J237500D01*
G01*
G37*
%TD*%
%TO.C,R5*%
G36*
G01*
X-201977000Y83331500D02*
X-201502000Y83331500D01*
G75*
G02*
X-201264500Y83094000I0J-237500D01*
G01*
X-201264500Y82594000D01*
G75*
G02*
X-201502000Y82356500I-237500J0D01*
G01*
X-201977000Y82356500D01*
G75*
G02*
X-202214500Y82594000I0J237500D01*
G01*
X-202214500Y83094000D01*
G75*
G02*
X-201977000Y83331500I237500J0D01*
G01*
G37*
G36*
G01*
X-201977000Y85156500D02*
X-201502000Y85156500D01*
G75*
G02*
X-201264500Y84919000I0J-237500D01*
G01*
X-201264500Y84419000D01*
G75*
G02*
X-201502000Y84181500I-237500J0D01*
G01*
X-201977000Y84181500D01*
G75*
G02*
X-202214500Y84419000I0J237500D01*
G01*
X-202214500Y84919000D01*
G75*
G02*
X-201977000Y85156500I237500J0D01*
G01*
G37*
%TD*%
M02*
