%TF.GenerationSoftware,KiCad,Pcbnew,5.1.10*%
%TF.CreationDate,2021-11-24T03:02:33+13:00*%
%TF.ProjectId,buck_converter,6275636b-5f63-46f6-9e76-65727465722e,rev?*%
%TF.SameCoordinates,Original*%
%TF.FileFunction,Legend,Bot*%
%TF.FilePolarity,Positive*%
%FSLAX46Y46*%
G04 Gerber Fmt 4.6, Leading zero omitted, Abs format (unit mm)*
G04 Created by KiCad (PCBNEW 5.1.10) date 2021-11-24 03:02:33*
%MOMM*%
%LPD*%
G01*
G04 APERTURE LIST*
%ADD10C,0.200000*%
G04 APERTURE END LIST*
D10*
X-178696535Y57894857D02*
X-178901892Y57823428D01*
X-179259035Y57823428D01*
X-179410821Y57894857D01*
X-179491178Y57966285D01*
X-179580464Y58109142D01*
X-179598321Y58252000D01*
X-179544750Y58394857D01*
X-179482250Y58466285D01*
X-179348321Y58537714D01*
X-179071535Y58609142D01*
X-178937607Y58680571D01*
X-178875107Y58752000D01*
X-178821535Y58894857D01*
X-178839392Y59037714D01*
X-178928678Y59180571D01*
X-179009035Y59252000D01*
X-179160821Y59323428D01*
X-179517964Y59323428D01*
X-179723321Y59252000D01*
X-180767964Y57894857D02*
X-180616178Y57823428D01*
X-180330464Y57823428D01*
X-180196535Y57894857D01*
X-180142964Y58037714D01*
X-180214392Y58609142D01*
X-180303678Y58752000D01*
X-180455464Y58823428D01*
X-180741178Y58823428D01*
X-180875107Y58752000D01*
X-180928678Y58609142D01*
X-180910821Y58466285D01*
X-180178678Y58323428D01*
X-181687607Y57823428D02*
X-181553678Y57894857D01*
X-181500107Y58037714D01*
X-181660821Y59323428D01*
X-182169749Y58823428D02*
X-182741178Y58823428D01*
X-182259035Y57823428D02*
X-182419749Y59109142D01*
X-182509035Y59252000D01*
X-182660821Y59323428D01*
X-182803678Y59323428D01*
X-184232249Y59323428D02*
X-185089392Y59323428D01*
X-184473321Y57823428D02*
X-184660821Y59323428D01*
X-186169749Y58823428D02*
X-186044749Y57823428D01*
X-185526892Y58823428D02*
X-185428678Y58037714D01*
X-185482249Y57894857D01*
X-185616178Y57823428D01*
X-185830464Y57823428D01*
X-185982249Y57894857D01*
X-186062607Y57966285D01*
X-186884035Y58823428D02*
X-186759035Y57823428D01*
X-186866178Y58680571D02*
X-186946535Y58752000D01*
X-187098321Y58823428D01*
X-187312607Y58823428D01*
X-187446535Y58752000D01*
X-187500107Y58609142D01*
X-187401892Y57823428D01*
X-188116178Y57823428D02*
X-188241178Y58823428D01*
X-188303678Y59323428D02*
X-188223321Y59252000D01*
X-188285821Y59180571D01*
X-188366178Y59252000D01*
X-188303678Y59323428D01*
X-188285821Y59180571D01*
X-188955464Y58823428D02*
X-188830464Y57823428D01*
X-188937607Y58680571D02*
X-189017964Y58752000D01*
X-189169749Y58823428D01*
X-189384035Y58823428D01*
X-189517964Y58752000D01*
X-189571535Y58609142D01*
X-189473321Y57823428D01*
X-190955464Y58823428D02*
X-190803678Y57609142D01*
X-190714392Y57466285D01*
X-190634035Y57394857D01*
X-190482249Y57323428D01*
X-190267964Y57323428D01*
X-190134035Y57394857D01*
X-190839392Y57894857D02*
X-190687607Y57823428D01*
X-190401892Y57823428D01*
X-190267964Y57894857D01*
X-190205464Y57966285D01*
X-190151892Y58109142D01*
X-190205464Y58537714D01*
X-190294749Y58680571D01*
X-190375107Y58752000D01*
X-190526892Y58823428D01*
X-190812607Y58823428D01*
X-190946535Y58752000D01*
X-193285821Y58609142D02*
X-193491178Y58537714D01*
X-193553678Y58466285D01*
X-193607249Y58323428D01*
X-193580464Y58109142D01*
X-193491178Y57966285D01*
X-193410821Y57894857D01*
X-193259035Y57823428D01*
X-192687607Y57823428D01*
X-192875107Y59323428D01*
X-193375107Y59323428D01*
X-193509035Y59252000D01*
X-193571535Y59180571D01*
X-193625107Y59037714D01*
X-193607249Y58894857D01*
X-193517964Y58752000D01*
X-193437607Y58680571D01*
X-193285821Y58609142D01*
X-192785821Y58609142D01*
X-194955464Y58823428D02*
X-194830464Y57823428D01*
X-194312607Y58823428D02*
X-194214392Y58037714D01*
X-194267964Y57894857D01*
X-194401892Y57823428D01*
X-194616178Y57823428D01*
X-194767964Y57894857D01*
X-194848321Y57966285D01*
X-196196535Y57894857D02*
X-196044749Y57823428D01*
X-195759035Y57823428D01*
X-195625107Y57894857D01*
X-195562607Y57966285D01*
X-195509035Y58109142D01*
X-195562607Y58537714D01*
X-195651892Y58680571D01*
X-195732249Y58752000D01*
X-195884035Y58823428D01*
X-196169749Y58823428D01*
X-196303678Y58752000D01*
X-196830464Y57823428D02*
X-197017964Y59323428D01*
X-197044749Y58394857D02*
X-197401892Y57823428D01*
X-197526892Y58823428D02*
X-196884035Y58252000D01*
X-200062607Y57966285D02*
X-199982249Y57894857D01*
X-199759035Y57823428D01*
X-199616178Y57823428D01*
X-199410821Y57894857D01*
X-199285821Y58037714D01*
X-199232249Y58180571D01*
X-199196535Y58466285D01*
X-199223321Y58680571D01*
X-199330464Y58966285D01*
X-199419749Y59109142D01*
X-199580464Y59252000D01*
X-199803678Y59323428D01*
X-199946535Y59323428D01*
X-200151892Y59252000D01*
X-200214392Y59180571D01*
X-200901892Y57823428D02*
X-200767964Y57894857D01*
X-200705464Y57966285D01*
X-200651892Y58109142D01*
X-200705464Y58537714D01*
X-200794749Y58680571D01*
X-200875107Y58752000D01*
X-201026892Y58823428D01*
X-201241178Y58823428D01*
X-201375107Y58752000D01*
X-201437607Y58680571D01*
X-201491178Y58537714D01*
X-201437607Y58109142D01*
X-201348321Y57966285D01*
X-201267964Y57894857D01*
X-201116178Y57823428D01*
X-200901892Y57823428D01*
X-202169749Y58823428D02*
X-202044749Y57823428D01*
X-202151892Y58680571D02*
X-202232249Y58752000D01*
X-202384035Y58823428D01*
X-202598321Y58823428D01*
X-202732249Y58752000D01*
X-202785821Y58609142D01*
X-202687607Y57823428D01*
X-203384035Y58823428D02*
X-203616178Y57823428D01*
X-204098321Y58823428D01*
X-205125107Y57894857D02*
X-204973321Y57823428D01*
X-204687607Y57823428D01*
X-204553678Y57894857D01*
X-204500107Y58037714D01*
X-204571535Y58609142D01*
X-204660821Y58752000D01*
X-204812607Y58823428D01*
X-205098321Y58823428D01*
X-205232249Y58752000D01*
X-205285821Y58609142D01*
X-205267964Y58466285D01*
X-204535821Y58323428D01*
X-205830464Y57823428D02*
X-205955464Y58823428D01*
X-205919749Y58537714D02*
X-206009035Y58680571D01*
X-206089392Y58752000D01*
X-206241178Y58823428D01*
X-206384035Y58823428D01*
X-206669749Y58823428D02*
X-207241178Y58823428D01*
X-206946535Y59323428D02*
X-206785821Y58037714D01*
X-206839392Y57894857D01*
X-206973321Y57823428D01*
X-207116178Y57823428D01*
X-208196535Y57894857D02*
X-208044749Y57823428D01*
X-207759035Y57823428D01*
X-207625107Y57894857D01*
X-207571535Y58037714D01*
X-207642964Y58609142D01*
X-207732249Y58752000D01*
X-207884035Y58823428D01*
X-208169749Y58823428D01*
X-208303678Y58752000D01*
X-208357249Y58609142D01*
X-208339392Y58466285D01*
X-207607249Y58323428D01*
X-208901892Y57823428D02*
X-209026892Y58823428D01*
X-208991178Y58537714D02*
X-209080464Y58680571D01*
X-209160821Y58752000D01*
X-209312607Y58823428D01*
X-209455464Y58823428D01*
X-211830464Y57823428D02*
X-211419749Y58537714D01*
X-210973321Y57823428D02*
X-211160821Y59323428D01*
X-211732249Y59323428D01*
X-211866178Y59252000D01*
X-211928678Y59180571D01*
X-211982249Y59037714D01*
X-211955464Y58823428D01*
X-211866178Y58680571D01*
X-211785821Y58609142D01*
X-211634035Y58537714D01*
X-211062607Y58537714D01*
X-213053678Y57894857D02*
X-212901892Y57823428D01*
X-212616178Y57823428D01*
X-212482249Y57894857D01*
X-212428678Y58037714D01*
X-212500107Y58609142D01*
X-212589392Y58752000D01*
X-212741178Y58823428D01*
X-213026892Y58823428D01*
X-213160821Y58752000D01*
X-213214392Y58609142D01*
X-213196535Y58466285D01*
X-212464392Y58323428D01*
X-213741178Y58823428D02*
X-213973321Y57823428D01*
X-214455464Y58823428D01*
X-216830464Y57823428D02*
X-215973321Y57823428D01*
X-216401892Y57823428D02*
X-216589392Y59323428D01*
X-216419749Y59109142D01*
X-216259035Y58966285D01*
X-216107249Y58894857D01*
X-202401892Y55373428D02*
X-202589392Y56873428D01*
X-203259035Y55373428D01*
X-203446535Y56873428D01*
X-203973321Y55373428D02*
X-204098321Y56373428D01*
X-204160821Y56873428D02*
X-204080464Y56802000D01*
X-204142964Y56730571D01*
X-204223321Y56802000D01*
X-204160821Y56873428D01*
X-204142964Y56730571D01*
X-205267964Y55444857D02*
X-205116178Y55373428D01*
X-204830464Y55373428D01*
X-204696535Y55444857D01*
X-204642964Y55587714D01*
X-204714392Y56159142D01*
X-204803678Y56302000D01*
X-204955464Y56373428D01*
X-205241178Y56373428D01*
X-205375107Y56302000D01*
X-205428678Y56159142D01*
X-205410821Y56016285D01*
X-204678678Y55873428D01*
X-206187607Y55373428D02*
X-206053678Y55444857D01*
X-206000107Y55587714D01*
X-206160821Y56873428D01*
X-206696535Y55444857D02*
X-206830464Y55373428D01*
X-207116178Y55373428D01*
X-207267964Y55444857D01*
X-207357250Y55587714D01*
X-207366178Y55659142D01*
X-207312607Y55802000D01*
X-207178678Y55873428D01*
X-206964392Y55873428D01*
X-206830464Y55944857D01*
X-206776892Y56087714D01*
X-206785821Y56159142D01*
X-206875107Y56302000D01*
X-207026892Y56373428D01*
X-207241178Y56373428D01*
X-207375107Y56302000D01*
X-209991178Y55516285D02*
X-209910821Y55444857D01*
X-209687607Y55373428D01*
X-209544750Y55373428D01*
X-209339392Y55444857D01*
X-209214392Y55587714D01*
X-209160821Y55730571D01*
X-209125107Y56016285D01*
X-209151892Y56230571D01*
X-209259035Y56516285D01*
X-209348321Y56659142D01*
X-209509035Y56802000D01*
X-209732250Y56873428D01*
X-209875107Y56873428D01*
X-210080464Y56802000D01*
X-210142964Y56730571D01*
X-210830464Y55373428D02*
X-210696535Y55444857D01*
X-210642964Y55587714D01*
X-210803678Y56873428D01*
X-212044750Y55373428D02*
X-212142964Y56159142D01*
X-212089392Y56302000D01*
X-211955464Y56373428D01*
X-211669750Y56373428D01*
X-211517964Y56302000D01*
X-212053678Y55444857D02*
X-211901892Y55373428D01*
X-211544750Y55373428D01*
X-211410821Y55444857D01*
X-211357250Y55587714D01*
X-211375107Y55730571D01*
X-211464392Y55873428D01*
X-211616178Y55944857D01*
X-211973321Y55944857D01*
X-212125107Y56016285D01*
X-212741178Y56373428D02*
X-212973321Y55373428D01*
X-213455464Y56373428D02*
X-212973321Y55373428D01*
X-212785821Y55016285D01*
X-212705464Y54944857D01*
X-212553678Y54873428D01*
X-213812607Y56373428D02*
X-214384035Y56373428D01*
X-214089392Y56873428D02*
X-213928678Y55587714D01*
X-213982250Y55444857D01*
X-214116178Y55373428D01*
X-214259035Y55373428D01*
X-214973321Y55373428D02*
X-214839392Y55444857D01*
X-214776892Y55516285D01*
X-214723321Y55659142D01*
X-214776892Y56087714D01*
X-214866178Y56230571D01*
X-214946535Y56302000D01*
X-215098321Y56373428D01*
X-215312607Y56373428D01*
X-215446535Y56302000D01*
X-215509035Y56230571D01*
X-215562607Y56087714D01*
X-215509035Y55659142D01*
X-215419750Y55516285D01*
X-215339392Y55444857D01*
X-215187607Y55373428D01*
X-214973321Y55373428D01*
X-216241178Y56373428D02*
X-216116178Y55373428D01*
X-216223321Y56230571D02*
X-216303678Y56302000D01*
X-216455464Y56373428D01*
X-216669750Y56373428D01*
X-216803678Y56302000D01*
X-216857250Y56159142D01*
X-216759035Y55373428D01*
M02*
