%TF.GenerationSoftware,KiCad,Pcbnew,5.1.10*%
%TF.CreationDate,2021-11-24T02:21:54+13:00*%
%TF.ProjectId,buck_converter,6275636b-5f63-46f6-9e76-65727465722e,rev?*%
%TF.SameCoordinates,Original*%
%TF.FileFunction,Copper,L2,Bot*%
%TF.FilePolarity,Positive*%
%FSLAX46Y46*%
G04 Gerber Fmt 4.6, Leading zero omitted, Abs format (unit mm)*
G04 Created by KiCad (PCBNEW 5.1.10) date 2021-11-24 02:21:54*
%MOMM*%
%LPD*%
G01*
G04 APERTURE LIST*
%TA.AperFunction,ComponentPad*%
%ADD10C,1.560000*%
%TD*%
%TA.AperFunction,ComponentPad*%
%ADD11R,1.560000X1.560000*%
%TD*%
%TA.AperFunction,ComponentPad*%
%ADD12O,1.600000X1.600000*%
%TD*%
%TA.AperFunction,ComponentPad*%
%ADD13R,1.600000X1.600000*%
%TD*%
%TA.AperFunction,ComponentPad*%
%ADD14C,2.400000*%
%TD*%
%TA.AperFunction,ComponentPad*%
%ADD15R,2.400000X2.400000*%
%TD*%
%TA.AperFunction,ComponentPad*%
%ADD16C,2.000000*%
%TD*%
%TA.AperFunction,ComponentPad*%
%ADD17R,2.000000X2.000000*%
%TD*%
%TA.AperFunction,ComponentPad*%
%ADD18C,0.800000*%
%TD*%
%TA.AperFunction,ComponentPad*%
%ADD19C,7.000000*%
%TD*%
%TA.AperFunction,ComponentPad*%
%ADD20C,1.590000*%
%TD*%
%TA.AperFunction,ComponentPad*%
%ADD21O,1.800000X1.800000*%
%TD*%
%TA.AperFunction,ComponentPad*%
%ADD22R,1.800000X1.800000*%
%TD*%
%TA.AperFunction,ComponentPad*%
%ADD23C,1.440000*%
%TD*%
%TA.AperFunction,ComponentPad*%
%ADD24O,1.905000X2.000000*%
%TD*%
%TA.AperFunction,ComponentPad*%
%ADD25R,1.905000X2.000000*%
%TD*%
%TA.AperFunction,ComponentPad*%
%ADD26C,1.600000*%
%TD*%
%TA.AperFunction,ViaPad*%
%ADD27C,0.800000*%
%TD*%
%TA.AperFunction,Conductor*%
%ADD28C,0.250000*%
%TD*%
%TA.AperFunction,Conductor*%
%ADD29C,1.500000*%
%TD*%
%TA.AperFunction,Conductor*%
%ADD30C,0.500000*%
%TD*%
%TA.AperFunction,Conductor*%
%ADD31C,0.800000*%
%TD*%
%TA.AperFunction,Conductor*%
%ADD32C,0.254000*%
%TD*%
%TA.AperFunction,Conductor*%
%ADD33C,0.100000*%
%TD*%
%TA.AperFunction,Conductor*%
%ADD34C,0.025400*%
%TD*%
G04 APERTURE END LIST*
D10*
%TO.P,U6,38*%
%TO.N,Net-(U6-Pad38)*%
X-132016500Y79946500D03*
%TO.P,U6,37*%
%TO.N,Net-(U6-Pad37)*%
X-134556500Y79946500D03*
%TO.P,U6,36*%
%TO.N,Net-(U6-Pad36)*%
X-137096500Y79946500D03*
%TO.P,U6,35*%
%TO.N,Net-(U6-Pad35)*%
X-139636500Y79946500D03*
%TO.P,U6,34*%
%TO.N,Net-(U6-Pad34)*%
X-142176500Y79946500D03*
%TO.P,U6,33*%
%TO.N,Net-(U6-Pad33)*%
X-144716500Y79946500D03*
%TO.P,U6,32*%
%TO.N,Net-(U6-Pad32)*%
X-147256500Y79946500D03*
%TO.P,U6,31*%
%TO.N,Net-(U6-Pad31)*%
X-149796500Y79946500D03*
%TO.P,U6,30*%
%TO.N,Net-(U6-Pad30)*%
X-152336500Y79946500D03*
%TO.P,U6,29*%
%TO.N,Net-(U6-Pad29)*%
X-154876500Y79946500D03*
%TO.P,U6,28*%
%TO.N,Net-(U6-Pad28)*%
X-157416500Y79946500D03*
%TO.P,U6,27*%
%TO.N,Net-(U6-Pad27)*%
X-159956500Y79946500D03*
%TO.P,U6,26*%
%TO.N,GNDD*%
X-162496500Y79946500D03*
%TO.P,U6,25*%
%TO.N,Net-(U6-Pad25)*%
X-165036500Y79946500D03*
%TO.P,U6,24*%
%TO.N,Net-(U6-Pad24)*%
X-167576500Y79946500D03*
%TO.P,U6,23*%
%TO.N,Net-(U6-Pad23)*%
X-170116500Y79946500D03*
%TO.P,U6,22*%
%TO.N,Net-(U6-Pad22)*%
X-172656500Y79946500D03*
%TO.P,U6,21*%
%TO.N,Net-(U6-Pad21)*%
X-175196500Y79946500D03*
%TO.P,U6,20*%
%TO.N,GNDD*%
X-177736500Y79946500D03*
%TO.P,U6,18*%
%TO.N,Net-(U6-Pad18)*%
X-134556500Y54546500D03*
%TO.P,U6,17*%
%TO.N,Net-(U6-Pad17)*%
X-137096500Y54546500D03*
%TO.P,U6,16*%
%TO.N,Net-(U6-Pad16)*%
X-139636500Y54546500D03*
%TO.P,U6,15*%
%TO.N,Net-(U6-Pad15)*%
X-142176500Y54546500D03*
%TO.P,U6,14*%
%TO.N,GNDD*%
X-144716500Y54546500D03*
%TO.P,U6,13*%
%TO.N,Net-(U6-Pad13)*%
X-147256500Y54546500D03*
%TO.P,U6,12*%
%TO.N,Net-(U6-Pad12)*%
X-149796500Y54546500D03*
%TO.P,U6,11*%
%TO.N,PWM*%
X-152336500Y54546500D03*
%TO.P,U6,10*%
%TO.N,SDA*%
X-154876500Y54546500D03*
%TO.P,U6,9*%
%TO.N,SCL*%
X-157416500Y54546500D03*
%TO.P,U6,8*%
%TO.N,Net-(U6-Pad8)*%
X-159956500Y54546500D03*
%TO.P,U6,7*%
%TO.N,Net-(U6-Pad7)*%
X-162496500Y54546500D03*
%TO.P,U6,6*%
%TO.N,Net-(U6-Pad6)*%
X-165036500Y54546500D03*
%TO.P,U6,5*%
%TO.N,Avg_voltage*%
X-167576500Y54546500D03*
%TO.P,U6,4*%
%TO.N,V_supply*%
X-170116500Y54546500D03*
%TO.P,U6,3*%
%TO.N,load_sense*%
X-172656500Y54546500D03*
%TO.P,U6,19*%
%TO.N,+5V*%
X-132016500Y54546500D03*
%TO.P,U6,2*%
%TO.N,Net-(U6-Pad2)*%
X-175196500Y54546500D03*
D11*
%TO.P,U6,1*%
%TO.N,Net-(U6-Pad1)*%
X-177736500Y54546500D03*
%TD*%
D12*
%TO.P,U1,14*%
%TO.N,N/C*%
X-184607200Y86702900D03*
%TO.P,U1,7*%
%TO.N,Pk_voltage*%
X-192227200Y71462900D03*
%TO.P,U1,13*%
%TO.N,N/C*%
X-184607200Y84162900D03*
%TO.P,U1,6*%
%TO.N,Pk_voltage*%
X-192227200Y74002900D03*
%TO.P,U1,12*%
%TO.N,N/C*%
X-184607200Y81622900D03*
%TO.P,U1,5*%
%TO.N,Net-(C9-Pad2)*%
X-192227200Y76542900D03*
%TO.P,U1,11*%
%TO.N,+12V*%
X-184607200Y79082900D03*
%TO.P,U1,4*%
%TO.N,GNDD*%
X-192227200Y79082900D03*
%TO.P,U1,10*%
%TO.N,N/C*%
X-184607200Y76542900D03*
%TO.P,U1,3*%
%TO.N,Net-(R1-Pad2)*%
X-192227200Y81622900D03*
%TO.P,U1,9*%
%TO.N,N/C*%
X-184607200Y74002900D03*
%TO.P,U1,2*%
%TO.N,Net-(R13-Pad2)*%
X-192227200Y84162900D03*
%TO.P,U1,8*%
%TO.N,N/C*%
X-184607200Y71462900D03*
D13*
%TO.P,U1,1*%
%TO.N,Net-(R13-Pad2)*%
X-192227200Y86702900D03*
%TD*%
D14*
%TO.P,C16,2*%
%TO.N,GND*%
X-210629500Y111379000D03*
D15*
%TO.P,C16,1*%
%TO.N,V_load*%
X-198120000Y111379000D03*
D16*
%TO.P,C16,2*%
%TO.N,GND*%
X-205700000Y111379000D03*
D17*
%TO.P,C16,1*%
%TO.N,V_load*%
X-203200000Y111379000D03*
D15*
X-200660000Y111379000D03*
D14*
%TO.P,C16,2*%
%TO.N,GND*%
X-208160000Y111379000D03*
%TD*%
D18*
%TO.P,OUT  -,1*%
%TO.N,GND*%
X-211249845Y129618155D03*
X-213106000Y130387000D03*
X-214962155Y129618155D03*
X-215731000Y127762000D03*
X-214962155Y125905845D03*
X-213106000Y125137000D03*
X-211249845Y125905845D03*
X-210481000Y127762000D03*
D19*
X-213106000Y127762000D03*
%TD*%
D18*
%TO.P,OUT +,1*%
%TO.N,V_load*%
X-198803845Y129618155D03*
X-200660000Y130387000D03*
X-202516155Y129618155D03*
X-203285000Y127762000D03*
X-202516155Y125905845D03*
X-200660000Y125137000D03*
X-198803845Y125905845D03*
X-198035000Y127762000D03*
D19*
X-200660000Y127762000D03*
%TD*%
D18*
%TO.P,IN +,1*%
%TO.N,+12V*%
X-166291845Y129872155D03*
X-168148000Y130641000D03*
X-170004155Y129872155D03*
X-170773000Y128016000D03*
X-170004155Y126159845D03*
X-168148000Y125391000D03*
X-166291845Y126159845D03*
X-165523000Y128016000D03*
D19*
X-168148000Y128016000D03*
%TD*%
D18*
%TO.P,IN -,1*%
%TO.N,GND*%
X-153083845Y129872155D03*
X-154940000Y130641000D03*
X-156796155Y129872155D03*
X-157565000Y128016000D03*
X-156796155Y126159845D03*
X-154940000Y125391000D03*
X-153083845Y126159845D03*
X-152315000Y128016000D03*
D19*
X-154940000Y128016000D03*
%TD*%
D20*
%TO.P,INDUCTOR,2*%
%TO.N,/sen_p*%
X-190500000Y110236000D03*
%TO.P,INDUCTOR,1*%
%TO.N,Net-(C12-Pad2)*%
X-177546000Y110236000D03*
%TD*%
D21*
%TO.P,D3,2*%
%TO.N,GND*%
X-170688000Y96012000D03*
D22*
%TO.P,D3,1*%
%TO.N,Net-(C12-Pad2)*%
X-170688000Y103632000D03*
%TD*%
D21*
%TO.P,D2,2*%
%TO.N,+12V*%
X-147828000Y97028000D03*
D22*
%TO.P,D2,1*%
%TO.N,Net-(C12-Pad1)*%
X-155448000Y97028000D03*
%TD*%
D23*
%TO.P,RV1,3*%
%TO.N,Net-(RV1-Pad3)*%
X-200787000Y79057500D03*
%TO.P,RV1,2*%
%TO.N,Net-(C9-Pad2)*%
X-200787000Y76517500D03*
%TO.P,RV1,1*%
%TO.N,Net-(D1-Pad1)*%
X-200787000Y73977500D03*
%TD*%
D12*
%TO.P,D1,2*%
%TO.N,Net-(D1-Pad2)*%
X-206692500Y70929500D03*
D13*
%TO.P,D1,1*%
%TO.N,Net-(D1-Pad1)*%
X-199072500Y70929500D03*
%TD*%
D12*
%TO.P,U7,8*%
%TO.N,Net-(C12-Pad1)*%
X-155448000Y101854000D03*
%TO.P,U7,4*%
%TO.N,GND*%
X-147828000Y109474000D03*
%TO.P,U7,7*%
%TO.N,Net-(R6-Pad2)*%
X-155448000Y104394000D03*
%TO.P,U7,3*%
%TO.N,Net-(U7-Pad3)*%
X-147828000Y106934000D03*
%TO.P,U7,6*%
%TO.N,Net-(C12-Pad2)*%
X-155448000Y106934000D03*
%TO.P,U7,2*%
%TO.N,PWM*%
X-147828000Y104394000D03*
%TO.P,U7,5*%
%TO.N,Net-(C12-Pad2)*%
X-155448000Y109474000D03*
D13*
%TO.P,U7,1*%
%TO.N,+12V*%
X-147828000Y101854000D03*
%TD*%
D24*
%TO.P,U4,3*%
%TO.N,+12V*%
X-147853400Y88633300D03*
%TO.P,U4,2*%
%TO.N,+5V*%
X-145313400Y88633300D03*
D25*
%TO.P,U4,1*%
%TO.N,GNDD*%
X-142773400Y88633300D03*
%TD*%
D24*
%TO.P,Q1,3*%
%TO.N,Net-(C12-Pad2)*%
X-170688000Y110236000D03*
%TO.P,Q1,2*%
%TO.N,+12V*%
X-168148000Y110236000D03*
D25*
%TO.P,Q1,1*%
%TO.N,Net-(Q1-Pad1)*%
X-165608000Y110236000D03*
%TD*%
D26*
%TO.P,C12,2*%
%TO.N,Net-(C12-Pad2)*%
X-163544000Y101854000D03*
D13*
%TO.P,C12,1*%
%TO.N,Net-(C12-Pad1)*%
X-161544000Y101854000D03*
%TD*%
D26*
%TO.P,C11,2*%
%TO.N,GND*%
X-140748000Y101854000D03*
D13*
%TO.P,C11,1*%
%TO.N,+12V*%
X-142748000Y101854000D03*
%TD*%
D26*
%TO.P,C7,2*%
%TO.N,Net-(C7-Pad2)*%
X-208463000Y63436500D03*
D13*
%TO.P,C7,1*%
%TO.N,Sense_ripple*%
X-211963000Y63436500D03*
%TD*%
D16*
%TO.P,C3,2*%
%TO.N,GND*%
X-159258000Y118618000D03*
D17*
%TO.P,C3,1*%
%TO.N,+12V*%
X-164258000Y118618000D03*
%TD*%
D27*
%TO.N,Avg_voltage*%
X-198501000Y84582000D03*
%TO.N,GNDD*%
X-166243000Y58293000D03*
X-168529000Y61468000D03*
X-197993000Y74803000D03*
X-199771000Y81661000D03*
X-196342000Y78486000D03*
X-195834000Y85471000D03*
X-204343000Y85852000D03*
X-206756000Y78613000D03*
X-212598000Y80391000D03*
X-215900000Y79629000D03*
X-213487000Y72771000D03*
X-190627000Y78994000D03*
X-194691000Y71374000D03*
X-193929000Y63246000D03*
X-177800000Y88646000D03*
X-172800000Y88646000D03*
X-167800000Y88646000D03*
X-162800000Y88646000D03*
X-157800000Y88646000D03*
X-177800000Y84646000D03*
X-172800000Y84646000D03*
X-167800000Y84646000D03*
X-162800000Y84646000D03*
X-157800000Y84646000D03*
X-177800000Y76708000D03*
X-172800000Y76708000D03*
X-167800000Y76708000D03*
X-162800000Y76708000D03*
X-157800000Y76708000D03*
X-152800000Y76708000D03*
X-147800000Y76708000D03*
X-177800000Y72708000D03*
X-172800000Y72708000D03*
X-167800000Y72708000D03*
X-162800000Y72708000D03*
X-157800000Y72708000D03*
X-152800000Y72708000D03*
X-177800000Y68708000D03*
X-172800000Y68708000D03*
X-167800000Y68708000D03*
X-162800000Y68708000D03*
X-157800000Y68708000D03*
X-152800000Y68708000D03*
X-172800000Y64708000D03*
X-162800000Y64708000D03*
X-157800000Y64708000D03*
X-152800000Y64708000D03*
X-142800000Y76708000D03*
X-137800000Y76708000D03*
X-147800000Y72708000D03*
X-142800000Y72708000D03*
X-137800000Y72708000D03*
X-147800000Y68708000D03*
X-142800000Y68708000D03*
X-137800000Y68708000D03*
X-147800000Y64708000D03*
X-137800000Y64708000D03*
X-136652000Y88646000D03*
X-131652000Y88646000D03*
X-136652000Y84646000D03*
X-131652000Y84646000D03*
%TO.N,load_sense*%
X-201930000Y63246000D03*
X-202946000Y97028000D03*
%TO.N,+12V*%
X-172847000Y61468000D03*
X-204851000Y78867000D03*
X-211709000Y73406000D03*
%TO.N,GND*%
X-147828000Y130556000D03*
X-142828000Y130556000D03*
X-137828000Y130556000D03*
X-132828000Y130556000D03*
X-147828000Y125556000D03*
X-142828000Y125556000D03*
X-137828000Y125556000D03*
X-132828000Y125556000D03*
X-147828000Y120556000D03*
X-142828000Y120556000D03*
X-137828000Y120556000D03*
X-132828000Y120556000D03*
X-147828000Y115556000D03*
X-142828000Y115556000D03*
X-137828000Y115556000D03*
X-132828000Y115556000D03*
X-142828000Y110556000D03*
X-137828000Y110556000D03*
X-132828000Y110556000D03*
X-132828000Y105556000D03*
X-132828000Y100556000D03*
X-215646000Y120650000D03*
X-210646000Y120650000D03*
X-215646000Y115650000D03*
X-210646000Y115650000D03*
X-215646000Y105650000D03*
X-215646000Y110650000D03*
X-210646000Y105650000D03*
X-215646000Y100650000D03*
X-210646000Y100650000D03*
%TO.N,+5V*%
X-201676000Y88773000D03*
X-182372000Y71501000D03*
%TO.N,V_ref*%
X-197739000Y65278000D03*
X-197358000Y83312000D03*
%TD*%
D28*
%TO.N,Avg_voltage*%
X-193352201Y70922899D02*
X-191898302Y69469000D01*
X-193352201Y80379203D02*
X-193352201Y70922899D01*
X-197554998Y84582000D02*
X-193352201Y80379203D01*
X-198501000Y84582000D02*
X-197554998Y84582000D01*
X-182499000Y69469000D02*
X-167576500Y54546500D01*
X-191898302Y69469000D02*
X-182499000Y69469000D01*
%TO.N,load_sense*%
X-202946000Y64262000D02*
X-202946000Y97028000D01*
X-201930000Y63246000D02*
X-202946000Y64262000D01*
D29*
%TO.N,+12V*%
X-147828000Y88658700D02*
X-147853400Y88633300D01*
D30*
X-147853400Y88633300D02*
X-147853400Y87858600D01*
D28*
X-171719598Y61468000D02*
X-172847000Y61468000D01*
X-153771499Y79416099D02*
X-171719598Y61468000D01*
X-153771499Y82715201D02*
X-153771499Y79416099D01*
X-147853400Y88633300D02*
X-153771499Y82715201D01*
X-210312000Y73406000D02*
X-211709000Y73406000D01*
X-204851000Y78867000D02*
X-210312000Y73406000D01*
D31*
%TO.N,+5V*%
X-130636499Y55926501D02*
X-132016500Y54546500D01*
X-130636499Y80608901D02*
X-130636499Y55926501D01*
X-141097000Y82616900D02*
X-132644498Y82616900D01*
X-145313400Y86833300D02*
X-141097000Y82616900D01*
X-132644498Y82616900D02*
X-130636499Y80608901D01*
X-145313400Y88633300D02*
X-145313400Y86833300D01*
D30*
X-200365690Y90083310D02*
X-201676000Y88773000D01*
X-145313400Y88633300D02*
X-146763410Y90083310D01*
X-180807690Y90083310D02*
X-200365690Y90083310D01*
X-182372000Y71501000D02*
X-180340000Y73533000D01*
X-180340000Y88853620D02*
X-179110310Y90083310D01*
X-180340000Y73533000D02*
X-180340000Y88853620D01*
X-179110310Y90083310D02*
X-180807690Y90083310D01*
X-146763410Y90083310D02*
X-179110310Y90083310D01*
D28*
%TO.N,V_ref*%
X-197358000Y65659000D02*
X-197739000Y65278000D01*
X-197358000Y83312000D02*
X-197358000Y65659000D01*
%TD*%
D32*
%TO.N,GND*%
X-129937455Y133159091D02*
X-129586792Y133053220D01*
X-129263375Y132881256D01*
X-128979516Y132649746D01*
X-128746035Y132367514D01*
X-128571817Y132045305D01*
X-128463498Y131695386D01*
X-128422000Y131300557D01*
X-128422000Y93980734D01*
X-190627000Y94066356D01*
X-190627000Y95410660D01*
X-172100324Y95410660D01*
X-171955871Y95146684D01*
X-171762694Y94915961D01*
X-171528217Y94727359D01*
X-171289337Y94599690D01*
X-171061000Y94687260D01*
X-171061000Y95639000D01*
X-170315000Y95639000D01*
X-170315000Y94687260D01*
X-170086663Y94599690D01*
X-169847783Y94727359D01*
X-169613306Y94915961D01*
X-169420129Y95146684D01*
X-169275676Y95410660D01*
X-169357744Y95639000D01*
X-170315000Y95639000D01*
X-171061000Y95639000D01*
X-172018256Y95639000D01*
X-172100324Y95410660D01*
X-190627000Y95410660D01*
X-190627000Y96613340D01*
X-172100324Y96613340D01*
X-172018256Y96385000D01*
X-171061000Y96385000D01*
X-171061000Y97336740D01*
X-170315000Y97336740D01*
X-170315000Y96385000D01*
X-169357744Y96385000D01*
X-169275676Y96613340D01*
X-169420129Y96877316D01*
X-169613306Y97108039D01*
X-169847783Y97296641D01*
X-170086663Y97424310D01*
X-170315000Y97336740D01*
X-171061000Y97336740D01*
X-171289337Y97424310D01*
X-171528217Y97296641D01*
X-171762694Y97108039D01*
X-171955871Y96877316D01*
X-172100324Y96613340D01*
X-190627000Y96613340D01*
X-190627000Y97928000D01*
X-156986072Y97928000D01*
X-156986072Y96128000D01*
X-156973812Y96003518D01*
X-156937502Y95883820D01*
X-156878537Y95773506D01*
X-156799185Y95676815D01*
X-156702494Y95597463D01*
X-156592180Y95538498D01*
X-156472482Y95502188D01*
X-156348000Y95489928D01*
X-154548000Y95489928D01*
X-154423518Y95502188D01*
X-154303820Y95538498D01*
X-154193506Y95597463D01*
X-154096815Y95676815D01*
X-154017463Y95773506D01*
X-153958498Y95883820D01*
X-153922188Y96003518D01*
X-153909928Y96128000D01*
X-153909928Y97179184D01*
X-149363000Y97179184D01*
X-149363000Y96876816D01*
X-149304011Y96580257D01*
X-149188299Y96300905D01*
X-149020312Y96049495D01*
X-148806505Y95835688D01*
X-148555095Y95667701D01*
X-148275743Y95551989D01*
X-147979184Y95493000D01*
X-147676816Y95493000D01*
X-147380257Y95551989D01*
X-147100905Y95667701D01*
X-146849495Y95835688D01*
X-146635688Y96049495D01*
X-146467701Y96300905D01*
X-146351989Y96580257D01*
X-146293000Y96876816D01*
X-146293000Y97179184D01*
X-146351989Y97475743D01*
X-146467701Y97755095D01*
X-146635688Y98006505D01*
X-146849495Y98220312D01*
X-147100905Y98388299D01*
X-147380257Y98504011D01*
X-147676816Y98563000D01*
X-147979184Y98563000D01*
X-148275743Y98504011D01*
X-148555095Y98388299D01*
X-148806505Y98220312D01*
X-149020312Y98006505D01*
X-149188299Y97755095D01*
X-149304011Y97475743D01*
X-149363000Y97179184D01*
X-153909928Y97179184D01*
X-153909928Y97928000D01*
X-153922188Y98052482D01*
X-153958498Y98172180D01*
X-154017463Y98282494D01*
X-154096815Y98379185D01*
X-154193506Y98458537D01*
X-154303820Y98517502D01*
X-154423518Y98553812D01*
X-154548000Y98566072D01*
X-156348000Y98566072D01*
X-156472482Y98553812D01*
X-156592180Y98517502D01*
X-156702494Y98458537D01*
X-156799185Y98379185D01*
X-156878537Y98282494D01*
X-156937502Y98172180D01*
X-156973812Y98052482D01*
X-156986072Y97928000D01*
X-190627000Y97928000D01*
X-190627000Y98298000D01*
X-190629440Y98322776D01*
X-190636667Y98346601D01*
X-190648403Y98368557D01*
X-190664197Y98387803D01*
X-190683443Y98403597D01*
X-190705399Y98415333D01*
X-190729224Y98422560D01*
X-190754000Y98425000D01*
X-203454000Y98425000D01*
X-203478776Y98422560D01*
X-203502601Y98415333D01*
X-203524557Y98403597D01*
X-203543803Y98387803D01*
X-203559597Y98368557D01*
X-203571333Y98346601D01*
X-203578560Y98322776D01*
X-203581000Y98298000D01*
X-203581000Y97848490D01*
X-203605774Y97831937D01*
X-203749937Y97687774D01*
X-203863205Y97518256D01*
X-203941226Y97329898D01*
X-203981000Y97129939D01*
X-203981000Y96926061D01*
X-203972624Y96883953D01*
X-203971817Y96872163D01*
X-203956895Y96772132D01*
X-203935995Y96681978D01*
X-203902963Y96579740D01*
X-203872162Y96506317D01*
X-203830962Y96425015D01*
X-203793563Y96362746D01*
X-203765034Y96319367D01*
X-203724334Y96262675D01*
X-203707578Y96239336D01*
X-203705999Y96216272D01*
X-203705999Y94084359D01*
X-218288000Y94104431D01*
X-218288000Y109953240D01*
X-211527758Y109953240D01*
X-211389134Y109698867D01*
X-211046761Y109582953D01*
X-210688352Y109536060D01*
X-210327681Y109559990D01*
X-209978610Y109653824D01*
X-209869866Y109698867D01*
X-209731242Y109953240D01*
X-209058258Y109953240D01*
X-208919634Y109698867D01*
X-208577261Y109582953D01*
X-208218852Y109536060D01*
X-207858181Y109559990D01*
X-207509110Y109653824D01*
X-207400366Y109698867D01*
X-207261742Y109953240D01*
X-208160000Y110851498D01*
X-209058258Y109953240D01*
X-209731242Y109953240D01*
X-210629500Y110851498D01*
X-211527758Y109953240D01*
X-218288000Y109953240D01*
X-218288000Y111437852D01*
X-212472440Y111437852D01*
X-212448510Y111077181D01*
X-212354676Y110728110D01*
X-212309633Y110619366D01*
X-212055260Y110480742D01*
X-211157002Y111379000D01*
X-210101998Y111379000D01*
X-209991718Y111268720D01*
X-209979010Y111077181D01*
X-209885176Y110728110D01*
X-209840133Y110619366D01*
X-209585760Y110480742D01*
X-209394750Y110671752D01*
X-209203740Y110480742D01*
X-208949367Y110619366D01*
X-208833453Y110961739D01*
X-208792612Y111273890D01*
X-208687502Y111379000D01*
X-207632498Y111379000D01*
X-207309553Y111056055D01*
X-207221960Y110760297D01*
X-207213678Y110740302D01*
X-206979527Y110626974D01*
X-206930000Y110676502D01*
X-206734240Y110480742D01*
X-206479867Y110619366D01*
X-206363953Y110961739D01*
X-206321682Y111284820D01*
X-206227502Y111379000D01*
X-206327607Y111479105D01*
X-206340990Y111680819D01*
X-206434824Y112029890D01*
X-206479867Y112138634D01*
X-206734240Y112277258D01*
X-206930000Y112081498D01*
X-206979527Y112131026D01*
X-207213678Y112017698D01*
X-207309197Y111710123D01*
X-207310116Y111701382D01*
X-207632498Y111379000D01*
X-208687502Y111379000D01*
X-208797782Y111489280D01*
X-208810490Y111680819D01*
X-208904324Y112029890D01*
X-208949367Y112138634D01*
X-209203740Y112277258D01*
X-209394750Y112086248D01*
X-209585760Y112277258D01*
X-209840133Y112138634D01*
X-209956047Y111796261D01*
X-209996888Y111484110D01*
X-210101998Y111379000D01*
X-211157002Y111379000D01*
X-212055260Y112277258D01*
X-212309633Y112138634D01*
X-212425547Y111796261D01*
X-212472440Y111437852D01*
X-218288000Y111437852D01*
X-218288000Y112804760D01*
X-211527758Y112804760D01*
X-210629500Y111906502D01*
X-209731242Y112804760D01*
X-209058258Y112804760D01*
X-208160000Y111906502D01*
X-207407975Y112658527D01*
X-206452026Y112658527D01*
X-205700000Y111906502D01*
X-205685858Y111920644D01*
X-205158356Y111393142D01*
X-205172498Y111379000D01*
X-205158356Y111364858D01*
X-205685858Y110837356D01*
X-205700000Y110851498D01*
X-206452026Y110099473D01*
X-206338698Y109865322D01*
X-206031123Y109769803D01*
X-205710822Y109736125D01*
X-205390105Y109765582D01*
X-205081297Y109857040D01*
X-205061302Y109865322D01*
X-204947975Y110099470D01*
X-204802473Y109953968D01*
X-204731024Y110025417D01*
X-204730537Y110024506D01*
X-204651185Y109927815D01*
X-204554494Y109848463D01*
X-204444180Y109789498D01*
X-204324482Y109753188D01*
X-204200000Y109740928D01*
X-202321947Y109740928D01*
X-202311185Y109727815D01*
X-202214494Y109648463D01*
X-202104180Y109589498D01*
X-201984482Y109553188D01*
X-201860000Y109540928D01*
X-199460000Y109540928D01*
X-199390000Y109547822D01*
X-199320000Y109540928D01*
X-196920000Y109540928D01*
X-196795518Y109553188D01*
X-196675820Y109589498D01*
X-196565506Y109648463D01*
X-196468815Y109727815D01*
X-196389463Y109824506D01*
X-196330498Y109934820D01*
X-196294188Y110054518D01*
X-196281928Y110179000D01*
X-196281928Y110376843D01*
X-191930000Y110376843D01*
X-191930000Y110095157D01*
X-191875046Y109818884D01*
X-191767249Y109558641D01*
X-191610753Y109324428D01*
X-191411572Y109125247D01*
X-191177359Y108968751D01*
X-190917116Y108860954D01*
X-190640843Y108806000D01*
X-190359157Y108806000D01*
X-190082884Y108860954D01*
X-189822641Y108968751D01*
X-189588428Y109125247D01*
X-189389247Y109324428D01*
X-189232751Y109558641D01*
X-189124954Y109818884D01*
X-189070000Y110095157D01*
X-189070000Y110376843D01*
X-189124954Y110653116D01*
X-189232751Y110913359D01*
X-189389247Y111147572D01*
X-189501675Y111260000D01*
X-179451000Y111260000D01*
X-179451000Y102608000D01*
X-179445568Y102525117D01*
X-179428531Y102395707D01*
X-179385627Y102235586D01*
X-179335677Y102114996D01*
X-179252790Y101971433D01*
X-179173330Y101867880D01*
X-179056120Y101750670D01*
X-178952567Y101671210D01*
X-178809004Y101588323D01*
X-178688414Y101538373D01*
X-178528293Y101495469D01*
X-178398883Y101478432D01*
X-178316000Y101473000D01*
X-165735000Y101473000D01*
X-165735000Y100830000D01*
X-165729568Y100747117D01*
X-165712531Y100617707D01*
X-165669627Y100457586D01*
X-165619677Y100336996D01*
X-165536790Y100193433D01*
X-165457330Y100089880D01*
X-165340120Y99972670D01*
X-165236567Y99893210D01*
X-165093004Y99810323D01*
X-164972414Y99760373D01*
X-164812293Y99717469D01*
X-164682883Y99700432D01*
X-164600000Y99695000D01*
X-163060000Y99695000D01*
X-162977117Y99700432D01*
X-162847707Y99717469D01*
X-162687586Y99760373D01*
X-162566996Y99810323D01*
X-162423433Y99893210D01*
X-162319880Y99972670D01*
X-162202670Y100089880D01*
X-162123210Y100193433D01*
X-162040323Y100336996D01*
X-162007628Y100415928D01*
X-160744000Y100415928D01*
X-160619518Y100428188D01*
X-160499820Y100464498D01*
X-160389506Y100523463D01*
X-160292815Y100602815D01*
X-160213463Y100699506D01*
X-160154498Y100809820D01*
X-160118188Y100929518D01*
X-160105928Y101054000D01*
X-160105928Y102654000D01*
X-160118188Y102778482D01*
X-160154498Y102898180D01*
X-160213463Y103008494D01*
X-160292815Y103105185D01*
X-160389506Y103184537D01*
X-160499820Y103243502D01*
X-160619518Y103279812D01*
X-160744000Y103292072D01*
X-161925000Y103292072D01*
X-161925000Y105029000D01*
X-156738207Y105029000D01*
X-156827853Y104812574D01*
X-156883000Y104535335D01*
X-156883000Y104252665D01*
X-156827853Y103975426D01*
X-156719680Y103714273D01*
X-156562637Y103479241D01*
X-156362759Y103279363D01*
X-156130241Y103124000D01*
X-156362759Y102968637D01*
X-156562637Y102768759D01*
X-156719680Y102533727D01*
X-156827853Y102272574D01*
X-156883000Y101995335D01*
X-156883000Y101712665D01*
X-156827853Y101435426D01*
X-156719680Y101174273D01*
X-156562637Y100939241D01*
X-156362759Y100739363D01*
X-156127727Y100582320D01*
X-155866574Y100474147D01*
X-155589335Y100419000D01*
X-155306665Y100419000D01*
X-155029426Y100474147D01*
X-154768273Y100582320D01*
X-154533241Y100739363D01*
X-154333363Y100939241D01*
X-154176320Y101174273D01*
X-154068147Y101435426D01*
X-154013000Y101712665D01*
X-154013000Y101995335D01*
X-154068147Y102272574D01*
X-154176320Y102533727D01*
X-154256683Y102654000D01*
X-149266072Y102654000D01*
X-149266072Y101054000D01*
X-149253812Y100929518D01*
X-149217502Y100809820D01*
X-149158537Y100699506D01*
X-149079185Y100602815D01*
X-148982494Y100523463D01*
X-148872180Y100464498D01*
X-148752482Y100428188D01*
X-148628000Y100415928D01*
X-147028000Y100415928D01*
X-146903518Y100428188D01*
X-146783820Y100464498D01*
X-146673506Y100523463D01*
X-146576815Y100602815D01*
X-146497463Y100699506D01*
X-146438498Y100809820D01*
X-146402188Y100929518D01*
X-146389928Y101054000D01*
X-146389928Y102654000D01*
X-144186072Y102654000D01*
X-144186072Y101054000D01*
X-144173812Y100929518D01*
X-144137502Y100809820D01*
X-144078537Y100699506D01*
X-143999185Y100602815D01*
X-143902494Y100523463D01*
X-143792180Y100464498D01*
X-143672482Y100428188D01*
X-143548000Y100415928D01*
X-141948000Y100415928D01*
X-141823518Y100428188D01*
X-141703820Y100464498D01*
X-141593506Y100523463D01*
X-141517877Y100585530D01*
X-141503421Y100571074D01*
X-141352423Y100722072D01*
X-141264941Y100507906D01*
X-140992398Y100432920D01*
X-140710463Y100412546D01*
X-140429970Y100447566D01*
X-140231059Y100507906D01*
X-140143576Y100722074D01*
X-140748000Y101326498D01*
X-140762142Y101312356D01*
X-141289644Y101839858D01*
X-141275502Y101854000D01*
X-140220498Y101854000D01*
X-139616074Y101249576D01*
X-139401906Y101337059D01*
X-139326920Y101609602D01*
X-139306546Y101891537D01*
X-139341566Y102172030D01*
X-139401906Y102370941D01*
X-139616074Y102458424D01*
X-140220498Y101854000D01*
X-141275502Y101854000D01*
X-141289644Y101868142D01*
X-140762142Y102395644D01*
X-140748000Y102381502D01*
X-140143576Y102985926D01*
X-140231059Y103200094D01*
X-140503602Y103275080D01*
X-140785537Y103295454D01*
X-141066030Y103260434D01*
X-141264941Y103200094D01*
X-141352423Y102985928D01*
X-141503421Y103136926D01*
X-141517877Y103122470D01*
X-141593506Y103184537D01*
X-141703820Y103243502D01*
X-141823518Y103279812D01*
X-141948000Y103292072D01*
X-143548000Y103292072D01*
X-143672482Y103279812D01*
X-143792180Y103243502D01*
X-143902494Y103184537D01*
X-143999185Y103105185D01*
X-144078537Y103008494D01*
X-144137502Y102898180D01*
X-144173812Y102778482D01*
X-144186072Y102654000D01*
X-146389928Y102654000D01*
X-146402188Y102778482D01*
X-146438498Y102898180D01*
X-146497463Y103008494D01*
X-146576815Y103105185D01*
X-146673506Y103184537D01*
X-146783820Y103243502D01*
X-146903518Y103279812D01*
X-146911961Y103280643D01*
X-146713363Y103479241D01*
X-146556320Y103714273D01*
X-146448147Y103975426D01*
X-146393000Y104252665D01*
X-146393000Y104535335D01*
X-146448147Y104812574D01*
X-146556320Y105073727D01*
X-146713363Y105308759D01*
X-146913241Y105508637D01*
X-147145759Y105664000D01*
X-146913241Y105819363D01*
X-146713363Y106019241D01*
X-146556320Y106254273D01*
X-146448147Y106515426D01*
X-146393000Y106792665D01*
X-146393000Y107075335D01*
X-146448147Y107352574D01*
X-146556320Y107613727D01*
X-146713363Y107848759D01*
X-146913241Y108048637D01*
X-147148273Y108205680D01*
X-147160413Y108210708D01*
X-146998444Y108303059D01*
X-146785944Y108487397D01*
X-146613490Y108709649D01*
X-146517735Y108888825D01*
X-146607473Y109101000D01*
X-147455000Y109101000D01*
X-147455000Y109081000D01*
X-148201000Y109081000D01*
X-148201000Y109101000D01*
X-149048527Y109101000D01*
X-149138265Y108888825D01*
X-149042510Y108709649D01*
X-148870056Y108487397D01*
X-148657556Y108303059D01*
X-148495587Y108210708D01*
X-148507727Y108205680D01*
X-148742759Y108048637D01*
X-148942637Y107848759D01*
X-149099680Y107613727D01*
X-149207853Y107352574D01*
X-149263000Y107075335D01*
X-149263000Y106792665D01*
X-149207853Y106515426D01*
X-149099680Y106254273D01*
X-148942637Y106019241D01*
X-148742759Y105819363D01*
X-148510241Y105664000D01*
X-148742759Y105508637D01*
X-148942637Y105308759D01*
X-149099680Y105073727D01*
X-149207853Y104812574D01*
X-149263000Y104535335D01*
X-149263000Y104252665D01*
X-149207853Y103975426D01*
X-149099680Y103714273D01*
X-148942637Y103479241D01*
X-148744039Y103280643D01*
X-148752482Y103279812D01*
X-148872180Y103243502D01*
X-148982494Y103184537D01*
X-149079185Y103105185D01*
X-149158537Y103008494D01*
X-149217502Y102898180D01*
X-149253812Y102778482D01*
X-149266072Y102654000D01*
X-154256683Y102654000D01*
X-154333363Y102768759D01*
X-154533241Y102968637D01*
X-154765759Y103124000D01*
X-154533241Y103279363D01*
X-154333363Y103479241D01*
X-154176320Y103714273D01*
X-154068147Y103975426D01*
X-154013000Y104252665D01*
X-154013000Y104535335D01*
X-154068147Y104812574D01*
X-154176320Y105073727D01*
X-154215146Y105131834D01*
X-154184996Y105144323D01*
X-154041433Y105227210D01*
X-153937880Y105306670D01*
X-153820670Y105423880D01*
X-153741210Y105527433D01*
X-153658323Y105670996D01*
X-153608373Y105791586D01*
X-153565469Y105951707D01*
X-153548432Y106081117D01*
X-153543000Y106164000D01*
X-153543000Y110059175D01*
X-149138265Y110059175D01*
X-149048527Y109847000D01*
X-148201000Y109847000D01*
X-148201000Y110700940D01*
X-147455000Y110700940D01*
X-147455000Y109847000D01*
X-146607473Y109847000D01*
X-146517735Y110059175D01*
X-146613490Y110238351D01*
X-146785944Y110460603D01*
X-146998444Y110644941D01*
X-147242823Y110784280D01*
X-147455000Y110700940D01*
X-148201000Y110700940D01*
X-148413177Y110784280D01*
X-148657556Y110644941D01*
X-148870056Y110460603D01*
X-149042510Y110238351D01*
X-149138265Y110059175D01*
X-153543000Y110059175D01*
X-153543000Y110244000D01*
X-153548432Y110326883D01*
X-153565469Y110456293D01*
X-153608373Y110616414D01*
X-153658323Y110737004D01*
X-153741210Y110880567D01*
X-153820670Y110984120D01*
X-153937880Y111101330D01*
X-154041433Y111180790D01*
X-154184996Y111263677D01*
X-154305586Y111313627D01*
X-154465707Y111356531D01*
X-154595117Y111373568D01*
X-154678000Y111379000D01*
X-156218000Y111379000D01*
X-156300883Y111373568D01*
X-156430293Y111356531D01*
X-156590414Y111313627D01*
X-156711004Y111263677D01*
X-156854567Y111180790D01*
X-156958120Y111101330D01*
X-157075330Y110984120D01*
X-157154790Y110880567D01*
X-157237677Y110737004D01*
X-157287627Y110616414D01*
X-157330531Y110456293D01*
X-157347568Y110326883D01*
X-157353000Y110244000D01*
X-157353000Y109347000D01*
X-164017428Y109347000D01*
X-164017428Y111236000D01*
X-164029688Y111360482D01*
X-164065998Y111480180D01*
X-164124963Y111590494D01*
X-164204315Y111687185D01*
X-164301006Y111766537D01*
X-164411320Y111825502D01*
X-164531018Y111861812D01*
X-164655500Y111874072D01*
X-166560500Y111874072D01*
X-166684982Y111861812D01*
X-166804680Y111825502D01*
X-166914994Y111766537D01*
X-167011685Y111687185D01*
X-167091037Y111590494D01*
X-167135905Y111506554D01*
X-167261765Y111609845D01*
X-167537551Y111757255D01*
X-167836796Y111848030D01*
X-168148000Y111878681D01*
X-168459203Y111848030D01*
X-168758448Y111757255D01*
X-168874410Y111695272D01*
X-168898323Y111753004D01*
X-168981210Y111896567D01*
X-169060670Y112000120D01*
X-169177880Y112117330D01*
X-169281433Y112196790D01*
X-169424996Y112279677D01*
X-169545586Y112329627D01*
X-169705707Y112372531D01*
X-169835117Y112389568D01*
X-169918000Y112395000D01*
X-178316000Y112395000D01*
X-178398883Y112389568D01*
X-178528293Y112372531D01*
X-178688414Y112329627D01*
X-178809004Y112279677D01*
X-178952567Y112196790D01*
X-179056120Y112117330D01*
X-179173330Y112000120D01*
X-179252790Y111896567D01*
X-179335677Y111753004D01*
X-179385627Y111632414D01*
X-179428531Y111472293D01*
X-179445568Y111342883D01*
X-179451000Y111260000D01*
X-189501675Y111260000D01*
X-189588428Y111346753D01*
X-189822641Y111503249D01*
X-190082884Y111611046D01*
X-190359157Y111666000D01*
X-190640843Y111666000D01*
X-190917116Y111611046D01*
X-191177359Y111503249D01*
X-191411572Y111346753D01*
X-191610753Y111147572D01*
X-191767249Y110913359D01*
X-191875046Y110653116D01*
X-191930000Y110376843D01*
X-196281928Y110376843D01*
X-196281928Y112579000D01*
X-196294188Y112703482D01*
X-196330498Y112823180D01*
X-196389463Y112933494D01*
X-196468815Y113030185D01*
X-196565506Y113109537D01*
X-196675820Y113168502D01*
X-196795518Y113204812D01*
X-196920000Y113217072D01*
X-199320000Y113217072D01*
X-199390000Y113210178D01*
X-199460000Y113217072D01*
X-201860000Y113217072D01*
X-201984482Y113204812D01*
X-202104180Y113168502D01*
X-202214494Y113109537D01*
X-202311185Y113030185D01*
X-202321947Y113017072D01*
X-204200000Y113017072D01*
X-204324482Y113004812D01*
X-204444180Y112968502D01*
X-204554494Y112909537D01*
X-204651185Y112830185D01*
X-204730537Y112733494D01*
X-204731024Y112732583D01*
X-204802473Y112804032D01*
X-204947975Y112658530D01*
X-205061302Y112892678D01*
X-205368877Y112988197D01*
X-205689178Y113021875D01*
X-206009895Y112992418D01*
X-206318703Y112900960D01*
X-206338698Y112892678D01*
X-206452026Y112658527D01*
X-207407975Y112658527D01*
X-207261742Y112804760D01*
X-207400366Y113059133D01*
X-207742739Y113175047D01*
X-208101148Y113221940D01*
X-208461819Y113198010D01*
X-208810890Y113104176D01*
X-208919634Y113059133D01*
X-209058258Y112804760D01*
X-209731242Y112804760D01*
X-209869866Y113059133D01*
X-210212239Y113175047D01*
X-210570648Y113221940D01*
X-210931319Y113198010D01*
X-211280390Y113104176D01*
X-211389134Y113059133D01*
X-211527758Y112804760D01*
X-218288000Y112804760D01*
X-218288000Y119618000D01*
X-165896072Y119618000D01*
X-165896072Y117618000D01*
X-165883812Y117493518D01*
X-165847502Y117373820D01*
X-165788537Y117263506D01*
X-165709185Y117166815D01*
X-165612494Y117087463D01*
X-165502180Y117028498D01*
X-165382482Y116992188D01*
X-165258000Y116979928D01*
X-163258000Y116979928D01*
X-163133518Y116992188D01*
X-163013820Y117028498D01*
X-162903506Y117087463D01*
X-162806815Y117166815D01*
X-162727463Y117263506D01*
X-162687392Y117338473D01*
X-160010026Y117338473D01*
X-159896698Y117104322D01*
X-159589123Y117008803D01*
X-159268822Y116975125D01*
X-158948105Y117004582D01*
X-158639297Y117096040D01*
X-158619302Y117104322D01*
X-158505974Y117338473D01*
X-159258000Y118090498D01*
X-160010026Y117338473D01*
X-162687392Y117338473D01*
X-162668498Y117373820D01*
X-162632188Y117493518D01*
X-162619928Y117618000D01*
X-162619928Y118628822D01*
X-160900875Y118628822D01*
X-160871418Y118308105D01*
X-160779960Y117999297D01*
X-160771678Y117979302D01*
X-160537527Y117865974D01*
X-159785502Y118618000D01*
X-158730498Y118618000D01*
X-157978473Y117865974D01*
X-157744322Y117979302D01*
X-157648803Y118286877D01*
X-157615125Y118607178D01*
X-157644582Y118927895D01*
X-157736040Y119236703D01*
X-157744322Y119256698D01*
X-157978473Y119370026D01*
X-158730498Y118618000D01*
X-159785502Y118618000D01*
X-160537527Y119370026D01*
X-160771678Y119256698D01*
X-160867197Y118949123D01*
X-160900875Y118628822D01*
X-162619928Y118628822D01*
X-162619928Y119618000D01*
X-162632188Y119742482D01*
X-162668498Y119862180D01*
X-162687391Y119897527D01*
X-160010026Y119897527D01*
X-159258000Y119145502D01*
X-158505974Y119897527D01*
X-158619302Y120131678D01*
X-158926877Y120227197D01*
X-159247178Y120260875D01*
X-159567895Y120231418D01*
X-159876703Y120139960D01*
X-159896698Y120131678D01*
X-160010026Y119897527D01*
X-162687391Y119897527D01*
X-162727463Y119972494D01*
X-162806815Y120069185D01*
X-162903506Y120148537D01*
X-163013820Y120207502D01*
X-163133518Y120243812D01*
X-163258000Y120256072D01*
X-165258000Y120256072D01*
X-165382482Y120243812D01*
X-165502180Y120207502D01*
X-165612494Y120148537D01*
X-165709185Y120069185D01*
X-165788537Y119972494D01*
X-165847502Y119862180D01*
X-165883812Y119742482D01*
X-165896072Y119618000D01*
X-218288000Y119618000D01*
X-218288000Y124684804D01*
X-215655694Y124684804D01*
X-215236627Y124194857D01*
X-214499773Y123847734D01*
X-213709356Y123651034D01*
X-212895752Y123612316D01*
X-212090229Y123733069D01*
X-211323742Y124008650D01*
X-210975373Y124194857D01*
X-210556306Y124684804D01*
X-210870214Y124998712D01*
X-210850396Y125120316D01*
X-211249845Y125519765D01*
X-211320556Y125449054D01*
X-211706636Y125835134D01*
X-211635925Y125905845D01*
X-212035374Y126305294D01*
X-212156978Y126285476D01*
X-213106000Y127234498D01*
X-214055022Y126285476D01*
X-214176626Y126305294D01*
X-214576075Y125905845D01*
X-214505364Y125835134D01*
X-214891444Y125449054D01*
X-214962155Y125519765D01*
X-215361604Y125120316D01*
X-215341786Y124998712D01*
X-215655694Y124684804D01*
X-218288000Y124684804D01*
X-218288000Y127551752D01*
X-217255684Y127551752D01*
X-217134931Y126746229D01*
X-216859350Y125979742D01*
X-216673143Y125631373D01*
X-216183196Y125212306D01*
X-215869288Y125526214D01*
X-215747684Y125506396D01*
X-215348235Y125905845D01*
X-215418946Y125976556D01*
X-215032866Y126362636D01*
X-214962155Y126291925D01*
X-214562706Y126691374D01*
X-214582524Y126812978D01*
X-213633502Y127762000D01*
X-212578498Y127762000D01*
X-211629476Y126812978D01*
X-211649294Y126691374D01*
X-211249845Y126291925D01*
X-211179134Y126362636D01*
X-210793054Y125976556D01*
X-210863765Y125905845D01*
X-210464316Y125506396D01*
X-210342712Y125526214D01*
X-210028804Y125212306D01*
X-209538857Y125631373D01*
X-209191734Y126368227D01*
X-208995034Y127158644D01*
X-208956316Y127972248D01*
X-208985849Y128169262D01*
X-204795000Y128169262D01*
X-204795000Y127354738D01*
X-204636094Y126555865D01*
X-204324389Y125803343D01*
X-203871864Y125126091D01*
X-203295909Y124550136D01*
X-202618657Y124097611D01*
X-201866135Y123785906D01*
X-201067262Y123627000D01*
X-200252738Y123627000D01*
X-199453865Y123785906D01*
X-198701343Y124097611D01*
X-198024091Y124550136D01*
X-197448136Y125126091D01*
X-196995611Y125803343D01*
X-196683906Y126555865D01*
X-196525000Y127354738D01*
X-196525000Y128169262D01*
X-196575523Y128423262D01*
X-172283000Y128423262D01*
X-172283000Y127608738D01*
X-172124094Y126809865D01*
X-171812389Y126057343D01*
X-171359864Y125380091D01*
X-170783909Y124804136D01*
X-170106657Y124351611D01*
X-169354135Y124039906D01*
X-168555262Y123881000D01*
X-167740738Y123881000D01*
X-166941865Y124039906D01*
X-166189343Y124351611D01*
X-165512091Y124804136D01*
X-165377423Y124938804D01*
X-157489694Y124938804D01*
X-157070627Y124448857D01*
X-156333773Y124101734D01*
X-155543356Y123905034D01*
X-154729752Y123866316D01*
X-153924229Y123987069D01*
X-153157742Y124262650D01*
X-152809373Y124448857D01*
X-152390306Y124938804D01*
X-152704214Y125252712D01*
X-152684396Y125374316D01*
X-153083845Y125773765D01*
X-153154556Y125703054D01*
X-153540636Y126089134D01*
X-153469925Y126159845D01*
X-153869374Y126559294D01*
X-153990978Y126539476D01*
X-154940000Y127488498D01*
X-155889022Y126539476D01*
X-156010626Y126559294D01*
X-156410075Y126159845D01*
X-156339364Y126089134D01*
X-156725444Y125703054D01*
X-156796155Y125773765D01*
X-157195604Y125374316D01*
X-157175786Y125252712D01*
X-157489694Y124938804D01*
X-165377423Y124938804D01*
X-164936136Y125380091D01*
X-164483611Y126057343D01*
X-164171906Y126809865D01*
X-164013000Y127608738D01*
X-164013000Y127805752D01*
X-159089684Y127805752D01*
X-158968931Y127000229D01*
X-158693350Y126233742D01*
X-158507143Y125885373D01*
X-158017196Y125466306D01*
X-157703288Y125780214D01*
X-157581684Y125760396D01*
X-157182235Y126159845D01*
X-157252946Y126230556D01*
X-156866866Y126616636D01*
X-156796155Y126545925D01*
X-156396706Y126945374D01*
X-156416524Y127066978D01*
X-155467502Y128016000D01*
X-154412498Y128016000D01*
X-153463476Y127066978D01*
X-153483294Y126945374D01*
X-153083845Y126545925D01*
X-153013134Y126616636D01*
X-152627054Y126230556D01*
X-152697765Y126159845D01*
X-152298316Y125760396D01*
X-152176712Y125780214D01*
X-151862804Y125466306D01*
X-151372857Y125885373D01*
X-151025734Y126622227D01*
X-150829034Y127412644D01*
X-150790316Y128226248D01*
X-150911069Y129031771D01*
X-151186650Y129798258D01*
X-151372857Y130146627D01*
X-151862804Y130565694D01*
X-152176712Y130251786D01*
X-152298316Y130271604D01*
X-152697765Y129872155D01*
X-152627054Y129801444D01*
X-153013134Y129415364D01*
X-153083845Y129486075D01*
X-153483294Y129086626D01*
X-153463476Y128965022D01*
X-154412498Y128016000D01*
X-155467502Y128016000D01*
X-156416524Y128965022D01*
X-156396706Y129086626D01*
X-156796155Y129486075D01*
X-156866866Y129415364D01*
X-157252946Y129801444D01*
X-157182235Y129872155D01*
X-157581684Y130271604D01*
X-157703288Y130251786D01*
X-158017196Y130565694D01*
X-158507143Y130146627D01*
X-158854266Y129409773D01*
X-159050966Y128619356D01*
X-159089684Y127805752D01*
X-164013000Y127805752D01*
X-164013000Y128423262D01*
X-164171906Y129222135D01*
X-164483611Y129974657D01*
X-164936136Y130651909D01*
X-165377423Y131093196D01*
X-157489694Y131093196D01*
X-157175786Y130779288D01*
X-157195604Y130657684D01*
X-156796155Y130258235D01*
X-156725444Y130328946D01*
X-156339364Y129942866D01*
X-156410075Y129872155D01*
X-156010626Y129472706D01*
X-155889022Y129492524D01*
X-154940000Y128543502D01*
X-153990978Y129492524D01*
X-153869374Y129472706D01*
X-153469925Y129872155D01*
X-153540636Y129942866D01*
X-153154556Y130328946D01*
X-153083845Y130258235D01*
X-152684396Y130657684D01*
X-152704214Y130779288D01*
X-152390306Y131093196D01*
X-152809373Y131583143D01*
X-153546227Y131930266D01*
X-154336644Y132126966D01*
X-155150248Y132165684D01*
X-155955771Y132044931D01*
X-156722258Y131769350D01*
X-157070627Y131583143D01*
X-157489694Y131093196D01*
X-165377423Y131093196D01*
X-165512091Y131227864D01*
X-166189343Y131680389D01*
X-166941865Y131992094D01*
X-167740738Y132151000D01*
X-168555262Y132151000D01*
X-169354135Y131992094D01*
X-170106657Y131680389D01*
X-170783909Y131227864D01*
X-171359864Y130651909D01*
X-171812389Y129974657D01*
X-172124094Y129222135D01*
X-172283000Y128423262D01*
X-196575523Y128423262D01*
X-196683906Y128968135D01*
X-196995611Y129720657D01*
X-197448136Y130397909D01*
X-198024091Y130973864D01*
X-198701343Y131426389D01*
X-199453865Y131738094D01*
X-200252738Y131897000D01*
X-201067262Y131897000D01*
X-201866135Y131738094D01*
X-202618657Y131426389D01*
X-203295909Y130973864D01*
X-203871864Y130397909D01*
X-204324389Y129720657D01*
X-204636094Y128968135D01*
X-204795000Y128169262D01*
X-208985849Y128169262D01*
X-209077069Y128777771D01*
X-209352650Y129544258D01*
X-209538857Y129892627D01*
X-210028804Y130311694D01*
X-210342712Y129997786D01*
X-210464316Y130017604D01*
X-210863765Y129618155D01*
X-210793054Y129547444D01*
X-211179134Y129161364D01*
X-211249845Y129232075D01*
X-211649294Y128832626D01*
X-211629476Y128711022D01*
X-212578498Y127762000D01*
X-213633502Y127762000D01*
X-214582524Y128711022D01*
X-214562706Y128832626D01*
X-214962155Y129232075D01*
X-215032866Y129161364D01*
X-215418946Y129547444D01*
X-215348235Y129618155D01*
X-215747684Y130017604D01*
X-215869288Y129997786D01*
X-216183196Y130311694D01*
X-216673143Y129892627D01*
X-217020266Y129155773D01*
X-217216966Y128365356D01*
X-217255684Y127551752D01*
X-218288000Y127551752D01*
X-218288000Y130839196D01*
X-215655694Y130839196D01*
X-215341786Y130525288D01*
X-215361604Y130403684D01*
X-214962155Y130004235D01*
X-214891444Y130074946D01*
X-214505364Y129688866D01*
X-214576075Y129618155D01*
X-214176626Y129218706D01*
X-214055022Y129238524D01*
X-213106000Y128289502D01*
X-212156978Y129238524D01*
X-212035374Y129218706D01*
X-211635925Y129618155D01*
X-211706636Y129688866D01*
X-211320556Y130074946D01*
X-211249845Y130004235D01*
X-210850396Y130403684D01*
X-210870214Y130525288D01*
X-210556306Y130839196D01*
X-210975373Y131329143D01*
X-211712227Y131676266D01*
X-212502644Y131872966D01*
X-213316248Y131911684D01*
X-214121771Y131790931D01*
X-214888258Y131515350D01*
X-215236627Y131329143D01*
X-215655694Y130839196D01*
X-218288000Y130839196D01*
X-218288000Y131285721D01*
X-218249091Y131682545D01*
X-218143220Y132033208D01*
X-217971256Y132356625D01*
X-217739746Y132640484D01*
X-217457514Y132873965D01*
X-217135305Y133048183D01*
X-216785386Y133156502D01*
X-216390557Y133198000D01*
X-130334279Y133198000D01*
X-129937455Y133159091D01*
%TA.AperFunction,Conductor*%
D33*
G36*
X-129937455Y133159091D02*
G01*
X-129586792Y133053220D01*
X-129263375Y132881256D01*
X-128979516Y132649746D01*
X-128746035Y132367514D01*
X-128571817Y132045305D01*
X-128463498Y131695386D01*
X-128422000Y131300557D01*
X-128422000Y93980734D01*
X-190627000Y94066356D01*
X-190627000Y95410660D01*
X-172100324Y95410660D01*
X-171955871Y95146684D01*
X-171762694Y94915961D01*
X-171528217Y94727359D01*
X-171289337Y94599690D01*
X-171061000Y94687260D01*
X-171061000Y95639000D01*
X-170315000Y95639000D01*
X-170315000Y94687260D01*
X-170086663Y94599690D01*
X-169847783Y94727359D01*
X-169613306Y94915961D01*
X-169420129Y95146684D01*
X-169275676Y95410660D01*
X-169357744Y95639000D01*
X-170315000Y95639000D01*
X-171061000Y95639000D01*
X-172018256Y95639000D01*
X-172100324Y95410660D01*
X-190627000Y95410660D01*
X-190627000Y96613340D01*
X-172100324Y96613340D01*
X-172018256Y96385000D01*
X-171061000Y96385000D01*
X-171061000Y97336740D01*
X-170315000Y97336740D01*
X-170315000Y96385000D01*
X-169357744Y96385000D01*
X-169275676Y96613340D01*
X-169420129Y96877316D01*
X-169613306Y97108039D01*
X-169847783Y97296641D01*
X-170086663Y97424310D01*
X-170315000Y97336740D01*
X-171061000Y97336740D01*
X-171289337Y97424310D01*
X-171528217Y97296641D01*
X-171762694Y97108039D01*
X-171955871Y96877316D01*
X-172100324Y96613340D01*
X-190627000Y96613340D01*
X-190627000Y97928000D01*
X-156986072Y97928000D01*
X-156986072Y96128000D01*
X-156973812Y96003518D01*
X-156937502Y95883820D01*
X-156878537Y95773506D01*
X-156799185Y95676815D01*
X-156702494Y95597463D01*
X-156592180Y95538498D01*
X-156472482Y95502188D01*
X-156348000Y95489928D01*
X-154548000Y95489928D01*
X-154423518Y95502188D01*
X-154303820Y95538498D01*
X-154193506Y95597463D01*
X-154096815Y95676815D01*
X-154017463Y95773506D01*
X-153958498Y95883820D01*
X-153922188Y96003518D01*
X-153909928Y96128000D01*
X-153909928Y97179184D01*
X-149363000Y97179184D01*
X-149363000Y96876816D01*
X-149304011Y96580257D01*
X-149188299Y96300905D01*
X-149020312Y96049495D01*
X-148806505Y95835688D01*
X-148555095Y95667701D01*
X-148275743Y95551989D01*
X-147979184Y95493000D01*
X-147676816Y95493000D01*
X-147380257Y95551989D01*
X-147100905Y95667701D01*
X-146849495Y95835688D01*
X-146635688Y96049495D01*
X-146467701Y96300905D01*
X-146351989Y96580257D01*
X-146293000Y96876816D01*
X-146293000Y97179184D01*
X-146351989Y97475743D01*
X-146467701Y97755095D01*
X-146635688Y98006505D01*
X-146849495Y98220312D01*
X-147100905Y98388299D01*
X-147380257Y98504011D01*
X-147676816Y98563000D01*
X-147979184Y98563000D01*
X-148275743Y98504011D01*
X-148555095Y98388299D01*
X-148806505Y98220312D01*
X-149020312Y98006505D01*
X-149188299Y97755095D01*
X-149304011Y97475743D01*
X-149363000Y97179184D01*
X-153909928Y97179184D01*
X-153909928Y97928000D01*
X-153922188Y98052482D01*
X-153958498Y98172180D01*
X-154017463Y98282494D01*
X-154096815Y98379185D01*
X-154193506Y98458537D01*
X-154303820Y98517502D01*
X-154423518Y98553812D01*
X-154548000Y98566072D01*
X-156348000Y98566072D01*
X-156472482Y98553812D01*
X-156592180Y98517502D01*
X-156702494Y98458537D01*
X-156799185Y98379185D01*
X-156878537Y98282494D01*
X-156937502Y98172180D01*
X-156973812Y98052482D01*
X-156986072Y97928000D01*
X-190627000Y97928000D01*
X-190627000Y98298000D01*
X-190629440Y98322776D01*
X-190636667Y98346601D01*
X-190648403Y98368557D01*
X-190664197Y98387803D01*
X-190683443Y98403597D01*
X-190705399Y98415333D01*
X-190729224Y98422560D01*
X-190754000Y98425000D01*
X-203454000Y98425000D01*
X-203478776Y98422560D01*
X-203502601Y98415333D01*
X-203524557Y98403597D01*
X-203543803Y98387803D01*
X-203559597Y98368557D01*
X-203571333Y98346601D01*
X-203578560Y98322776D01*
X-203581000Y98298000D01*
X-203581000Y97848490D01*
X-203605774Y97831937D01*
X-203749937Y97687774D01*
X-203863205Y97518256D01*
X-203941226Y97329898D01*
X-203981000Y97129939D01*
X-203981000Y96926061D01*
X-203972624Y96883953D01*
X-203971817Y96872163D01*
X-203956895Y96772132D01*
X-203935995Y96681978D01*
X-203902963Y96579740D01*
X-203872162Y96506317D01*
X-203830962Y96425015D01*
X-203793563Y96362746D01*
X-203765034Y96319367D01*
X-203724334Y96262675D01*
X-203707578Y96239336D01*
X-203705999Y96216272D01*
X-203705999Y94084359D01*
X-218288000Y94104431D01*
X-218288000Y109953240D01*
X-211527758Y109953240D01*
X-211389134Y109698867D01*
X-211046761Y109582953D01*
X-210688352Y109536060D01*
X-210327681Y109559990D01*
X-209978610Y109653824D01*
X-209869866Y109698867D01*
X-209731242Y109953240D01*
X-209058258Y109953240D01*
X-208919634Y109698867D01*
X-208577261Y109582953D01*
X-208218852Y109536060D01*
X-207858181Y109559990D01*
X-207509110Y109653824D01*
X-207400366Y109698867D01*
X-207261742Y109953240D01*
X-208160000Y110851498D01*
X-209058258Y109953240D01*
X-209731242Y109953240D01*
X-210629500Y110851498D01*
X-211527758Y109953240D01*
X-218288000Y109953240D01*
X-218288000Y111437852D01*
X-212472440Y111437852D01*
X-212448510Y111077181D01*
X-212354676Y110728110D01*
X-212309633Y110619366D01*
X-212055260Y110480742D01*
X-211157002Y111379000D01*
X-210101998Y111379000D01*
X-209991718Y111268720D01*
X-209979010Y111077181D01*
X-209885176Y110728110D01*
X-209840133Y110619366D01*
X-209585760Y110480742D01*
X-209394750Y110671752D01*
X-209203740Y110480742D01*
X-208949367Y110619366D01*
X-208833453Y110961739D01*
X-208792612Y111273890D01*
X-208687502Y111379000D01*
X-207632498Y111379000D01*
X-207309553Y111056055D01*
X-207221960Y110760297D01*
X-207213678Y110740302D01*
X-206979527Y110626974D01*
X-206930000Y110676502D01*
X-206734240Y110480742D01*
X-206479867Y110619366D01*
X-206363953Y110961739D01*
X-206321682Y111284820D01*
X-206227502Y111379000D01*
X-206327607Y111479105D01*
X-206340990Y111680819D01*
X-206434824Y112029890D01*
X-206479867Y112138634D01*
X-206734240Y112277258D01*
X-206930000Y112081498D01*
X-206979527Y112131026D01*
X-207213678Y112017698D01*
X-207309197Y111710123D01*
X-207310116Y111701382D01*
X-207632498Y111379000D01*
X-208687502Y111379000D01*
X-208797782Y111489280D01*
X-208810490Y111680819D01*
X-208904324Y112029890D01*
X-208949367Y112138634D01*
X-209203740Y112277258D01*
X-209394750Y112086248D01*
X-209585760Y112277258D01*
X-209840133Y112138634D01*
X-209956047Y111796261D01*
X-209996888Y111484110D01*
X-210101998Y111379000D01*
X-211157002Y111379000D01*
X-212055260Y112277258D01*
X-212309633Y112138634D01*
X-212425547Y111796261D01*
X-212472440Y111437852D01*
X-218288000Y111437852D01*
X-218288000Y112804760D01*
X-211527758Y112804760D01*
X-210629500Y111906502D01*
X-209731242Y112804760D01*
X-209058258Y112804760D01*
X-208160000Y111906502D01*
X-207407975Y112658527D01*
X-206452026Y112658527D01*
X-205700000Y111906502D01*
X-205685858Y111920644D01*
X-205158356Y111393142D01*
X-205172498Y111379000D01*
X-205158356Y111364858D01*
X-205685858Y110837356D01*
X-205700000Y110851498D01*
X-206452026Y110099473D01*
X-206338698Y109865322D01*
X-206031123Y109769803D01*
X-205710822Y109736125D01*
X-205390105Y109765582D01*
X-205081297Y109857040D01*
X-205061302Y109865322D01*
X-204947975Y110099470D01*
X-204802473Y109953968D01*
X-204731024Y110025417D01*
X-204730537Y110024506D01*
X-204651185Y109927815D01*
X-204554494Y109848463D01*
X-204444180Y109789498D01*
X-204324482Y109753188D01*
X-204200000Y109740928D01*
X-202321947Y109740928D01*
X-202311185Y109727815D01*
X-202214494Y109648463D01*
X-202104180Y109589498D01*
X-201984482Y109553188D01*
X-201860000Y109540928D01*
X-199460000Y109540928D01*
X-199390000Y109547822D01*
X-199320000Y109540928D01*
X-196920000Y109540928D01*
X-196795518Y109553188D01*
X-196675820Y109589498D01*
X-196565506Y109648463D01*
X-196468815Y109727815D01*
X-196389463Y109824506D01*
X-196330498Y109934820D01*
X-196294188Y110054518D01*
X-196281928Y110179000D01*
X-196281928Y110376843D01*
X-191930000Y110376843D01*
X-191930000Y110095157D01*
X-191875046Y109818884D01*
X-191767249Y109558641D01*
X-191610753Y109324428D01*
X-191411572Y109125247D01*
X-191177359Y108968751D01*
X-190917116Y108860954D01*
X-190640843Y108806000D01*
X-190359157Y108806000D01*
X-190082884Y108860954D01*
X-189822641Y108968751D01*
X-189588428Y109125247D01*
X-189389247Y109324428D01*
X-189232751Y109558641D01*
X-189124954Y109818884D01*
X-189070000Y110095157D01*
X-189070000Y110376843D01*
X-189124954Y110653116D01*
X-189232751Y110913359D01*
X-189389247Y111147572D01*
X-189501675Y111260000D01*
X-179451000Y111260000D01*
X-179451000Y102608000D01*
X-179445568Y102525117D01*
X-179428531Y102395707D01*
X-179385627Y102235586D01*
X-179335677Y102114996D01*
X-179252790Y101971433D01*
X-179173330Y101867880D01*
X-179056120Y101750670D01*
X-178952567Y101671210D01*
X-178809004Y101588323D01*
X-178688414Y101538373D01*
X-178528293Y101495469D01*
X-178398883Y101478432D01*
X-178316000Y101473000D01*
X-165735000Y101473000D01*
X-165735000Y100830000D01*
X-165729568Y100747117D01*
X-165712531Y100617707D01*
X-165669627Y100457586D01*
X-165619677Y100336996D01*
X-165536790Y100193433D01*
X-165457330Y100089880D01*
X-165340120Y99972670D01*
X-165236567Y99893210D01*
X-165093004Y99810323D01*
X-164972414Y99760373D01*
X-164812293Y99717469D01*
X-164682883Y99700432D01*
X-164600000Y99695000D01*
X-163060000Y99695000D01*
X-162977117Y99700432D01*
X-162847707Y99717469D01*
X-162687586Y99760373D01*
X-162566996Y99810323D01*
X-162423433Y99893210D01*
X-162319880Y99972670D01*
X-162202670Y100089880D01*
X-162123210Y100193433D01*
X-162040323Y100336996D01*
X-162007628Y100415928D01*
X-160744000Y100415928D01*
X-160619518Y100428188D01*
X-160499820Y100464498D01*
X-160389506Y100523463D01*
X-160292815Y100602815D01*
X-160213463Y100699506D01*
X-160154498Y100809820D01*
X-160118188Y100929518D01*
X-160105928Y101054000D01*
X-160105928Y102654000D01*
X-160118188Y102778482D01*
X-160154498Y102898180D01*
X-160213463Y103008494D01*
X-160292815Y103105185D01*
X-160389506Y103184537D01*
X-160499820Y103243502D01*
X-160619518Y103279812D01*
X-160744000Y103292072D01*
X-161925000Y103292072D01*
X-161925000Y105029000D01*
X-156738207Y105029000D01*
X-156827853Y104812574D01*
X-156883000Y104535335D01*
X-156883000Y104252665D01*
X-156827853Y103975426D01*
X-156719680Y103714273D01*
X-156562637Y103479241D01*
X-156362759Y103279363D01*
X-156130241Y103124000D01*
X-156362759Y102968637D01*
X-156562637Y102768759D01*
X-156719680Y102533727D01*
X-156827853Y102272574D01*
X-156883000Y101995335D01*
X-156883000Y101712665D01*
X-156827853Y101435426D01*
X-156719680Y101174273D01*
X-156562637Y100939241D01*
X-156362759Y100739363D01*
X-156127727Y100582320D01*
X-155866574Y100474147D01*
X-155589335Y100419000D01*
X-155306665Y100419000D01*
X-155029426Y100474147D01*
X-154768273Y100582320D01*
X-154533241Y100739363D01*
X-154333363Y100939241D01*
X-154176320Y101174273D01*
X-154068147Y101435426D01*
X-154013000Y101712665D01*
X-154013000Y101995335D01*
X-154068147Y102272574D01*
X-154176320Y102533727D01*
X-154256683Y102654000D01*
X-149266072Y102654000D01*
X-149266072Y101054000D01*
X-149253812Y100929518D01*
X-149217502Y100809820D01*
X-149158537Y100699506D01*
X-149079185Y100602815D01*
X-148982494Y100523463D01*
X-148872180Y100464498D01*
X-148752482Y100428188D01*
X-148628000Y100415928D01*
X-147028000Y100415928D01*
X-146903518Y100428188D01*
X-146783820Y100464498D01*
X-146673506Y100523463D01*
X-146576815Y100602815D01*
X-146497463Y100699506D01*
X-146438498Y100809820D01*
X-146402188Y100929518D01*
X-146389928Y101054000D01*
X-146389928Y102654000D01*
X-144186072Y102654000D01*
X-144186072Y101054000D01*
X-144173812Y100929518D01*
X-144137502Y100809820D01*
X-144078537Y100699506D01*
X-143999185Y100602815D01*
X-143902494Y100523463D01*
X-143792180Y100464498D01*
X-143672482Y100428188D01*
X-143548000Y100415928D01*
X-141948000Y100415928D01*
X-141823518Y100428188D01*
X-141703820Y100464498D01*
X-141593506Y100523463D01*
X-141517877Y100585530D01*
X-141503421Y100571074D01*
X-141352423Y100722072D01*
X-141264941Y100507906D01*
X-140992398Y100432920D01*
X-140710463Y100412546D01*
X-140429970Y100447566D01*
X-140231059Y100507906D01*
X-140143576Y100722074D01*
X-140748000Y101326498D01*
X-140762142Y101312356D01*
X-141289644Y101839858D01*
X-141275502Y101854000D01*
X-140220498Y101854000D01*
X-139616074Y101249576D01*
X-139401906Y101337059D01*
X-139326920Y101609602D01*
X-139306546Y101891537D01*
X-139341566Y102172030D01*
X-139401906Y102370941D01*
X-139616074Y102458424D01*
X-140220498Y101854000D01*
X-141275502Y101854000D01*
X-141289644Y101868142D01*
X-140762142Y102395644D01*
X-140748000Y102381502D01*
X-140143576Y102985926D01*
X-140231059Y103200094D01*
X-140503602Y103275080D01*
X-140785537Y103295454D01*
X-141066030Y103260434D01*
X-141264941Y103200094D01*
X-141352423Y102985928D01*
X-141503421Y103136926D01*
X-141517877Y103122470D01*
X-141593506Y103184537D01*
X-141703820Y103243502D01*
X-141823518Y103279812D01*
X-141948000Y103292072D01*
X-143548000Y103292072D01*
X-143672482Y103279812D01*
X-143792180Y103243502D01*
X-143902494Y103184537D01*
X-143999185Y103105185D01*
X-144078537Y103008494D01*
X-144137502Y102898180D01*
X-144173812Y102778482D01*
X-144186072Y102654000D01*
X-146389928Y102654000D01*
X-146402188Y102778482D01*
X-146438498Y102898180D01*
X-146497463Y103008494D01*
X-146576815Y103105185D01*
X-146673506Y103184537D01*
X-146783820Y103243502D01*
X-146903518Y103279812D01*
X-146911961Y103280643D01*
X-146713363Y103479241D01*
X-146556320Y103714273D01*
X-146448147Y103975426D01*
X-146393000Y104252665D01*
X-146393000Y104535335D01*
X-146448147Y104812574D01*
X-146556320Y105073727D01*
X-146713363Y105308759D01*
X-146913241Y105508637D01*
X-147145759Y105664000D01*
X-146913241Y105819363D01*
X-146713363Y106019241D01*
X-146556320Y106254273D01*
X-146448147Y106515426D01*
X-146393000Y106792665D01*
X-146393000Y107075335D01*
X-146448147Y107352574D01*
X-146556320Y107613727D01*
X-146713363Y107848759D01*
X-146913241Y108048637D01*
X-147148273Y108205680D01*
X-147160413Y108210708D01*
X-146998444Y108303059D01*
X-146785944Y108487397D01*
X-146613490Y108709649D01*
X-146517735Y108888825D01*
X-146607473Y109101000D01*
X-147455000Y109101000D01*
X-147455000Y109081000D01*
X-148201000Y109081000D01*
X-148201000Y109101000D01*
X-149048527Y109101000D01*
X-149138265Y108888825D01*
X-149042510Y108709649D01*
X-148870056Y108487397D01*
X-148657556Y108303059D01*
X-148495587Y108210708D01*
X-148507727Y108205680D01*
X-148742759Y108048637D01*
X-148942637Y107848759D01*
X-149099680Y107613727D01*
X-149207853Y107352574D01*
X-149263000Y107075335D01*
X-149263000Y106792665D01*
X-149207853Y106515426D01*
X-149099680Y106254273D01*
X-148942637Y106019241D01*
X-148742759Y105819363D01*
X-148510241Y105664000D01*
X-148742759Y105508637D01*
X-148942637Y105308759D01*
X-149099680Y105073727D01*
X-149207853Y104812574D01*
X-149263000Y104535335D01*
X-149263000Y104252665D01*
X-149207853Y103975426D01*
X-149099680Y103714273D01*
X-148942637Y103479241D01*
X-148744039Y103280643D01*
X-148752482Y103279812D01*
X-148872180Y103243502D01*
X-148982494Y103184537D01*
X-149079185Y103105185D01*
X-149158537Y103008494D01*
X-149217502Y102898180D01*
X-149253812Y102778482D01*
X-149266072Y102654000D01*
X-154256683Y102654000D01*
X-154333363Y102768759D01*
X-154533241Y102968637D01*
X-154765759Y103124000D01*
X-154533241Y103279363D01*
X-154333363Y103479241D01*
X-154176320Y103714273D01*
X-154068147Y103975426D01*
X-154013000Y104252665D01*
X-154013000Y104535335D01*
X-154068147Y104812574D01*
X-154176320Y105073727D01*
X-154215146Y105131834D01*
X-154184996Y105144323D01*
X-154041433Y105227210D01*
X-153937880Y105306670D01*
X-153820670Y105423880D01*
X-153741210Y105527433D01*
X-153658323Y105670996D01*
X-153608373Y105791586D01*
X-153565469Y105951707D01*
X-153548432Y106081117D01*
X-153543000Y106164000D01*
X-153543000Y110059175D01*
X-149138265Y110059175D01*
X-149048527Y109847000D01*
X-148201000Y109847000D01*
X-148201000Y110700940D01*
X-147455000Y110700940D01*
X-147455000Y109847000D01*
X-146607473Y109847000D01*
X-146517735Y110059175D01*
X-146613490Y110238351D01*
X-146785944Y110460603D01*
X-146998444Y110644941D01*
X-147242823Y110784280D01*
X-147455000Y110700940D01*
X-148201000Y110700940D01*
X-148413177Y110784280D01*
X-148657556Y110644941D01*
X-148870056Y110460603D01*
X-149042510Y110238351D01*
X-149138265Y110059175D01*
X-153543000Y110059175D01*
X-153543000Y110244000D01*
X-153548432Y110326883D01*
X-153565469Y110456293D01*
X-153608373Y110616414D01*
X-153658323Y110737004D01*
X-153741210Y110880567D01*
X-153820670Y110984120D01*
X-153937880Y111101330D01*
X-154041433Y111180790D01*
X-154184996Y111263677D01*
X-154305586Y111313627D01*
X-154465707Y111356531D01*
X-154595117Y111373568D01*
X-154678000Y111379000D01*
X-156218000Y111379000D01*
X-156300883Y111373568D01*
X-156430293Y111356531D01*
X-156590414Y111313627D01*
X-156711004Y111263677D01*
X-156854567Y111180790D01*
X-156958120Y111101330D01*
X-157075330Y110984120D01*
X-157154790Y110880567D01*
X-157237677Y110737004D01*
X-157287627Y110616414D01*
X-157330531Y110456293D01*
X-157347568Y110326883D01*
X-157353000Y110244000D01*
X-157353000Y109347000D01*
X-164017428Y109347000D01*
X-164017428Y111236000D01*
X-164029688Y111360482D01*
X-164065998Y111480180D01*
X-164124963Y111590494D01*
X-164204315Y111687185D01*
X-164301006Y111766537D01*
X-164411320Y111825502D01*
X-164531018Y111861812D01*
X-164655500Y111874072D01*
X-166560500Y111874072D01*
X-166684982Y111861812D01*
X-166804680Y111825502D01*
X-166914994Y111766537D01*
X-167011685Y111687185D01*
X-167091037Y111590494D01*
X-167135905Y111506554D01*
X-167261765Y111609845D01*
X-167537551Y111757255D01*
X-167836796Y111848030D01*
X-168148000Y111878681D01*
X-168459203Y111848030D01*
X-168758448Y111757255D01*
X-168874410Y111695272D01*
X-168898323Y111753004D01*
X-168981210Y111896567D01*
X-169060670Y112000120D01*
X-169177880Y112117330D01*
X-169281433Y112196790D01*
X-169424996Y112279677D01*
X-169545586Y112329627D01*
X-169705707Y112372531D01*
X-169835117Y112389568D01*
X-169918000Y112395000D01*
X-178316000Y112395000D01*
X-178398883Y112389568D01*
X-178528293Y112372531D01*
X-178688414Y112329627D01*
X-178809004Y112279677D01*
X-178952567Y112196790D01*
X-179056120Y112117330D01*
X-179173330Y112000120D01*
X-179252790Y111896567D01*
X-179335677Y111753004D01*
X-179385627Y111632414D01*
X-179428531Y111472293D01*
X-179445568Y111342883D01*
X-179451000Y111260000D01*
X-189501675Y111260000D01*
X-189588428Y111346753D01*
X-189822641Y111503249D01*
X-190082884Y111611046D01*
X-190359157Y111666000D01*
X-190640843Y111666000D01*
X-190917116Y111611046D01*
X-191177359Y111503249D01*
X-191411572Y111346753D01*
X-191610753Y111147572D01*
X-191767249Y110913359D01*
X-191875046Y110653116D01*
X-191930000Y110376843D01*
X-196281928Y110376843D01*
X-196281928Y112579000D01*
X-196294188Y112703482D01*
X-196330498Y112823180D01*
X-196389463Y112933494D01*
X-196468815Y113030185D01*
X-196565506Y113109537D01*
X-196675820Y113168502D01*
X-196795518Y113204812D01*
X-196920000Y113217072D01*
X-199320000Y113217072D01*
X-199390000Y113210178D01*
X-199460000Y113217072D01*
X-201860000Y113217072D01*
X-201984482Y113204812D01*
X-202104180Y113168502D01*
X-202214494Y113109537D01*
X-202311185Y113030185D01*
X-202321947Y113017072D01*
X-204200000Y113017072D01*
X-204324482Y113004812D01*
X-204444180Y112968502D01*
X-204554494Y112909537D01*
X-204651185Y112830185D01*
X-204730537Y112733494D01*
X-204731024Y112732583D01*
X-204802473Y112804032D01*
X-204947975Y112658530D01*
X-205061302Y112892678D01*
X-205368877Y112988197D01*
X-205689178Y113021875D01*
X-206009895Y112992418D01*
X-206318703Y112900960D01*
X-206338698Y112892678D01*
X-206452026Y112658527D01*
X-207407975Y112658527D01*
X-207261742Y112804760D01*
X-207400366Y113059133D01*
X-207742739Y113175047D01*
X-208101148Y113221940D01*
X-208461819Y113198010D01*
X-208810890Y113104176D01*
X-208919634Y113059133D01*
X-209058258Y112804760D01*
X-209731242Y112804760D01*
X-209869866Y113059133D01*
X-210212239Y113175047D01*
X-210570648Y113221940D01*
X-210931319Y113198010D01*
X-211280390Y113104176D01*
X-211389134Y113059133D01*
X-211527758Y112804760D01*
X-218288000Y112804760D01*
X-218288000Y119618000D01*
X-165896072Y119618000D01*
X-165896072Y117618000D01*
X-165883812Y117493518D01*
X-165847502Y117373820D01*
X-165788537Y117263506D01*
X-165709185Y117166815D01*
X-165612494Y117087463D01*
X-165502180Y117028498D01*
X-165382482Y116992188D01*
X-165258000Y116979928D01*
X-163258000Y116979928D01*
X-163133518Y116992188D01*
X-163013820Y117028498D01*
X-162903506Y117087463D01*
X-162806815Y117166815D01*
X-162727463Y117263506D01*
X-162687392Y117338473D01*
X-160010026Y117338473D01*
X-159896698Y117104322D01*
X-159589123Y117008803D01*
X-159268822Y116975125D01*
X-158948105Y117004582D01*
X-158639297Y117096040D01*
X-158619302Y117104322D01*
X-158505974Y117338473D01*
X-159258000Y118090498D01*
X-160010026Y117338473D01*
X-162687392Y117338473D01*
X-162668498Y117373820D01*
X-162632188Y117493518D01*
X-162619928Y117618000D01*
X-162619928Y118628822D01*
X-160900875Y118628822D01*
X-160871418Y118308105D01*
X-160779960Y117999297D01*
X-160771678Y117979302D01*
X-160537527Y117865974D01*
X-159785502Y118618000D01*
X-158730498Y118618000D01*
X-157978473Y117865974D01*
X-157744322Y117979302D01*
X-157648803Y118286877D01*
X-157615125Y118607178D01*
X-157644582Y118927895D01*
X-157736040Y119236703D01*
X-157744322Y119256698D01*
X-157978473Y119370026D01*
X-158730498Y118618000D01*
X-159785502Y118618000D01*
X-160537527Y119370026D01*
X-160771678Y119256698D01*
X-160867197Y118949123D01*
X-160900875Y118628822D01*
X-162619928Y118628822D01*
X-162619928Y119618000D01*
X-162632188Y119742482D01*
X-162668498Y119862180D01*
X-162687391Y119897527D01*
X-160010026Y119897527D01*
X-159258000Y119145502D01*
X-158505974Y119897527D01*
X-158619302Y120131678D01*
X-158926877Y120227197D01*
X-159247178Y120260875D01*
X-159567895Y120231418D01*
X-159876703Y120139960D01*
X-159896698Y120131678D01*
X-160010026Y119897527D01*
X-162687391Y119897527D01*
X-162727463Y119972494D01*
X-162806815Y120069185D01*
X-162903506Y120148537D01*
X-163013820Y120207502D01*
X-163133518Y120243812D01*
X-163258000Y120256072D01*
X-165258000Y120256072D01*
X-165382482Y120243812D01*
X-165502180Y120207502D01*
X-165612494Y120148537D01*
X-165709185Y120069185D01*
X-165788537Y119972494D01*
X-165847502Y119862180D01*
X-165883812Y119742482D01*
X-165896072Y119618000D01*
X-218288000Y119618000D01*
X-218288000Y124684804D01*
X-215655694Y124684804D01*
X-215236627Y124194857D01*
X-214499773Y123847734D01*
X-213709356Y123651034D01*
X-212895752Y123612316D01*
X-212090229Y123733069D01*
X-211323742Y124008650D01*
X-210975373Y124194857D01*
X-210556306Y124684804D01*
X-210870214Y124998712D01*
X-210850396Y125120316D01*
X-211249845Y125519765D01*
X-211320556Y125449054D01*
X-211706636Y125835134D01*
X-211635925Y125905845D01*
X-212035374Y126305294D01*
X-212156978Y126285476D01*
X-213106000Y127234498D01*
X-214055022Y126285476D01*
X-214176626Y126305294D01*
X-214576075Y125905845D01*
X-214505364Y125835134D01*
X-214891444Y125449054D01*
X-214962155Y125519765D01*
X-215361604Y125120316D01*
X-215341786Y124998712D01*
X-215655694Y124684804D01*
X-218288000Y124684804D01*
X-218288000Y127551752D01*
X-217255684Y127551752D01*
X-217134931Y126746229D01*
X-216859350Y125979742D01*
X-216673143Y125631373D01*
X-216183196Y125212306D01*
X-215869288Y125526214D01*
X-215747684Y125506396D01*
X-215348235Y125905845D01*
X-215418946Y125976556D01*
X-215032866Y126362636D01*
X-214962155Y126291925D01*
X-214562706Y126691374D01*
X-214582524Y126812978D01*
X-213633502Y127762000D01*
X-212578498Y127762000D01*
X-211629476Y126812978D01*
X-211649294Y126691374D01*
X-211249845Y126291925D01*
X-211179134Y126362636D01*
X-210793054Y125976556D01*
X-210863765Y125905845D01*
X-210464316Y125506396D01*
X-210342712Y125526214D01*
X-210028804Y125212306D01*
X-209538857Y125631373D01*
X-209191734Y126368227D01*
X-208995034Y127158644D01*
X-208956316Y127972248D01*
X-208985849Y128169262D01*
X-204795000Y128169262D01*
X-204795000Y127354738D01*
X-204636094Y126555865D01*
X-204324389Y125803343D01*
X-203871864Y125126091D01*
X-203295909Y124550136D01*
X-202618657Y124097611D01*
X-201866135Y123785906D01*
X-201067262Y123627000D01*
X-200252738Y123627000D01*
X-199453865Y123785906D01*
X-198701343Y124097611D01*
X-198024091Y124550136D01*
X-197448136Y125126091D01*
X-196995611Y125803343D01*
X-196683906Y126555865D01*
X-196525000Y127354738D01*
X-196525000Y128169262D01*
X-196575523Y128423262D01*
X-172283000Y128423262D01*
X-172283000Y127608738D01*
X-172124094Y126809865D01*
X-171812389Y126057343D01*
X-171359864Y125380091D01*
X-170783909Y124804136D01*
X-170106657Y124351611D01*
X-169354135Y124039906D01*
X-168555262Y123881000D01*
X-167740738Y123881000D01*
X-166941865Y124039906D01*
X-166189343Y124351611D01*
X-165512091Y124804136D01*
X-165377423Y124938804D01*
X-157489694Y124938804D01*
X-157070627Y124448857D01*
X-156333773Y124101734D01*
X-155543356Y123905034D01*
X-154729752Y123866316D01*
X-153924229Y123987069D01*
X-153157742Y124262650D01*
X-152809373Y124448857D01*
X-152390306Y124938804D01*
X-152704214Y125252712D01*
X-152684396Y125374316D01*
X-153083845Y125773765D01*
X-153154556Y125703054D01*
X-153540636Y126089134D01*
X-153469925Y126159845D01*
X-153869374Y126559294D01*
X-153990978Y126539476D01*
X-154940000Y127488498D01*
X-155889022Y126539476D01*
X-156010626Y126559294D01*
X-156410075Y126159845D01*
X-156339364Y126089134D01*
X-156725444Y125703054D01*
X-156796155Y125773765D01*
X-157195604Y125374316D01*
X-157175786Y125252712D01*
X-157489694Y124938804D01*
X-165377423Y124938804D01*
X-164936136Y125380091D01*
X-164483611Y126057343D01*
X-164171906Y126809865D01*
X-164013000Y127608738D01*
X-164013000Y127805752D01*
X-159089684Y127805752D01*
X-158968931Y127000229D01*
X-158693350Y126233742D01*
X-158507143Y125885373D01*
X-158017196Y125466306D01*
X-157703288Y125780214D01*
X-157581684Y125760396D01*
X-157182235Y126159845D01*
X-157252946Y126230556D01*
X-156866866Y126616636D01*
X-156796155Y126545925D01*
X-156396706Y126945374D01*
X-156416524Y127066978D01*
X-155467502Y128016000D01*
X-154412498Y128016000D01*
X-153463476Y127066978D01*
X-153483294Y126945374D01*
X-153083845Y126545925D01*
X-153013134Y126616636D01*
X-152627054Y126230556D01*
X-152697765Y126159845D01*
X-152298316Y125760396D01*
X-152176712Y125780214D01*
X-151862804Y125466306D01*
X-151372857Y125885373D01*
X-151025734Y126622227D01*
X-150829034Y127412644D01*
X-150790316Y128226248D01*
X-150911069Y129031771D01*
X-151186650Y129798258D01*
X-151372857Y130146627D01*
X-151862804Y130565694D01*
X-152176712Y130251786D01*
X-152298316Y130271604D01*
X-152697765Y129872155D01*
X-152627054Y129801444D01*
X-153013134Y129415364D01*
X-153083845Y129486075D01*
X-153483294Y129086626D01*
X-153463476Y128965022D01*
X-154412498Y128016000D01*
X-155467502Y128016000D01*
X-156416524Y128965022D01*
X-156396706Y129086626D01*
X-156796155Y129486075D01*
X-156866866Y129415364D01*
X-157252946Y129801444D01*
X-157182235Y129872155D01*
X-157581684Y130271604D01*
X-157703288Y130251786D01*
X-158017196Y130565694D01*
X-158507143Y130146627D01*
X-158854266Y129409773D01*
X-159050966Y128619356D01*
X-159089684Y127805752D01*
X-164013000Y127805752D01*
X-164013000Y128423262D01*
X-164171906Y129222135D01*
X-164483611Y129974657D01*
X-164936136Y130651909D01*
X-165377423Y131093196D01*
X-157489694Y131093196D01*
X-157175786Y130779288D01*
X-157195604Y130657684D01*
X-156796155Y130258235D01*
X-156725444Y130328946D01*
X-156339364Y129942866D01*
X-156410075Y129872155D01*
X-156010626Y129472706D01*
X-155889022Y129492524D01*
X-154940000Y128543502D01*
X-153990978Y129492524D01*
X-153869374Y129472706D01*
X-153469925Y129872155D01*
X-153540636Y129942866D01*
X-153154556Y130328946D01*
X-153083845Y130258235D01*
X-152684396Y130657684D01*
X-152704214Y130779288D01*
X-152390306Y131093196D01*
X-152809373Y131583143D01*
X-153546227Y131930266D01*
X-154336644Y132126966D01*
X-155150248Y132165684D01*
X-155955771Y132044931D01*
X-156722258Y131769350D01*
X-157070627Y131583143D01*
X-157489694Y131093196D01*
X-165377423Y131093196D01*
X-165512091Y131227864D01*
X-166189343Y131680389D01*
X-166941865Y131992094D01*
X-167740738Y132151000D01*
X-168555262Y132151000D01*
X-169354135Y131992094D01*
X-170106657Y131680389D01*
X-170783909Y131227864D01*
X-171359864Y130651909D01*
X-171812389Y129974657D01*
X-172124094Y129222135D01*
X-172283000Y128423262D01*
X-196575523Y128423262D01*
X-196683906Y128968135D01*
X-196995611Y129720657D01*
X-197448136Y130397909D01*
X-198024091Y130973864D01*
X-198701343Y131426389D01*
X-199453865Y131738094D01*
X-200252738Y131897000D01*
X-201067262Y131897000D01*
X-201866135Y131738094D01*
X-202618657Y131426389D01*
X-203295909Y130973864D01*
X-203871864Y130397909D01*
X-204324389Y129720657D01*
X-204636094Y128968135D01*
X-204795000Y128169262D01*
X-208985849Y128169262D01*
X-209077069Y128777771D01*
X-209352650Y129544258D01*
X-209538857Y129892627D01*
X-210028804Y130311694D01*
X-210342712Y129997786D01*
X-210464316Y130017604D01*
X-210863765Y129618155D01*
X-210793054Y129547444D01*
X-211179134Y129161364D01*
X-211249845Y129232075D01*
X-211649294Y128832626D01*
X-211629476Y128711022D01*
X-212578498Y127762000D01*
X-213633502Y127762000D01*
X-214582524Y128711022D01*
X-214562706Y128832626D01*
X-214962155Y129232075D01*
X-215032866Y129161364D01*
X-215418946Y129547444D01*
X-215348235Y129618155D01*
X-215747684Y130017604D01*
X-215869288Y129997786D01*
X-216183196Y130311694D01*
X-216673143Y129892627D01*
X-217020266Y129155773D01*
X-217216966Y128365356D01*
X-217255684Y127551752D01*
X-218288000Y127551752D01*
X-218288000Y130839196D01*
X-215655694Y130839196D01*
X-215341786Y130525288D01*
X-215361604Y130403684D01*
X-214962155Y130004235D01*
X-214891444Y130074946D01*
X-214505364Y129688866D01*
X-214576075Y129618155D01*
X-214176626Y129218706D01*
X-214055022Y129238524D01*
X-213106000Y128289502D01*
X-212156978Y129238524D01*
X-212035374Y129218706D01*
X-211635925Y129618155D01*
X-211706636Y129688866D01*
X-211320556Y130074946D01*
X-211249845Y130004235D01*
X-210850396Y130403684D01*
X-210870214Y130525288D01*
X-210556306Y130839196D01*
X-210975373Y131329143D01*
X-211712227Y131676266D01*
X-212502644Y131872966D01*
X-213316248Y131911684D01*
X-214121771Y131790931D01*
X-214888258Y131515350D01*
X-215236627Y131329143D01*
X-215655694Y130839196D01*
X-218288000Y130839196D01*
X-218288000Y131285721D01*
X-218249091Y131682545D01*
X-218143220Y132033208D01*
X-217971256Y132356625D01*
X-217739746Y132640484D01*
X-217457514Y132873965D01*
X-217135305Y133048183D01*
X-216785386Y133156502D01*
X-216390557Y133198000D01*
X-130334279Y133198000D01*
X-129937455Y133159091D01*
G37*
%TD.AperFunction*%
%TD*%
D32*
%TO.N,Net-(C12-Pad2)*%
X-169821743Y111619231D02*
X-169732045Y111582077D01*
X-169655024Y111522976D01*
X-169595923Y111445955D01*
X-169558769Y111356257D01*
X-169545000Y111251672D01*
X-169545000Y111037548D01*
X-169621755Y110893949D01*
X-169712530Y110594704D01*
X-169735500Y110361486D01*
X-169735500Y110110515D01*
X-169712530Y109877297D01*
X-169621755Y109578052D01*
X-169545000Y109434453D01*
X-169545000Y109212000D01*
X-169543914Y109195423D01*
X-169526877Y109066013D01*
X-169518296Y109033989D01*
X-169468346Y108913399D01*
X-169451768Y108884687D01*
X-169372308Y108781134D01*
X-169348866Y108757692D01*
X-169245313Y108678232D01*
X-169216601Y108661654D01*
X-169096011Y108611704D01*
X-169063987Y108603123D01*
X-168934577Y108586086D01*
X-168918000Y108585000D01*
X-157218000Y108585000D01*
X-157201423Y108586086D01*
X-157072013Y108603123D01*
X-157039989Y108611704D01*
X-156919399Y108661654D01*
X-156890687Y108678232D01*
X-156787134Y108757692D01*
X-156763692Y108781134D01*
X-156684232Y108884687D01*
X-156667654Y108913399D01*
X-156617704Y109033989D01*
X-156609123Y109066013D01*
X-156592086Y109195423D01*
X-156591000Y109212000D01*
X-156591000Y110235672D01*
X-156577231Y110340257D01*
X-156540077Y110429955D01*
X-156480976Y110506976D01*
X-156403955Y110566077D01*
X-156314257Y110603231D01*
X-156209672Y110617000D01*
X-154686328Y110617000D01*
X-154581743Y110603231D01*
X-154492045Y110566077D01*
X-154415024Y110506976D01*
X-154355923Y110429955D01*
X-154318769Y110340257D01*
X-154305000Y110235672D01*
X-154305000Y106172328D01*
X-154318769Y106067743D01*
X-154355923Y105978045D01*
X-154415024Y105901024D01*
X-154492045Y105841923D01*
X-154581743Y105804769D01*
X-154686328Y105791000D01*
X-155115629Y105791000D01*
X-155306665Y105829000D01*
X-155589335Y105829000D01*
X-155780371Y105791000D01*
X-162060000Y105791000D01*
X-162076577Y105789914D01*
X-162205987Y105772877D01*
X-162238011Y105764296D01*
X-162358601Y105714346D01*
X-162387313Y105697768D01*
X-162490866Y105618308D01*
X-162514308Y105594866D01*
X-162593768Y105491313D01*
X-162610346Y105462601D01*
X-162660296Y105342011D01*
X-162668877Y105309987D01*
X-162685914Y105180577D01*
X-162687000Y105164000D01*
X-162687000Y103190681D01*
X-162698494Y103184537D01*
X-162795185Y103105185D01*
X-162874537Y103008494D01*
X-162933502Y102898180D01*
X-162969812Y102778482D01*
X-162982072Y102654000D01*
X-162982072Y101054000D01*
X-162969812Y100929518D01*
X-162933502Y100809820D01*
X-162874537Y100699506D01*
X-162795185Y100602815D01*
X-162779462Y100589911D01*
X-162797024Y100567024D01*
X-162874045Y100507923D01*
X-162963743Y100470769D01*
X-163068328Y100457000D01*
X-164591672Y100457000D01*
X-164696257Y100470769D01*
X-164785955Y100507923D01*
X-164862976Y100567024D01*
X-164922077Y100644045D01*
X-164959231Y100733743D01*
X-164973000Y100838328D01*
X-164973000Y101608000D01*
X-164974086Y101624577D01*
X-164991123Y101753987D01*
X-164999704Y101786011D01*
X-165049654Y101906601D01*
X-165066232Y101935313D01*
X-165145692Y102038866D01*
X-165169134Y102062308D01*
X-165272687Y102141768D01*
X-165301399Y102158346D01*
X-165421989Y102208296D01*
X-165454013Y102216877D01*
X-165583423Y102233914D01*
X-165600000Y102235000D01*
X-178307672Y102235000D01*
X-178412257Y102248769D01*
X-178501955Y102285923D01*
X-178578976Y102345024D01*
X-178638077Y102422045D01*
X-178675231Y102511743D01*
X-178689000Y102616328D01*
X-178689000Y111251672D01*
X-178675231Y111356257D01*
X-178638077Y111445955D01*
X-178578976Y111522976D01*
X-178501955Y111582077D01*
X-178412257Y111619231D01*
X-178307672Y111633000D01*
X-169926328Y111633000D01*
X-169821743Y111619231D01*
%TA.AperFunction,Conductor*%
D33*
G36*
X-169821743Y111619231D02*
G01*
X-169732045Y111582077D01*
X-169655024Y111522976D01*
X-169595923Y111445955D01*
X-169558769Y111356257D01*
X-169545000Y111251672D01*
X-169545000Y111037548D01*
X-169621755Y110893949D01*
X-169712530Y110594704D01*
X-169735500Y110361486D01*
X-169735500Y110110515D01*
X-169712530Y109877297D01*
X-169621755Y109578052D01*
X-169545000Y109434453D01*
X-169545000Y109212000D01*
X-169543914Y109195423D01*
X-169526877Y109066013D01*
X-169518296Y109033989D01*
X-169468346Y108913399D01*
X-169451768Y108884687D01*
X-169372308Y108781134D01*
X-169348866Y108757692D01*
X-169245313Y108678232D01*
X-169216601Y108661654D01*
X-169096011Y108611704D01*
X-169063987Y108603123D01*
X-168934577Y108586086D01*
X-168918000Y108585000D01*
X-157218000Y108585000D01*
X-157201423Y108586086D01*
X-157072013Y108603123D01*
X-157039989Y108611704D01*
X-156919399Y108661654D01*
X-156890687Y108678232D01*
X-156787134Y108757692D01*
X-156763692Y108781134D01*
X-156684232Y108884687D01*
X-156667654Y108913399D01*
X-156617704Y109033989D01*
X-156609123Y109066013D01*
X-156592086Y109195423D01*
X-156591000Y109212000D01*
X-156591000Y110235672D01*
X-156577231Y110340257D01*
X-156540077Y110429955D01*
X-156480976Y110506976D01*
X-156403955Y110566077D01*
X-156314257Y110603231D01*
X-156209672Y110617000D01*
X-154686328Y110617000D01*
X-154581743Y110603231D01*
X-154492045Y110566077D01*
X-154415024Y110506976D01*
X-154355923Y110429955D01*
X-154318769Y110340257D01*
X-154305000Y110235672D01*
X-154305000Y106172328D01*
X-154318769Y106067743D01*
X-154355923Y105978045D01*
X-154415024Y105901024D01*
X-154492045Y105841923D01*
X-154581743Y105804769D01*
X-154686328Y105791000D01*
X-155115629Y105791000D01*
X-155306665Y105829000D01*
X-155589335Y105829000D01*
X-155780371Y105791000D01*
X-162060000Y105791000D01*
X-162076577Y105789914D01*
X-162205987Y105772877D01*
X-162238011Y105764296D01*
X-162358601Y105714346D01*
X-162387313Y105697768D01*
X-162490866Y105618308D01*
X-162514308Y105594866D01*
X-162593768Y105491313D01*
X-162610346Y105462601D01*
X-162660296Y105342011D01*
X-162668877Y105309987D01*
X-162685914Y105180577D01*
X-162687000Y105164000D01*
X-162687000Y103190681D01*
X-162698494Y103184537D01*
X-162795185Y103105185D01*
X-162874537Y103008494D01*
X-162933502Y102898180D01*
X-162969812Y102778482D01*
X-162982072Y102654000D01*
X-162982072Y101054000D01*
X-162969812Y100929518D01*
X-162933502Y100809820D01*
X-162874537Y100699506D01*
X-162795185Y100602815D01*
X-162779462Y100589911D01*
X-162797024Y100567024D01*
X-162874045Y100507923D01*
X-162963743Y100470769D01*
X-163068328Y100457000D01*
X-164591672Y100457000D01*
X-164696257Y100470769D01*
X-164785955Y100507923D01*
X-164862976Y100567024D01*
X-164922077Y100644045D01*
X-164959231Y100733743D01*
X-164973000Y100838328D01*
X-164973000Y101608000D01*
X-164974086Y101624577D01*
X-164991123Y101753987D01*
X-164999704Y101786011D01*
X-165049654Y101906601D01*
X-165066232Y101935313D01*
X-165145692Y102038866D01*
X-165169134Y102062308D01*
X-165272687Y102141768D01*
X-165301399Y102158346D01*
X-165421989Y102208296D01*
X-165454013Y102216877D01*
X-165583423Y102233914D01*
X-165600000Y102235000D01*
X-178307672Y102235000D01*
X-178412257Y102248769D01*
X-178501955Y102285923D01*
X-178578976Y102345024D01*
X-178638077Y102422045D01*
X-178675231Y102511743D01*
X-178689000Y102616328D01*
X-178689000Y111251672D01*
X-178675231Y111356257D01*
X-178638077Y111445955D01*
X-178578976Y111522976D01*
X-178501955Y111582077D01*
X-178412257Y111619231D01*
X-178307672Y111633000D01*
X-169926328Y111633000D01*
X-169821743Y111619231D01*
G37*
%TD.AperFunction*%
%TD*%
D32*
%TO.N,GNDD*%
X-203706000Y64299322D02*
X-203709676Y64262000D01*
X-203706000Y64224678D01*
X-203706000Y64224668D01*
X-203695003Y64113015D01*
X-203651546Y63969754D01*
X-203580974Y63837724D01*
X-203559330Y63811351D01*
X-203486001Y63721999D01*
X-203456998Y63698196D01*
X-203041374Y63282572D01*
X-203026185Y63265151D01*
X-203021530Y63236801D01*
X-203010222Y63167934D01*
X-202999724Y63117096D01*
X-202982139Y63046619D01*
X-202953776Y62959979D01*
X-202923637Y62886283D01*
X-202874705Y62790642D01*
X-202825735Y62712115D01*
X-202765553Y62630830D01*
X-202757794Y62621930D01*
X-202733937Y62586226D01*
X-202589774Y62442063D01*
X-202420256Y62328795D01*
X-202231898Y62250774D01*
X-202031939Y62211000D01*
X-201828061Y62211000D01*
X-201628102Y62250774D01*
X-201439744Y62328795D01*
X-201270226Y62442063D01*
X-201126063Y62586226D01*
X-201012795Y62755744D01*
X-200934774Y62944102D01*
X-200895000Y63144061D01*
X-200895000Y63347939D01*
X-200934774Y63547898D01*
X-201012795Y63736256D01*
X-201126063Y63905774D01*
X-201270226Y64049937D01*
X-201305930Y64073794D01*
X-201314830Y64081553D01*
X-201396115Y64141735D01*
X-201474642Y64190705D01*
X-201570283Y64239637D01*
X-201643979Y64269776D01*
X-201730619Y64298139D01*
X-201801096Y64315724D01*
X-201851934Y64326222D01*
X-201920801Y64337530D01*
X-201949151Y64342185D01*
X-201966572Y64357374D01*
X-202186000Y64576801D01*
X-202186000Y79190956D01*
X-202142000Y79190956D01*
X-202142000Y78924044D01*
X-202089928Y78662261D01*
X-201987785Y78415667D01*
X-201839497Y78193738D01*
X-201650762Y78005003D01*
X-201428833Y77856715D01*
X-201261734Y77787500D01*
X-201428833Y77718285D01*
X-201650762Y77569997D01*
X-201839497Y77381262D01*
X-201987785Y77159333D01*
X-202089928Y76912739D01*
X-202142000Y76650956D01*
X-202142000Y76384044D01*
X-202089928Y76122261D01*
X-201987785Y75875667D01*
X-201839497Y75653738D01*
X-201650762Y75465003D01*
X-201428833Y75316715D01*
X-201261734Y75247500D01*
X-201428833Y75178285D01*
X-201650762Y75029997D01*
X-201839497Y74841262D01*
X-201987785Y74619333D01*
X-202089928Y74372739D01*
X-202142000Y74110956D01*
X-202142000Y73844044D01*
X-202089928Y73582261D01*
X-201987785Y73335667D01*
X-201839497Y73113738D01*
X-201650762Y72925003D01*
X-201428833Y72776715D01*
X-201182239Y72674572D01*
X-200920456Y72622500D01*
X-200653544Y72622500D01*
X-200391761Y72674572D01*
X-200145167Y72776715D01*
X-199923238Y72925003D01*
X-199734503Y73113738D01*
X-199586215Y73335667D01*
X-199484072Y73582261D01*
X-199432000Y73844044D01*
X-199432000Y74110956D01*
X-199484072Y74372739D01*
X-199586215Y74619333D01*
X-199734503Y74841262D01*
X-199923238Y75029997D01*
X-200145167Y75178285D01*
X-200312266Y75247500D01*
X-200145167Y75316715D01*
X-199923238Y75465003D01*
X-199734503Y75653738D01*
X-199586215Y75875667D01*
X-199484072Y76122261D01*
X-199432000Y76384044D01*
X-199432000Y76650956D01*
X-199484072Y76912739D01*
X-199586215Y77159333D01*
X-199734503Y77381262D01*
X-199923238Y77569997D01*
X-200145167Y77718285D01*
X-200312266Y77787500D01*
X-200145167Y77856715D01*
X-199923238Y78005003D01*
X-199734503Y78193738D01*
X-199586215Y78415667D01*
X-199484072Y78662261D01*
X-199432000Y78924044D01*
X-199432000Y79190956D01*
X-199484072Y79452739D01*
X-199586215Y79699333D01*
X-199734503Y79921262D01*
X-199923238Y80109997D01*
X-200145167Y80258285D01*
X-200391761Y80360428D01*
X-200653544Y80412500D01*
X-200920456Y80412500D01*
X-201182239Y80360428D01*
X-201428833Y80258285D01*
X-201650762Y80109997D01*
X-201839497Y79921262D01*
X-201987785Y79699333D01*
X-202089928Y79452739D01*
X-202142000Y79190956D01*
X-202186000Y79190956D01*
X-202186000Y87868987D01*
X-202166256Y87855795D01*
X-201977898Y87777774D01*
X-201777939Y87738000D01*
X-201574061Y87738000D01*
X-201374102Y87777774D01*
X-201185744Y87855795D01*
X-201016226Y87969063D01*
X-200872063Y88113226D01*
X-200859849Y88131506D01*
X-200853109Y88138786D01*
X-200816650Y88181858D01*
X-200761787Y88252843D01*
X-200726938Y88302696D01*
X-200686488Y88366906D01*
X-200659623Y88413877D01*
X-200628780Y88473569D01*
X-200614580Y88502869D01*
X-200588546Y88560294D01*
X-200569225Y88602911D01*
X-200558295Y88624064D01*
X-200548504Y88639605D01*
X-200529525Y88664162D01*
X-200482956Y88714466D01*
X-199999111Y89198310D01*
X-181159248Y89198310D01*
X-181161588Y89193933D01*
X-181212195Y89027110D01*
X-181229281Y88853620D01*
X-181224999Y88810141D01*
X-181225000Y73899579D01*
X-182430515Y72694063D01*
X-182480850Y72647464D01*
X-182505394Y72628495D01*
X-182520935Y72618704D01*
X-182542088Y72607774D01*
X-182584696Y72588457D01*
X-182642130Y72562419D01*
X-182671430Y72548219D01*
X-182731122Y72517376D01*
X-182778093Y72490511D01*
X-182842303Y72450061D01*
X-182892156Y72415212D01*
X-182963141Y72360349D01*
X-183006207Y72323896D01*
X-183013489Y72317155D01*
X-183031774Y72304937D01*
X-183175937Y72160774D01*
X-183279090Y72006394D01*
X-183335520Y72142627D01*
X-183492563Y72377659D01*
X-183692441Y72577537D01*
X-183924959Y72732900D01*
X-183692441Y72888263D01*
X-183492563Y73088141D01*
X-183335520Y73323173D01*
X-183227347Y73584326D01*
X-183172200Y73861565D01*
X-183172200Y74144235D01*
X-183227347Y74421474D01*
X-183335520Y74682627D01*
X-183492563Y74917659D01*
X-183692441Y75117537D01*
X-183924959Y75272900D01*
X-183692441Y75428263D01*
X-183492563Y75628141D01*
X-183335520Y75863173D01*
X-183227347Y76124326D01*
X-183172200Y76401565D01*
X-183172200Y76684235D01*
X-183227347Y76961474D01*
X-183335520Y77222627D01*
X-183492563Y77457659D01*
X-183692441Y77657537D01*
X-183924959Y77812900D01*
X-183692441Y77968263D01*
X-183492563Y78168141D01*
X-183335520Y78403173D01*
X-183227347Y78664326D01*
X-183172200Y78941565D01*
X-183172200Y79224235D01*
X-183227347Y79501474D01*
X-183335520Y79762627D01*
X-183492563Y79997659D01*
X-183692441Y80197537D01*
X-183924959Y80352900D01*
X-183692441Y80508263D01*
X-183492563Y80708141D01*
X-183335520Y80943173D01*
X-183227347Y81204326D01*
X-183172200Y81481565D01*
X-183172200Y81764235D01*
X-183227347Y82041474D01*
X-183335520Y82302627D01*
X-183492563Y82537659D01*
X-183692441Y82737537D01*
X-183924959Y82892900D01*
X-183692441Y83048263D01*
X-183492563Y83248141D01*
X-183335520Y83483173D01*
X-183227347Y83744326D01*
X-183172200Y84021565D01*
X-183172200Y84304235D01*
X-183227347Y84581474D01*
X-183335520Y84842627D01*
X-183492563Y85077659D01*
X-183692441Y85277537D01*
X-183924959Y85432900D01*
X-183692441Y85588263D01*
X-183492563Y85788141D01*
X-183335520Y86023173D01*
X-183227347Y86284326D01*
X-183172200Y86561565D01*
X-183172200Y86844235D01*
X-183227347Y87121474D01*
X-183335520Y87382627D01*
X-183492563Y87617659D01*
X-183692441Y87817537D01*
X-183927473Y87974580D01*
X-184188626Y88082753D01*
X-184465865Y88137900D01*
X-184748535Y88137900D01*
X-185025774Y88082753D01*
X-185286927Y87974580D01*
X-185521959Y87817537D01*
X-185721837Y87617659D01*
X-185878880Y87382627D01*
X-185987053Y87121474D01*
X-186042200Y86844235D01*
X-186042200Y86561565D01*
X-185987053Y86284326D01*
X-185878880Y86023173D01*
X-185721837Y85788141D01*
X-185521959Y85588263D01*
X-185289441Y85432900D01*
X-185521959Y85277537D01*
X-185721837Y85077659D01*
X-185878880Y84842627D01*
X-185987053Y84581474D01*
X-186042200Y84304235D01*
X-186042200Y84021565D01*
X-185987053Y83744326D01*
X-185878880Y83483173D01*
X-185721837Y83248141D01*
X-185521959Y83048263D01*
X-185289441Y82892900D01*
X-185521959Y82737537D01*
X-185721837Y82537659D01*
X-185878880Y82302627D01*
X-185987053Y82041474D01*
X-186042200Y81764235D01*
X-186042200Y81481565D01*
X-185987053Y81204326D01*
X-185878880Y80943173D01*
X-185721837Y80708141D01*
X-185521959Y80508263D01*
X-185289441Y80352900D01*
X-185521959Y80197537D01*
X-185721837Y79997659D01*
X-185878880Y79762627D01*
X-185987053Y79501474D01*
X-186042200Y79224235D01*
X-186042200Y78941565D01*
X-185987053Y78664326D01*
X-185878880Y78403173D01*
X-185721837Y78168141D01*
X-185521959Y77968263D01*
X-185289441Y77812900D01*
X-185521959Y77657537D01*
X-185721837Y77457659D01*
X-185878880Y77222627D01*
X-185987053Y76961474D01*
X-186042200Y76684235D01*
X-186042200Y76401565D01*
X-185987053Y76124326D01*
X-185878880Y75863173D01*
X-185721837Y75628141D01*
X-185521959Y75428263D01*
X-185289441Y75272900D01*
X-185521959Y75117537D01*
X-185721837Y74917659D01*
X-185878880Y74682627D01*
X-185987053Y74421474D01*
X-186042200Y74144235D01*
X-186042200Y73861565D01*
X-185987053Y73584326D01*
X-185878880Y73323173D01*
X-185721837Y73088141D01*
X-185521959Y72888263D01*
X-185289441Y72732900D01*
X-185521959Y72577537D01*
X-185721837Y72377659D01*
X-185878880Y72142627D01*
X-185987053Y71881474D01*
X-186042200Y71604235D01*
X-186042200Y71321565D01*
X-185987053Y71044326D01*
X-185878880Y70783173D01*
X-185721837Y70548141D01*
X-185521959Y70348263D01*
X-185343469Y70229000D01*
X-191490931Y70229000D01*
X-191312441Y70348263D01*
X-191112563Y70548141D01*
X-190955520Y70783173D01*
X-190847347Y71044326D01*
X-190792200Y71321565D01*
X-190792200Y71604235D01*
X-190847347Y71881474D01*
X-190955520Y72142627D01*
X-191112563Y72377659D01*
X-191312441Y72577537D01*
X-191544959Y72732900D01*
X-191312441Y72888263D01*
X-191112563Y73088141D01*
X-190955520Y73323173D01*
X-190847347Y73584326D01*
X-190792200Y73861565D01*
X-190792200Y74144235D01*
X-190847347Y74421474D01*
X-190955520Y74682627D01*
X-191112563Y74917659D01*
X-191312441Y75117537D01*
X-191544959Y75272900D01*
X-191312441Y75428263D01*
X-191112563Y75628141D01*
X-190955520Y75863173D01*
X-190847347Y76124326D01*
X-190792200Y76401565D01*
X-190792200Y76684235D01*
X-190847347Y76961474D01*
X-190955520Y77222627D01*
X-191112563Y77457659D01*
X-191312441Y77657537D01*
X-191547473Y77814580D01*
X-191808626Y77922753D01*
X-192085865Y77977900D01*
X-192368535Y77977900D01*
X-192592201Y77933409D01*
X-192592201Y80232391D01*
X-192368535Y80187900D01*
X-192085865Y80187900D01*
X-191808626Y80243047D01*
X-191547473Y80351220D01*
X-191312441Y80508263D01*
X-191112563Y80708141D01*
X-190955520Y80943173D01*
X-190847347Y81204326D01*
X-190792200Y81481565D01*
X-190792200Y81764235D01*
X-190847347Y82041474D01*
X-190955520Y82302627D01*
X-191112563Y82537659D01*
X-191312441Y82737537D01*
X-191544959Y82892900D01*
X-191312441Y83048263D01*
X-191112563Y83248141D01*
X-190955520Y83483173D01*
X-190847347Y83744326D01*
X-190792200Y84021565D01*
X-190792200Y84304235D01*
X-190847347Y84581474D01*
X-190955520Y84842627D01*
X-191112563Y85077659D01*
X-191311161Y85276257D01*
X-191302718Y85277088D01*
X-191183020Y85313398D01*
X-191072706Y85372363D01*
X-190976015Y85451715D01*
X-190896663Y85548406D01*
X-190837698Y85658720D01*
X-190801388Y85778418D01*
X-190789128Y85902900D01*
X-190789128Y87502900D01*
X-190801388Y87627382D01*
X-190837698Y87747080D01*
X-190896663Y87857394D01*
X-190976015Y87954085D01*
X-191072706Y88033437D01*
X-191183020Y88092402D01*
X-191302718Y88128712D01*
X-191427200Y88140972D01*
X-193027200Y88140972D01*
X-193151682Y88128712D01*
X-193271380Y88092402D01*
X-193381694Y88033437D01*
X-193478385Y87954085D01*
X-193557737Y87857394D01*
X-193616702Y87747080D01*
X-193653012Y87627382D01*
X-193665272Y87502900D01*
X-193665272Y85902900D01*
X-193653012Y85778418D01*
X-193616702Y85658720D01*
X-193557737Y85548406D01*
X-193478385Y85451715D01*
X-193381694Y85372363D01*
X-193271380Y85313398D01*
X-193151682Y85277088D01*
X-193143239Y85276257D01*
X-193341837Y85077659D01*
X-193498880Y84842627D01*
X-193607053Y84581474D01*
X-193662200Y84304235D01*
X-193662200Y84021565D01*
X-193607053Y83744326D01*
X-193498880Y83483173D01*
X-193341837Y83248141D01*
X-193141959Y83048263D01*
X-192909441Y82892900D01*
X-193141959Y82737537D01*
X-193341837Y82537659D01*
X-193498880Y82302627D01*
X-193607053Y82041474D01*
X-193662200Y81764235D01*
X-193662200Y81764004D01*
X-196991194Y85092997D01*
X-197014997Y85122001D01*
X-197130722Y85216974D01*
X-197262751Y85287546D01*
X-197406012Y85331003D01*
X-197517665Y85342000D01*
X-197517676Y85342000D01*
X-197554998Y85345676D01*
X-197592320Y85342000D01*
X-197689286Y85342000D01*
X-197712336Y85343578D01*
X-197735675Y85360334D01*
X-197792367Y85401034D01*
X-197835739Y85429559D01*
X-197898008Y85466959D01*
X-197979324Y85508166D01*
X-198052747Y85538966D01*
X-198154978Y85571995D01*
X-198245132Y85592895D01*
X-198345163Y85607817D01*
X-198356953Y85608624D01*
X-198399061Y85617000D01*
X-198602939Y85617000D01*
X-198802898Y85577226D01*
X-198991256Y85499205D01*
X-199160774Y85385937D01*
X-199304937Y85241774D01*
X-199418205Y85072256D01*
X-199496226Y84883898D01*
X-199536000Y84683939D01*
X-199536000Y84480061D01*
X-199496226Y84280102D01*
X-199418205Y84091744D01*
X-199304937Y83922226D01*
X-199160774Y83778063D01*
X-198991256Y83664795D01*
X-198802898Y83586774D01*
X-198602939Y83547000D01*
X-198399061Y83547000D01*
X-198365193Y83553737D01*
X-198393000Y83413939D01*
X-198393000Y83210061D01*
X-198384624Y83167953D01*
X-198383817Y83156163D01*
X-198368895Y83056132D01*
X-198347995Y82965978D01*
X-198314963Y82863740D01*
X-198284162Y82790317D01*
X-198242962Y82709015D01*
X-198205563Y82646746D01*
X-198177034Y82603367D01*
X-198136334Y82546675D01*
X-198119578Y82523336D01*
X-198118000Y82500285D01*
X-198117999Y72346206D01*
X-198148018Y72355312D01*
X-198272500Y72367572D01*
X-199872500Y72367572D01*
X-199996982Y72355312D01*
X-200116680Y72319002D01*
X-200226994Y72260037D01*
X-200323685Y72180685D01*
X-200403037Y72083994D01*
X-200462002Y71973680D01*
X-200498312Y71853982D01*
X-200510572Y71729500D01*
X-200510572Y70129500D01*
X-200498312Y70005018D01*
X-200462002Y69885320D01*
X-200403037Y69775006D01*
X-200323685Y69678315D01*
X-200226994Y69598963D01*
X-200116680Y69539998D01*
X-199996982Y69503688D01*
X-199872500Y69491428D01*
X-198272500Y69491428D01*
X-198148018Y69503688D01*
X-198117999Y69512794D01*
X-198117999Y66241289D01*
X-198229256Y66195205D01*
X-198398774Y66081937D01*
X-198542937Y65937774D01*
X-198656205Y65768256D01*
X-198734226Y65579898D01*
X-198774000Y65379939D01*
X-198774000Y65176061D01*
X-198734226Y64976102D01*
X-198656205Y64787744D01*
X-198542937Y64618226D01*
X-198398774Y64474063D01*
X-198229256Y64360795D01*
X-198040898Y64282774D01*
X-197840939Y64243000D01*
X-197637061Y64243000D01*
X-197437102Y64282774D01*
X-197248744Y64360795D01*
X-197079226Y64474063D01*
X-196935063Y64618226D01*
X-196821795Y64787744D01*
X-196743774Y64976102D01*
X-196704000Y65176061D01*
X-196704000Y65267358D01*
X-196703894Y65270517D01*
X-196652454Y65366753D01*
X-196608997Y65510014D01*
X-196598000Y65621667D01*
X-196598000Y65621676D01*
X-196594324Y65658999D01*
X-196598000Y65696322D01*
X-196598000Y82500286D01*
X-196596422Y82523336D01*
X-196585855Y82538055D01*
X-194112201Y80064401D01*
X-194112200Y70960231D01*
X-194115877Y70922899D01*
X-194112200Y70885566D01*
X-194101203Y70773913D01*
X-194088021Y70730457D01*
X-194057747Y70630653D01*
X-193987175Y70498623D01*
X-193916000Y70411897D01*
X-193892201Y70382898D01*
X-193863203Y70359100D01*
X-192462102Y68957998D01*
X-192438303Y68928999D01*
X-192322578Y68834026D01*
X-192190549Y68763454D01*
X-192047288Y68719997D01*
X-191935635Y68709000D01*
X-191935627Y68709000D01*
X-191898302Y68705324D01*
X-191860977Y68709000D01*
X-182813801Y68709000D01*
X-170066302Y55961500D01*
X-170255865Y55961500D01*
X-170529240Y55907123D01*
X-170786754Y55800457D01*
X-171018510Y55645603D01*
X-171215603Y55448510D01*
X-171370457Y55216754D01*
X-171386500Y55178023D01*
X-171402543Y55216754D01*
X-171557397Y55448510D01*
X-171754490Y55645603D01*
X-171986246Y55800457D01*
X-172243760Y55907123D01*
X-172517135Y55961500D01*
X-172795865Y55961500D01*
X-173069240Y55907123D01*
X-173326754Y55800457D01*
X-173558510Y55645603D01*
X-173755603Y55448510D01*
X-173910457Y55216754D01*
X-173926500Y55178023D01*
X-173942543Y55216754D01*
X-174097397Y55448510D01*
X-174294490Y55645603D01*
X-174526246Y55800457D01*
X-174783760Y55907123D01*
X-175057135Y55961500D01*
X-175335865Y55961500D01*
X-175609240Y55907123D01*
X-175866754Y55800457D01*
X-176098510Y55645603D01*
X-176295603Y55448510D01*
X-176325969Y55403064D01*
X-176330688Y55450982D01*
X-176366998Y55570680D01*
X-176425963Y55680994D01*
X-176505315Y55777685D01*
X-176602006Y55857037D01*
X-176712320Y55916002D01*
X-176832018Y55952312D01*
X-176956500Y55964572D01*
X-178516500Y55964572D01*
X-178640982Y55952312D01*
X-178760680Y55916002D01*
X-178870994Y55857037D01*
X-178967685Y55777685D01*
X-179047037Y55680994D01*
X-179106002Y55570680D01*
X-179142312Y55450982D01*
X-179154572Y55326500D01*
X-179154572Y53766500D01*
X-179142312Y53642018D01*
X-179106002Y53522320D01*
X-179047037Y53412006D01*
X-178967685Y53315315D01*
X-178870994Y53235963D01*
X-178760680Y53176998D01*
X-178640982Y53140688D01*
X-178516500Y53128428D01*
X-176956500Y53128428D01*
X-176832018Y53140688D01*
X-176712320Y53176998D01*
X-176602006Y53235963D01*
X-176505315Y53315315D01*
X-176425963Y53412006D01*
X-176366998Y53522320D01*
X-176330688Y53642018D01*
X-176325969Y53689936D01*
X-176295603Y53644490D01*
X-176098510Y53447397D01*
X-175866754Y53292543D01*
X-175609240Y53185877D01*
X-175335865Y53131500D01*
X-175057135Y53131500D01*
X-174783760Y53185877D01*
X-174526246Y53292543D01*
X-174294490Y53447397D01*
X-174097397Y53644490D01*
X-173942543Y53876246D01*
X-173926500Y53914977D01*
X-173910457Y53876246D01*
X-173755603Y53644490D01*
X-173558510Y53447397D01*
X-173326754Y53292543D01*
X-173069240Y53185877D01*
X-172795865Y53131500D01*
X-172517135Y53131500D01*
X-172243760Y53185877D01*
X-171986246Y53292543D01*
X-171754490Y53447397D01*
X-171557397Y53644490D01*
X-171402543Y53876246D01*
X-171386500Y53914977D01*
X-171370457Y53876246D01*
X-171215603Y53644490D01*
X-171018510Y53447397D01*
X-170786754Y53292543D01*
X-170529240Y53185877D01*
X-170255865Y53131500D01*
X-169977135Y53131500D01*
X-169703760Y53185877D01*
X-169446246Y53292543D01*
X-169214490Y53447397D01*
X-169017397Y53644490D01*
X-168862543Y53876246D01*
X-168852672Y53900076D01*
X-168827449Y53855325D01*
X-168758255Y53756045D01*
X-168720217Y53711260D01*
X-168675603Y53644490D01*
X-168478510Y53447397D01*
X-168246754Y53292543D01*
X-167989240Y53185877D01*
X-167715865Y53131500D01*
X-167437135Y53131500D01*
X-167163760Y53185877D01*
X-166906246Y53292543D01*
X-166674490Y53447397D01*
X-166477397Y53644490D01*
X-166322543Y53876246D01*
X-166306500Y53914977D01*
X-166290457Y53876246D01*
X-166135603Y53644490D01*
X-165938510Y53447397D01*
X-165706754Y53292543D01*
X-165449240Y53185877D01*
X-165175865Y53131500D01*
X-164897135Y53131500D01*
X-164623760Y53185877D01*
X-164366246Y53292543D01*
X-164134490Y53447397D01*
X-163937397Y53644490D01*
X-163782543Y53876246D01*
X-163766500Y53914977D01*
X-163750457Y53876246D01*
X-163595603Y53644490D01*
X-163398510Y53447397D01*
X-163166754Y53292543D01*
X-162909240Y53185877D01*
X-162635865Y53131500D01*
X-162357135Y53131500D01*
X-162083760Y53185877D01*
X-161826246Y53292543D01*
X-161594490Y53447397D01*
X-161397397Y53644490D01*
X-161242543Y53876246D01*
X-161226500Y53914977D01*
X-161210457Y53876246D01*
X-161055603Y53644490D01*
X-160858510Y53447397D01*
X-160626754Y53292543D01*
X-160369240Y53185877D01*
X-160095865Y53131500D01*
X-159817135Y53131500D01*
X-159543760Y53185877D01*
X-159286246Y53292543D01*
X-159054490Y53447397D01*
X-158857397Y53644490D01*
X-158702543Y53876246D01*
X-158686500Y53914977D01*
X-158670457Y53876246D01*
X-158515603Y53644490D01*
X-158318510Y53447397D01*
X-158086754Y53292543D01*
X-157829240Y53185877D01*
X-157555865Y53131500D01*
X-157277135Y53131500D01*
X-157003760Y53185877D01*
X-156746246Y53292543D01*
X-156514490Y53447397D01*
X-156317397Y53644490D01*
X-156162543Y53876246D01*
X-156146500Y53914977D01*
X-156130457Y53876246D01*
X-155975603Y53644490D01*
X-155778510Y53447397D01*
X-155546754Y53292543D01*
X-155289240Y53185877D01*
X-155015865Y53131500D01*
X-154737135Y53131500D01*
X-154463760Y53185877D01*
X-154206246Y53292543D01*
X-153974490Y53447397D01*
X-153777397Y53644490D01*
X-153622543Y53876246D01*
X-153606500Y53914977D01*
X-153590457Y53876246D01*
X-153435603Y53644490D01*
X-153238510Y53447397D01*
X-153006754Y53292543D01*
X-152749240Y53185877D01*
X-152475865Y53131500D01*
X-152197135Y53131500D01*
X-151923760Y53185877D01*
X-151666246Y53292543D01*
X-151434490Y53447397D01*
X-151237397Y53644490D01*
X-151082543Y53876246D01*
X-151066500Y53914977D01*
X-151050457Y53876246D01*
X-150895603Y53644490D01*
X-150698510Y53447397D01*
X-150466754Y53292543D01*
X-150209240Y53185877D01*
X-149935865Y53131500D01*
X-149657135Y53131500D01*
X-149383760Y53185877D01*
X-149126246Y53292543D01*
X-148894490Y53447397D01*
X-148697397Y53644490D01*
X-148542543Y53876246D01*
X-148526500Y53914977D01*
X-148510457Y53876246D01*
X-148355603Y53644490D01*
X-148158510Y53447397D01*
X-147926754Y53292543D01*
X-147669240Y53185877D01*
X-147395865Y53131500D01*
X-147117135Y53131500D01*
X-146843760Y53185877D01*
X-146586246Y53292543D01*
X-146354490Y53447397D01*
X-146157397Y53644490D01*
X-146002543Y53876246D01*
X-145895877Y54133760D01*
X-145841500Y54407135D01*
X-145841500Y54685865D01*
X-145895877Y54959240D01*
X-146002543Y55216754D01*
X-146157397Y55448510D01*
X-146354490Y55645603D01*
X-146586246Y55800457D01*
X-146843760Y55907123D01*
X-147117135Y55961500D01*
X-147395865Y55961500D01*
X-147669240Y55907123D01*
X-147926754Y55800457D01*
X-148158510Y55645603D01*
X-148355603Y55448510D01*
X-148510457Y55216754D01*
X-148526500Y55178023D01*
X-148542543Y55216754D01*
X-148697397Y55448510D01*
X-148894490Y55645603D01*
X-149126246Y55800457D01*
X-149383760Y55907123D01*
X-149657135Y55961500D01*
X-149935865Y55961500D01*
X-150209240Y55907123D01*
X-150466754Y55800457D01*
X-150698510Y55645603D01*
X-150895603Y55448510D01*
X-151050457Y55216754D01*
X-151066500Y55178023D01*
X-151082543Y55216754D01*
X-151237397Y55448510D01*
X-151434490Y55645603D01*
X-151666246Y55800457D01*
X-151923760Y55907123D01*
X-152197135Y55961500D01*
X-152475865Y55961500D01*
X-152749240Y55907123D01*
X-153006754Y55800457D01*
X-153238510Y55645603D01*
X-153435603Y55448510D01*
X-153590457Y55216754D01*
X-153606500Y55178023D01*
X-153622543Y55216754D01*
X-153777397Y55448510D01*
X-153974490Y55645603D01*
X-154206246Y55800457D01*
X-154463760Y55907123D01*
X-154737135Y55961500D01*
X-155015865Y55961500D01*
X-155289240Y55907123D01*
X-155546754Y55800457D01*
X-155778510Y55645603D01*
X-155975603Y55448510D01*
X-156130457Y55216754D01*
X-156146500Y55178023D01*
X-156162543Y55216754D01*
X-156317397Y55448510D01*
X-156514490Y55645603D01*
X-156746246Y55800457D01*
X-157003760Y55907123D01*
X-157277135Y55961500D01*
X-157555865Y55961500D01*
X-157829240Y55907123D01*
X-158086754Y55800457D01*
X-158318510Y55645603D01*
X-158515603Y55448510D01*
X-158670457Y55216754D01*
X-158686500Y55178023D01*
X-158702543Y55216754D01*
X-158857397Y55448510D01*
X-159054490Y55645603D01*
X-159286246Y55800457D01*
X-159543760Y55907123D01*
X-159817135Y55961500D01*
X-160095865Y55961500D01*
X-160369240Y55907123D01*
X-160626754Y55800457D01*
X-160858510Y55645603D01*
X-161055603Y55448510D01*
X-161210457Y55216754D01*
X-161226500Y55178023D01*
X-161242543Y55216754D01*
X-161397397Y55448510D01*
X-161594490Y55645603D01*
X-161826246Y55800457D01*
X-162083760Y55907123D01*
X-162357135Y55961500D01*
X-162635865Y55961500D01*
X-162909240Y55907123D01*
X-163166754Y55800457D01*
X-163398510Y55645603D01*
X-163595603Y55448510D01*
X-163750457Y55216754D01*
X-163766500Y55178023D01*
X-163782543Y55216754D01*
X-163937397Y55448510D01*
X-164134490Y55645603D01*
X-164366246Y55800457D01*
X-164623760Y55907123D01*
X-164897135Y55961500D01*
X-165175865Y55961500D01*
X-165449240Y55907123D01*
X-165706754Y55800457D01*
X-165938510Y55645603D01*
X-166135603Y55448510D01*
X-166290457Y55216754D01*
X-166306500Y55178023D01*
X-166322543Y55216754D01*
X-166477397Y55448510D01*
X-166674490Y55645603D01*
X-166741260Y55690217D01*
X-166786045Y55728255D01*
X-166885325Y55797449D01*
X-167046656Y55888381D01*
X-167163358Y55939487D01*
X-167316568Y55988950D01*
X-167418927Y56012855D01*
X-167566722Y56034672D01*
X-167624524Y56040518D01*
X-167769611Y56048511D01*
X-167769611Y56048510D01*
X-167885652Y56054904D01*
X-167952522Y56064775D01*
X-167994611Y56078363D01*
X-168047221Y56108016D01*
X-168153379Y56198181D01*
X-172449753Y60494554D01*
X-172398753Y60511031D01*
X-172325330Y60541830D01*
X-172244002Y60583044D01*
X-172181733Y60620445D01*
X-172138367Y60648966D01*
X-172081675Y60689666D01*
X-172058336Y60706422D01*
X-172035286Y60708000D01*
X-171756920Y60708000D01*
X-171719598Y60704324D01*
X-171682276Y60708000D01*
X-171682265Y60708000D01*
X-171570612Y60718997D01*
X-171427351Y60762454D01*
X-171295322Y60833026D01*
X-171179597Y60927999D01*
X-171155794Y60957003D01*
X-153260496Y78852300D01*
X-153251113Y78860000D01*
X-153238510Y78847397D01*
X-153006754Y78692543D01*
X-152749240Y78585877D01*
X-152475865Y78531500D01*
X-152197135Y78531500D01*
X-151923760Y78585877D01*
X-151666246Y78692543D01*
X-151434490Y78847397D01*
X-151237397Y79044490D01*
X-151082543Y79276246D01*
X-151066500Y79314977D01*
X-151050457Y79276246D01*
X-150895603Y79044490D01*
X-150698510Y78847397D01*
X-150466754Y78692543D01*
X-150209240Y78585877D01*
X-149935865Y78531500D01*
X-149657135Y78531500D01*
X-149383760Y78585877D01*
X-149126246Y78692543D01*
X-148894490Y78847397D01*
X-148697397Y79044490D01*
X-148542543Y79276246D01*
X-148526500Y79314977D01*
X-148510457Y79276246D01*
X-148355603Y79044490D01*
X-148158510Y78847397D01*
X-147926754Y78692543D01*
X-147669240Y78585877D01*
X-147395865Y78531500D01*
X-147117135Y78531500D01*
X-146843760Y78585877D01*
X-146586246Y78692543D01*
X-146354490Y78847397D01*
X-146157397Y79044490D01*
X-146002543Y79276246D01*
X-145986500Y79314977D01*
X-145970457Y79276246D01*
X-145815603Y79044490D01*
X-145618510Y78847397D01*
X-145386754Y78692543D01*
X-145129240Y78585877D01*
X-144855865Y78531500D01*
X-144577135Y78531500D01*
X-144303760Y78585877D01*
X-144046246Y78692543D01*
X-143814490Y78847397D01*
X-143617397Y79044490D01*
X-143462543Y79276246D01*
X-143446500Y79314977D01*
X-143430457Y79276246D01*
X-143275603Y79044490D01*
X-143078510Y78847397D01*
X-142846754Y78692543D01*
X-142589240Y78585877D01*
X-142315865Y78531500D01*
X-142037135Y78531500D01*
X-141763760Y78585877D01*
X-141506246Y78692543D01*
X-141274490Y78847397D01*
X-141077397Y79044490D01*
X-140922543Y79276246D01*
X-140906500Y79314977D01*
X-140890457Y79276246D01*
X-140735603Y79044490D01*
X-140538510Y78847397D01*
X-140306754Y78692543D01*
X-140049240Y78585877D01*
X-139775865Y78531500D01*
X-139497135Y78531500D01*
X-139223760Y78585877D01*
X-138966246Y78692543D01*
X-138734490Y78847397D01*
X-138537397Y79044490D01*
X-138382543Y79276246D01*
X-138366500Y79314977D01*
X-138350457Y79276246D01*
X-138195603Y79044490D01*
X-137998510Y78847397D01*
X-137766754Y78692543D01*
X-137509240Y78585877D01*
X-137235865Y78531500D01*
X-136957135Y78531500D01*
X-136683760Y78585877D01*
X-136426246Y78692543D01*
X-136194490Y78847397D01*
X-135997397Y79044490D01*
X-135842543Y79276246D01*
X-135826500Y79314977D01*
X-135810457Y79276246D01*
X-135655603Y79044490D01*
X-135458510Y78847397D01*
X-135226754Y78692543D01*
X-134969240Y78585877D01*
X-134695865Y78531500D01*
X-134417135Y78531500D01*
X-134143760Y78585877D01*
X-133886246Y78692543D01*
X-133654490Y78847397D01*
X-133457397Y79044490D01*
X-133302543Y79276246D01*
X-133286500Y79314977D01*
X-133270457Y79276246D01*
X-133115603Y79044490D01*
X-132918510Y78847397D01*
X-132686754Y78692543D01*
X-132429240Y78585877D01*
X-132155865Y78531500D01*
X-131877135Y78531500D01*
X-131671499Y78572403D01*
X-131671498Y56358054D01*
X-131762902Y56275241D01*
X-131846165Y56215538D01*
X-131914588Y56178187D01*
X-131989087Y56147365D01*
X-132211470Y56071487D01*
X-132249174Y56057271D01*
X-132373838Y56005694D01*
X-132435327Y55976296D01*
X-132567862Y55903949D01*
X-132633640Y55862630D01*
X-132777984Y55759129D01*
X-132834307Y55713667D01*
X-132883930Y55668709D01*
X-132918510Y55645603D01*
X-133115603Y55448510D01*
X-133270457Y55216754D01*
X-133286500Y55178023D01*
X-133302543Y55216754D01*
X-133457397Y55448510D01*
X-133654490Y55645603D01*
X-133886246Y55800457D01*
X-134143760Y55907123D01*
X-134417135Y55961500D01*
X-134695865Y55961500D01*
X-134969240Y55907123D01*
X-135226754Y55800457D01*
X-135458510Y55645603D01*
X-135655603Y55448510D01*
X-135810457Y55216754D01*
X-135826500Y55178023D01*
X-135842543Y55216754D01*
X-135997397Y55448510D01*
X-136194490Y55645603D01*
X-136426246Y55800457D01*
X-136683760Y55907123D01*
X-136957135Y55961500D01*
X-137235865Y55961500D01*
X-137509240Y55907123D01*
X-137766754Y55800457D01*
X-137998510Y55645603D01*
X-138195603Y55448510D01*
X-138350457Y55216754D01*
X-138366500Y55178023D01*
X-138382543Y55216754D01*
X-138537397Y55448510D01*
X-138734490Y55645603D01*
X-138966246Y55800457D01*
X-139223760Y55907123D01*
X-139497135Y55961500D01*
X-139775865Y55961500D01*
X-140049240Y55907123D01*
X-140306754Y55800457D01*
X-140538510Y55645603D01*
X-140735603Y55448510D01*
X-140890457Y55216754D01*
X-140906500Y55178023D01*
X-140922543Y55216754D01*
X-141077397Y55448510D01*
X-141274490Y55645603D01*
X-141506246Y55800457D01*
X-141763760Y55907123D01*
X-142037135Y55961500D01*
X-142315865Y55961500D01*
X-142589240Y55907123D01*
X-142846754Y55800457D01*
X-143078510Y55645603D01*
X-143275603Y55448510D01*
X-143430457Y55216754D01*
X-143537123Y54959240D01*
X-143591500Y54685865D01*
X-143591500Y54407135D01*
X-143537123Y54133760D01*
X-143430457Y53876246D01*
X-143275603Y53644490D01*
X-143078510Y53447397D01*
X-142846754Y53292543D01*
X-142589240Y53185877D01*
X-142315865Y53131500D01*
X-142037135Y53131500D01*
X-141763760Y53185877D01*
X-141506246Y53292543D01*
X-141274490Y53447397D01*
X-141077397Y53644490D01*
X-140922543Y53876246D01*
X-140906500Y53914977D01*
X-140890457Y53876246D01*
X-140735603Y53644490D01*
X-140538510Y53447397D01*
X-140306754Y53292543D01*
X-140049240Y53185877D01*
X-139775865Y53131500D01*
X-139497135Y53131500D01*
X-139223760Y53185877D01*
X-138966246Y53292543D01*
X-138734490Y53447397D01*
X-138537397Y53644490D01*
X-138382543Y53876246D01*
X-138366500Y53914977D01*
X-138350457Y53876246D01*
X-138195603Y53644490D01*
X-137998510Y53447397D01*
X-137766754Y53292543D01*
X-137509240Y53185877D01*
X-137235865Y53131500D01*
X-136957135Y53131500D01*
X-136683760Y53185877D01*
X-136426246Y53292543D01*
X-136194490Y53447397D01*
X-135997397Y53644490D01*
X-135842543Y53876246D01*
X-135826500Y53914977D01*
X-135810457Y53876246D01*
X-135655603Y53644490D01*
X-135458510Y53447397D01*
X-135226754Y53292543D01*
X-134969240Y53185877D01*
X-134695865Y53131500D01*
X-134417135Y53131500D01*
X-134143760Y53185877D01*
X-133886246Y53292543D01*
X-133654490Y53447397D01*
X-133457397Y53644490D01*
X-133302543Y53876246D01*
X-133286500Y53914977D01*
X-133270457Y53876246D01*
X-133115603Y53644490D01*
X-132918510Y53447397D01*
X-132686754Y53292543D01*
X-132429240Y53185877D01*
X-132155865Y53131500D01*
X-131877135Y53131500D01*
X-131603760Y53185877D01*
X-131346246Y53292543D01*
X-131114490Y53447397D01*
X-130917397Y53644490D01*
X-130894294Y53679066D01*
X-130849335Y53728689D01*
X-130803870Y53785015D01*
X-130700369Y53929359D01*
X-130659050Y53995137D01*
X-130586703Y54127672D01*
X-130557305Y54189161D01*
X-130505728Y54313825D01*
X-130491512Y54351529D01*
X-130415634Y54573912D01*
X-130384812Y54648411D01*
X-130347461Y54716834D01*
X-130287758Y54800097D01*
X-130177551Y54921738D01*
X-129940591Y55158698D01*
X-129901103Y55191105D01*
X-129864431Y55235790D01*
X-129771765Y55348703D01*
X-129717096Y55450982D01*
X-129675658Y55528508D01*
X-129616475Y55723606D01*
X-129601499Y55875663D01*
X-129601499Y55875672D01*
X-129596493Y55926500D01*
X-129601499Y55977328D01*
X-129601499Y80558074D01*
X-129596493Y80608902D01*
X-129601499Y80659730D01*
X-129601499Y80659739D01*
X-129616475Y80811796D01*
X-129675658Y81006894D01*
X-129748344Y81142880D01*
X-129771765Y81186699D01*
X-129868696Y81304809D01*
X-129901103Y81344297D01*
X-129940591Y81376704D01*
X-131876691Y83312803D01*
X-131909102Y83352296D01*
X-132066701Y83481634D01*
X-132246505Y83577741D01*
X-132441603Y83636924D01*
X-132593660Y83651900D01*
X-132593670Y83651900D01*
X-132644498Y83656906D01*
X-132695326Y83651900D01*
X-140668289Y83651900D01*
X-144278400Y87262010D01*
X-144278400Y87381544D01*
X-144185437Y87457837D01*
X-143987055Y87699565D01*
X-143839645Y87975351D01*
X-143748870Y88274596D01*
X-143725900Y88507814D01*
X-143725900Y88758785D01*
X-143748870Y88992003D01*
X-143839645Y89291248D01*
X-143987055Y89567034D01*
X-144185437Y89808763D01*
X-144427165Y90007145D01*
X-144702951Y90154555D01*
X-144771640Y90175391D01*
X-144810568Y90194461D01*
X-144991060Y90263683D01*
X-145082403Y90291047D01*
X-145255478Y90329008D01*
X-145308517Y90338304D01*
X-145477883Y90360634D01*
X-145620533Y90379442D01*
X-145720581Y90401386D01*
X-145803359Y90433132D01*
X-145900494Y90491992D01*
X-146049081Y90620559D01*
X-146106876Y90678354D01*
X-146134593Y90712127D01*
X-146269351Y90822721D01*
X-146423097Y90904899D01*
X-146589920Y90955505D01*
X-146719933Y90968310D01*
X-146719941Y90968310D01*
X-146763410Y90972591D01*
X-146806879Y90968310D01*
X-179066845Y90968310D01*
X-179110311Y90972591D01*
X-179153777Y90968310D01*
X-200322225Y90968310D01*
X-200365691Y90972591D01*
X-200409157Y90968310D01*
X-200409167Y90968310D01*
X-200539180Y90955505D01*
X-200706003Y90904899D01*
X-200859749Y90822721D01*
X-200859751Y90822720D01*
X-200859750Y90822720D01*
X-200960737Y90739842D01*
X-200960739Y90739840D01*
X-200994507Y90712127D01*
X-201022220Y90678359D01*
X-201734517Y89966061D01*
X-201784850Y89919464D01*
X-201809394Y89900495D01*
X-201824935Y89890704D01*
X-201846088Y89879774D01*
X-201888696Y89860457D01*
X-201946130Y89834419D01*
X-201975430Y89820219D01*
X-202035122Y89789376D01*
X-202082093Y89762511D01*
X-202146303Y89722061D01*
X-202186000Y89694311D01*
X-202186000Y92075000D01*
X-128421999Y92075000D01*
X-128421999Y53880289D01*
X-128460909Y53483455D01*
X-128566780Y53132794D01*
X-128738743Y52809377D01*
X-128970252Y52525518D01*
X-129252486Y52292035D01*
X-129574696Y52117816D01*
X-129924615Y52009498D01*
X-130319443Y51968000D01*
X-216375721Y51968000D01*
X-216772545Y52006909D01*
X-217123206Y52112780D01*
X-217446623Y52284743D01*
X-217730482Y52516252D01*
X-217963965Y52798486D01*
X-218138184Y53120696D01*
X-218246502Y53470615D01*
X-218288000Y53865443D01*
X-218288000Y64236500D01*
X-213401072Y64236500D01*
X-213401072Y62636500D01*
X-213388812Y62512018D01*
X-213352502Y62392320D01*
X-213293537Y62282006D01*
X-213214185Y62185315D01*
X-213117494Y62105963D01*
X-213007180Y62046998D01*
X-212887482Y62010688D01*
X-212763000Y61998428D01*
X-211163000Y61998428D01*
X-211038518Y62010688D01*
X-210918820Y62046998D01*
X-210808506Y62105963D01*
X-210711815Y62185315D01*
X-210632463Y62282006D01*
X-210573498Y62392320D01*
X-210537188Y62512018D01*
X-210524928Y62636500D01*
X-210524928Y63577835D01*
X-209898000Y63577835D01*
X-209898000Y63295165D01*
X-209842853Y63017926D01*
X-209734680Y62756773D01*
X-209577637Y62521741D01*
X-209377759Y62321863D01*
X-209142727Y62164820D01*
X-208881574Y62056647D01*
X-208604335Y62001500D01*
X-208321665Y62001500D01*
X-208044426Y62056647D01*
X-207783273Y62164820D01*
X-207548241Y62321863D01*
X-207348363Y62521741D01*
X-207191320Y62756773D01*
X-207083147Y63017926D01*
X-207028000Y63295165D01*
X-207028000Y63577835D01*
X-207083147Y63855074D01*
X-207191320Y64116227D01*
X-207348363Y64351259D01*
X-207548241Y64551137D01*
X-207783273Y64708180D01*
X-208044426Y64816353D01*
X-208321665Y64871500D01*
X-208604335Y64871500D01*
X-208881574Y64816353D01*
X-209142727Y64708180D01*
X-209377759Y64551137D01*
X-209577637Y64351259D01*
X-209734680Y64116227D01*
X-209842853Y63855074D01*
X-209898000Y63577835D01*
X-210524928Y63577835D01*
X-210524928Y64236500D01*
X-210537188Y64360982D01*
X-210573498Y64480680D01*
X-210632463Y64590994D01*
X-210711815Y64687685D01*
X-210808506Y64767037D01*
X-210918820Y64826002D01*
X-211038518Y64862312D01*
X-211163000Y64874572D01*
X-212763000Y64874572D01*
X-212887482Y64862312D01*
X-213007180Y64826002D01*
X-213117494Y64767037D01*
X-213214185Y64687685D01*
X-213293537Y64590994D01*
X-213352502Y64480680D01*
X-213388812Y64360982D01*
X-213401072Y64236500D01*
X-218288000Y64236500D01*
X-218288000Y71070835D01*
X-208127500Y71070835D01*
X-208127500Y70788165D01*
X-208072353Y70510926D01*
X-207964180Y70249773D01*
X-207807137Y70014741D01*
X-207607259Y69814863D01*
X-207372227Y69657820D01*
X-207111074Y69549647D01*
X-206833835Y69494500D01*
X-206551165Y69494500D01*
X-206273926Y69549647D01*
X-206012773Y69657820D01*
X-205777741Y69814863D01*
X-205577863Y70014741D01*
X-205420820Y70249773D01*
X-205312647Y70510926D01*
X-205257500Y70788165D01*
X-205257500Y71070835D01*
X-205312647Y71348074D01*
X-205420820Y71609227D01*
X-205577863Y71844259D01*
X-205777741Y72044137D01*
X-206012773Y72201180D01*
X-206273926Y72309353D01*
X-206551165Y72364500D01*
X-206833835Y72364500D01*
X-207111074Y72309353D01*
X-207372227Y72201180D01*
X-207607259Y72044137D01*
X-207807137Y71844259D01*
X-207964180Y71609227D01*
X-208072353Y71348074D01*
X-208127500Y71070835D01*
X-218288000Y71070835D01*
X-218288000Y73507939D01*
X-212744000Y73507939D01*
X-212744000Y73304061D01*
X-212704226Y73104102D01*
X-212626205Y72915744D01*
X-212512937Y72746226D01*
X-212368774Y72602063D01*
X-212199256Y72488795D01*
X-212010898Y72410774D01*
X-211810939Y72371000D01*
X-211607061Y72371000D01*
X-211564953Y72379376D01*
X-211553163Y72380183D01*
X-211453132Y72395105D01*
X-211362978Y72416005D01*
X-211260753Y72449031D01*
X-211187330Y72479830D01*
X-211106002Y72521044D01*
X-211043733Y72558445D01*
X-211000367Y72586966D01*
X-210943675Y72627666D01*
X-210920336Y72644422D01*
X-210897286Y72646000D01*
X-210349322Y72646000D01*
X-210312000Y72642324D01*
X-210274678Y72646000D01*
X-210274667Y72646000D01*
X-210163014Y72656997D01*
X-210019753Y72700454D01*
X-209887724Y72771026D01*
X-209771999Y72865999D01*
X-209748196Y72895003D01*
X-204887574Y77755624D01*
X-204870151Y77770814D01*
X-204841801Y77775469D01*
X-204772934Y77786777D01*
X-204722096Y77797275D01*
X-204651619Y77814860D01*
X-204564979Y77843223D01*
X-204491283Y77873362D01*
X-204395642Y77922294D01*
X-204317115Y77971264D01*
X-204235827Y78031448D01*
X-204226923Y78039211D01*
X-204191226Y78063063D01*
X-204047063Y78207226D01*
X-203933795Y78376744D01*
X-203855774Y78565102D01*
X-203816000Y78765061D01*
X-203816000Y78968939D01*
X-203855774Y79168898D01*
X-203933795Y79357256D01*
X-204047063Y79526774D01*
X-204191226Y79670937D01*
X-204360744Y79784205D01*
X-204549102Y79862226D01*
X-204749061Y79902000D01*
X-204952939Y79902000D01*
X-205152898Y79862226D01*
X-205341256Y79784205D01*
X-205510774Y79670937D01*
X-205654937Y79526774D01*
X-205678795Y79491068D01*
X-205686556Y79482166D01*
X-205746735Y79400884D01*
X-205795705Y79322357D01*
X-205844637Y79226716D01*
X-205874776Y79153020D01*
X-205903139Y79066380D01*
X-205920724Y78995903D01*
X-205931222Y78945065D01*
X-205942528Y78876208D01*
X-205947185Y78847849D01*
X-205962373Y78830429D01*
X-210626801Y74166000D01*
X-210897286Y74166000D01*
X-210920336Y74167578D01*
X-210943675Y74184334D01*
X-211000367Y74225034D01*
X-211043739Y74253559D01*
X-211106008Y74290959D01*
X-211187324Y74332166D01*
X-211260747Y74362966D01*
X-211362978Y74395995D01*
X-211453132Y74416895D01*
X-211553163Y74431817D01*
X-211564953Y74432624D01*
X-211607061Y74441000D01*
X-211810939Y74441000D01*
X-212010898Y74401226D01*
X-212199256Y74323205D01*
X-212368774Y74209937D01*
X-212512937Y74065774D01*
X-212626205Y73896256D01*
X-212704226Y73707898D01*
X-212744000Y73507939D01*
X-218288000Y73507939D01*
X-218288000Y92075000D01*
X-203705999Y92075000D01*
X-203706000Y64299322D01*
%TA.AperFunction,Conductor*%
D33*
G36*
X-203706000Y64299322D02*
G01*
X-203709676Y64262000D01*
X-203706000Y64224678D01*
X-203706000Y64224668D01*
X-203695003Y64113015D01*
X-203651546Y63969754D01*
X-203580974Y63837724D01*
X-203559330Y63811351D01*
X-203486001Y63721999D01*
X-203456998Y63698196D01*
X-203041374Y63282572D01*
X-203026185Y63265151D01*
X-203021530Y63236801D01*
X-203010222Y63167934D01*
X-202999724Y63117096D01*
X-202982139Y63046619D01*
X-202953776Y62959979D01*
X-202923637Y62886283D01*
X-202874705Y62790642D01*
X-202825735Y62712115D01*
X-202765553Y62630830D01*
X-202757794Y62621930D01*
X-202733937Y62586226D01*
X-202589774Y62442063D01*
X-202420256Y62328795D01*
X-202231898Y62250774D01*
X-202031939Y62211000D01*
X-201828061Y62211000D01*
X-201628102Y62250774D01*
X-201439744Y62328795D01*
X-201270226Y62442063D01*
X-201126063Y62586226D01*
X-201012795Y62755744D01*
X-200934774Y62944102D01*
X-200895000Y63144061D01*
X-200895000Y63347939D01*
X-200934774Y63547898D01*
X-201012795Y63736256D01*
X-201126063Y63905774D01*
X-201270226Y64049937D01*
X-201305930Y64073794D01*
X-201314830Y64081553D01*
X-201396115Y64141735D01*
X-201474642Y64190705D01*
X-201570283Y64239637D01*
X-201643979Y64269776D01*
X-201730619Y64298139D01*
X-201801096Y64315724D01*
X-201851934Y64326222D01*
X-201920801Y64337530D01*
X-201949151Y64342185D01*
X-201966572Y64357374D01*
X-202186000Y64576801D01*
X-202186000Y79190956D01*
X-202142000Y79190956D01*
X-202142000Y78924044D01*
X-202089928Y78662261D01*
X-201987785Y78415667D01*
X-201839497Y78193738D01*
X-201650762Y78005003D01*
X-201428833Y77856715D01*
X-201261734Y77787500D01*
X-201428833Y77718285D01*
X-201650762Y77569997D01*
X-201839497Y77381262D01*
X-201987785Y77159333D01*
X-202089928Y76912739D01*
X-202142000Y76650956D01*
X-202142000Y76384044D01*
X-202089928Y76122261D01*
X-201987785Y75875667D01*
X-201839497Y75653738D01*
X-201650762Y75465003D01*
X-201428833Y75316715D01*
X-201261734Y75247500D01*
X-201428833Y75178285D01*
X-201650762Y75029997D01*
X-201839497Y74841262D01*
X-201987785Y74619333D01*
X-202089928Y74372739D01*
X-202142000Y74110956D01*
X-202142000Y73844044D01*
X-202089928Y73582261D01*
X-201987785Y73335667D01*
X-201839497Y73113738D01*
X-201650762Y72925003D01*
X-201428833Y72776715D01*
X-201182239Y72674572D01*
X-200920456Y72622500D01*
X-200653544Y72622500D01*
X-200391761Y72674572D01*
X-200145167Y72776715D01*
X-199923238Y72925003D01*
X-199734503Y73113738D01*
X-199586215Y73335667D01*
X-199484072Y73582261D01*
X-199432000Y73844044D01*
X-199432000Y74110956D01*
X-199484072Y74372739D01*
X-199586215Y74619333D01*
X-199734503Y74841262D01*
X-199923238Y75029997D01*
X-200145167Y75178285D01*
X-200312266Y75247500D01*
X-200145167Y75316715D01*
X-199923238Y75465003D01*
X-199734503Y75653738D01*
X-199586215Y75875667D01*
X-199484072Y76122261D01*
X-199432000Y76384044D01*
X-199432000Y76650956D01*
X-199484072Y76912739D01*
X-199586215Y77159333D01*
X-199734503Y77381262D01*
X-199923238Y77569997D01*
X-200145167Y77718285D01*
X-200312266Y77787500D01*
X-200145167Y77856715D01*
X-199923238Y78005003D01*
X-199734503Y78193738D01*
X-199586215Y78415667D01*
X-199484072Y78662261D01*
X-199432000Y78924044D01*
X-199432000Y79190956D01*
X-199484072Y79452739D01*
X-199586215Y79699333D01*
X-199734503Y79921262D01*
X-199923238Y80109997D01*
X-200145167Y80258285D01*
X-200391761Y80360428D01*
X-200653544Y80412500D01*
X-200920456Y80412500D01*
X-201182239Y80360428D01*
X-201428833Y80258285D01*
X-201650762Y80109997D01*
X-201839497Y79921262D01*
X-201987785Y79699333D01*
X-202089928Y79452739D01*
X-202142000Y79190956D01*
X-202186000Y79190956D01*
X-202186000Y87868987D01*
X-202166256Y87855795D01*
X-201977898Y87777774D01*
X-201777939Y87738000D01*
X-201574061Y87738000D01*
X-201374102Y87777774D01*
X-201185744Y87855795D01*
X-201016226Y87969063D01*
X-200872063Y88113226D01*
X-200859849Y88131506D01*
X-200853109Y88138786D01*
X-200816650Y88181858D01*
X-200761787Y88252843D01*
X-200726938Y88302696D01*
X-200686488Y88366906D01*
X-200659623Y88413877D01*
X-200628780Y88473569D01*
X-200614580Y88502869D01*
X-200588546Y88560294D01*
X-200569225Y88602911D01*
X-200558295Y88624064D01*
X-200548504Y88639605D01*
X-200529525Y88664162D01*
X-200482956Y88714466D01*
X-199999111Y89198310D01*
X-181159248Y89198310D01*
X-181161588Y89193933D01*
X-181212195Y89027110D01*
X-181229281Y88853620D01*
X-181224999Y88810141D01*
X-181225000Y73899579D01*
X-182430515Y72694063D01*
X-182480850Y72647464D01*
X-182505394Y72628495D01*
X-182520935Y72618704D01*
X-182542088Y72607774D01*
X-182584696Y72588457D01*
X-182642130Y72562419D01*
X-182671430Y72548219D01*
X-182731122Y72517376D01*
X-182778093Y72490511D01*
X-182842303Y72450061D01*
X-182892156Y72415212D01*
X-182963141Y72360349D01*
X-183006207Y72323896D01*
X-183013489Y72317155D01*
X-183031774Y72304937D01*
X-183175937Y72160774D01*
X-183279090Y72006394D01*
X-183335520Y72142627D01*
X-183492563Y72377659D01*
X-183692441Y72577537D01*
X-183924959Y72732900D01*
X-183692441Y72888263D01*
X-183492563Y73088141D01*
X-183335520Y73323173D01*
X-183227347Y73584326D01*
X-183172200Y73861565D01*
X-183172200Y74144235D01*
X-183227347Y74421474D01*
X-183335520Y74682627D01*
X-183492563Y74917659D01*
X-183692441Y75117537D01*
X-183924959Y75272900D01*
X-183692441Y75428263D01*
X-183492563Y75628141D01*
X-183335520Y75863173D01*
X-183227347Y76124326D01*
X-183172200Y76401565D01*
X-183172200Y76684235D01*
X-183227347Y76961474D01*
X-183335520Y77222627D01*
X-183492563Y77457659D01*
X-183692441Y77657537D01*
X-183924959Y77812900D01*
X-183692441Y77968263D01*
X-183492563Y78168141D01*
X-183335520Y78403173D01*
X-183227347Y78664326D01*
X-183172200Y78941565D01*
X-183172200Y79224235D01*
X-183227347Y79501474D01*
X-183335520Y79762627D01*
X-183492563Y79997659D01*
X-183692441Y80197537D01*
X-183924959Y80352900D01*
X-183692441Y80508263D01*
X-183492563Y80708141D01*
X-183335520Y80943173D01*
X-183227347Y81204326D01*
X-183172200Y81481565D01*
X-183172200Y81764235D01*
X-183227347Y82041474D01*
X-183335520Y82302627D01*
X-183492563Y82537659D01*
X-183692441Y82737537D01*
X-183924959Y82892900D01*
X-183692441Y83048263D01*
X-183492563Y83248141D01*
X-183335520Y83483173D01*
X-183227347Y83744326D01*
X-183172200Y84021565D01*
X-183172200Y84304235D01*
X-183227347Y84581474D01*
X-183335520Y84842627D01*
X-183492563Y85077659D01*
X-183692441Y85277537D01*
X-183924959Y85432900D01*
X-183692441Y85588263D01*
X-183492563Y85788141D01*
X-183335520Y86023173D01*
X-183227347Y86284326D01*
X-183172200Y86561565D01*
X-183172200Y86844235D01*
X-183227347Y87121474D01*
X-183335520Y87382627D01*
X-183492563Y87617659D01*
X-183692441Y87817537D01*
X-183927473Y87974580D01*
X-184188626Y88082753D01*
X-184465865Y88137900D01*
X-184748535Y88137900D01*
X-185025774Y88082753D01*
X-185286927Y87974580D01*
X-185521959Y87817537D01*
X-185721837Y87617659D01*
X-185878880Y87382627D01*
X-185987053Y87121474D01*
X-186042200Y86844235D01*
X-186042200Y86561565D01*
X-185987053Y86284326D01*
X-185878880Y86023173D01*
X-185721837Y85788141D01*
X-185521959Y85588263D01*
X-185289441Y85432900D01*
X-185521959Y85277537D01*
X-185721837Y85077659D01*
X-185878880Y84842627D01*
X-185987053Y84581474D01*
X-186042200Y84304235D01*
X-186042200Y84021565D01*
X-185987053Y83744326D01*
X-185878880Y83483173D01*
X-185721837Y83248141D01*
X-185521959Y83048263D01*
X-185289441Y82892900D01*
X-185521959Y82737537D01*
X-185721837Y82537659D01*
X-185878880Y82302627D01*
X-185987053Y82041474D01*
X-186042200Y81764235D01*
X-186042200Y81481565D01*
X-185987053Y81204326D01*
X-185878880Y80943173D01*
X-185721837Y80708141D01*
X-185521959Y80508263D01*
X-185289441Y80352900D01*
X-185521959Y80197537D01*
X-185721837Y79997659D01*
X-185878880Y79762627D01*
X-185987053Y79501474D01*
X-186042200Y79224235D01*
X-186042200Y78941565D01*
X-185987053Y78664326D01*
X-185878880Y78403173D01*
X-185721837Y78168141D01*
X-185521959Y77968263D01*
X-185289441Y77812900D01*
X-185521959Y77657537D01*
X-185721837Y77457659D01*
X-185878880Y77222627D01*
X-185987053Y76961474D01*
X-186042200Y76684235D01*
X-186042200Y76401565D01*
X-185987053Y76124326D01*
X-185878880Y75863173D01*
X-185721837Y75628141D01*
X-185521959Y75428263D01*
X-185289441Y75272900D01*
X-185521959Y75117537D01*
X-185721837Y74917659D01*
X-185878880Y74682627D01*
X-185987053Y74421474D01*
X-186042200Y74144235D01*
X-186042200Y73861565D01*
X-185987053Y73584326D01*
X-185878880Y73323173D01*
X-185721837Y73088141D01*
X-185521959Y72888263D01*
X-185289441Y72732900D01*
X-185521959Y72577537D01*
X-185721837Y72377659D01*
X-185878880Y72142627D01*
X-185987053Y71881474D01*
X-186042200Y71604235D01*
X-186042200Y71321565D01*
X-185987053Y71044326D01*
X-185878880Y70783173D01*
X-185721837Y70548141D01*
X-185521959Y70348263D01*
X-185343469Y70229000D01*
X-191490931Y70229000D01*
X-191312441Y70348263D01*
X-191112563Y70548141D01*
X-190955520Y70783173D01*
X-190847347Y71044326D01*
X-190792200Y71321565D01*
X-190792200Y71604235D01*
X-190847347Y71881474D01*
X-190955520Y72142627D01*
X-191112563Y72377659D01*
X-191312441Y72577537D01*
X-191544959Y72732900D01*
X-191312441Y72888263D01*
X-191112563Y73088141D01*
X-190955520Y73323173D01*
X-190847347Y73584326D01*
X-190792200Y73861565D01*
X-190792200Y74144235D01*
X-190847347Y74421474D01*
X-190955520Y74682627D01*
X-191112563Y74917659D01*
X-191312441Y75117537D01*
X-191544959Y75272900D01*
X-191312441Y75428263D01*
X-191112563Y75628141D01*
X-190955520Y75863173D01*
X-190847347Y76124326D01*
X-190792200Y76401565D01*
X-190792200Y76684235D01*
X-190847347Y76961474D01*
X-190955520Y77222627D01*
X-191112563Y77457659D01*
X-191312441Y77657537D01*
X-191547473Y77814580D01*
X-191808626Y77922753D01*
X-192085865Y77977900D01*
X-192368535Y77977900D01*
X-192592201Y77933409D01*
X-192592201Y80232391D01*
X-192368535Y80187900D01*
X-192085865Y80187900D01*
X-191808626Y80243047D01*
X-191547473Y80351220D01*
X-191312441Y80508263D01*
X-191112563Y80708141D01*
X-190955520Y80943173D01*
X-190847347Y81204326D01*
X-190792200Y81481565D01*
X-190792200Y81764235D01*
X-190847347Y82041474D01*
X-190955520Y82302627D01*
X-191112563Y82537659D01*
X-191312441Y82737537D01*
X-191544959Y82892900D01*
X-191312441Y83048263D01*
X-191112563Y83248141D01*
X-190955520Y83483173D01*
X-190847347Y83744326D01*
X-190792200Y84021565D01*
X-190792200Y84304235D01*
X-190847347Y84581474D01*
X-190955520Y84842627D01*
X-191112563Y85077659D01*
X-191311161Y85276257D01*
X-191302718Y85277088D01*
X-191183020Y85313398D01*
X-191072706Y85372363D01*
X-190976015Y85451715D01*
X-190896663Y85548406D01*
X-190837698Y85658720D01*
X-190801388Y85778418D01*
X-190789128Y85902900D01*
X-190789128Y87502900D01*
X-190801388Y87627382D01*
X-190837698Y87747080D01*
X-190896663Y87857394D01*
X-190976015Y87954085D01*
X-191072706Y88033437D01*
X-191183020Y88092402D01*
X-191302718Y88128712D01*
X-191427200Y88140972D01*
X-193027200Y88140972D01*
X-193151682Y88128712D01*
X-193271380Y88092402D01*
X-193381694Y88033437D01*
X-193478385Y87954085D01*
X-193557737Y87857394D01*
X-193616702Y87747080D01*
X-193653012Y87627382D01*
X-193665272Y87502900D01*
X-193665272Y85902900D01*
X-193653012Y85778418D01*
X-193616702Y85658720D01*
X-193557737Y85548406D01*
X-193478385Y85451715D01*
X-193381694Y85372363D01*
X-193271380Y85313398D01*
X-193151682Y85277088D01*
X-193143239Y85276257D01*
X-193341837Y85077659D01*
X-193498880Y84842627D01*
X-193607053Y84581474D01*
X-193662200Y84304235D01*
X-193662200Y84021565D01*
X-193607053Y83744326D01*
X-193498880Y83483173D01*
X-193341837Y83248141D01*
X-193141959Y83048263D01*
X-192909441Y82892900D01*
X-193141959Y82737537D01*
X-193341837Y82537659D01*
X-193498880Y82302627D01*
X-193607053Y82041474D01*
X-193662200Y81764235D01*
X-193662200Y81764004D01*
X-196991194Y85092997D01*
X-197014997Y85122001D01*
X-197130722Y85216974D01*
X-197262751Y85287546D01*
X-197406012Y85331003D01*
X-197517665Y85342000D01*
X-197517676Y85342000D01*
X-197554998Y85345676D01*
X-197592320Y85342000D01*
X-197689286Y85342000D01*
X-197712336Y85343578D01*
X-197735675Y85360334D01*
X-197792367Y85401034D01*
X-197835739Y85429559D01*
X-197898008Y85466959D01*
X-197979324Y85508166D01*
X-198052747Y85538966D01*
X-198154978Y85571995D01*
X-198245132Y85592895D01*
X-198345163Y85607817D01*
X-198356953Y85608624D01*
X-198399061Y85617000D01*
X-198602939Y85617000D01*
X-198802898Y85577226D01*
X-198991256Y85499205D01*
X-199160774Y85385937D01*
X-199304937Y85241774D01*
X-199418205Y85072256D01*
X-199496226Y84883898D01*
X-199536000Y84683939D01*
X-199536000Y84480061D01*
X-199496226Y84280102D01*
X-199418205Y84091744D01*
X-199304937Y83922226D01*
X-199160774Y83778063D01*
X-198991256Y83664795D01*
X-198802898Y83586774D01*
X-198602939Y83547000D01*
X-198399061Y83547000D01*
X-198365193Y83553737D01*
X-198393000Y83413939D01*
X-198393000Y83210061D01*
X-198384624Y83167953D01*
X-198383817Y83156163D01*
X-198368895Y83056132D01*
X-198347995Y82965978D01*
X-198314963Y82863740D01*
X-198284162Y82790317D01*
X-198242962Y82709015D01*
X-198205563Y82646746D01*
X-198177034Y82603367D01*
X-198136334Y82546675D01*
X-198119578Y82523336D01*
X-198118000Y82500285D01*
X-198117999Y72346206D01*
X-198148018Y72355312D01*
X-198272500Y72367572D01*
X-199872500Y72367572D01*
X-199996982Y72355312D01*
X-200116680Y72319002D01*
X-200226994Y72260037D01*
X-200323685Y72180685D01*
X-200403037Y72083994D01*
X-200462002Y71973680D01*
X-200498312Y71853982D01*
X-200510572Y71729500D01*
X-200510572Y70129500D01*
X-200498312Y70005018D01*
X-200462002Y69885320D01*
X-200403037Y69775006D01*
X-200323685Y69678315D01*
X-200226994Y69598963D01*
X-200116680Y69539998D01*
X-199996982Y69503688D01*
X-199872500Y69491428D01*
X-198272500Y69491428D01*
X-198148018Y69503688D01*
X-198117999Y69512794D01*
X-198117999Y66241289D01*
X-198229256Y66195205D01*
X-198398774Y66081937D01*
X-198542937Y65937774D01*
X-198656205Y65768256D01*
X-198734226Y65579898D01*
X-198774000Y65379939D01*
X-198774000Y65176061D01*
X-198734226Y64976102D01*
X-198656205Y64787744D01*
X-198542937Y64618226D01*
X-198398774Y64474063D01*
X-198229256Y64360795D01*
X-198040898Y64282774D01*
X-197840939Y64243000D01*
X-197637061Y64243000D01*
X-197437102Y64282774D01*
X-197248744Y64360795D01*
X-197079226Y64474063D01*
X-196935063Y64618226D01*
X-196821795Y64787744D01*
X-196743774Y64976102D01*
X-196704000Y65176061D01*
X-196704000Y65267358D01*
X-196703894Y65270517D01*
X-196652454Y65366753D01*
X-196608997Y65510014D01*
X-196598000Y65621667D01*
X-196598000Y65621676D01*
X-196594324Y65658999D01*
X-196598000Y65696322D01*
X-196598000Y82500286D01*
X-196596422Y82523336D01*
X-196585855Y82538055D01*
X-194112201Y80064401D01*
X-194112200Y70960231D01*
X-194115877Y70922899D01*
X-194112200Y70885566D01*
X-194101203Y70773913D01*
X-194088021Y70730457D01*
X-194057747Y70630653D01*
X-193987175Y70498623D01*
X-193916000Y70411897D01*
X-193892201Y70382898D01*
X-193863203Y70359100D01*
X-192462102Y68957998D01*
X-192438303Y68928999D01*
X-192322578Y68834026D01*
X-192190549Y68763454D01*
X-192047288Y68719997D01*
X-191935635Y68709000D01*
X-191935627Y68709000D01*
X-191898302Y68705324D01*
X-191860977Y68709000D01*
X-182813801Y68709000D01*
X-170066302Y55961500D01*
X-170255865Y55961500D01*
X-170529240Y55907123D01*
X-170786754Y55800457D01*
X-171018510Y55645603D01*
X-171215603Y55448510D01*
X-171370457Y55216754D01*
X-171386500Y55178023D01*
X-171402543Y55216754D01*
X-171557397Y55448510D01*
X-171754490Y55645603D01*
X-171986246Y55800457D01*
X-172243760Y55907123D01*
X-172517135Y55961500D01*
X-172795865Y55961500D01*
X-173069240Y55907123D01*
X-173326754Y55800457D01*
X-173558510Y55645603D01*
X-173755603Y55448510D01*
X-173910457Y55216754D01*
X-173926500Y55178023D01*
X-173942543Y55216754D01*
X-174097397Y55448510D01*
X-174294490Y55645603D01*
X-174526246Y55800457D01*
X-174783760Y55907123D01*
X-175057135Y55961500D01*
X-175335865Y55961500D01*
X-175609240Y55907123D01*
X-175866754Y55800457D01*
X-176098510Y55645603D01*
X-176295603Y55448510D01*
X-176325969Y55403064D01*
X-176330688Y55450982D01*
X-176366998Y55570680D01*
X-176425963Y55680994D01*
X-176505315Y55777685D01*
X-176602006Y55857037D01*
X-176712320Y55916002D01*
X-176832018Y55952312D01*
X-176956500Y55964572D01*
X-178516500Y55964572D01*
X-178640982Y55952312D01*
X-178760680Y55916002D01*
X-178870994Y55857037D01*
X-178967685Y55777685D01*
X-179047037Y55680994D01*
X-179106002Y55570680D01*
X-179142312Y55450982D01*
X-179154572Y55326500D01*
X-179154572Y53766500D01*
X-179142312Y53642018D01*
X-179106002Y53522320D01*
X-179047037Y53412006D01*
X-178967685Y53315315D01*
X-178870994Y53235963D01*
X-178760680Y53176998D01*
X-178640982Y53140688D01*
X-178516500Y53128428D01*
X-176956500Y53128428D01*
X-176832018Y53140688D01*
X-176712320Y53176998D01*
X-176602006Y53235963D01*
X-176505315Y53315315D01*
X-176425963Y53412006D01*
X-176366998Y53522320D01*
X-176330688Y53642018D01*
X-176325969Y53689936D01*
X-176295603Y53644490D01*
X-176098510Y53447397D01*
X-175866754Y53292543D01*
X-175609240Y53185877D01*
X-175335865Y53131500D01*
X-175057135Y53131500D01*
X-174783760Y53185877D01*
X-174526246Y53292543D01*
X-174294490Y53447397D01*
X-174097397Y53644490D01*
X-173942543Y53876246D01*
X-173926500Y53914977D01*
X-173910457Y53876246D01*
X-173755603Y53644490D01*
X-173558510Y53447397D01*
X-173326754Y53292543D01*
X-173069240Y53185877D01*
X-172795865Y53131500D01*
X-172517135Y53131500D01*
X-172243760Y53185877D01*
X-171986246Y53292543D01*
X-171754490Y53447397D01*
X-171557397Y53644490D01*
X-171402543Y53876246D01*
X-171386500Y53914977D01*
X-171370457Y53876246D01*
X-171215603Y53644490D01*
X-171018510Y53447397D01*
X-170786754Y53292543D01*
X-170529240Y53185877D01*
X-170255865Y53131500D01*
X-169977135Y53131500D01*
X-169703760Y53185877D01*
X-169446246Y53292543D01*
X-169214490Y53447397D01*
X-169017397Y53644490D01*
X-168862543Y53876246D01*
X-168852672Y53900076D01*
X-168827449Y53855325D01*
X-168758255Y53756045D01*
X-168720217Y53711260D01*
X-168675603Y53644490D01*
X-168478510Y53447397D01*
X-168246754Y53292543D01*
X-167989240Y53185877D01*
X-167715865Y53131500D01*
X-167437135Y53131500D01*
X-167163760Y53185877D01*
X-166906246Y53292543D01*
X-166674490Y53447397D01*
X-166477397Y53644490D01*
X-166322543Y53876246D01*
X-166306500Y53914977D01*
X-166290457Y53876246D01*
X-166135603Y53644490D01*
X-165938510Y53447397D01*
X-165706754Y53292543D01*
X-165449240Y53185877D01*
X-165175865Y53131500D01*
X-164897135Y53131500D01*
X-164623760Y53185877D01*
X-164366246Y53292543D01*
X-164134490Y53447397D01*
X-163937397Y53644490D01*
X-163782543Y53876246D01*
X-163766500Y53914977D01*
X-163750457Y53876246D01*
X-163595603Y53644490D01*
X-163398510Y53447397D01*
X-163166754Y53292543D01*
X-162909240Y53185877D01*
X-162635865Y53131500D01*
X-162357135Y53131500D01*
X-162083760Y53185877D01*
X-161826246Y53292543D01*
X-161594490Y53447397D01*
X-161397397Y53644490D01*
X-161242543Y53876246D01*
X-161226500Y53914977D01*
X-161210457Y53876246D01*
X-161055603Y53644490D01*
X-160858510Y53447397D01*
X-160626754Y53292543D01*
X-160369240Y53185877D01*
X-160095865Y53131500D01*
X-159817135Y53131500D01*
X-159543760Y53185877D01*
X-159286246Y53292543D01*
X-159054490Y53447397D01*
X-158857397Y53644490D01*
X-158702543Y53876246D01*
X-158686500Y53914977D01*
X-158670457Y53876246D01*
X-158515603Y53644490D01*
X-158318510Y53447397D01*
X-158086754Y53292543D01*
X-157829240Y53185877D01*
X-157555865Y53131500D01*
X-157277135Y53131500D01*
X-157003760Y53185877D01*
X-156746246Y53292543D01*
X-156514490Y53447397D01*
X-156317397Y53644490D01*
X-156162543Y53876246D01*
X-156146500Y53914977D01*
X-156130457Y53876246D01*
X-155975603Y53644490D01*
X-155778510Y53447397D01*
X-155546754Y53292543D01*
X-155289240Y53185877D01*
X-155015865Y53131500D01*
X-154737135Y53131500D01*
X-154463760Y53185877D01*
X-154206246Y53292543D01*
X-153974490Y53447397D01*
X-153777397Y53644490D01*
X-153622543Y53876246D01*
X-153606500Y53914977D01*
X-153590457Y53876246D01*
X-153435603Y53644490D01*
X-153238510Y53447397D01*
X-153006754Y53292543D01*
X-152749240Y53185877D01*
X-152475865Y53131500D01*
X-152197135Y53131500D01*
X-151923760Y53185877D01*
X-151666246Y53292543D01*
X-151434490Y53447397D01*
X-151237397Y53644490D01*
X-151082543Y53876246D01*
X-151066500Y53914977D01*
X-151050457Y53876246D01*
X-150895603Y53644490D01*
X-150698510Y53447397D01*
X-150466754Y53292543D01*
X-150209240Y53185877D01*
X-149935865Y53131500D01*
X-149657135Y53131500D01*
X-149383760Y53185877D01*
X-149126246Y53292543D01*
X-148894490Y53447397D01*
X-148697397Y53644490D01*
X-148542543Y53876246D01*
X-148526500Y53914977D01*
X-148510457Y53876246D01*
X-148355603Y53644490D01*
X-148158510Y53447397D01*
X-147926754Y53292543D01*
X-147669240Y53185877D01*
X-147395865Y53131500D01*
X-147117135Y53131500D01*
X-146843760Y53185877D01*
X-146586246Y53292543D01*
X-146354490Y53447397D01*
X-146157397Y53644490D01*
X-146002543Y53876246D01*
X-145895877Y54133760D01*
X-145841500Y54407135D01*
X-145841500Y54685865D01*
X-145895877Y54959240D01*
X-146002543Y55216754D01*
X-146157397Y55448510D01*
X-146354490Y55645603D01*
X-146586246Y55800457D01*
X-146843760Y55907123D01*
X-147117135Y55961500D01*
X-147395865Y55961500D01*
X-147669240Y55907123D01*
X-147926754Y55800457D01*
X-148158510Y55645603D01*
X-148355603Y55448510D01*
X-148510457Y55216754D01*
X-148526500Y55178023D01*
X-148542543Y55216754D01*
X-148697397Y55448510D01*
X-148894490Y55645603D01*
X-149126246Y55800457D01*
X-149383760Y55907123D01*
X-149657135Y55961500D01*
X-149935865Y55961500D01*
X-150209240Y55907123D01*
X-150466754Y55800457D01*
X-150698510Y55645603D01*
X-150895603Y55448510D01*
X-151050457Y55216754D01*
X-151066500Y55178023D01*
X-151082543Y55216754D01*
X-151237397Y55448510D01*
X-151434490Y55645603D01*
X-151666246Y55800457D01*
X-151923760Y55907123D01*
X-152197135Y55961500D01*
X-152475865Y55961500D01*
X-152749240Y55907123D01*
X-153006754Y55800457D01*
X-153238510Y55645603D01*
X-153435603Y55448510D01*
X-153590457Y55216754D01*
X-153606500Y55178023D01*
X-153622543Y55216754D01*
X-153777397Y55448510D01*
X-153974490Y55645603D01*
X-154206246Y55800457D01*
X-154463760Y55907123D01*
X-154737135Y55961500D01*
X-155015865Y55961500D01*
X-155289240Y55907123D01*
X-155546754Y55800457D01*
X-155778510Y55645603D01*
X-155975603Y55448510D01*
X-156130457Y55216754D01*
X-156146500Y55178023D01*
X-156162543Y55216754D01*
X-156317397Y55448510D01*
X-156514490Y55645603D01*
X-156746246Y55800457D01*
X-157003760Y55907123D01*
X-157277135Y55961500D01*
X-157555865Y55961500D01*
X-157829240Y55907123D01*
X-158086754Y55800457D01*
X-158318510Y55645603D01*
X-158515603Y55448510D01*
X-158670457Y55216754D01*
X-158686500Y55178023D01*
X-158702543Y55216754D01*
X-158857397Y55448510D01*
X-159054490Y55645603D01*
X-159286246Y55800457D01*
X-159543760Y55907123D01*
X-159817135Y55961500D01*
X-160095865Y55961500D01*
X-160369240Y55907123D01*
X-160626754Y55800457D01*
X-160858510Y55645603D01*
X-161055603Y55448510D01*
X-161210457Y55216754D01*
X-161226500Y55178023D01*
X-161242543Y55216754D01*
X-161397397Y55448510D01*
X-161594490Y55645603D01*
X-161826246Y55800457D01*
X-162083760Y55907123D01*
X-162357135Y55961500D01*
X-162635865Y55961500D01*
X-162909240Y55907123D01*
X-163166754Y55800457D01*
X-163398510Y55645603D01*
X-163595603Y55448510D01*
X-163750457Y55216754D01*
X-163766500Y55178023D01*
X-163782543Y55216754D01*
X-163937397Y55448510D01*
X-164134490Y55645603D01*
X-164366246Y55800457D01*
X-164623760Y55907123D01*
X-164897135Y55961500D01*
X-165175865Y55961500D01*
X-165449240Y55907123D01*
X-165706754Y55800457D01*
X-165938510Y55645603D01*
X-166135603Y55448510D01*
X-166290457Y55216754D01*
X-166306500Y55178023D01*
X-166322543Y55216754D01*
X-166477397Y55448510D01*
X-166674490Y55645603D01*
X-166741260Y55690217D01*
X-166786045Y55728255D01*
X-166885325Y55797449D01*
X-167046656Y55888381D01*
X-167163358Y55939487D01*
X-167316568Y55988950D01*
X-167418927Y56012855D01*
X-167566722Y56034672D01*
X-167624524Y56040518D01*
X-167769611Y56048511D01*
X-167769611Y56048510D01*
X-167885652Y56054904D01*
X-167952522Y56064775D01*
X-167994611Y56078363D01*
X-168047221Y56108016D01*
X-168153379Y56198181D01*
X-172449753Y60494554D01*
X-172398753Y60511031D01*
X-172325330Y60541830D01*
X-172244002Y60583044D01*
X-172181733Y60620445D01*
X-172138367Y60648966D01*
X-172081675Y60689666D01*
X-172058336Y60706422D01*
X-172035286Y60708000D01*
X-171756920Y60708000D01*
X-171719598Y60704324D01*
X-171682276Y60708000D01*
X-171682265Y60708000D01*
X-171570612Y60718997D01*
X-171427351Y60762454D01*
X-171295322Y60833026D01*
X-171179597Y60927999D01*
X-171155794Y60957003D01*
X-153260496Y78852300D01*
X-153251113Y78860000D01*
X-153238510Y78847397D01*
X-153006754Y78692543D01*
X-152749240Y78585877D01*
X-152475865Y78531500D01*
X-152197135Y78531500D01*
X-151923760Y78585877D01*
X-151666246Y78692543D01*
X-151434490Y78847397D01*
X-151237397Y79044490D01*
X-151082543Y79276246D01*
X-151066500Y79314977D01*
X-151050457Y79276246D01*
X-150895603Y79044490D01*
X-150698510Y78847397D01*
X-150466754Y78692543D01*
X-150209240Y78585877D01*
X-149935865Y78531500D01*
X-149657135Y78531500D01*
X-149383760Y78585877D01*
X-149126246Y78692543D01*
X-148894490Y78847397D01*
X-148697397Y79044490D01*
X-148542543Y79276246D01*
X-148526500Y79314977D01*
X-148510457Y79276246D01*
X-148355603Y79044490D01*
X-148158510Y78847397D01*
X-147926754Y78692543D01*
X-147669240Y78585877D01*
X-147395865Y78531500D01*
X-147117135Y78531500D01*
X-146843760Y78585877D01*
X-146586246Y78692543D01*
X-146354490Y78847397D01*
X-146157397Y79044490D01*
X-146002543Y79276246D01*
X-145986500Y79314977D01*
X-145970457Y79276246D01*
X-145815603Y79044490D01*
X-145618510Y78847397D01*
X-145386754Y78692543D01*
X-145129240Y78585877D01*
X-144855865Y78531500D01*
X-144577135Y78531500D01*
X-144303760Y78585877D01*
X-144046246Y78692543D01*
X-143814490Y78847397D01*
X-143617397Y79044490D01*
X-143462543Y79276246D01*
X-143446500Y79314977D01*
X-143430457Y79276246D01*
X-143275603Y79044490D01*
X-143078510Y78847397D01*
X-142846754Y78692543D01*
X-142589240Y78585877D01*
X-142315865Y78531500D01*
X-142037135Y78531500D01*
X-141763760Y78585877D01*
X-141506246Y78692543D01*
X-141274490Y78847397D01*
X-141077397Y79044490D01*
X-140922543Y79276246D01*
X-140906500Y79314977D01*
X-140890457Y79276246D01*
X-140735603Y79044490D01*
X-140538510Y78847397D01*
X-140306754Y78692543D01*
X-140049240Y78585877D01*
X-139775865Y78531500D01*
X-139497135Y78531500D01*
X-139223760Y78585877D01*
X-138966246Y78692543D01*
X-138734490Y78847397D01*
X-138537397Y79044490D01*
X-138382543Y79276246D01*
X-138366500Y79314977D01*
X-138350457Y79276246D01*
X-138195603Y79044490D01*
X-137998510Y78847397D01*
X-137766754Y78692543D01*
X-137509240Y78585877D01*
X-137235865Y78531500D01*
X-136957135Y78531500D01*
X-136683760Y78585877D01*
X-136426246Y78692543D01*
X-136194490Y78847397D01*
X-135997397Y79044490D01*
X-135842543Y79276246D01*
X-135826500Y79314977D01*
X-135810457Y79276246D01*
X-135655603Y79044490D01*
X-135458510Y78847397D01*
X-135226754Y78692543D01*
X-134969240Y78585877D01*
X-134695865Y78531500D01*
X-134417135Y78531500D01*
X-134143760Y78585877D01*
X-133886246Y78692543D01*
X-133654490Y78847397D01*
X-133457397Y79044490D01*
X-133302543Y79276246D01*
X-133286500Y79314977D01*
X-133270457Y79276246D01*
X-133115603Y79044490D01*
X-132918510Y78847397D01*
X-132686754Y78692543D01*
X-132429240Y78585877D01*
X-132155865Y78531500D01*
X-131877135Y78531500D01*
X-131671499Y78572403D01*
X-131671498Y56358054D01*
X-131762902Y56275241D01*
X-131846165Y56215538D01*
X-131914588Y56178187D01*
X-131989087Y56147365D01*
X-132211470Y56071487D01*
X-132249174Y56057271D01*
X-132373838Y56005694D01*
X-132435327Y55976296D01*
X-132567862Y55903949D01*
X-132633640Y55862630D01*
X-132777984Y55759129D01*
X-132834307Y55713667D01*
X-132883930Y55668709D01*
X-132918510Y55645603D01*
X-133115603Y55448510D01*
X-133270457Y55216754D01*
X-133286500Y55178023D01*
X-133302543Y55216754D01*
X-133457397Y55448510D01*
X-133654490Y55645603D01*
X-133886246Y55800457D01*
X-134143760Y55907123D01*
X-134417135Y55961500D01*
X-134695865Y55961500D01*
X-134969240Y55907123D01*
X-135226754Y55800457D01*
X-135458510Y55645603D01*
X-135655603Y55448510D01*
X-135810457Y55216754D01*
X-135826500Y55178023D01*
X-135842543Y55216754D01*
X-135997397Y55448510D01*
X-136194490Y55645603D01*
X-136426246Y55800457D01*
X-136683760Y55907123D01*
X-136957135Y55961500D01*
X-137235865Y55961500D01*
X-137509240Y55907123D01*
X-137766754Y55800457D01*
X-137998510Y55645603D01*
X-138195603Y55448510D01*
X-138350457Y55216754D01*
X-138366500Y55178023D01*
X-138382543Y55216754D01*
X-138537397Y55448510D01*
X-138734490Y55645603D01*
X-138966246Y55800457D01*
X-139223760Y55907123D01*
X-139497135Y55961500D01*
X-139775865Y55961500D01*
X-140049240Y55907123D01*
X-140306754Y55800457D01*
X-140538510Y55645603D01*
X-140735603Y55448510D01*
X-140890457Y55216754D01*
X-140906500Y55178023D01*
X-140922543Y55216754D01*
X-141077397Y55448510D01*
X-141274490Y55645603D01*
X-141506246Y55800457D01*
X-141763760Y55907123D01*
X-142037135Y55961500D01*
X-142315865Y55961500D01*
X-142589240Y55907123D01*
X-142846754Y55800457D01*
X-143078510Y55645603D01*
X-143275603Y55448510D01*
X-143430457Y55216754D01*
X-143537123Y54959240D01*
X-143591500Y54685865D01*
X-143591500Y54407135D01*
X-143537123Y54133760D01*
X-143430457Y53876246D01*
X-143275603Y53644490D01*
X-143078510Y53447397D01*
X-142846754Y53292543D01*
X-142589240Y53185877D01*
X-142315865Y53131500D01*
X-142037135Y53131500D01*
X-141763760Y53185877D01*
X-141506246Y53292543D01*
X-141274490Y53447397D01*
X-141077397Y53644490D01*
X-140922543Y53876246D01*
X-140906500Y53914977D01*
X-140890457Y53876246D01*
X-140735603Y53644490D01*
X-140538510Y53447397D01*
X-140306754Y53292543D01*
X-140049240Y53185877D01*
X-139775865Y53131500D01*
X-139497135Y53131500D01*
X-139223760Y53185877D01*
X-138966246Y53292543D01*
X-138734490Y53447397D01*
X-138537397Y53644490D01*
X-138382543Y53876246D01*
X-138366500Y53914977D01*
X-138350457Y53876246D01*
X-138195603Y53644490D01*
X-137998510Y53447397D01*
X-137766754Y53292543D01*
X-137509240Y53185877D01*
X-137235865Y53131500D01*
X-136957135Y53131500D01*
X-136683760Y53185877D01*
X-136426246Y53292543D01*
X-136194490Y53447397D01*
X-135997397Y53644490D01*
X-135842543Y53876246D01*
X-135826500Y53914977D01*
X-135810457Y53876246D01*
X-135655603Y53644490D01*
X-135458510Y53447397D01*
X-135226754Y53292543D01*
X-134969240Y53185877D01*
X-134695865Y53131500D01*
X-134417135Y53131500D01*
X-134143760Y53185877D01*
X-133886246Y53292543D01*
X-133654490Y53447397D01*
X-133457397Y53644490D01*
X-133302543Y53876246D01*
X-133286500Y53914977D01*
X-133270457Y53876246D01*
X-133115603Y53644490D01*
X-132918510Y53447397D01*
X-132686754Y53292543D01*
X-132429240Y53185877D01*
X-132155865Y53131500D01*
X-131877135Y53131500D01*
X-131603760Y53185877D01*
X-131346246Y53292543D01*
X-131114490Y53447397D01*
X-130917397Y53644490D01*
X-130894294Y53679066D01*
X-130849335Y53728689D01*
X-130803870Y53785015D01*
X-130700369Y53929359D01*
X-130659050Y53995137D01*
X-130586703Y54127672D01*
X-130557305Y54189161D01*
X-130505728Y54313825D01*
X-130491512Y54351529D01*
X-130415634Y54573912D01*
X-130384812Y54648411D01*
X-130347461Y54716834D01*
X-130287758Y54800097D01*
X-130177551Y54921738D01*
X-129940591Y55158698D01*
X-129901103Y55191105D01*
X-129864431Y55235790D01*
X-129771765Y55348703D01*
X-129717096Y55450982D01*
X-129675658Y55528508D01*
X-129616475Y55723606D01*
X-129601499Y55875663D01*
X-129601499Y55875672D01*
X-129596493Y55926500D01*
X-129601499Y55977328D01*
X-129601499Y80558074D01*
X-129596493Y80608902D01*
X-129601499Y80659730D01*
X-129601499Y80659739D01*
X-129616475Y80811796D01*
X-129675658Y81006894D01*
X-129748344Y81142880D01*
X-129771765Y81186699D01*
X-129868696Y81304809D01*
X-129901103Y81344297D01*
X-129940591Y81376704D01*
X-131876691Y83312803D01*
X-131909102Y83352296D01*
X-132066701Y83481634D01*
X-132246505Y83577741D01*
X-132441603Y83636924D01*
X-132593660Y83651900D01*
X-132593670Y83651900D01*
X-132644498Y83656906D01*
X-132695326Y83651900D01*
X-140668289Y83651900D01*
X-144278400Y87262010D01*
X-144278400Y87381544D01*
X-144185437Y87457837D01*
X-143987055Y87699565D01*
X-143839645Y87975351D01*
X-143748870Y88274596D01*
X-143725900Y88507814D01*
X-143725900Y88758785D01*
X-143748870Y88992003D01*
X-143839645Y89291248D01*
X-143987055Y89567034D01*
X-144185437Y89808763D01*
X-144427165Y90007145D01*
X-144702951Y90154555D01*
X-144771640Y90175391D01*
X-144810568Y90194461D01*
X-144991060Y90263683D01*
X-145082403Y90291047D01*
X-145255478Y90329008D01*
X-145308517Y90338304D01*
X-145477883Y90360634D01*
X-145620533Y90379442D01*
X-145720581Y90401386D01*
X-145803359Y90433132D01*
X-145900494Y90491992D01*
X-146049081Y90620559D01*
X-146106876Y90678354D01*
X-146134593Y90712127D01*
X-146269351Y90822721D01*
X-146423097Y90904899D01*
X-146589920Y90955505D01*
X-146719933Y90968310D01*
X-146719941Y90968310D01*
X-146763410Y90972591D01*
X-146806879Y90968310D01*
X-179066845Y90968310D01*
X-179110311Y90972591D01*
X-179153777Y90968310D01*
X-200322225Y90968310D01*
X-200365691Y90972591D01*
X-200409157Y90968310D01*
X-200409167Y90968310D01*
X-200539180Y90955505D01*
X-200706003Y90904899D01*
X-200859749Y90822721D01*
X-200859751Y90822720D01*
X-200859750Y90822720D01*
X-200960737Y90739842D01*
X-200960739Y90739840D01*
X-200994507Y90712127D01*
X-201022220Y90678359D01*
X-201734517Y89966061D01*
X-201784850Y89919464D01*
X-201809394Y89900495D01*
X-201824935Y89890704D01*
X-201846088Y89879774D01*
X-201888696Y89860457D01*
X-201946130Y89834419D01*
X-201975430Y89820219D01*
X-202035122Y89789376D01*
X-202082093Y89762511D01*
X-202146303Y89722061D01*
X-202186000Y89694311D01*
X-202186000Y92075000D01*
X-128421999Y92075000D01*
X-128421999Y53880289D01*
X-128460909Y53483455D01*
X-128566780Y53132794D01*
X-128738743Y52809377D01*
X-128970252Y52525518D01*
X-129252486Y52292035D01*
X-129574696Y52117816D01*
X-129924615Y52009498D01*
X-130319443Y51968000D01*
X-216375721Y51968000D01*
X-216772545Y52006909D01*
X-217123206Y52112780D01*
X-217446623Y52284743D01*
X-217730482Y52516252D01*
X-217963965Y52798486D01*
X-218138184Y53120696D01*
X-218246502Y53470615D01*
X-218288000Y53865443D01*
X-218288000Y64236500D01*
X-213401072Y64236500D01*
X-213401072Y62636500D01*
X-213388812Y62512018D01*
X-213352502Y62392320D01*
X-213293537Y62282006D01*
X-213214185Y62185315D01*
X-213117494Y62105963D01*
X-213007180Y62046998D01*
X-212887482Y62010688D01*
X-212763000Y61998428D01*
X-211163000Y61998428D01*
X-211038518Y62010688D01*
X-210918820Y62046998D01*
X-210808506Y62105963D01*
X-210711815Y62185315D01*
X-210632463Y62282006D01*
X-210573498Y62392320D01*
X-210537188Y62512018D01*
X-210524928Y62636500D01*
X-210524928Y63577835D01*
X-209898000Y63577835D01*
X-209898000Y63295165D01*
X-209842853Y63017926D01*
X-209734680Y62756773D01*
X-209577637Y62521741D01*
X-209377759Y62321863D01*
X-209142727Y62164820D01*
X-208881574Y62056647D01*
X-208604335Y62001500D01*
X-208321665Y62001500D01*
X-208044426Y62056647D01*
X-207783273Y62164820D01*
X-207548241Y62321863D01*
X-207348363Y62521741D01*
X-207191320Y62756773D01*
X-207083147Y63017926D01*
X-207028000Y63295165D01*
X-207028000Y63577835D01*
X-207083147Y63855074D01*
X-207191320Y64116227D01*
X-207348363Y64351259D01*
X-207548241Y64551137D01*
X-207783273Y64708180D01*
X-208044426Y64816353D01*
X-208321665Y64871500D01*
X-208604335Y64871500D01*
X-208881574Y64816353D01*
X-209142727Y64708180D01*
X-209377759Y64551137D01*
X-209577637Y64351259D01*
X-209734680Y64116227D01*
X-209842853Y63855074D01*
X-209898000Y63577835D01*
X-210524928Y63577835D01*
X-210524928Y64236500D01*
X-210537188Y64360982D01*
X-210573498Y64480680D01*
X-210632463Y64590994D01*
X-210711815Y64687685D01*
X-210808506Y64767037D01*
X-210918820Y64826002D01*
X-211038518Y64862312D01*
X-211163000Y64874572D01*
X-212763000Y64874572D01*
X-212887482Y64862312D01*
X-213007180Y64826002D01*
X-213117494Y64767037D01*
X-213214185Y64687685D01*
X-213293537Y64590994D01*
X-213352502Y64480680D01*
X-213388812Y64360982D01*
X-213401072Y64236500D01*
X-218288000Y64236500D01*
X-218288000Y71070835D01*
X-208127500Y71070835D01*
X-208127500Y70788165D01*
X-208072353Y70510926D01*
X-207964180Y70249773D01*
X-207807137Y70014741D01*
X-207607259Y69814863D01*
X-207372227Y69657820D01*
X-207111074Y69549647D01*
X-206833835Y69494500D01*
X-206551165Y69494500D01*
X-206273926Y69549647D01*
X-206012773Y69657820D01*
X-205777741Y69814863D01*
X-205577863Y70014741D01*
X-205420820Y70249773D01*
X-205312647Y70510926D01*
X-205257500Y70788165D01*
X-205257500Y71070835D01*
X-205312647Y71348074D01*
X-205420820Y71609227D01*
X-205577863Y71844259D01*
X-205777741Y72044137D01*
X-206012773Y72201180D01*
X-206273926Y72309353D01*
X-206551165Y72364500D01*
X-206833835Y72364500D01*
X-207111074Y72309353D01*
X-207372227Y72201180D01*
X-207607259Y72044137D01*
X-207807137Y71844259D01*
X-207964180Y71609227D01*
X-208072353Y71348074D01*
X-208127500Y71070835D01*
X-218288000Y71070835D01*
X-218288000Y73507939D01*
X-212744000Y73507939D01*
X-212744000Y73304061D01*
X-212704226Y73104102D01*
X-212626205Y72915744D01*
X-212512937Y72746226D01*
X-212368774Y72602063D01*
X-212199256Y72488795D01*
X-212010898Y72410774D01*
X-211810939Y72371000D01*
X-211607061Y72371000D01*
X-211564953Y72379376D01*
X-211553163Y72380183D01*
X-211453132Y72395105D01*
X-211362978Y72416005D01*
X-211260753Y72449031D01*
X-211187330Y72479830D01*
X-211106002Y72521044D01*
X-211043733Y72558445D01*
X-211000367Y72586966D01*
X-210943675Y72627666D01*
X-210920336Y72644422D01*
X-210897286Y72646000D01*
X-210349322Y72646000D01*
X-210312000Y72642324D01*
X-210274678Y72646000D01*
X-210274667Y72646000D01*
X-210163014Y72656997D01*
X-210019753Y72700454D01*
X-209887724Y72771026D01*
X-209771999Y72865999D01*
X-209748196Y72895003D01*
X-204887574Y77755624D01*
X-204870151Y77770814D01*
X-204841801Y77775469D01*
X-204772934Y77786777D01*
X-204722096Y77797275D01*
X-204651619Y77814860D01*
X-204564979Y77843223D01*
X-204491283Y77873362D01*
X-204395642Y77922294D01*
X-204317115Y77971264D01*
X-204235827Y78031448D01*
X-204226923Y78039211D01*
X-204191226Y78063063D01*
X-204047063Y78207226D01*
X-203933795Y78376744D01*
X-203855774Y78565102D01*
X-203816000Y78765061D01*
X-203816000Y78968939D01*
X-203855774Y79168898D01*
X-203933795Y79357256D01*
X-204047063Y79526774D01*
X-204191226Y79670937D01*
X-204360744Y79784205D01*
X-204549102Y79862226D01*
X-204749061Y79902000D01*
X-204952939Y79902000D01*
X-205152898Y79862226D01*
X-205341256Y79784205D01*
X-205510774Y79670937D01*
X-205654937Y79526774D01*
X-205678795Y79491068D01*
X-205686556Y79482166D01*
X-205746735Y79400884D01*
X-205795705Y79322357D01*
X-205844637Y79226716D01*
X-205874776Y79153020D01*
X-205903139Y79066380D01*
X-205920724Y78995903D01*
X-205931222Y78945065D01*
X-205942528Y78876208D01*
X-205947185Y78847849D01*
X-205962373Y78830429D01*
X-210626801Y74166000D01*
X-210897286Y74166000D01*
X-210920336Y74167578D01*
X-210943675Y74184334D01*
X-211000367Y74225034D01*
X-211043739Y74253559D01*
X-211106008Y74290959D01*
X-211187324Y74332166D01*
X-211260747Y74362966D01*
X-211362978Y74395995D01*
X-211453132Y74416895D01*
X-211553163Y74431817D01*
X-211564953Y74432624D01*
X-211607061Y74441000D01*
X-211810939Y74441000D01*
X-212010898Y74401226D01*
X-212199256Y74323205D01*
X-212368774Y74209937D01*
X-212512937Y74065774D01*
X-212626205Y73896256D01*
X-212704226Y73707898D01*
X-212744000Y73507939D01*
X-218288000Y73507939D01*
X-218288000Y92075000D01*
X-203705999Y92075000D01*
X-203706000Y64299322D01*
G37*
%TD.AperFunction*%
D32*
X-149423846Y89082514D02*
X-149482575Y88892716D01*
X-149505508Y88787981D01*
X-149529668Y88604665D01*
X-149534650Y88545922D01*
X-149541526Y88365848D01*
X-149547276Y88215257D01*
X-149560550Y88114539D01*
X-149583973Y88038843D01*
X-149632480Y87951322D01*
X-149754797Y87806704D01*
X-154282496Y83279005D01*
X-154311500Y83255202D01*
X-154348546Y83210061D01*
X-154406473Y83139477D01*
X-154450077Y83057900D01*
X-154477045Y83007447D01*
X-154520502Y82864186D01*
X-154531499Y82752533D01*
X-154531499Y82752523D01*
X-154535175Y82715201D01*
X-154531499Y82677878D01*
X-154531499Y81320597D01*
X-154737135Y81361500D01*
X-155015865Y81361500D01*
X-155289240Y81307123D01*
X-155546754Y81200457D01*
X-155778510Y81045603D01*
X-155975603Y80848510D01*
X-156130457Y80616754D01*
X-156146500Y80578023D01*
X-156162543Y80616754D01*
X-156317397Y80848510D01*
X-156514490Y81045603D01*
X-156746246Y81200457D01*
X-157003760Y81307123D01*
X-157277135Y81361500D01*
X-157555865Y81361500D01*
X-157829240Y81307123D01*
X-158086754Y81200457D01*
X-158318510Y81045603D01*
X-158515603Y80848510D01*
X-158670457Y80616754D01*
X-158686500Y80578023D01*
X-158702543Y80616754D01*
X-158857397Y80848510D01*
X-159054490Y81045603D01*
X-159286246Y81200457D01*
X-159543760Y81307123D01*
X-159817135Y81361500D01*
X-160095865Y81361500D01*
X-160369240Y81307123D01*
X-160626754Y81200457D01*
X-160858510Y81045603D01*
X-161055603Y80848510D01*
X-161210457Y80616754D01*
X-161317123Y80359240D01*
X-161371500Y80085865D01*
X-161371500Y79807135D01*
X-161317123Y79533760D01*
X-161210457Y79276246D01*
X-161055603Y79044490D01*
X-160858510Y78847397D01*
X-160626754Y78692543D01*
X-160369240Y78585877D01*
X-160095865Y78531500D01*
X-159817135Y78531500D01*
X-159543760Y78585877D01*
X-159286246Y78692543D01*
X-159054490Y78847397D01*
X-158857397Y79044490D01*
X-158702543Y79276246D01*
X-158686500Y79314977D01*
X-158670457Y79276246D01*
X-158515603Y79044490D01*
X-158318510Y78847397D01*
X-158086754Y78692543D01*
X-157829240Y78585877D01*
X-157555865Y78531500D01*
X-157277135Y78531500D01*
X-157003760Y78585877D01*
X-156746246Y78692543D01*
X-156514490Y78847397D01*
X-156317397Y79044490D01*
X-156162543Y79276246D01*
X-156146500Y79314977D01*
X-156130457Y79276246D01*
X-155975603Y79044490D01*
X-155778510Y78847397D01*
X-155560603Y78701797D01*
X-172034399Y62228000D01*
X-172035286Y62228000D01*
X-172058336Y62229578D01*
X-172081675Y62246334D01*
X-172138367Y62287034D01*
X-172181739Y62315559D01*
X-172244008Y62352959D01*
X-172325324Y62394166D01*
X-172398747Y62424966D01*
X-172500978Y62457995D01*
X-172591132Y62478895D01*
X-172691163Y62493817D01*
X-172702953Y62494624D01*
X-172745061Y62503000D01*
X-172948939Y62503000D01*
X-173148898Y62463226D01*
X-173337256Y62385205D01*
X-173506774Y62271937D01*
X-173650937Y62127774D01*
X-173764205Y61958256D01*
X-173807919Y61852721D01*
X-181935196Y69979997D01*
X-181958999Y70009001D01*
X-182074724Y70103974D01*
X-182206753Y70174546D01*
X-182350014Y70218003D01*
X-182461667Y70229000D01*
X-182461678Y70229000D01*
X-182499000Y70232676D01*
X-182536322Y70229000D01*
X-183870931Y70229000D01*
X-183692441Y70348263D01*
X-183492563Y70548141D01*
X-183335520Y70783173D01*
X-183259606Y70966446D01*
X-183175937Y70841226D01*
X-183031774Y70697063D01*
X-182862256Y70583795D01*
X-182673898Y70505774D01*
X-182473939Y70466000D01*
X-182270061Y70466000D01*
X-182070102Y70505774D01*
X-181881744Y70583795D01*
X-181712226Y70697063D01*
X-181568063Y70841226D01*
X-181555849Y70859506D01*
X-181549109Y70866786D01*
X-181512650Y70909858D01*
X-181457787Y70980843D01*
X-181422938Y71030696D01*
X-181382488Y71094906D01*
X-181355623Y71141877D01*
X-181324780Y71201569D01*
X-181310580Y71230869D01*
X-181284546Y71288294D01*
X-181265225Y71330911D01*
X-181254295Y71352064D01*
X-181244504Y71367605D01*
X-181225525Y71392162D01*
X-181178954Y71442468D01*
X-179744950Y72876471D01*
X-179711183Y72904183D01*
X-179600589Y73038941D01*
X-179518411Y73192687D01*
X-179467805Y73359510D01*
X-179455000Y73489523D01*
X-179455000Y73489531D01*
X-179450719Y73533000D01*
X-179455000Y73576469D01*
X-179455000Y80085865D01*
X-176611500Y80085865D01*
X-176611500Y79807135D01*
X-176557123Y79533760D01*
X-176450457Y79276246D01*
X-176295603Y79044490D01*
X-176098510Y78847397D01*
X-175866754Y78692543D01*
X-175609240Y78585877D01*
X-175335865Y78531500D01*
X-175057135Y78531500D01*
X-174783760Y78585877D01*
X-174526246Y78692543D01*
X-174294490Y78847397D01*
X-174097397Y79044490D01*
X-173942543Y79276246D01*
X-173926500Y79314977D01*
X-173910457Y79276246D01*
X-173755603Y79044490D01*
X-173558510Y78847397D01*
X-173326754Y78692543D01*
X-173069240Y78585877D01*
X-172795865Y78531500D01*
X-172517135Y78531500D01*
X-172243760Y78585877D01*
X-171986246Y78692543D01*
X-171754490Y78847397D01*
X-171557397Y79044490D01*
X-171402543Y79276246D01*
X-171386500Y79314977D01*
X-171370457Y79276246D01*
X-171215603Y79044490D01*
X-171018510Y78847397D01*
X-170786754Y78692543D01*
X-170529240Y78585877D01*
X-170255865Y78531500D01*
X-169977135Y78531500D01*
X-169703760Y78585877D01*
X-169446246Y78692543D01*
X-169214490Y78847397D01*
X-169017397Y79044490D01*
X-168862543Y79276246D01*
X-168846500Y79314977D01*
X-168830457Y79276246D01*
X-168675603Y79044490D01*
X-168478510Y78847397D01*
X-168246754Y78692543D01*
X-167989240Y78585877D01*
X-167715865Y78531500D01*
X-167437135Y78531500D01*
X-167163760Y78585877D01*
X-166906246Y78692543D01*
X-166674490Y78847397D01*
X-166477397Y79044490D01*
X-166322543Y79276246D01*
X-166306500Y79314977D01*
X-166290457Y79276246D01*
X-166135603Y79044490D01*
X-165938510Y78847397D01*
X-165706754Y78692543D01*
X-165449240Y78585877D01*
X-165175865Y78531500D01*
X-164897135Y78531500D01*
X-164623760Y78585877D01*
X-164366246Y78692543D01*
X-164134490Y78847397D01*
X-163937397Y79044490D01*
X-163782543Y79276246D01*
X-163675877Y79533760D01*
X-163621500Y79807135D01*
X-163621500Y80085865D01*
X-163675877Y80359240D01*
X-163782543Y80616754D01*
X-163937397Y80848510D01*
X-164134490Y81045603D01*
X-164366246Y81200457D01*
X-164623760Y81307123D01*
X-164897135Y81361500D01*
X-165175865Y81361500D01*
X-165449240Y81307123D01*
X-165706754Y81200457D01*
X-165938510Y81045603D01*
X-166135603Y80848510D01*
X-166290457Y80616754D01*
X-166306500Y80578023D01*
X-166322543Y80616754D01*
X-166477397Y80848510D01*
X-166674490Y81045603D01*
X-166906246Y81200457D01*
X-167163760Y81307123D01*
X-167437135Y81361500D01*
X-167715865Y81361500D01*
X-167989240Y81307123D01*
X-168246754Y81200457D01*
X-168478510Y81045603D01*
X-168675603Y80848510D01*
X-168830457Y80616754D01*
X-168846500Y80578023D01*
X-168862543Y80616754D01*
X-169017397Y80848510D01*
X-169214490Y81045603D01*
X-169446246Y81200457D01*
X-169703760Y81307123D01*
X-169977135Y81361500D01*
X-170255865Y81361500D01*
X-170529240Y81307123D01*
X-170786754Y81200457D01*
X-171018510Y81045603D01*
X-171215603Y80848510D01*
X-171370457Y80616754D01*
X-171386500Y80578023D01*
X-171402543Y80616754D01*
X-171557397Y80848510D01*
X-171754490Y81045603D01*
X-171986246Y81200457D01*
X-172243760Y81307123D01*
X-172517135Y81361500D01*
X-172795865Y81361500D01*
X-173069240Y81307123D01*
X-173326754Y81200457D01*
X-173558510Y81045603D01*
X-173755603Y80848510D01*
X-173910457Y80616754D01*
X-173926500Y80578023D01*
X-173942543Y80616754D01*
X-174097397Y80848510D01*
X-174294490Y81045603D01*
X-174526246Y81200457D01*
X-174783760Y81307123D01*
X-175057135Y81361500D01*
X-175335865Y81361500D01*
X-175609240Y81307123D01*
X-175866754Y81200457D01*
X-176098510Y81045603D01*
X-176295603Y80848510D01*
X-176450457Y80616754D01*
X-176557123Y80359240D01*
X-176611500Y80085865D01*
X-179455000Y80085865D01*
X-179455000Y88487042D01*
X-178743731Y89198310D01*
X-149374466Y89198310D01*
X-149423846Y89082514D01*
%TA.AperFunction,Conductor*%
D33*
G36*
X-149423846Y89082514D02*
G01*
X-149482575Y88892716D01*
X-149505508Y88787981D01*
X-149529668Y88604665D01*
X-149534650Y88545922D01*
X-149541526Y88365848D01*
X-149547276Y88215257D01*
X-149560550Y88114539D01*
X-149583973Y88038843D01*
X-149632480Y87951322D01*
X-149754797Y87806704D01*
X-154282496Y83279005D01*
X-154311500Y83255202D01*
X-154348546Y83210061D01*
X-154406473Y83139477D01*
X-154450077Y83057900D01*
X-154477045Y83007447D01*
X-154520502Y82864186D01*
X-154531499Y82752533D01*
X-154531499Y82752523D01*
X-154535175Y82715201D01*
X-154531499Y82677878D01*
X-154531499Y81320597D01*
X-154737135Y81361500D01*
X-155015865Y81361500D01*
X-155289240Y81307123D01*
X-155546754Y81200457D01*
X-155778510Y81045603D01*
X-155975603Y80848510D01*
X-156130457Y80616754D01*
X-156146500Y80578023D01*
X-156162543Y80616754D01*
X-156317397Y80848510D01*
X-156514490Y81045603D01*
X-156746246Y81200457D01*
X-157003760Y81307123D01*
X-157277135Y81361500D01*
X-157555865Y81361500D01*
X-157829240Y81307123D01*
X-158086754Y81200457D01*
X-158318510Y81045603D01*
X-158515603Y80848510D01*
X-158670457Y80616754D01*
X-158686500Y80578023D01*
X-158702543Y80616754D01*
X-158857397Y80848510D01*
X-159054490Y81045603D01*
X-159286246Y81200457D01*
X-159543760Y81307123D01*
X-159817135Y81361500D01*
X-160095865Y81361500D01*
X-160369240Y81307123D01*
X-160626754Y81200457D01*
X-160858510Y81045603D01*
X-161055603Y80848510D01*
X-161210457Y80616754D01*
X-161317123Y80359240D01*
X-161371500Y80085865D01*
X-161371500Y79807135D01*
X-161317123Y79533760D01*
X-161210457Y79276246D01*
X-161055603Y79044490D01*
X-160858510Y78847397D01*
X-160626754Y78692543D01*
X-160369240Y78585877D01*
X-160095865Y78531500D01*
X-159817135Y78531500D01*
X-159543760Y78585877D01*
X-159286246Y78692543D01*
X-159054490Y78847397D01*
X-158857397Y79044490D01*
X-158702543Y79276246D01*
X-158686500Y79314977D01*
X-158670457Y79276246D01*
X-158515603Y79044490D01*
X-158318510Y78847397D01*
X-158086754Y78692543D01*
X-157829240Y78585877D01*
X-157555865Y78531500D01*
X-157277135Y78531500D01*
X-157003760Y78585877D01*
X-156746246Y78692543D01*
X-156514490Y78847397D01*
X-156317397Y79044490D01*
X-156162543Y79276246D01*
X-156146500Y79314977D01*
X-156130457Y79276246D01*
X-155975603Y79044490D01*
X-155778510Y78847397D01*
X-155560603Y78701797D01*
X-172034399Y62228000D01*
X-172035286Y62228000D01*
X-172058336Y62229578D01*
X-172081675Y62246334D01*
X-172138367Y62287034D01*
X-172181739Y62315559D01*
X-172244008Y62352959D01*
X-172325324Y62394166D01*
X-172398747Y62424966D01*
X-172500978Y62457995D01*
X-172591132Y62478895D01*
X-172691163Y62493817D01*
X-172702953Y62494624D01*
X-172745061Y62503000D01*
X-172948939Y62503000D01*
X-173148898Y62463226D01*
X-173337256Y62385205D01*
X-173506774Y62271937D01*
X-173650937Y62127774D01*
X-173764205Y61958256D01*
X-173807919Y61852721D01*
X-181935196Y69979997D01*
X-181958999Y70009001D01*
X-182074724Y70103974D01*
X-182206753Y70174546D01*
X-182350014Y70218003D01*
X-182461667Y70229000D01*
X-182461678Y70229000D01*
X-182499000Y70232676D01*
X-182536322Y70229000D01*
X-183870931Y70229000D01*
X-183692441Y70348263D01*
X-183492563Y70548141D01*
X-183335520Y70783173D01*
X-183259606Y70966446D01*
X-183175937Y70841226D01*
X-183031774Y70697063D01*
X-182862256Y70583795D01*
X-182673898Y70505774D01*
X-182473939Y70466000D01*
X-182270061Y70466000D01*
X-182070102Y70505774D01*
X-181881744Y70583795D01*
X-181712226Y70697063D01*
X-181568063Y70841226D01*
X-181555849Y70859506D01*
X-181549109Y70866786D01*
X-181512650Y70909858D01*
X-181457787Y70980843D01*
X-181422938Y71030696D01*
X-181382488Y71094906D01*
X-181355623Y71141877D01*
X-181324780Y71201569D01*
X-181310580Y71230869D01*
X-181284546Y71288294D01*
X-181265225Y71330911D01*
X-181254295Y71352064D01*
X-181244504Y71367605D01*
X-181225525Y71392162D01*
X-181178954Y71442468D01*
X-179744950Y72876471D01*
X-179711183Y72904183D01*
X-179600589Y73038941D01*
X-179518411Y73192687D01*
X-179467805Y73359510D01*
X-179455000Y73489523D01*
X-179455000Y73489531D01*
X-179450719Y73533000D01*
X-179455000Y73576469D01*
X-179455000Y80085865D01*
X-176611500Y80085865D01*
X-176611500Y79807135D01*
X-176557123Y79533760D01*
X-176450457Y79276246D01*
X-176295603Y79044490D01*
X-176098510Y78847397D01*
X-175866754Y78692543D01*
X-175609240Y78585877D01*
X-175335865Y78531500D01*
X-175057135Y78531500D01*
X-174783760Y78585877D01*
X-174526246Y78692543D01*
X-174294490Y78847397D01*
X-174097397Y79044490D01*
X-173942543Y79276246D01*
X-173926500Y79314977D01*
X-173910457Y79276246D01*
X-173755603Y79044490D01*
X-173558510Y78847397D01*
X-173326754Y78692543D01*
X-173069240Y78585877D01*
X-172795865Y78531500D01*
X-172517135Y78531500D01*
X-172243760Y78585877D01*
X-171986246Y78692543D01*
X-171754490Y78847397D01*
X-171557397Y79044490D01*
X-171402543Y79276246D01*
X-171386500Y79314977D01*
X-171370457Y79276246D01*
X-171215603Y79044490D01*
X-171018510Y78847397D01*
X-170786754Y78692543D01*
X-170529240Y78585877D01*
X-170255865Y78531500D01*
X-169977135Y78531500D01*
X-169703760Y78585877D01*
X-169446246Y78692543D01*
X-169214490Y78847397D01*
X-169017397Y79044490D01*
X-168862543Y79276246D01*
X-168846500Y79314977D01*
X-168830457Y79276246D01*
X-168675603Y79044490D01*
X-168478510Y78847397D01*
X-168246754Y78692543D01*
X-167989240Y78585877D01*
X-167715865Y78531500D01*
X-167437135Y78531500D01*
X-167163760Y78585877D01*
X-166906246Y78692543D01*
X-166674490Y78847397D01*
X-166477397Y79044490D01*
X-166322543Y79276246D01*
X-166306500Y79314977D01*
X-166290457Y79276246D01*
X-166135603Y79044490D01*
X-165938510Y78847397D01*
X-165706754Y78692543D01*
X-165449240Y78585877D01*
X-165175865Y78531500D01*
X-164897135Y78531500D01*
X-164623760Y78585877D01*
X-164366246Y78692543D01*
X-164134490Y78847397D01*
X-163937397Y79044490D01*
X-163782543Y79276246D01*
X-163675877Y79533760D01*
X-163621500Y79807135D01*
X-163621500Y80085865D01*
X-163675877Y80359240D01*
X-163782543Y80616754D01*
X-163937397Y80848510D01*
X-164134490Y81045603D01*
X-164366246Y81200457D01*
X-164623760Y81307123D01*
X-164897135Y81361500D01*
X-165175865Y81361500D01*
X-165449240Y81307123D01*
X-165706754Y81200457D01*
X-165938510Y81045603D01*
X-166135603Y80848510D01*
X-166290457Y80616754D01*
X-166306500Y80578023D01*
X-166322543Y80616754D01*
X-166477397Y80848510D01*
X-166674490Y81045603D01*
X-166906246Y81200457D01*
X-167163760Y81307123D01*
X-167437135Y81361500D01*
X-167715865Y81361500D01*
X-167989240Y81307123D01*
X-168246754Y81200457D01*
X-168478510Y81045603D01*
X-168675603Y80848510D01*
X-168830457Y80616754D01*
X-168846500Y80578023D01*
X-168862543Y80616754D01*
X-169017397Y80848510D01*
X-169214490Y81045603D01*
X-169446246Y81200457D01*
X-169703760Y81307123D01*
X-169977135Y81361500D01*
X-170255865Y81361500D01*
X-170529240Y81307123D01*
X-170786754Y81200457D01*
X-171018510Y81045603D01*
X-171215603Y80848510D01*
X-171370457Y80616754D01*
X-171386500Y80578023D01*
X-171402543Y80616754D01*
X-171557397Y80848510D01*
X-171754490Y81045603D01*
X-171986246Y81200457D01*
X-172243760Y81307123D01*
X-172517135Y81361500D01*
X-172795865Y81361500D01*
X-173069240Y81307123D01*
X-173326754Y81200457D01*
X-173558510Y81045603D01*
X-173755603Y80848510D01*
X-173910457Y80616754D01*
X-173926500Y80578023D01*
X-173942543Y80616754D01*
X-174097397Y80848510D01*
X-174294490Y81045603D01*
X-174526246Y81200457D01*
X-174783760Y81307123D01*
X-175057135Y81361500D01*
X-175335865Y81361500D01*
X-175609240Y81307123D01*
X-175866754Y81200457D01*
X-176098510Y81045603D01*
X-176295603Y80848510D01*
X-176450457Y80616754D01*
X-176557123Y80359240D01*
X-176611500Y80085865D01*
X-179455000Y80085865D01*
X-179455000Y88487042D01*
X-178743731Y89198310D01*
X-149374466Y89198310D01*
X-149423846Y89082514D01*
G37*
%TD.AperFunction*%
%TD*%
D34*
%TO.N,Avg_voltage*%
X-198390420Y84961699D02*
X-198302301Y84941271D01*
X-198230717Y84911242D01*
X-198169678Y84874581D01*
X-198113406Y84834183D01*
X-198056713Y84793483D01*
X-198055846Y84792913D01*
X-197993577Y84755512D01*
X-197991951Y84754688D01*
X-197918528Y84723889D01*
X-197916483Y84723228D01*
X-197826329Y84702328D01*
X-197824329Y84702030D01*
X-197723700Y84695140D01*
X-197723700Y84468860D01*
X-197824329Y84461970D01*
X-197826329Y84461672D01*
X-197916483Y84440772D01*
X-197918528Y84440111D01*
X-197991951Y84409311D01*
X-197993577Y84408487D01*
X-198055846Y84371087D01*
X-198056713Y84370517D01*
X-198113406Y84329817D01*
X-198169678Y84289418D01*
X-198230717Y84252757D01*
X-198302301Y84222729D01*
X-198390420Y84202301D01*
X-198493425Y84195248D01*
X-198686801Y84582000D01*
X-198493425Y84968752D01*
X-198390420Y84961699D01*
%TA.AperFunction,Conductor*%
D33*
G36*
X-198390420Y84961699D02*
G01*
X-198302301Y84941271D01*
X-198230717Y84911242D01*
X-198169678Y84874581D01*
X-198113406Y84834183D01*
X-198056713Y84793483D01*
X-198055846Y84792913D01*
X-197993577Y84755512D01*
X-197991951Y84754688D01*
X-197918528Y84723889D01*
X-197916483Y84723228D01*
X-197826329Y84702328D01*
X-197824329Y84702030D01*
X-197723700Y84695140D01*
X-197723700Y84468860D01*
X-197824329Y84461970D01*
X-197826329Y84461672D01*
X-197916483Y84440772D01*
X-197918528Y84440111D01*
X-197991951Y84409311D01*
X-197993577Y84408487D01*
X-198055846Y84371087D01*
X-198056713Y84370517D01*
X-198113406Y84329817D01*
X-198169678Y84289418D01*
X-198230717Y84252757D01*
X-198302301Y84222729D01*
X-198390420Y84202301D01*
X-198493425Y84195248D01*
X-198686801Y84582000D01*
X-198493425Y84968752D01*
X-198390420Y84961699D01*
G37*
%TD.AperFunction*%
%TD*%
D34*
%TO.N,Avg_voltage*%
X-168420185Y55574998D02*
X-168418200Y55573614D01*
X-168256868Y55482682D01*
X-168254534Y55481660D01*
X-168101325Y55432197D01*
X-168099278Y55431719D01*
X-167951483Y55409902D01*
X-167950327Y55409785D01*
X-167805240Y55401791D01*
X-167660733Y55393830D01*
X-167514558Y55372252D01*
X-167363570Y55323507D01*
X-167204411Y55233799D01*
X-167039719Y55093918D01*
X-167310769Y54280769D01*
X-168123918Y54009719D01*
X-168263799Y54174411D01*
X-168353507Y54333570D01*
X-168402252Y54484558D01*
X-168423830Y54630733D01*
X-168431791Y54775240D01*
X-168439785Y54920327D01*
X-168439902Y54921483D01*
X-168461719Y55069278D01*
X-168462197Y55071325D01*
X-168511660Y55224534D01*
X-168512682Y55226868D01*
X-168603614Y55388200D01*
X-168604998Y55390185D01*
X-168743645Y55553424D01*
X-168583424Y55713645D01*
X-168420185Y55574998D01*
%TA.AperFunction,Conductor*%
D33*
G36*
X-168420185Y55574998D02*
G01*
X-168418200Y55573614D01*
X-168256868Y55482682D01*
X-168254534Y55481660D01*
X-168101325Y55432197D01*
X-168099278Y55431719D01*
X-167951483Y55409902D01*
X-167950327Y55409785D01*
X-167805240Y55401791D01*
X-167660733Y55393830D01*
X-167514558Y55372252D01*
X-167363570Y55323507D01*
X-167204411Y55233799D01*
X-167039719Y55093918D01*
X-167310769Y54280769D01*
X-168123918Y54009719D01*
X-168263799Y54174411D01*
X-168353507Y54333570D01*
X-168402252Y54484558D01*
X-168423830Y54630733D01*
X-168431791Y54775240D01*
X-168439785Y54920327D01*
X-168439902Y54921483D01*
X-168461719Y55069278D01*
X-168462197Y55071325D01*
X-168511660Y55224534D01*
X-168512682Y55226868D01*
X-168603614Y55388200D01*
X-168604998Y55390185D01*
X-168743645Y55553424D01*
X-168583424Y55713645D01*
X-168420185Y55574998D01*
G37*
%TD.AperFunction*%
%TD*%
D34*
%TO.N,load_sense*%
X-202323604Y63809351D02*
X-202321978Y63808148D01*
X-202243451Y63759178D01*
X-202241538Y63758199D01*
X-202167841Y63728060D01*
X-202166109Y63727493D01*
X-202095632Y63709908D01*
X-202094615Y63709698D01*
X-202025749Y63698389D01*
X-201957395Y63687165D01*
X-201888308Y63669927D01*
X-201816455Y63640542D01*
X-201739709Y63592682D01*
X-201661882Y63524830D01*
X-201798619Y63114619D01*
X-202208830Y62977882D01*
X-202276682Y63055709D01*
X-202324542Y63132455D01*
X-202353927Y63204308D01*
X-202371165Y63273395D01*
X-202382389Y63341749D01*
X-202393698Y63410615D01*
X-202393908Y63411632D01*
X-202411493Y63482109D01*
X-202412060Y63483841D01*
X-202442199Y63557538D01*
X-202443178Y63559451D01*
X-202492148Y63637978D01*
X-202493351Y63639604D01*
X-202559635Y63715632D01*
X-202399632Y63875635D01*
X-202323604Y63809351D01*
%TA.AperFunction,Conductor*%
D33*
G36*
X-202323604Y63809351D02*
G01*
X-202321978Y63808148D01*
X-202243451Y63759178D01*
X-202241538Y63758199D01*
X-202167841Y63728060D01*
X-202166109Y63727493D01*
X-202095632Y63709908D01*
X-202094615Y63709698D01*
X-202025749Y63698389D01*
X-201957395Y63687165D01*
X-201888308Y63669927D01*
X-201816455Y63640542D01*
X-201739709Y63592682D01*
X-201661882Y63524830D01*
X-201798619Y63114619D01*
X-202208830Y62977882D01*
X-202276682Y63055709D01*
X-202324542Y63132455D01*
X-202353927Y63204308D01*
X-202371165Y63273395D01*
X-202382389Y63341749D01*
X-202393698Y63410615D01*
X-202393908Y63411632D01*
X-202411493Y63482109D01*
X-202412060Y63483841D01*
X-202442199Y63557538D01*
X-202443178Y63559451D01*
X-202492148Y63637978D01*
X-202493351Y63639604D01*
X-202559635Y63715632D01*
X-202399632Y63875635D01*
X-202323604Y63809351D01*
G37*
%TD.AperFunction*%
%TD*%
D34*
%TO.N,+12V*%
X-172736420Y61847699D02*
X-172648301Y61827271D01*
X-172576717Y61797242D01*
X-172515678Y61760581D01*
X-172459406Y61720183D01*
X-172402713Y61679483D01*
X-172401846Y61678913D01*
X-172339577Y61641512D01*
X-172337951Y61640688D01*
X-172264528Y61609889D01*
X-172262483Y61609228D01*
X-172172329Y61588328D01*
X-172170329Y61588030D01*
X-172069700Y61581140D01*
X-172069700Y61354860D01*
X-172170329Y61347970D01*
X-172172329Y61347672D01*
X-172262483Y61326772D01*
X-172264528Y61326111D01*
X-172337951Y61295311D01*
X-172339577Y61294487D01*
X-172401846Y61257087D01*
X-172402713Y61256517D01*
X-172459406Y61215817D01*
X-172515678Y61175418D01*
X-172576717Y61138757D01*
X-172648301Y61108729D01*
X-172736420Y61088301D01*
X-172839425Y61081248D01*
X-173032801Y61468000D01*
X-172839425Y61854752D01*
X-172736420Y61847699D01*
%TA.AperFunction,Conductor*%
D33*
G36*
X-172736420Y61847699D02*
G01*
X-172648301Y61827271D01*
X-172576717Y61797242D01*
X-172515678Y61760581D01*
X-172459406Y61720183D01*
X-172402713Y61679483D01*
X-172401846Y61678913D01*
X-172339577Y61641512D01*
X-172337951Y61640688D01*
X-172264528Y61609889D01*
X-172262483Y61609228D01*
X-172172329Y61588328D01*
X-172170329Y61588030D01*
X-172069700Y61581140D01*
X-172069700Y61354860D01*
X-172170329Y61347970D01*
X-172172329Y61347672D01*
X-172262483Y61326772D01*
X-172264528Y61326111D01*
X-172337951Y61295311D01*
X-172339577Y61294487D01*
X-172401846Y61257087D01*
X-172402713Y61256517D01*
X-172459406Y61215817D01*
X-172515678Y61175418D01*
X-172576717Y61138757D01*
X-172648301Y61108729D01*
X-172736420Y61088301D01*
X-172839425Y61081248D01*
X-173032801Y61468000D01*
X-172839425Y61854752D01*
X-172736420Y61847699D01*
G37*
%TD.AperFunction*%
%TD*%
D34*
%TO.N,+12V*%
X-147526681Y88960019D02*
X-147194649Y87963924D01*
X-147399618Y87790561D01*
X-147596901Y87681220D01*
X-147784414Y87623198D01*
X-147966076Y87599256D01*
X-148145565Y87592402D01*
X-148325640Y87585526D01*
X-148326814Y87585426D01*
X-148510129Y87561266D01*
X-148512224Y87560807D01*
X-148702023Y87502078D01*
X-148704425Y87501054D01*
X-148903948Y87390471D01*
X-148905993Y87389060D01*
X-149109562Y87216883D01*
X-149269817Y87377138D01*
X-149097639Y87580706D01*
X-149096228Y87582751D01*
X-148985645Y87782274D01*
X-148984621Y87784676D01*
X-148925892Y87974475D01*
X-148925433Y87976570D01*
X-148901273Y88159885D01*
X-148901173Y88161059D01*
X-148894297Y88341134D01*
X-148887443Y88520623D01*
X-148863501Y88702285D01*
X-148805479Y88889798D01*
X-148696138Y89087081D01*
X-148522776Y89292051D01*
X-147526681Y88960019D01*
%TA.AperFunction,Conductor*%
D33*
G36*
X-147526681Y88960019D02*
G01*
X-147194649Y87963924D01*
X-147399618Y87790561D01*
X-147596901Y87681220D01*
X-147784414Y87623198D01*
X-147966076Y87599256D01*
X-148145565Y87592402D01*
X-148325640Y87585526D01*
X-148326814Y87585426D01*
X-148510129Y87561266D01*
X-148512224Y87560807D01*
X-148702023Y87502078D01*
X-148704425Y87501054D01*
X-148903948Y87390471D01*
X-148905993Y87389060D01*
X-149109562Y87216883D01*
X-149269817Y87377138D01*
X-149097639Y87580706D01*
X-149096228Y87582751D01*
X-148985645Y87782274D01*
X-148984621Y87784676D01*
X-148925892Y87974475D01*
X-148925433Y87976570D01*
X-148901273Y88159885D01*
X-148901173Y88161059D01*
X-148894297Y88341134D01*
X-148887443Y88520623D01*
X-148863501Y88702285D01*
X-148805479Y88889798D01*
X-148696138Y89087081D01*
X-148522776Y89292051D01*
X-147526681Y88960019D01*
G37*
%TD.AperFunction*%
%TD*%
D34*
%TO.N,+12V*%
X-211598420Y73785699D02*
X-211510301Y73765271D01*
X-211438717Y73735242D01*
X-211377678Y73698581D01*
X-211321406Y73658183D01*
X-211264713Y73617483D01*
X-211263846Y73616913D01*
X-211201577Y73579512D01*
X-211199951Y73578688D01*
X-211126528Y73547889D01*
X-211124483Y73547228D01*
X-211034329Y73526328D01*
X-211032329Y73526030D01*
X-210931700Y73519140D01*
X-210931700Y73292860D01*
X-211032329Y73285970D01*
X-211034329Y73285672D01*
X-211124483Y73264772D01*
X-211126528Y73264111D01*
X-211199951Y73233311D01*
X-211201577Y73232487D01*
X-211263846Y73195087D01*
X-211264713Y73194517D01*
X-211321406Y73153817D01*
X-211377678Y73113418D01*
X-211438717Y73076757D01*
X-211510301Y73046729D01*
X-211598420Y73026301D01*
X-211701425Y73019248D01*
X-211894801Y73406000D01*
X-211701425Y73792752D01*
X-211598420Y73785699D01*
%TA.AperFunction,Conductor*%
D33*
G36*
X-211598420Y73785699D02*
G01*
X-211510301Y73765271D01*
X-211438717Y73735242D01*
X-211377678Y73698581D01*
X-211321406Y73658183D01*
X-211264713Y73617483D01*
X-211263846Y73616913D01*
X-211201577Y73579512D01*
X-211199951Y73578688D01*
X-211126528Y73547889D01*
X-211124483Y73547228D01*
X-211034329Y73526328D01*
X-211032329Y73526030D01*
X-210931700Y73519140D01*
X-210931700Y73292860D01*
X-211032329Y73285970D01*
X-211034329Y73285672D01*
X-211124483Y73264772D01*
X-211126528Y73264111D01*
X-211199951Y73233311D01*
X-211201577Y73232487D01*
X-211263846Y73195087D01*
X-211264713Y73194517D01*
X-211321406Y73153817D01*
X-211377678Y73113418D01*
X-211438717Y73076757D01*
X-211510301Y73046729D01*
X-211598420Y73026301D01*
X-211701425Y73019248D01*
X-211894801Y73406000D01*
X-211701425Y73792752D01*
X-211598420Y73785699D01*
G37*
%TD.AperFunction*%
%TD*%
D34*
%TO.N,+12V*%
X-204719619Y78998381D02*
X-204582882Y78588170D01*
X-204660709Y78520317D01*
X-204737455Y78472457D01*
X-204809308Y78443072D01*
X-204878395Y78425834D01*
X-204946749Y78414610D01*
X-205015615Y78403301D01*
X-205016632Y78403091D01*
X-205087109Y78385506D01*
X-205088841Y78384939D01*
X-205162538Y78354800D01*
X-205164451Y78353821D01*
X-205242978Y78304851D01*
X-205244604Y78303648D01*
X-205320632Y78237365D01*
X-205480635Y78397368D01*
X-205414351Y78473395D01*
X-205413148Y78475021D01*
X-205364178Y78553548D01*
X-205363199Y78555461D01*
X-205333060Y78629158D01*
X-205332493Y78630890D01*
X-205314908Y78701367D01*
X-205314698Y78702384D01*
X-205303389Y78771250D01*
X-205292165Y78839604D01*
X-205274927Y78908691D01*
X-205245542Y78980544D01*
X-205197682Y79057290D01*
X-205129830Y79135118D01*
X-204719619Y78998381D01*
%TA.AperFunction,Conductor*%
D33*
G36*
X-204719619Y78998381D02*
G01*
X-204582882Y78588170D01*
X-204660709Y78520317D01*
X-204737455Y78472457D01*
X-204809308Y78443072D01*
X-204878395Y78425834D01*
X-204946749Y78414610D01*
X-205015615Y78403301D01*
X-205016632Y78403091D01*
X-205087109Y78385506D01*
X-205088841Y78384939D01*
X-205162538Y78354800D01*
X-205164451Y78353821D01*
X-205242978Y78304851D01*
X-205244604Y78303648D01*
X-205320632Y78237365D01*
X-205480635Y78397368D01*
X-205414351Y78473395D01*
X-205413148Y78475021D01*
X-205364178Y78553548D01*
X-205363199Y78555461D01*
X-205333060Y78629158D01*
X-205332493Y78630890D01*
X-205314908Y78701367D01*
X-205314698Y78702384D01*
X-205303389Y78771250D01*
X-205292165Y78839604D01*
X-205274927Y78908691D01*
X-205245542Y78980544D01*
X-205197682Y79057290D01*
X-205129830Y79135118D01*
X-204719619Y78998381D01*
G37*
%TD.AperFunction*%
%TD*%
D34*
%TO.N,+5V*%
X-130655170Y55359240D02*
X-130792093Y55208112D01*
X-130793002Y55206986D01*
X-130896503Y55062642D01*
X-130897329Y55061326D01*
X-130969676Y54928791D01*
X-130970264Y54927561D01*
X-131021841Y54802897D01*
X-131022126Y54802143D01*
X-131104385Y54561059D01*
X-131155543Y54437408D01*
X-131227188Y54306159D01*
X-131329816Y54163032D01*
X-131468804Y54009626D01*
X-132282231Y54280769D01*
X-132553374Y55094196D01*
X-132399967Y55233183D01*
X-132256840Y55335811D01*
X-132125591Y55407456D01*
X-132001940Y55458614D01*
X-131760856Y55540873D01*
X-131760102Y55541158D01*
X-131635438Y55592735D01*
X-131634208Y55593323D01*
X-131501673Y55665670D01*
X-131500357Y55666496D01*
X-131356013Y55769997D01*
X-131354887Y55770906D01*
X-131203759Y55907829D01*
X-130655170Y55359240D01*
%TA.AperFunction,Conductor*%
D33*
G36*
X-130655170Y55359240D02*
G01*
X-130792093Y55208112D01*
X-130793002Y55206986D01*
X-130896503Y55062642D01*
X-130897329Y55061326D01*
X-130969676Y54928791D01*
X-130970264Y54927561D01*
X-131021841Y54802897D01*
X-131022126Y54802143D01*
X-131104385Y54561059D01*
X-131155543Y54437408D01*
X-131227188Y54306159D01*
X-131329816Y54163032D01*
X-131468804Y54009626D01*
X-132282231Y54280769D01*
X-132553374Y55094196D01*
X-132399967Y55233183D01*
X-132256840Y55335811D01*
X-132125591Y55407456D01*
X-132001940Y55458614D01*
X-131760856Y55540873D01*
X-131760102Y55541158D01*
X-131635438Y55592735D01*
X-131634208Y55593323D01*
X-131501673Y55665670D01*
X-131500357Y55666496D01*
X-131356013Y55769997D01*
X-131354887Y55770906D01*
X-131203759Y55907829D01*
X-130655170Y55359240D01*
G37*
%TD.AperFunction*%
%TD*%
D34*
%TO.N,+5V*%
X-144374737Y88626020D02*
X-144406013Y88401474D01*
X-144491173Y88204455D01*
X-144611967Y88034863D01*
X-144751024Y87885789D01*
X-144890484Y87750580D01*
X-144890849Y87750212D01*
X-145012490Y87622253D01*
X-145013826Y87620587D01*
X-145099497Y87493113D01*
X-145100676Y87490921D01*
X-145101313Y87488961D01*
X-145133100Y87354980D01*
X-145133434Y87352513D01*
X-145133281Y87350028D01*
X-145133000Y87348723D01*
X-145092989Y87201242D01*
X-145092105Y87198914D01*
X-145090783Y87196804D01*
X-144967888Y87037673D01*
X-145515777Y86489784D01*
X-145638356Y86638769D01*
X-145712516Y86788989D01*
X-145744715Y86933206D01*
X-145748991Y87074225D01*
X-145739137Y87214454D01*
X-145729238Y87355316D01*
X-145729213Y87356591D01*
X-145733545Y87499459D01*
X-145733844Y87501841D01*
X-145766637Y87648721D01*
X-145767644Y87651576D01*
X-145843127Y87804477D01*
X-145844708Y87806924D01*
X-145971482Y87961008D01*
X-145308449Y89092876D01*
X-144374737Y88626020D01*
%TA.AperFunction,Conductor*%
D33*
G36*
X-144374737Y88626020D02*
G01*
X-144406013Y88401474D01*
X-144491173Y88204455D01*
X-144611967Y88034863D01*
X-144751024Y87885789D01*
X-144890484Y87750580D01*
X-144890849Y87750212D01*
X-145012490Y87622253D01*
X-145013826Y87620587D01*
X-145099497Y87493113D01*
X-145100676Y87490921D01*
X-145101313Y87488961D01*
X-145133100Y87354980D01*
X-145133434Y87352513D01*
X-145133281Y87350028D01*
X-145133000Y87348723D01*
X-145092989Y87201242D01*
X-145092105Y87198914D01*
X-145090783Y87196804D01*
X-144967888Y87037673D01*
X-145515777Y86489784D01*
X-145638356Y86638769D01*
X-145712516Y86788989D01*
X-145744715Y86933206D01*
X-145748991Y87074225D01*
X-145739137Y87214454D01*
X-145729238Y87355316D01*
X-145729213Y87356591D01*
X-145733545Y87499459D01*
X-145733844Y87501841D01*
X-145766637Y87648721D01*
X-145767644Y87651576D01*
X-145843127Y87804477D01*
X-145844708Y87806924D01*
X-145971482Y87961008D01*
X-145308449Y89092876D01*
X-144374737Y88626020D01*
G37*
%TD.AperFunction*%
%TD*%
D34*
%TO.N,+5V*%
X-200958231Y89154498D02*
X-201024009Y89083445D01*
X-201024738Y89082583D01*
X-201079601Y89011598D01*
X-201080297Y89010601D01*
X-201120748Y88946392D01*
X-201121286Y88945453D01*
X-201152128Y88885761D01*
X-201152412Y88885175D01*
X-201178451Y88827741D01*
X-201204355Y88770604D01*
X-201234799Y88711683D01*
X-201274637Y88648445D01*
X-201328783Y88578387D01*
X-201396913Y88504796D01*
X-201807381Y88641619D01*
X-201944204Y89052087D01*
X-201870612Y89120216D01*
X-201800554Y89174362D01*
X-201737316Y89214200D01*
X-201678395Y89244644D01*
X-201621258Y89270548D01*
X-201563824Y89296587D01*
X-201563238Y89296871D01*
X-201503546Y89327713D01*
X-201502607Y89328251D01*
X-201438398Y89368702D01*
X-201437401Y89369398D01*
X-201366416Y89424261D01*
X-201365554Y89424991D01*
X-201294502Y89490769D01*
X-200958231Y89154498D01*
%TA.AperFunction,Conductor*%
D33*
G36*
X-200958231Y89154498D02*
G01*
X-201024009Y89083445D01*
X-201024738Y89082583D01*
X-201079601Y89011598D01*
X-201080297Y89010601D01*
X-201120748Y88946392D01*
X-201121286Y88945453D01*
X-201152128Y88885761D01*
X-201152412Y88885175D01*
X-201178451Y88827741D01*
X-201204355Y88770604D01*
X-201234799Y88711683D01*
X-201274637Y88648445D01*
X-201328783Y88578387D01*
X-201396913Y88504796D01*
X-201807381Y88641619D01*
X-201944204Y89052087D01*
X-201870612Y89120216D01*
X-201800554Y89174362D01*
X-201737316Y89214200D01*
X-201678395Y89244644D01*
X-201621258Y89270548D01*
X-201563824Y89296587D01*
X-201563238Y89296871D01*
X-201503546Y89327713D01*
X-201502607Y89328251D01*
X-201438398Y89368702D01*
X-201437401Y89369398D01*
X-201366416Y89424261D01*
X-201365554Y89424991D01*
X-201294502Y89490769D01*
X-200958231Y89154498D01*
G37*
%TD.AperFunction*%
%TD*%
D34*
%TO.N,+5V*%
X-146283749Y89967105D02*
X-146282021Y89965848D01*
X-146090402Y89849734D01*
X-146088368Y89848737D01*
X-145907875Y89779515D01*
X-145906048Y89778968D01*
X-145732974Y89741007D01*
X-145731913Y89740821D01*
X-145562546Y89718491D01*
X-145393714Y89696231D01*
X-145222102Y89658591D01*
X-145043560Y89590117D01*
X-144853835Y89475151D01*
X-144654616Y89302774D01*
X-144986681Y88306581D01*
X-145982874Y87974516D01*
X-146155251Y88173735D01*
X-146270217Y88363460D01*
X-146338691Y88542002D01*
X-146376331Y88713614D01*
X-146398591Y88882446D01*
X-146420921Y89051813D01*
X-146421107Y89052874D01*
X-146459068Y89225948D01*
X-146459615Y89227775D01*
X-146528837Y89408268D01*
X-146529834Y89410302D01*
X-146645948Y89601921D01*
X-146647205Y89603649D01*
X-146818111Y89801168D01*
X-146481268Y90138011D01*
X-146283749Y89967105D01*
%TA.AperFunction,Conductor*%
D33*
G36*
X-146283749Y89967105D02*
G01*
X-146282021Y89965848D01*
X-146090402Y89849734D01*
X-146088368Y89848737D01*
X-145907875Y89779515D01*
X-145906048Y89778968D01*
X-145732974Y89741007D01*
X-145731913Y89740821D01*
X-145562546Y89718491D01*
X-145393714Y89696231D01*
X-145222102Y89658591D01*
X-145043560Y89590117D01*
X-144853835Y89475151D01*
X-144654616Y89302774D01*
X-144986681Y88306581D01*
X-145982874Y87974516D01*
X-146155251Y88173735D01*
X-146270217Y88363460D01*
X-146338691Y88542002D01*
X-146376331Y88713614D01*
X-146398591Y88882446D01*
X-146420921Y89051813D01*
X-146421107Y89052874D01*
X-146459068Y89225948D01*
X-146459615Y89227775D01*
X-146528837Y89408268D01*
X-146529834Y89410302D01*
X-146645948Y89601921D01*
X-146647205Y89603649D01*
X-146818111Y89801168D01*
X-146481268Y90138011D01*
X-146283749Y89967105D01*
G37*
%TD.AperFunction*%
%TD*%
D34*
%TO.N,+5V*%
X-181654231Y71882498D02*
X-181720009Y71811445D01*
X-181720738Y71810583D01*
X-181775601Y71739598D01*
X-181776297Y71738601D01*
X-181816748Y71674392D01*
X-181817286Y71673453D01*
X-181848128Y71613761D01*
X-181848412Y71613175D01*
X-181874451Y71555741D01*
X-181900355Y71498604D01*
X-181930799Y71439683D01*
X-181970637Y71376445D01*
X-182024783Y71306387D01*
X-182092913Y71232796D01*
X-182503381Y71369619D01*
X-182640204Y71780087D01*
X-182566612Y71848216D01*
X-182496554Y71902362D01*
X-182433316Y71942200D01*
X-182374395Y71972644D01*
X-182317258Y71998548D01*
X-182259824Y72024587D01*
X-182259238Y72024871D01*
X-182199546Y72055713D01*
X-182198607Y72056251D01*
X-182134398Y72096702D01*
X-182133401Y72097398D01*
X-182062416Y72152261D01*
X-182061554Y72152991D01*
X-181990502Y72218769D01*
X-181654231Y71882498D01*
%TA.AperFunction,Conductor*%
D33*
G36*
X-181654231Y71882498D02*
G01*
X-181720009Y71811445D01*
X-181720738Y71810583D01*
X-181775601Y71739598D01*
X-181776297Y71738601D01*
X-181816748Y71674392D01*
X-181817286Y71673453D01*
X-181848128Y71613761D01*
X-181848412Y71613175D01*
X-181874451Y71555741D01*
X-181900355Y71498604D01*
X-181930799Y71439683D01*
X-181970637Y71376445D01*
X-182024783Y71306387D01*
X-182092913Y71232796D01*
X-182503381Y71369619D01*
X-182640204Y71780087D01*
X-182566612Y71848216D01*
X-182496554Y71902362D01*
X-182433316Y71942200D01*
X-182374395Y71972644D01*
X-182317258Y71998548D01*
X-182259824Y72024587D01*
X-182259238Y72024871D01*
X-182199546Y72055713D01*
X-182198607Y72056251D01*
X-182134398Y72096702D01*
X-182133401Y72097398D01*
X-182062416Y72152261D01*
X-182061554Y72152991D01*
X-181990502Y72218769D01*
X-181654231Y71882498D01*
G37*
%TD.AperFunction*%
%TD*%
D34*
%TO.N,V_ref*%
X-197248644Y65832828D02*
X-197256588Y65761602D01*
X-197268263Y65702390D01*
X-197282479Y65650925D01*
X-197298076Y65603023D01*
X-197313764Y65554843D01*
X-197313930Y65554292D01*
X-197328346Y65502102D01*
X-197328564Y65501178D01*
X-197340436Y65440969D01*
X-197340598Y65439920D01*
X-197348654Y65367683D01*
X-197348725Y65366702D01*
X-197351376Y65287894D01*
X-197872132Y65151871D01*
X-198007003Y65556486D01*
X-197944175Y65607082D01*
X-197873044Y65643261D01*
X-197801263Y65665931D01*
X-197730849Y65680514D01*
X-197664310Y65692443D01*
X-197663501Y65692616D01*
X-197603674Y65707418D01*
X-197601416Y65708209D01*
X-197550803Y65731496D01*
X-197548654Y65732753D01*
X-197547326Y65733862D01*
X-197508271Y65771271D01*
X-197506651Y65773161D01*
X-197505431Y65775328D01*
X-197480279Y65832499D01*
X-197479505Y65834865D01*
X-197479277Y65836251D01*
X-197471596Y65907484D01*
X-197246134Y65907484D01*
X-197248644Y65832828D01*
%TA.AperFunction,Conductor*%
D33*
G36*
X-197248644Y65832828D02*
G01*
X-197256588Y65761602D01*
X-197268263Y65702390D01*
X-197282479Y65650925D01*
X-197298076Y65603023D01*
X-197313764Y65554843D01*
X-197313930Y65554292D01*
X-197328346Y65502102D01*
X-197328564Y65501178D01*
X-197340436Y65440969D01*
X-197340598Y65439920D01*
X-197348654Y65367683D01*
X-197348725Y65366702D01*
X-197351376Y65287894D01*
X-197872132Y65151871D01*
X-198007003Y65556486D01*
X-197944175Y65607082D01*
X-197873044Y65643261D01*
X-197801263Y65665931D01*
X-197730849Y65680514D01*
X-197664310Y65692443D01*
X-197663501Y65692616D01*
X-197603674Y65707418D01*
X-197601416Y65708209D01*
X-197550803Y65731496D01*
X-197548654Y65732753D01*
X-197547326Y65733862D01*
X-197508271Y65771271D01*
X-197506651Y65773161D01*
X-197505431Y65775328D01*
X-197480279Y65832499D01*
X-197479505Y65834865D01*
X-197479277Y65836251D01*
X-197471596Y65907484D01*
X-197246134Y65907484D01*
X-197248644Y65832828D01*
G37*
%TD.AperFunction*%
%TD*%
D34*
%TO.N,V_ref*%
X-196971248Y83304425D02*
X-196978301Y83201420D01*
X-196998729Y83113301D01*
X-197028758Y83041717D01*
X-197065419Y82980678D01*
X-197105817Y82924406D01*
X-197146517Y82867713D01*
X-197147087Y82866846D01*
X-197184486Y82804577D01*
X-197185310Y82802951D01*
X-197216111Y82729528D01*
X-197216772Y82727483D01*
X-197237672Y82637329D01*
X-197237970Y82635329D01*
X-197244860Y82534700D01*
X-197471140Y82534700D01*
X-197478030Y82635329D01*
X-197478328Y82637329D01*
X-197499228Y82727483D01*
X-197499889Y82729528D01*
X-197530689Y82802951D01*
X-197531513Y82804577D01*
X-197568913Y82866846D01*
X-197569483Y82867713D01*
X-197610183Y82924406D01*
X-197650581Y82980678D01*
X-197687241Y83041717D01*
X-197717271Y83113301D01*
X-197737699Y83201420D01*
X-197744752Y83304425D01*
X-197358000Y83497801D01*
X-196971248Y83304425D01*
%TA.AperFunction,Conductor*%
D33*
G36*
X-196971248Y83304425D02*
G01*
X-196978301Y83201420D01*
X-196998729Y83113301D01*
X-197028758Y83041717D01*
X-197065419Y82980678D01*
X-197105817Y82924406D01*
X-197146517Y82867713D01*
X-197147087Y82866846D01*
X-197184486Y82804577D01*
X-197185310Y82802951D01*
X-197216111Y82729528D01*
X-197216772Y82727483D01*
X-197237672Y82637329D01*
X-197237970Y82635329D01*
X-197244860Y82534700D01*
X-197471140Y82534700D01*
X-197478030Y82635329D01*
X-197478328Y82637329D01*
X-197499228Y82727483D01*
X-197499889Y82729528D01*
X-197530689Y82802951D01*
X-197531513Y82804577D01*
X-197568913Y82866846D01*
X-197569483Y82867713D01*
X-197610183Y82924406D01*
X-197650581Y82980678D01*
X-197687241Y83041717D01*
X-197717271Y83113301D01*
X-197737699Y83201420D01*
X-197744752Y83304425D01*
X-197358000Y83497801D01*
X-196971248Y83304425D01*
G37*
%TD.AperFunction*%
%TD*%
M02*
