%TF.GenerationSoftware,KiCad,Pcbnew,5.1.10*%
%TF.CreationDate,2021-11-24T03:02:33+13:00*%
%TF.ProjectId,buck_converter,6275636b-5f63-46f6-9e76-65727465722e,rev?*%
%TF.SameCoordinates,Original*%
%TF.FileFunction,Soldermask,Bot*%
%TF.FilePolarity,Negative*%
%FSLAX46Y46*%
G04 Gerber Fmt 4.6, Leading zero omitted, Abs format (unit mm)*
G04 Created by KiCad (PCBNEW 5.1.10) date 2021-11-24 03:02:33*
%MOMM*%
%LPD*%
G01*
G04 APERTURE LIST*
%ADD10C,1.560000*%
%ADD11R,1.560000X1.560000*%
%ADD12O,1.600000X1.600000*%
%ADD13R,1.600000X1.600000*%
%ADD14C,2.400000*%
%ADD15R,2.400000X2.400000*%
%ADD16C,2.000000*%
%ADD17R,2.000000X2.000000*%
%ADD18C,0.800000*%
%ADD19C,7.000000*%
%ADD20C,1.590000*%
%ADD21O,1.800000X1.800000*%
%ADD22R,1.800000X1.800000*%
%ADD23C,1.440000*%
%ADD24O,1.905000X2.000000*%
%ADD25R,1.905000X2.000000*%
%ADD26C,1.600000*%
G04 APERTURE END LIST*
D10*
%TO.C,U6*%
X-132016500Y79946500D03*
X-134556500Y79946500D03*
X-137096500Y79946500D03*
X-139636500Y79946500D03*
X-142176500Y79946500D03*
X-144716500Y79946500D03*
X-147256500Y79946500D03*
X-149796500Y79946500D03*
X-152336500Y79946500D03*
X-154876500Y79946500D03*
X-157416500Y79946500D03*
X-159956500Y79946500D03*
X-162496500Y79946500D03*
X-165036500Y79946500D03*
X-167576500Y79946500D03*
X-170116500Y79946500D03*
X-172656500Y79946500D03*
X-175196500Y79946500D03*
X-177736500Y79946500D03*
X-134556500Y54546500D03*
X-137096500Y54546500D03*
X-139636500Y54546500D03*
X-142176500Y54546500D03*
X-144716500Y54546500D03*
X-147256500Y54546500D03*
X-149796500Y54546500D03*
X-152336500Y54546500D03*
X-154876500Y54546500D03*
X-157416500Y54546500D03*
X-159956500Y54546500D03*
X-162496500Y54546500D03*
X-165036500Y54546500D03*
X-167576500Y54546500D03*
X-170116500Y54546500D03*
X-172656500Y54546500D03*
X-132016500Y54546500D03*
X-175196500Y54546500D03*
D11*
X-177736500Y54546500D03*
%TD*%
D12*
%TO.C,U1*%
X-184607200Y86702900D03*
X-192227200Y71462900D03*
X-184607200Y84162900D03*
X-192227200Y74002900D03*
X-184607200Y81622900D03*
X-192227200Y76542900D03*
X-184607200Y79082900D03*
X-192227200Y79082900D03*
X-184607200Y76542900D03*
X-192227200Y81622900D03*
X-184607200Y74002900D03*
X-192227200Y84162900D03*
X-184607200Y71462900D03*
D13*
X-192227200Y86702900D03*
%TD*%
D14*
%TO.C,C16*%
X-210629500Y111379000D03*
D15*
X-198120000Y111379000D03*
D16*
X-205700000Y111379000D03*
D17*
X-203200000Y111379000D03*
D15*
X-200660000Y111379000D03*
D14*
X-208160000Y111379000D03*
%TD*%
D18*
%TO.C,OUT  -*%
X-211249845Y129618155D03*
X-213106000Y130387000D03*
X-214962155Y129618155D03*
X-215731000Y127762000D03*
X-214962155Y125905845D03*
X-213106000Y125137000D03*
X-211249845Y125905845D03*
X-210481000Y127762000D03*
D19*
X-213106000Y127762000D03*
%TD*%
D18*
%TO.C,OUT +*%
X-198803845Y129618155D03*
X-200660000Y130387000D03*
X-202516155Y129618155D03*
X-203285000Y127762000D03*
X-202516155Y125905845D03*
X-200660000Y125137000D03*
X-198803845Y125905845D03*
X-198035000Y127762000D03*
D19*
X-200660000Y127762000D03*
%TD*%
D18*
%TO.C,IN +*%
X-166291845Y129872155D03*
X-168148000Y130641000D03*
X-170004155Y129872155D03*
X-170773000Y128016000D03*
X-170004155Y126159845D03*
X-168148000Y125391000D03*
X-166291845Y126159845D03*
X-165523000Y128016000D03*
D19*
X-168148000Y128016000D03*
%TD*%
D18*
%TO.C,IN -*%
X-153083845Y129872155D03*
X-154940000Y130641000D03*
X-156796155Y129872155D03*
X-157565000Y128016000D03*
X-156796155Y126159845D03*
X-154940000Y125391000D03*
X-153083845Y126159845D03*
X-152315000Y128016000D03*
D19*
X-154940000Y128016000D03*
%TD*%
D20*
%TO.C,INDUCTOR*%
X-190500000Y110236000D03*
X-177546000Y110236000D03*
%TD*%
D21*
%TO.C,D3*%
X-170688000Y96012000D03*
D22*
X-170688000Y103632000D03*
%TD*%
D21*
%TO.C,D2*%
X-147828000Y97028000D03*
D22*
X-155448000Y97028000D03*
%TD*%
D23*
%TO.C,RV1*%
X-200787000Y79057500D03*
X-200787000Y76517500D03*
X-200787000Y73977500D03*
%TD*%
D12*
%TO.C,D1*%
X-206692500Y70929500D03*
D13*
X-199072500Y70929500D03*
%TD*%
D12*
%TO.C,U7*%
X-155448000Y101854000D03*
X-147828000Y109474000D03*
X-155448000Y104394000D03*
X-147828000Y106934000D03*
X-155448000Y106934000D03*
X-147828000Y104394000D03*
X-155448000Y109474000D03*
D13*
X-147828000Y101854000D03*
%TD*%
D24*
%TO.C,U4*%
X-147853400Y88633300D03*
X-145313400Y88633300D03*
D25*
X-142773400Y88633300D03*
%TD*%
D24*
%TO.C,Q1*%
X-170688000Y110236000D03*
X-168148000Y110236000D03*
D25*
X-165608000Y110236000D03*
%TD*%
D26*
%TO.C,C12*%
X-163544000Y101854000D03*
D13*
X-161544000Y101854000D03*
%TD*%
D26*
%TO.C,C11*%
X-140748000Y101854000D03*
D13*
X-142748000Y101854000D03*
%TD*%
D26*
%TO.C,C7*%
X-208463000Y63436500D03*
D13*
X-211963000Y63436500D03*
%TD*%
D16*
%TO.C,C3*%
X-159258000Y118618000D03*
D17*
X-164258000Y118618000D03*
%TD*%
M02*
