%TF.GenerationSoftware,KiCad,Pcbnew,5.1.10*%
%TF.CreationDate,2021-11-24T02:21:55+13:00*%
%TF.ProjectId,buck_converter,6275636b-5f63-46f6-9e76-65727465722e,rev?*%
%TF.SameCoordinates,Original*%
%TF.FileFunction,Legend,Top*%
%TF.FilePolarity,Positive*%
%FSLAX46Y46*%
G04 Gerber Fmt 4.6, Leading zero omitted, Abs format (unit mm)*
G04 Created by KiCad (PCBNEW 5.1.10) date 2021-11-24 02:21:55*
%MOMM*%
%LPD*%
G01*
G04 APERTURE LIST*
%ADD10C,0.010000*%
%ADD11C,0.120000*%
%ADD12C,0.127000*%
%ADD13C,0.150000*%
G04 APERTURE END LIST*
D10*
%TO.C,G\u002A\u002A\u002A*%
G36*
X-139552325Y125240794D02*
G01*
X-139552715Y125227406D01*
X-139554294Y125213568D01*
X-139557679Y125197663D01*
X-139563485Y125178072D01*
X-139572329Y125153178D01*
X-139584827Y125121363D01*
X-139601594Y125081010D01*
X-139623247Y125030501D01*
X-139650401Y124968218D01*
X-139683672Y124892544D01*
X-139692901Y124871608D01*
X-139723408Y124802614D01*
X-139752026Y124738249D01*
X-139777995Y124680193D01*
X-139800557Y124630131D01*
X-139818950Y124589745D01*
X-139832416Y124560718D01*
X-139840193Y124544732D01*
X-139841609Y124542275D01*
X-139852306Y124537969D01*
X-139874003Y124534575D01*
X-139901989Y124532272D01*
X-139931552Y124531235D01*
X-139957982Y124531640D01*
X-139976566Y124533666D01*
X-139982691Y124536987D01*
X-139979363Y124545598D01*
X-139969869Y124567934D01*
X-139954945Y124602318D01*
X-139935327Y124647074D01*
X-139911749Y124700526D01*
X-139884949Y124760997D01*
X-139855661Y124826810D01*
X-139846608Y124847103D01*
X-139816562Y124914449D01*
X-139788612Y124977166D01*
X-139763521Y125033536D01*
X-139742051Y125081845D01*
X-139724966Y125120375D01*
X-139713026Y125147411D01*
X-139706996Y125161236D01*
X-139706469Y125162508D01*
X-139708624Y125166011D01*
X-139719187Y125168697D01*
X-139739761Y125170654D01*
X-139771950Y125171972D01*
X-139817355Y125172738D01*
X-139877580Y125173042D01*
X-139897403Y125173056D01*
X-140092392Y125173056D01*
X-140092392Y125291196D01*
X-139552325Y125291196D01*
X-139552325Y125240794D01*
G37*
X-139552325Y125240794D02*
X-139552715Y125227406D01*
X-139554294Y125213568D01*
X-139557679Y125197663D01*
X-139563485Y125178072D01*
X-139572329Y125153178D01*
X-139584827Y125121363D01*
X-139601594Y125081010D01*
X-139623247Y125030501D01*
X-139650401Y124968218D01*
X-139683672Y124892544D01*
X-139692901Y124871608D01*
X-139723408Y124802614D01*
X-139752026Y124738249D01*
X-139777995Y124680193D01*
X-139800557Y124630131D01*
X-139818950Y124589745D01*
X-139832416Y124560718D01*
X-139840193Y124544732D01*
X-139841609Y124542275D01*
X-139852306Y124537969D01*
X-139874003Y124534575D01*
X-139901989Y124532272D01*
X-139931552Y124531235D01*
X-139957982Y124531640D01*
X-139976566Y124533666D01*
X-139982691Y124536987D01*
X-139979363Y124545598D01*
X-139969869Y124567934D01*
X-139954945Y124602318D01*
X-139935327Y124647074D01*
X-139911749Y124700526D01*
X-139884949Y124760997D01*
X-139855661Y124826810D01*
X-139846608Y124847103D01*
X-139816562Y124914449D01*
X-139788612Y124977166D01*
X-139763521Y125033536D01*
X-139742051Y125081845D01*
X-139724966Y125120375D01*
X-139713026Y125147411D01*
X-139706996Y125161236D01*
X-139706469Y125162508D01*
X-139708624Y125166011D01*
X-139719187Y125168697D01*
X-139739761Y125170654D01*
X-139771950Y125171972D01*
X-139817355Y125172738D01*
X-139877580Y125173042D01*
X-139897403Y125173056D01*
X-140092392Y125173056D01*
X-140092392Y125291196D01*
X-139552325Y125291196D01*
X-139552325Y125240794D01*
G36*
X-142067010Y125291196D02*
G01*
X-142067010Y124531727D01*
X-142128892Y124531727D01*
X-142159761Y124532445D01*
X-142183676Y124534337D01*
X-142195949Y124537013D01*
X-142196401Y124537353D01*
X-142197739Y124546840D01*
X-142198963Y124571201D01*
X-142200035Y124608435D01*
X-142200915Y124656540D01*
X-142201564Y124713512D01*
X-142201943Y124777349D01*
X-142202026Y124826146D01*
X-142202026Y125109314D01*
X-142261154Y125050640D01*
X-142320282Y124991965D01*
X-142359516Y125031200D01*
X-142398751Y125070434D01*
X-142289840Y125180844D01*
X-142180930Y125291254D01*
X-142067010Y125291196D01*
G37*
X-142067010Y125291196D02*
X-142067010Y124531727D01*
X-142128892Y124531727D01*
X-142159761Y124532445D01*
X-142183676Y124534337D01*
X-142195949Y124537013D01*
X-142196401Y124537353D01*
X-142197739Y124546840D01*
X-142198963Y124571201D01*
X-142200035Y124608435D01*
X-142200915Y124656540D01*
X-142201564Y124713512D01*
X-142201943Y124777349D01*
X-142202026Y124826146D01*
X-142202026Y125109314D01*
X-142261154Y125050640D01*
X-142320282Y124991965D01*
X-142359516Y125031200D01*
X-142398751Y125070434D01*
X-142289840Y125180844D01*
X-142180930Y125291254D01*
X-142067010Y125291196D01*
G36*
X-140593990Y125294611D02*
G01*
X-140562978Y125292153D01*
X-140538478Y125286997D01*
X-140515327Y125278364D01*
X-140510100Y125276012D01*
X-140453455Y125240925D01*
X-140406847Y125192817D01*
X-140370707Y125132544D01*
X-140345467Y125060962D01*
X-140331559Y124978928D01*
X-140328796Y124916440D01*
X-140334999Y124826262D01*
X-140353007Y124746851D01*
X-140382384Y124678751D01*
X-140422695Y124622508D01*
X-140473502Y124578665D01*
X-140534369Y124547766D01*
X-140604862Y124530356D01*
X-140640897Y124527002D01*
X-140677051Y124526538D01*
X-140711125Y124528294D01*
X-140735770Y124531888D01*
X-140735865Y124531911D01*
X-140766084Y124541891D01*
X-140799314Y124556403D01*
X-140830114Y124572700D01*
X-140853040Y124588031D01*
X-140859932Y124594574D01*
X-140866123Y124606183D01*
X-140863673Y124620424D01*
X-140855758Y124636709D01*
X-140841516Y124661165D01*
X-140827521Y124682305D01*
X-140826450Y124683746D01*
X-140812546Y124702179D01*
X-140772453Y124673913D01*
X-140751356Y124659873D01*
X-140733504Y124651458D01*
X-140713314Y124647239D01*
X-140685205Y124645786D01*
X-140662072Y124645647D01*
X-140626168Y124646176D01*
X-140601710Y124648626D01*
X-140583280Y124654289D01*
X-140565458Y124664460D01*
X-140556037Y124670963D01*
X-140517094Y124708507D01*
X-140487304Y124758414D01*
X-140468104Y124818037D01*
X-140464297Y124839680D01*
X-140460552Y124868973D01*
X-140458520Y124890813D01*
X-140458610Y124900722D01*
X-140458693Y124900841D01*
X-140465783Y124897233D01*
X-140480739Y124885035D01*
X-140489955Y124876639D01*
X-140539966Y124839902D01*
X-140595388Y124816748D01*
X-140653556Y124806802D01*
X-140711806Y124809690D01*
X-140767473Y124825037D01*
X-140817895Y124852469D01*
X-140860406Y124891611D01*
X-140887688Y124932558D01*
X-140901742Y124972715D01*
X-140909001Y125021786D01*
X-140909032Y125040688D01*
X-140775672Y125040688D01*
X-140768179Y125000465D01*
X-140759363Y124981465D01*
X-140732620Y124952740D01*
X-140694883Y124932303D01*
X-140650385Y124921160D01*
X-140603359Y124920316D01*
X-140558038Y124930780D01*
X-140553637Y124932540D01*
X-140524623Y124948101D01*
X-140497491Y124968446D01*
X-140476193Y124989965D01*
X-140464678Y125009049D01*
X-140463688Y125014729D01*
X-140470467Y125055448D01*
X-140488663Y125096886D01*
X-140515063Y125133969D01*
X-140546455Y125161622D01*
X-140561938Y125169885D01*
X-140605064Y125180472D01*
X-140650904Y125179384D01*
X-140694910Y125167804D01*
X-140732531Y125146916D01*
X-140758718Y125118720D01*
X-140772507Y125082548D01*
X-140775672Y125040688D01*
X-140909032Y125040688D01*
X-140909086Y125073073D01*
X-140901616Y125119878D01*
X-140898857Y125129104D01*
X-140874275Y125178738D01*
X-140836596Y125223872D01*
X-140789594Y125260357D01*
X-140769280Y125271478D01*
X-140744454Y125282598D01*
X-140722062Y125289571D01*
X-140696749Y125293352D01*
X-140663157Y125294899D01*
X-140636678Y125295152D01*
X-140593990Y125294611D01*
G37*
X-140593990Y125294611D02*
X-140562978Y125292153D01*
X-140538478Y125286997D01*
X-140515327Y125278364D01*
X-140510100Y125276012D01*
X-140453455Y125240925D01*
X-140406847Y125192817D01*
X-140370707Y125132544D01*
X-140345467Y125060962D01*
X-140331559Y124978928D01*
X-140328796Y124916440D01*
X-140334999Y124826262D01*
X-140353007Y124746851D01*
X-140382384Y124678751D01*
X-140422695Y124622508D01*
X-140473502Y124578665D01*
X-140534369Y124547766D01*
X-140604862Y124530356D01*
X-140640897Y124527002D01*
X-140677051Y124526538D01*
X-140711125Y124528294D01*
X-140735770Y124531888D01*
X-140735865Y124531911D01*
X-140766084Y124541891D01*
X-140799314Y124556403D01*
X-140830114Y124572700D01*
X-140853040Y124588031D01*
X-140859932Y124594574D01*
X-140866123Y124606183D01*
X-140863673Y124620424D01*
X-140855758Y124636709D01*
X-140841516Y124661165D01*
X-140827521Y124682305D01*
X-140826450Y124683746D01*
X-140812546Y124702179D01*
X-140772453Y124673913D01*
X-140751356Y124659873D01*
X-140733504Y124651458D01*
X-140713314Y124647239D01*
X-140685205Y124645786D01*
X-140662072Y124645647D01*
X-140626168Y124646176D01*
X-140601710Y124648626D01*
X-140583280Y124654289D01*
X-140565458Y124664460D01*
X-140556037Y124670963D01*
X-140517094Y124708507D01*
X-140487304Y124758414D01*
X-140468104Y124818037D01*
X-140464297Y124839680D01*
X-140460552Y124868973D01*
X-140458520Y124890813D01*
X-140458610Y124900722D01*
X-140458693Y124900841D01*
X-140465783Y124897233D01*
X-140480739Y124885035D01*
X-140489955Y124876639D01*
X-140539966Y124839902D01*
X-140595388Y124816748D01*
X-140653556Y124806802D01*
X-140711806Y124809690D01*
X-140767473Y124825037D01*
X-140817895Y124852469D01*
X-140860406Y124891611D01*
X-140887688Y124932558D01*
X-140901742Y124972715D01*
X-140909001Y125021786D01*
X-140909032Y125040688D01*
X-140775672Y125040688D01*
X-140768179Y125000465D01*
X-140759363Y124981465D01*
X-140732620Y124952740D01*
X-140694883Y124932303D01*
X-140650385Y124921160D01*
X-140603359Y124920316D01*
X-140558038Y124930780D01*
X-140553637Y124932540D01*
X-140524623Y124948101D01*
X-140497491Y124968446D01*
X-140476193Y124989965D01*
X-140464678Y125009049D01*
X-140463688Y125014729D01*
X-140470467Y125055448D01*
X-140488663Y125096886D01*
X-140515063Y125133969D01*
X-140546455Y125161622D01*
X-140561938Y125169885D01*
X-140605064Y125180472D01*
X-140650904Y125179384D01*
X-140694910Y125167804D01*
X-140732531Y125146916D01*
X-140758718Y125118720D01*
X-140772507Y125082548D01*
X-140775672Y125040688D01*
X-140909032Y125040688D01*
X-140909086Y125073073D01*
X-140901616Y125119878D01*
X-140898857Y125129104D01*
X-140874275Y125178738D01*
X-140836596Y125223872D01*
X-140789594Y125260357D01*
X-140769280Y125271478D01*
X-140744454Y125282598D01*
X-140722062Y125289571D01*
X-140696749Y125293352D01*
X-140663157Y125294899D01*
X-140636678Y125295152D01*
X-140593990Y125294611D01*
G36*
X-141433904Y125294992D02*
G01*
X-141374732Y125287632D01*
X-141328638Y125274729D01*
X-141275643Y125247153D01*
X-141234498Y125211478D01*
X-141206339Y125169633D01*
X-141192296Y125123546D01*
X-141193503Y125075146D01*
X-141199006Y125054066D01*
X-141221939Y125008362D01*
X-141257871Y124971518D01*
X-141293572Y124948987D01*
X-141339871Y124924747D01*
X-141300500Y124902231D01*
X-141247655Y124864619D01*
X-141209886Y124821131D01*
X-141187661Y124772460D01*
X-141181334Y124725813D01*
X-141189327Y124674139D01*
X-141212701Y124628016D01*
X-141250549Y124588574D01*
X-141301963Y124556945D01*
X-141324418Y124547382D01*
X-141368337Y124535457D01*
X-141422054Y124528084D01*
X-141479079Y124525562D01*
X-141532926Y124528192D01*
X-141575459Y124535799D01*
X-141638891Y124558875D01*
X-141687695Y124588692D01*
X-141723080Y124626154D01*
X-141741678Y124660144D01*
X-141754244Y124710482D01*
X-141752853Y124730551D01*
X-141619520Y124730551D01*
X-141606173Y124698371D01*
X-141579164Y124670564D01*
X-141550108Y124653992D01*
X-141519106Y124645838D01*
X-141479070Y124642328D01*
X-141437199Y124643477D01*
X-141400688Y124649302D01*
X-141387517Y124653622D01*
X-141348335Y124676196D01*
X-141324644Y124704937D01*
X-141316030Y124740364D01*
X-141315980Y124743614D01*
X-141318038Y124767450D01*
X-141326503Y124786047D01*
X-141344810Y124806452D01*
X-141348203Y124809711D01*
X-141390021Y124839292D01*
X-141438323Y124856908D01*
X-141473072Y124860748D01*
X-141502182Y124855439D01*
X-141536893Y124841877D01*
X-141570507Y124823366D01*
X-141596324Y124803207D01*
X-141601446Y124797460D01*
X-141618259Y124764462D01*
X-141619520Y124730551D01*
X-141752853Y124730551D01*
X-141750773Y124760556D01*
X-141732042Y124808647D01*
X-141698828Y124853037D01*
X-141651909Y124892007D01*
X-141630988Y124904846D01*
X-141595797Y124924705D01*
X-141642797Y124949313D01*
X-141689139Y124981657D01*
X-141721392Y125021953D01*
X-141738814Y125068561D01*
X-141739500Y125087602D01*
X-141610264Y125087602D01*
X-141606755Y125056282D01*
X-141587256Y125028842D01*
X-141551442Y125004575D01*
X-141540600Y124999245D01*
X-141510483Y124987721D01*
X-141481150Y124980445D01*
X-141467874Y124979134D01*
X-141443101Y124982789D01*
X-141412371Y124992122D01*
X-141395147Y124999245D01*
X-141355444Y125022868D01*
X-141332133Y125049497D01*
X-141324888Y125079840D01*
X-141333382Y125114602D01*
X-141337636Y125123507D01*
X-141360011Y125149673D01*
X-141393340Y125167880D01*
X-141433695Y125178130D01*
X-141477146Y125180423D01*
X-141519764Y125174757D01*
X-141557620Y125161134D01*
X-141586786Y125139553D01*
X-141598111Y125123507D01*
X-141610264Y125087602D01*
X-141739500Y125087602D01*
X-141740662Y125119841D01*
X-141734222Y125151369D01*
X-141712541Y125197543D01*
X-141676438Y125235839D01*
X-141625499Y125266656D01*
X-141606104Y125274961D01*
X-141555786Y125288662D01*
X-141496321Y125295337D01*
X-141433904Y125294992D01*
G37*
X-141433904Y125294992D02*
X-141374732Y125287632D01*
X-141328638Y125274729D01*
X-141275643Y125247153D01*
X-141234498Y125211478D01*
X-141206339Y125169633D01*
X-141192296Y125123546D01*
X-141193503Y125075146D01*
X-141199006Y125054066D01*
X-141221939Y125008362D01*
X-141257871Y124971518D01*
X-141293572Y124948987D01*
X-141339871Y124924747D01*
X-141300500Y124902231D01*
X-141247655Y124864619D01*
X-141209886Y124821131D01*
X-141187661Y124772460D01*
X-141181334Y124725813D01*
X-141189327Y124674139D01*
X-141212701Y124628016D01*
X-141250549Y124588574D01*
X-141301963Y124556945D01*
X-141324418Y124547382D01*
X-141368337Y124535457D01*
X-141422054Y124528084D01*
X-141479079Y124525562D01*
X-141532926Y124528192D01*
X-141575459Y124535799D01*
X-141638891Y124558875D01*
X-141687695Y124588692D01*
X-141723080Y124626154D01*
X-141741678Y124660144D01*
X-141754244Y124710482D01*
X-141752853Y124730551D01*
X-141619520Y124730551D01*
X-141606173Y124698371D01*
X-141579164Y124670564D01*
X-141550108Y124653992D01*
X-141519106Y124645838D01*
X-141479070Y124642328D01*
X-141437199Y124643477D01*
X-141400688Y124649302D01*
X-141387517Y124653622D01*
X-141348335Y124676196D01*
X-141324644Y124704937D01*
X-141316030Y124740364D01*
X-141315980Y124743614D01*
X-141318038Y124767450D01*
X-141326503Y124786047D01*
X-141344810Y124806452D01*
X-141348203Y124809711D01*
X-141390021Y124839292D01*
X-141438323Y124856908D01*
X-141473072Y124860748D01*
X-141502182Y124855439D01*
X-141536893Y124841877D01*
X-141570507Y124823366D01*
X-141596324Y124803207D01*
X-141601446Y124797460D01*
X-141618259Y124764462D01*
X-141619520Y124730551D01*
X-141752853Y124730551D01*
X-141750773Y124760556D01*
X-141732042Y124808647D01*
X-141698828Y124853037D01*
X-141651909Y124892007D01*
X-141630988Y124904846D01*
X-141595797Y124924705D01*
X-141642797Y124949313D01*
X-141689139Y124981657D01*
X-141721392Y125021953D01*
X-141738814Y125068561D01*
X-141739500Y125087602D01*
X-141610264Y125087602D01*
X-141606755Y125056282D01*
X-141587256Y125028842D01*
X-141551442Y125004575D01*
X-141540600Y124999245D01*
X-141510483Y124987721D01*
X-141481150Y124980445D01*
X-141467874Y124979134D01*
X-141443101Y124982789D01*
X-141412371Y124992122D01*
X-141395147Y124999245D01*
X-141355444Y125022868D01*
X-141332133Y125049497D01*
X-141324888Y125079840D01*
X-141333382Y125114602D01*
X-141337636Y125123507D01*
X-141360011Y125149673D01*
X-141393340Y125167880D01*
X-141433695Y125178130D01*
X-141477146Y125180423D01*
X-141519764Y125174757D01*
X-141557620Y125161134D01*
X-141586786Y125139553D01*
X-141598111Y125123507D01*
X-141610264Y125087602D01*
X-141739500Y125087602D01*
X-141740662Y125119841D01*
X-141734222Y125151369D01*
X-141712541Y125197543D01*
X-141676438Y125235839D01*
X-141625499Y125266656D01*
X-141606104Y125274961D01*
X-141555786Y125288662D01*
X-141496321Y125295337D01*
X-141433904Y125294992D01*
G36*
X-135434319Y123221592D02*
G01*
X-135434324Y122936383D01*
X-135434343Y122667557D01*
X-135434375Y122414623D01*
X-135434424Y122177087D01*
X-135434491Y121954457D01*
X-135434578Y121746239D01*
X-135434686Y121551942D01*
X-135434818Y121371071D01*
X-135434976Y121203134D01*
X-135435161Y121047639D01*
X-135435374Y120904092D01*
X-135435619Y120772000D01*
X-135435896Y120650871D01*
X-135436209Y120540212D01*
X-135436557Y120439529D01*
X-135436944Y120348331D01*
X-135437370Y120266123D01*
X-135437839Y120192414D01*
X-135438351Y120126710D01*
X-135438910Y120068519D01*
X-135439515Y120017347D01*
X-135440170Y119972702D01*
X-135440875Y119934090D01*
X-135441634Y119901020D01*
X-135442448Y119872998D01*
X-135443318Y119849531D01*
X-135444246Y119830126D01*
X-135445235Y119814291D01*
X-135446286Y119801533D01*
X-135447082Y119793976D01*
X-135479808Y119586020D01*
X-135529379Y119377577D01*
X-135595769Y119168683D01*
X-135678953Y118959374D01*
X-135778908Y118749686D01*
X-135895607Y118539655D01*
X-136029026Y118329317D01*
X-136179141Y118118707D01*
X-136345926Y117907863D01*
X-136529358Y117696819D01*
X-136729410Y117485612D01*
X-136946058Y117274278D01*
X-137179278Y117062852D01*
X-137429044Y116851372D01*
X-137532763Y116767424D01*
X-137812357Y116551337D01*
X-138107687Y116337379D01*
X-138417675Y116126241D01*
X-138741241Y115918615D01*
X-139077306Y115715194D01*
X-139424791Y115516669D01*
X-139782616Y115323733D01*
X-139789719Y115320015D01*
X-139892198Y115267092D01*
X-139996960Y115214272D01*
X-140102727Y115162122D01*
X-140208218Y115111209D01*
X-140312157Y115062099D01*
X-140413264Y115015358D01*
X-140510261Y114971553D01*
X-140601869Y114931249D01*
X-140686811Y114895014D01*
X-140763807Y114863412D01*
X-140831578Y114837011D01*
X-140888847Y114816378D01*
X-140934335Y114802077D01*
X-140966764Y114794676D01*
X-140977860Y114793741D01*
X-140990898Y114796406D01*
X-141015986Y114803555D01*
X-141049267Y114814034D01*
X-141079701Y114824213D01*
X-141149879Y114849797D01*
X-141232896Y114882678D01*
X-141326820Y114921981D01*
X-141429721Y114966834D01*
X-141539671Y115016361D01*
X-141654740Y115069689D01*
X-141772997Y115125943D01*
X-141892513Y115184251D01*
X-142011358Y115243736D01*
X-142054352Y115265654D01*
X-142388091Y115441487D01*
X-142712865Y115622298D01*
X-143028058Y115807624D01*
X-143333056Y115997003D01*
X-143627243Y116189973D01*
X-143910004Y116386071D01*
X-144180725Y116584835D01*
X-144438789Y116785801D01*
X-144683583Y116988507D01*
X-144914490Y117192492D01*
X-145130897Y117397292D01*
X-145332186Y117602445D01*
X-145517745Y117807488D01*
X-145657544Y117974983D01*
X-145818759Y118185946D01*
X-145963162Y118396176D01*
X-146090800Y118605774D01*
X-146107448Y118637153D01*
X-145202263Y118637153D01*
X-145195855Y118625956D01*
X-145182878Y118606733D01*
X-145135477Y118541465D01*
X-145076885Y118467092D01*
X-145008777Y118385431D01*
X-144932829Y118298300D01*
X-144850716Y118207516D01*
X-144764112Y118114897D01*
X-144674694Y118022260D01*
X-144584136Y117931422D01*
X-144494113Y117844202D01*
X-144406301Y117762415D01*
X-144396046Y117753102D01*
X-144147770Y117536615D01*
X-143883306Y117322078D01*
X-143603277Y117109910D01*
X-143308302Y116900532D01*
X-142999003Y116694363D01*
X-142676001Y116491823D01*
X-142339915Y116293332D01*
X-141991367Y116099310D01*
X-141801196Y115998119D01*
X-141735479Y115964123D01*
X-141663062Y115927414D01*
X-141585872Y115888910D01*
X-141505833Y115849527D01*
X-141424872Y115810182D01*
X-141344914Y115771793D01*
X-141267884Y115735277D01*
X-141195707Y115701550D01*
X-141130311Y115671530D01*
X-141073618Y115646133D01*
X-141027557Y115626277D01*
X-140994051Y115612878D01*
X-140986877Y115610303D01*
X-140980944Y115608987D01*
X-140973126Y115609455D01*
X-140961386Y115612478D01*
X-140943684Y115618825D01*
X-140917983Y115629268D01*
X-140882243Y115644575D01*
X-140834426Y115665518D01*
X-140797010Y115682029D01*
X-140746742Y115704844D01*
X-140684017Y115734279D01*
X-140611320Y115769100D01*
X-140531132Y115808073D01*
X-140445935Y115849963D01*
X-140358213Y115893538D01*
X-140270448Y115937563D01*
X-140185122Y115980804D01*
X-140104718Y116022027D01*
X-140031718Y116059999D01*
X-139968606Y116093485D01*
X-139961595Y116097262D01*
X-139598180Y116299613D01*
X-139247983Y116507159D01*
X-138911552Y116719528D01*
X-138589436Y116936346D01*
X-138282186Y117157243D01*
X-137990349Y117381845D01*
X-137714475Y117609781D01*
X-137657874Y117658688D01*
X-137600622Y117709783D01*
X-137535766Y117769777D01*
X-137465471Y117836506D01*
X-137391906Y117907807D01*
X-137317235Y117981516D01*
X-137243626Y118055469D01*
X-137173244Y118127504D01*
X-137108257Y118195457D01*
X-137050830Y118257165D01*
X-137003130Y118310463D01*
X-136990451Y118325182D01*
X-136954906Y118367438D01*
X-136917118Y118413240D01*
X-136878940Y118460253D01*
X-136842224Y118506141D01*
X-136808826Y118548567D01*
X-136780599Y118585197D01*
X-136759396Y118613693D01*
X-136747071Y118631720D01*
X-136746675Y118632383D01*
X-136743594Y118637890D01*
X-136743725Y118640154D01*
X-136749206Y118638016D01*
X-136762173Y118630315D01*
X-136784762Y118615889D01*
X-136819111Y118593578D01*
X-136824227Y118590249D01*
X-136920273Y118536195D01*
X-137017750Y118498490D01*
X-137118383Y118476610D01*
X-137219070Y118470003D01*
X-137280493Y118471814D01*
X-137339306Y118477437D01*
X-137397741Y118487572D01*
X-137458032Y118502921D01*
X-137522413Y118524182D01*
X-137593117Y118552058D01*
X-137672379Y118587248D01*
X-137762432Y118630452D01*
X-137815839Y118657111D01*
X-137903472Y118700570D01*
X-137979027Y118736243D01*
X-138044884Y118765053D01*
X-138103423Y118787922D01*
X-138157022Y118805771D01*
X-138208062Y118819524D01*
X-138258921Y118830102D01*
X-138264998Y118831180D01*
X-138373832Y118842850D01*
X-138488349Y118841712D01*
X-138603707Y118828152D01*
X-138715065Y118802556D01*
X-138746213Y118792839D01*
X-138774380Y118782269D01*
X-138814748Y118765447D01*
X-138864420Y118743666D01*
X-138920500Y118718218D01*
X-138980092Y118690396D01*
X-139037723Y118662747D01*
X-139145682Y118611558D01*
X-139241691Y118569147D01*
X-139327838Y118534924D01*
X-139406211Y118508298D01*
X-139478897Y118488679D01*
X-139547985Y118475477D01*
X-139615563Y118468102D01*
X-139683717Y118465962D01*
X-139729535Y118467109D01*
X-139794475Y118471436D01*
X-139855614Y118478878D01*
X-139915455Y118490204D01*
X-139976500Y118506182D01*
X-140041253Y118527581D01*
X-140112217Y118555169D01*
X-140191894Y118589716D01*
X-140282788Y118631988D01*
X-140311794Y118645895D01*
X-140390952Y118683803D01*
X-140457434Y118714979D01*
X-140513591Y118740378D01*
X-140561772Y118760953D01*
X-140604326Y118777659D01*
X-140643605Y118791450D01*
X-140681957Y118803281D01*
X-140721733Y118814105D01*
X-140733211Y118817026D01*
X-140767826Y118825326D01*
X-140798116Y118831305D01*
X-140828091Y118835340D01*
X-140861759Y118837805D01*
X-140903130Y118839075D01*
X-140956212Y118839525D01*
X-140974219Y118839555D01*
X-141030828Y118839387D01*
X-141074508Y118838532D01*
X-141109204Y118836615D01*
X-141138861Y118833261D01*
X-141167426Y118828093D01*
X-141198842Y118820737D01*
X-141214717Y118816676D01*
X-141257388Y118805119D01*
X-141297368Y118793062D01*
X-141337127Y118779505D01*
X-141379135Y118763448D01*
X-141425862Y118743893D01*
X-141479779Y118719841D01*
X-141543355Y118690292D01*
X-141619061Y118654248D01*
X-141633795Y118647172D01*
X-141727559Y118602944D01*
X-141809231Y118566507D01*
X-141881273Y118537104D01*
X-141946145Y118513977D01*
X-142006308Y118496369D01*
X-142064222Y118483524D01*
X-142122348Y118474682D01*
X-142183147Y118469088D01*
X-142218903Y118467109D01*
X-142287864Y118466116D01*
X-142354784Y118469853D01*
X-142421753Y118478910D01*
X-142490861Y118493876D01*
X-142564197Y118515344D01*
X-142643850Y118543902D01*
X-142731909Y118580141D01*
X-142830464Y118624653D01*
X-142909215Y118662214D01*
X-142969646Y118691125D01*
X-143029310Y118718900D01*
X-143085328Y118744255D01*
X-143134819Y118765907D01*
X-143174901Y118782571D01*
X-143202225Y118792807D01*
X-143311404Y118821862D01*
X-143426045Y118838998D01*
X-143541295Y118843828D01*
X-143652300Y118835965D01*
X-143683440Y118831180D01*
X-143736138Y118820519D01*
X-143788823Y118806573D01*
X-143843959Y118788394D01*
X-143904015Y118765032D01*
X-143971458Y118735538D01*
X-144048754Y118698965D01*
X-144122887Y118662187D01*
X-144217201Y118615538D01*
X-144299504Y118576955D01*
X-144372145Y118545629D01*
X-144437471Y118520756D01*
X-144497830Y118501528D01*
X-144555570Y118487140D01*
X-144613037Y118476784D01*
X-144672580Y118469655D01*
X-144687176Y118468357D01*
X-144776739Y118468709D01*
X-144870873Y118483793D01*
X-144967359Y118512890D01*
X-145063979Y118555280D01*
X-145158515Y118610244D01*
X-145188945Y118631068D01*
X-145199798Y118638208D01*
X-145202263Y118637153D01*
X-146107448Y118637153D01*
X-146201718Y118814836D01*
X-146295962Y119023462D01*
X-146373577Y119231751D01*
X-146434609Y119439801D01*
X-146479103Y119647711D01*
X-146501448Y119801875D01*
X-146502539Y119812835D01*
X-146503566Y119826615D01*
X-146504532Y119843709D01*
X-146505439Y119864608D01*
X-146506288Y119889803D01*
X-146507081Y119919788D01*
X-146507820Y119955055D01*
X-146508507Y119996095D01*
X-146509144Y120043400D01*
X-146509732Y120097463D01*
X-146510274Y120158776D01*
X-146510771Y120227831D01*
X-146511225Y120305120D01*
X-146511637Y120391134D01*
X-146512010Y120486368D01*
X-146512346Y120591311D01*
X-146512531Y120662657D01*
X-144775615Y120662657D01*
X-144140698Y120019362D01*
X-144054948Y119932521D01*
X-143972523Y119849127D01*
X-143894198Y119769957D01*
X-143820744Y119695790D01*
X-143752936Y119627405D01*
X-143691546Y119565578D01*
X-143637348Y119511088D01*
X-143591115Y119464714D01*
X-143553619Y119427232D01*
X-143525635Y119399422D01*
X-143507935Y119382060D01*
X-143501293Y119375926D01*
X-143501278Y119375924D01*
X-143494840Y119381758D01*
X-143477274Y119398786D01*
X-143449356Y119426236D01*
X-143411861Y119463334D01*
X-143365563Y119509310D01*
X-143311237Y119563391D01*
X-143249659Y119624805D01*
X-143181602Y119692779D01*
X-143107842Y119766542D01*
X-143029154Y119845322D01*
X-142946312Y119928345D01*
X-142860092Y120014841D01*
X-142855730Y120019219D01*
X-142214684Y120662657D01*
X-142853241Y120664820D01*
X-142978856Y120665174D01*
X-143117590Y120665439D01*
X-143265684Y120665615D01*
X-143419379Y120665702D01*
X-143574917Y120665699D01*
X-143728540Y120665608D01*
X-143876488Y120665427D01*
X-144015004Y120665157D01*
X-144133706Y120664820D01*
X-144775615Y120662657D01*
X-146512531Y120662657D01*
X-146512646Y120706457D01*
X-146512911Y120832298D01*
X-146513145Y120969325D01*
X-146513349Y121118032D01*
X-146513524Y121278909D01*
X-146513672Y121452449D01*
X-146513796Y121639144D01*
X-146513896Y121839487D01*
X-146513943Y121966411D01*
X-143488289Y121966411D01*
X-143340529Y121816627D01*
X-143245893Y121720726D01*
X-143146546Y121620106D01*
X-143043100Y121515388D01*
X-142936170Y121407189D01*
X-142826369Y121296129D01*
X-142714312Y121182828D01*
X-142600611Y121067903D01*
X-142485881Y120951974D01*
X-142370735Y120835660D01*
X-142255788Y120719581D01*
X-142141652Y120604353D01*
X-142028942Y120490598D01*
X-141918272Y120378934D01*
X-141810255Y120269980D01*
X-141705504Y120164354D01*
X-141604635Y120062676D01*
X-141508260Y119965565D01*
X-141416993Y119873640D01*
X-141331448Y119787519D01*
X-141252238Y119707822D01*
X-141179979Y119635168D01*
X-141115282Y119570176D01*
X-141058763Y119513464D01*
X-141011034Y119465652D01*
X-140972710Y119427359D01*
X-140944403Y119399203D01*
X-140926729Y119381804D01*
X-140920301Y119375781D01*
X-140920295Y119375780D01*
X-140913189Y119381556D01*
X-140895717Y119397921D01*
X-140869352Y119423434D01*
X-140835565Y119456653D01*
X-140795826Y119496138D01*
X-140751607Y119540446D01*
X-140728694Y119563538D01*
X-140703051Y119589428D01*
X-140666256Y119626576D01*
X-140619035Y119674248D01*
X-140562114Y119731714D01*
X-140496219Y119798239D01*
X-140422074Y119873092D01*
X-140340405Y119955540D01*
X-140251939Y120044851D01*
X-140157401Y120140291D01*
X-140057516Y120241128D01*
X-139953010Y120346630D01*
X-139844609Y120456065D01*
X-139733038Y120568699D01*
X-139635786Y120666877D01*
X-139632398Y120666877D01*
X-139345540Y120377857D01*
X-139214192Y120245537D01*
X-139094248Y120124744D01*
X-138985241Y120015012D01*
X-138886701Y119915873D01*
X-138798161Y119826859D01*
X-138719153Y119747503D01*
X-138649209Y119677338D01*
X-138587860Y119615895D01*
X-138534638Y119562707D01*
X-138489076Y119517308D01*
X-138450704Y119479229D01*
X-138419056Y119448003D01*
X-138393662Y119423162D01*
X-138374056Y119404240D01*
X-138359768Y119390768D01*
X-138350330Y119382280D01*
X-138345275Y119378307D01*
X-138344182Y119377881D01*
X-138337588Y119384035D01*
X-138319890Y119401398D01*
X-138291864Y119429193D01*
X-138254285Y119466641D01*
X-138207932Y119512964D01*
X-138153578Y119567385D01*
X-138092002Y119629126D01*
X-138023978Y119697409D01*
X-137950284Y119771456D01*
X-137871695Y119850490D01*
X-137788988Y119933732D01*
X-137702939Y120020406D01*
X-137699930Y120023438D01*
X-137061386Y120666877D01*
X-139632398Y120666877D01*
X-139635786Y120666877D01*
X-139619023Y120683799D01*
X-139503290Y120800635D01*
X-139447710Y120856744D01*
X-138352687Y121962192D01*
X-139637419Y121966411D01*
X-140922151Y121970631D01*
X-139644575Y123261727D01*
X-140281309Y123263890D01*
X-140406387Y123264243D01*
X-140544605Y123264508D01*
X-140692224Y123264684D01*
X-140845508Y123264771D01*
X-141000719Y123264770D01*
X-141154119Y123264679D01*
X-141301972Y123264499D01*
X-141440538Y123264231D01*
X-141561294Y123263890D01*
X-142204545Y123261727D01*
X-141565510Y122616219D01*
X-141462173Y122511775D01*
X-141370192Y122418668D01*
X-141288992Y122336297D01*
X-141217998Y122264061D01*
X-141156635Y122201360D01*
X-141104329Y122147593D01*
X-141060506Y122102159D01*
X-141024589Y122064457D01*
X-140996005Y122033888D01*
X-140974179Y122009849D01*
X-140958536Y121991741D01*
X-140948502Y121978962D01*
X-140943501Y121970912D01*
X-140942958Y121966991D01*
X-140943831Y121966451D01*
X-140944910Y121963967D01*
X-140941737Y121957584D01*
X-140933727Y121946694D01*
X-140920298Y121930686D01*
X-140900865Y121908951D01*
X-140874846Y121880878D01*
X-140841658Y121845859D01*
X-140800717Y121803283D01*
X-140751440Y121752540D01*
X-140693244Y121693021D01*
X-140625545Y121624116D01*
X-140547760Y121545215D01*
X-140459306Y121455708D01*
X-140359599Y121354985D01*
X-140341142Y121336354D01*
X-140256378Y121250752D01*
X-140175035Y121168514D01*
X-140097892Y121090433D01*
X-140025729Y121017303D01*
X-139959325Y120949915D01*
X-139899459Y120889063D01*
X-139846911Y120835539D01*
X-139802459Y120790136D01*
X-139766883Y120753647D01*
X-139740962Y120726864D01*
X-139725475Y120710580D01*
X-139721096Y120705573D01*
X-139729380Y120705005D01*
X-139753615Y120704456D01*
X-139792872Y120703929D01*
X-139846227Y120703427D01*
X-139912751Y120702955D01*
X-139991518Y120702516D01*
X-140081601Y120702114D01*
X-140182073Y120701752D01*
X-140292008Y120701434D01*
X-140410478Y120701163D01*
X-140536557Y120700944D01*
X-140669318Y120700780D01*
X-140807834Y120700675D01*
X-140951178Y120700632D01*
X-140974922Y120700631D01*
X-141148473Y120700683D01*
X-141310887Y120700840D01*
X-141461688Y120701096D01*
X-141600397Y120701450D01*
X-141726539Y120701898D01*
X-141839635Y120702437D01*
X-141939208Y120703065D01*
X-142024781Y120703778D01*
X-142095877Y120704573D01*
X-142152018Y120705448D01*
X-142192727Y120706398D01*
X-142217527Y120707422D01*
X-142225940Y120708516D01*
X-142225936Y120708547D01*
X-142219731Y120715511D01*
X-142202427Y120733655D01*
X-142174813Y120762176D01*
X-142137677Y120800273D01*
X-142091804Y120847145D01*
X-142037984Y120901988D01*
X-141977004Y120964002D01*
X-141909651Y121032384D01*
X-141836713Y121106332D01*
X-141758978Y121185045D01*
X-141677233Y121267721D01*
X-141609219Y121336439D01*
X-141524894Y121421645D01*
X-141443993Y121503484D01*
X-141367299Y121581158D01*
X-141295595Y121653870D01*
X-141229664Y121720825D01*
X-141170288Y121781224D01*
X-141118250Y121834270D01*
X-141074333Y121879168D01*
X-141039320Y121915119D01*
X-141013994Y121941327D01*
X-140999137Y121956996D01*
X-140995315Y121961413D01*
X-141003599Y121961989D01*
X-141027830Y121962546D01*
X-141067079Y121963080D01*
X-141120417Y121963589D01*
X-141186913Y121964067D01*
X-141265639Y121964512D01*
X-141355664Y121964920D01*
X-141456060Y121965286D01*
X-141565896Y121965607D01*
X-141684243Y121965880D01*
X-141810172Y121966101D01*
X-141942752Y121966265D01*
X-142081056Y121966370D01*
X-142224152Y121966411D01*
X-143488289Y121966411D01*
X-146513943Y121966411D01*
X-146513976Y122053969D01*
X-146514036Y122283082D01*
X-146514078Y122527319D01*
X-146514105Y122787172D01*
X-146514118Y123063133D01*
X-146514119Y123225812D01*
X-146514119Y125738438D01*
X-145754651Y125738438D01*
X-145754651Y124025415D01*
X-136193787Y124025415D01*
X-136193787Y125738438D01*
X-145754651Y125738438D01*
X-146514119Y125738438D01*
X-146514119Y126540099D01*
X-135434319Y126540099D01*
X-135434319Y123221592D01*
G37*
X-135434319Y123221592D02*
X-135434324Y122936383D01*
X-135434343Y122667557D01*
X-135434375Y122414623D01*
X-135434424Y122177087D01*
X-135434491Y121954457D01*
X-135434578Y121746239D01*
X-135434686Y121551942D01*
X-135434818Y121371071D01*
X-135434976Y121203134D01*
X-135435161Y121047639D01*
X-135435374Y120904092D01*
X-135435619Y120772000D01*
X-135435896Y120650871D01*
X-135436209Y120540212D01*
X-135436557Y120439529D01*
X-135436944Y120348331D01*
X-135437370Y120266123D01*
X-135437839Y120192414D01*
X-135438351Y120126710D01*
X-135438910Y120068519D01*
X-135439515Y120017347D01*
X-135440170Y119972702D01*
X-135440875Y119934090D01*
X-135441634Y119901020D01*
X-135442448Y119872998D01*
X-135443318Y119849531D01*
X-135444246Y119830126D01*
X-135445235Y119814291D01*
X-135446286Y119801533D01*
X-135447082Y119793976D01*
X-135479808Y119586020D01*
X-135529379Y119377577D01*
X-135595769Y119168683D01*
X-135678953Y118959374D01*
X-135778908Y118749686D01*
X-135895607Y118539655D01*
X-136029026Y118329317D01*
X-136179141Y118118707D01*
X-136345926Y117907863D01*
X-136529358Y117696819D01*
X-136729410Y117485612D01*
X-136946058Y117274278D01*
X-137179278Y117062852D01*
X-137429044Y116851372D01*
X-137532763Y116767424D01*
X-137812357Y116551337D01*
X-138107687Y116337379D01*
X-138417675Y116126241D01*
X-138741241Y115918615D01*
X-139077306Y115715194D01*
X-139424791Y115516669D01*
X-139782616Y115323733D01*
X-139789719Y115320015D01*
X-139892198Y115267092D01*
X-139996960Y115214272D01*
X-140102727Y115162122D01*
X-140208218Y115111209D01*
X-140312157Y115062099D01*
X-140413264Y115015358D01*
X-140510261Y114971553D01*
X-140601869Y114931249D01*
X-140686811Y114895014D01*
X-140763807Y114863412D01*
X-140831578Y114837011D01*
X-140888847Y114816378D01*
X-140934335Y114802077D01*
X-140966764Y114794676D01*
X-140977860Y114793741D01*
X-140990898Y114796406D01*
X-141015986Y114803555D01*
X-141049267Y114814034D01*
X-141079701Y114824213D01*
X-141149879Y114849797D01*
X-141232896Y114882678D01*
X-141326820Y114921981D01*
X-141429721Y114966834D01*
X-141539671Y115016361D01*
X-141654740Y115069689D01*
X-141772997Y115125943D01*
X-141892513Y115184251D01*
X-142011358Y115243736D01*
X-142054352Y115265654D01*
X-142388091Y115441487D01*
X-142712865Y115622298D01*
X-143028058Y115807624D01*
X-143333056Y115997003D01*
X-143627243Y116189973D01*
X-143910004Y116386071D01*
X-144180725Y116584835D01*
X-144438789Y116785801D01*
X-144683583Y116988507D01*
X-144914490Y117192492D01*
X-145130897Y117397292D01*
X-145332186Y117602445D01*
X-145517745Y117807488D01*
X-145657544Y117974983D01*
X-145818759Y118185946D01*
X-145963162Y118396176D01*
X-146090800Y118605774D01*
X-146107448Y118637153D01*
X-145202263Y118637153D01*
X-145195855Y118625956D01*
X-145182878Y118606733D01*
X-145135477Y118541465D01*
X-145076885Y118467092D01*
X-145008777Y118385431D01*
X-144932829Y118298300D01*
X-144850716Y118207516D01*
X-144764112Y118114897D01*
X-144674694Y118022260D01*
X-144584136Y117931422D01*
X-144494113Y117844202D01*
X-144406301Y117762415D01*
X-144396046Y117753102D01*
X-144147770Y117536615D01*
X-143883306Y117322078D01*
X-143603277Y117109910D01*
X-143308302Y116900532D01*
X-142999003Y116694363D01*
X-142676001Y116491823D01*
X-142339915Y116293332D01*
X-141991367Y116099310D01*
X-141801196Y115998119D01*
X-141735479Y115964123D01*
X-141663062Y115927414D01*
X-141585872Y115888910D01*
X-141505833Y115849527D01*
X-141424872Y115810182D01*
X-141344914Y115771793D01*
X-141267884Y115735277D01*
X-141195707Y115701550D01*
X-141130311Y115671530D01*
X-141073618Y115646133D01*
X-141027557Y115626277D01*
X-140994051Y115612878D01*
X-140986877Y115610303D01*
X-140980944Y115608987D01*
X-140973126Y115609455D01*
X-140961386Y115612478D01*
X-140943684Y115618825D01*
X-140917983Y115629268D01*
X-140882243Y115644575D01*
X-140834426Y115665518D01*
X-140797010Y115682029D01*
X-140746742Y115704844D01*
X-140684017Y115734279D01*
X-140611320Y115769100D01*
X-140531132Y115808073D01*
X-140445935Y115849963D01*
X-140358213Y115893538D01*
X-140270448Y115937563D01*
X-140185122Y115980804D01*
X-140104718Y116022027D01*
X-140031718Y116059999D01*
X-139968606Y116093485D01*
X-139961595Y116097262D01*
X-139598180Y116299613D01*
X-139247983Y116507159D01*
X-138911552Y116719528D01*
X-138589436Y116936346D01*
X-138282186Y117157243D01*
X-137990349Y117381845D01*
X-137714475Y117609781D01*
X-137657874Y117658688D01*
X-137600622Y117709783D01*
X-137535766Y117769777D01*
X-137465471Y117836506D01*
X-137391906Y117907807D01*
X-137317235Y117981516D01*
X-137243626Y118055469D01*
X-137173244Y118127504D01*
X-137108257Y118195457D01*
X-137050830Y118257165D01*
X-137003130Y118310463D01*
X-136990451Y118325182D01*
X-136954906Y118367438D01*
X-136917118Y118413240D01*
X-136878940Y118460253D01*
X-136842224Y118506141D01*
X-136808826Y118548567D01*
X-136780599Y118585197D01*
X-136759396Y118613693D01*
X-136747071Y118631720D01*
X-136746675Y118632383D01*
X-136743594Y118637890D01*
X-136743725Y118640154D01*
X-136749206Y118638016D01*
X-136762173Y118630315D01*
X-136784762Y118615889D01*
X-136819111Y118593578D01*
X-136824227Y118590249D01*
X-136920273Y118536195D01*
X-137017750Y118498490D01*
X-137118383Y118476610D01*
X-137219070Y118470003D01*
X-137280493Y118471814D01*
X-137339306Y118477437D01*
X-137397741Y118487572D01*
X-137458032Y118502921D01*
X-137522413Y118524182D01*
X-137593117Y118552058D01*
X-137672379Y118587248D01*
X-137762432Y118630452D01*
X-137815839Y118657111D01*
X-137903472Y118700570D01*
X-137979027Y118736243D01*
X-138044884Y118765053D01*
X-138103423Y118787922D01*
X-138157022Y118805771D01*
X-138208062Y118819524D01*
X-138258921Y118830102D01*
X-138264998Y118831180D01*
X-138373832Y118842850D01*
X-138488349Y118841712D01*
X-138603707Y118828152D01*
X-138715065Y118802556D01*
X-138746213Y118792839D01*
X-138774380Y118782269D01*
X-138814748Y118765447D01*
X-138864420Y118743666D01*
X-138920500Y118718218D01*
X-138980092Y118690396D01*
X-139037723Y118662747D01*
X-139145682Y118611558D01*
X-139241691Y118569147D01*
X-139327838Y118534924D01*
X-139406211Y118508298D01*
X-139478897Y118488679D01*
X-139547985Y118475477D01*
X-139615563Y118468102D01*
X-139683717Y118465962D01*
X-139729535Y118467109D01*
X-139794475Y118471436D01*
X-139855614Y118478878D01*
X-139915455Y118490204D01*
X-139976500Y118506182D01*
X-140041253Y118527581D01*
X-140112217Y118555169D01*
X-140191894Y118589716D01*
X-140282788Y118631988D01*
X-140311794Y118645895D01*
X-140390952Y118683803D01*
X-140457434Y118714979D01*
X-140513591Y118740378D01*
X-140561772Y118760953D01*
X-140604326Y118777659D01*
X-140643605Y118791450D01*
X-140681957Y118803281D01*
X-140721733Y118814105D01*
X-140733211Y118817026D01*
X-140767826Y118825326D01*
X-140798116Y118831305D01*
X-140828091Y118835340D01*
X-140861759Y118837805D01*
X-140903130Y118839075D01*
X-140956212Y118839525D01*
X-140974219Y118839555D01*
X-141030828Y118839387D01*
X-141074508Y118838532D01*
X-141109204Y118836615D01*
X-141138861Y118833261D01*
X-141167426Y118828093D01*
X-141198842Y118820737D01*
X-141214717Y118816676D01*
X-141257388Y118805119D01*
X-141297368Y118793062D01*
X-141337127Y118779505D01*
X-141379135Y118763448D01*
X-141425862Y118743893D01*
X-141479779Y118719841D01*
X-141543355Y118690292D01*
X-141619061Y118654248D01*
X-141633795Y118647172D01*
X-141727559Y118602944D01*
X-141809231Y118566507D01*
X-141881273Y118537104D01*
X-141946145Y118513977D01*
X-142006308Y118496369D01*
X-142064222Y118483524D01*
X-142122348Y118474682D01*
X-142183147Y118469088D01*
X-142218903Y118467109D01*
X-142287864Y118466116D01*
X-142354784Y118469853D01*
X-142421753Y118478910D01*
X-142490861Y118493876D01*
X-142564197Y118515344D01*
X-142643850Y118543902D01*
X-142731909Y118580141D01*
X-142830464Y118624653D01*
X-142909215Y118662214D01*
X-142969646Y118691125D01*
X-143029310Y118718900D01*
X-143085328Y118744255D01*
X-143134819Y118765907D01*
X-143174901Y118782571D01*
X-143202225Y118792807D01*
X-143311404Y118821862D01*
X-143426045Y118838998D01*
X-143541295Y118843828D01*
X-143652300Y118835965D01*
X-143683440Y118831180D01*
X-143736138Y118820519D01*
X-143788823Y118806573D01*
X-143843959Y118788394D01*
X-143904015Y118765032D01*
X-143971458Y118735538D01*
X-144048754Y118698965D01*
X-144122887Y118662187D01*
X-144217201Y118615538D01*
X-144299504Y118576955D01*
X-144372145Y118545629D01*
X-144437471Y118520756D01*
X-144497830Y118501528D01*
X-144555570Y118487140D01*
X-144613037Y118476784D01*
X-144672580Y118469655D01*
X-144687176Y118468357D01*
X-144776739Y118468709D01*
X-144870873Y118483793D01*
X-144967359Y118512890D01*
X-145063979Y118555280D01*
X-145158515Y118610244D01*
X-145188945Y118631068D01*
X-145199798Y118638208D01*
X-145202263Y118637153D01*
X-146107448Y118637153D01*
X-146201718Y118814836D01*
X-146295962Y119023462D01*
X-146373577Y119231751D01*
X-146434609Y119439801D01*
X-146479103Y119647711D01*
X-146501448Y119801875D01*
X-146502539Y119812835D01*
X-146503566Y119826615D01*
X-146504532Y119843709D01*
X-146505439Y119864608D01*
X-146506288Y119889803D01*
X-146507081Y119919788D01*
X-146507820Y119955055D01*
X-146508507Y119996095D01*
X-146509144Y120043400D01*
X-146509732Y120097463D01*
X-146510274Y120158776D01*
X-146510771Y120227831D01*
X-146511225Y120305120D01*
X-146511637Y120391134D01*
X-146512010Y120486368D01*
X-146512346Y120591311D01*
X-146512531Y120662657D01*
X-144775615Y120662657D01*
X-144140698Y120019362D01*
X-144054948Y119932521D01*
X-143972523Y119849127D01*
X-143894198Y119769957D01*
X-143820744Y119695790D01*
X-143752936Y119627405D01*
X-143691546Y119565578D01*
X-143637348Y119511088D01*
X-143591115Y119464714D01*
X-143553619Y119427232D01*
X-143525635Y119399422D01*
X-143507935Y119382060D01*
X-143501293Y119375926D01*
X-143501278Y119375924D01*
X-143494840Y119381758D01*
X-143477274Y119398786D01*
X-143449356Y119426236D01*
X-143411861Y119463334D01*
X-143365563Y119509310D01*
X-143311237Y119563391D01*
X-143249659Y119624805D01*
X-143181602Y119692779D01*
X-143107842Y119766542D01*
X-143029154Y119845322D01*
X-142946312Y119928345D01*
X-142860092Y120014841D01*
X-142855730Y120019219D01*
X-142214684Y120662657D01*
X-142853241Y120664820D01*
X-142978856Y120665174D01*
X-143117590Y120665439D01*
X-143265684Y120665615D01*
X-143419379Y120665702D01*
X-143574917Y120665699D01*
X-143728540Y120665608D01*
X-143876488Y120665427D01*
X-144015004Y120665157D01*
X-144133706Y120664820D01*
X-144775615Y120662657D01*
X-146512531Y120662657D01*
X-146512646Y120706457D01*
X-146512911Y120832298D01*
X-146513145Y120969325D01*
X-146513349Y121118032D01*
X-146513524Y121278909D01*
X-146513672Y121452449D01*
X-146513796Y121639144D01*
X-146513896Y121839487D01*
X-146513943Y121966411D01*
X-143488289Y121966411D01*
X-143340529Y121816627D01*
X-143245893Y121720726D01*
X-143146546Y121620106D01*
X-143043100Y121515388D01*
X-142936170Y121407189D01*
X-142826369Y121296129D01*
X-142714312Y121182828D01*
X-142600611Y121067903D01*
X-142485881Y120951974D01*
X-142370735Y120835660D01*
X-142255788Y120719581D01*
X-142141652Y120604353D01*
X-142028942Y120490598D01*
X-141918272Y120378934D01*
X-141810255Y120269980D01*
X-141705504Y120164354D01*
X-141604635Y120062676D01*
X-141508260Y119965565D01*
X-141416993Y119873640D01*
X-141331448Y119787519D01*
X-141252238Y119707822D01*
X-141179979Y119635168D01*
X-141115282Y119570176D01*
X-141058763Y119513464D01*
X-141011034Y119465652D01*
X-140972710Y119427359D01*
X-140944403Y119399203D01*
X-140926729Y119381804D01*
X-140920301Y119375781D01*
X-140920295Y119375780D01*
X-140913189Y119381556D01*
X-140895717Y119397921D01*
X-140869352Y119423434D01*
X-140835565Y119456653D01*
X-140795826Y119496138D01*
X-140751607Y119540446D01*
X-140728694Y119563538D01*
X-140703051Y119589428D01*
X-140666256Y119626576D01*
X-140619035Y119674248D01*
X-140562114Y119731714D01*
X-140496219Y119798239D01*
X-140422074Y119873092D01*
X-140340405Y119955540D01*
X-140251939Y120044851D01*
X-140157401Y120140291D01*
X-140057516Y120241128D01*
X-139953010Y120346630D01*
X-139844609Y120456065D01*
X-139733038Y120568699D01*
X-139635786Y120666877D01*
X-139632398Y120666877D01*
X-139345540Y120377857D01*
X-139214192Y120245537D01*
X-139094248Y120124744D01*
X-138985241Y120015012D01*
X-138886701Y119915873D01*
X-138798161Y119826859D01*
X-138719153Y119747503D01*
X-138649209Y119677338D01*
X-138587860Y119615895D01*
X-138534638Y119562707D01*
X-138489076Y119517308D01*
X-138450704Y119479229D01*
X-138419056Y119448003D01*
X-138393662Y119423162D01*
X-138374056Y119404240D01*
X-138359768Y119390768D01*
X-138350330Y119382280D01*
X-138345275Y119378307D01*
X-138344182Y119377881D01*
X-138337588Y119384035D01*
X-138319890Y119401398D01*
X-138291864Y119429193D01*
X-138254285Y119466641D01*
X-138207932Y119512964D01*
X-138153578Y119567385D01*
X-138092002Y119629126D01*
X-138023978Y119697409D01*
X-137950284Y119771456D01*
X-137871695Y119850490D01*
X-137788988Y119933732D01*
X-137702939Y120020406D01*
X-137699930Y120023438D01*
X-137061386Y120666877D01*
X-139632398Y120666877D01*
X-139635786Y120666877D01*
X-139619023Y120683799D01*
X-139503290Y120800635D01*
X-139447710Y120856744D01*
X-138352687Y121962192D01*
X-139637419Y121966411D01*
X-140922151Y121970631D01*
X-139644575Y123261727D01*
X-140281309Y123263890D01*
X-140406387Y123264243D01*
X-140544605Y123264508D01*
X-140692224Y123264684D01*
X-140845508Y123264771D01*
X-141000719Y123264770D01*
X-141154119Y123264679D01*
X-141301972Y123264499D01*
X-141440538Y123264231D01*
X-141561294Y123263890D01*
X-142204545Y123261727D01*
X-141565510Y122616219D01*
X-141462173Y122511775D01*
X-141370192Y122418668D01*
X-141288992Y122336297D01*
X-141217998Y122264061D01*
X-141156635Y122201360D01*
X-141104329Y122147593D01*
X-141060506Y122102159D01*
X-141024589Y122064457D01*
X-140996005Y122033888D01*
X-140974179Y122009849D01*
X-140958536Y121991741D01*
X-140948502Y121978962D01*
X-140943501Y121970912D01*
X-140942958Y121966991D01*
X-140943831Y121966451D01*
X-140944910Y121963967D01*
X-140941737Y121957584D01*
X-140933727Y121946694D01*
X-140920298Y121930686D01*
X-140900865Y121908951D01*
X-140874846Y121880878D01*
X-140841658Y121845859D01*
X-140800717Y121803283D01*
X-140751440Y121752540D01*
X-140693244Y121693021D01*
X-140625545Y121624116D01*
X-140547760Y121545215D01*
X-140459306Y121455708D01*
X-140359599Y121354985D01*
X-140341142Y121336354D01*
X-140256378Y121250752D01*
X-140175035Y121168514D01*
X-140097892Y121090433D01*
X-140025729Y121017303D01*
X-139959325Y120949915D01*
X-139899459Y120889063D01*
X-139846911Y120835539D01*
X-139802459Y120790136D01*
X-139766883Y120753647D01*
X-139740962Y120726864D01*
X-139725475Y120710580D01*
X-139721096Y120705573D01*
X-139729380Y120705005D01*
X-139753615Y120704456D01*
X-139792872Y120703929D01*
X-139846227Y120703427D01*
X-139912751Y120702955D01*
X-139991518Y120702516D01*
X-140081601Y120702114D01*
X-140182073Y120701752D01*
X-140292008Y120701434D01*
X-140410478Y120701163D01*
X-140536557Y120700944D01*
X-140669318Y120700780D01*
X-140807834Y120700675D01*
X-140951178Y120700632D01*
X-140974922Y120700631D01*
X-141148473Y120700683D01*
X-141310887Y120700840D01*
X-141461688Y120701096D01*
X-141600397Y120701450D01*
X-141726539Y120701898D01*
X-141839635Y120702437D01*
X-141939208Y120703065D01*
X-142024781Y120703778D01*
X-142095877Y120704573D01*
X-142152018Y120705448D01*
X-142192727Y120706398D01*
X-142217527Y120707422D01*
X-142225940Y120708516D01*
X-142225936Y120708547D01*
X-142219731Y120715511D01*
X-142202427Y120733655D01*
X-142174813Y120762176D01*
X-142137677Y120800273D01*
X-142091804Y120847145D01*
X-142037984Y120901988D01*
X-141977004Y120964002D01*
X-141909651Y121032384D01*
X-141836713Y121106332D01*
X-141758978Y121185045D01*
X-141677233Y121267721D01*
X-141609219Y121336439D01*
X-141524894Y121421645D01*
X-141443993Y121503484D01*
X-141367299Y121581158D01*
X-141295595Y121653870D01*
X-141229664Y121720825D01*
X-141170288Y121781224D01*
X-141118250Y121834270D01*
X-141074333Y121879168D01*
X-141039320Y121915119D01*
X-141013994Y121941327D01*
X-140999137Y121956996D01*
X-140995315Y121961413D01*
X-141003599Y121961989D01*
X-141027830Y121962546D01*
X-141067079Y121963080D01*
X-141120417Y121963589D01*
X-141186913Y121964067D01*
X-141265639Y121964512D01*
X-141355664Y121964920D01*
X-141456060Y121965286D01*
X-141565896Y121965607D01*
X-141684243Y121965880D01*
X-141810172Y121966101D01*
X-141942752Y121966265D01*
X-142081056Y121966370D01*
X-142224152Y121966411D01*
X-143488289Y121966411D01*
X-146513943Y121966411D01*
X-146513976Y122053969D01*
X-146514036Y122283082D01*
X-146514078Y122527319D01*
X-146514105Y122787172D01*
X-146514118Y123063133D01*
X-146514119Y123225812D01*
X-146514119Y125738438D01*
X-145754651Y125738438D01*
X-145754651Y124025415D01*
X-136193787Y124025415D01*
X-136193787Y125738438D01*
X-145754651Y125738438D01*
X-146514119Y125738438D01*
X-146514119Y126540099D01*
X-135434319Y126540099D01*
X-135434319Y123221592D01*
D11*
%TO.C,R13*%
X-193660500Y87908224D02*
X-193660500Y87398776D01*
X-194705500Y87908224D02*
X-194705500Y87398776D01*
D12*
%TO.C,U6*%
X-130726500Y81196500D02*
X-130726500Y53296500D01*
X-179185500Y81176500D02*
X-130726500Y81196500D01*
X-179185500Y53276500D02*
X-179185500Y81176500D01*
X-130726500Y53296500D02*
X-179185500Y53296500D01*
D11*
%TO.C,C1*%
X-183212200Y80092767D02*
X-183212200Y79800233D01*
X-182192200Y80092767D02*
X-182192200Y79800233D01*
%TO.C,U1*%
X-189417200Y88032900D02*
X-191067200Y88032900D01*
X-191067200Y88032900D02*
X-191067200Y70132900D01*
X-191067200Y70132900D02*
X-185767200Y70132900D01*
X-185767200Y70132900D02*
X-185767200Y88032900D01*
X-185767200Y88032900D02*
X-187417200Y88032900D01*
X-187417200Y88032900D02*
G75*
G02*
X-189417200Y88032900I-1000000J0D01*
G01*
%TO.C,C16*%
X-207931000Y112819000D02*
X-207931000Y117529000D01*
X-208651000Y105699000D02*
X-208651000Y109939000D01*
X-208491000Y105583000D02*
X-208491000Y109939000D01*
X-208451000Y112819000D02*
X-208451000Y117202000D01*
X-207771000Y105141000D02*
X-207771000Y109939000D01*
X-207811000Y112819000D02*
X-207811000Y117595000D01*
X-208091000Y112819000D02*
X-208091000Y117435000D01*
X-208251000Y112819000D02*
X-208251000Y117335000D01*
X-208011000Y112819000D02*
X-208011000Y117482000D01*
X-208571000Y105640000D02*
X-208571000Y109939000D01*
X-207651000Y112819000D02*
X-207651000Y117680000D01*
X-208051000Y105299000D02*
X-208051000Y109939000D01*
X-208291000Y105449000D02*
X-208291000Y109939000D01*
X-207531000Y105019000D02*
X-207531000Y109939000D01*
X-208571000Y112819000D02*
X-208571000Y117118000D01*
X-208691000Y105729000D02*
X-208691000Y109939000D01*
X-208411000Y105528000D02*
X-208411000Y109939000D01*
X-208731000Y112819000D02*
X-208731000Y116999000D01*
X-207851000Y105185000D02*
X-207851000Y109939000D01*
X-208451000Y105556000D02*
X-208451000Y109939000D01*
X-208651000Y112819000D02*
X-208651000Y117059000D01*
X-207731000Y112819000D02*
X-207731000Y117638000D01*
X-208771000Y105790000D02*
X-208771000Y109939000D01*
X-208611000Y105669000D02*
X-208611000Y109939000D01*
X-208371000Y112819000D02*
X-208371000Y117257000D01*
X-207971000Y112819000D02*
X-207971000Y117506000D01*
X-207971000Y105252000D02*
X-207971000Y109939000D01*
X-207891000Y112819000D02*
X-207891000Y117551000D01*
X-207891000Y105207000D02*
X-207891000Y109939000D01*
X-208531000Y112819000D02*
X-208531000Y117146000D01*
X-207731000Y105120000D02*
X-207731000Y109939000D01*
X-208731000Y105759000D02*
X-208731000Y109939000D01*
X-208211000Y105397000D02*
X-208211000Y109939000D01*
X-208051000Y112819000D02*
X-208051000Y117459000D01*
X-208411000Y112819000D02*
X-208411000Y117230000D01*
X-207651000Y105078000D02*
X-207651000Y109939000D01*
X-207611000Y112819000D02*
X-207611000Y117700000D01*
X-208531000Y105612000D02*
X-208531000Y109939000D01*
X-208331000Y105475000D02*
X-208331000Y109939000D01*
X-208611000Y112819000D02*
X-208611000Y117089000D01*
X-208251000Y105423000D02*
X-208251000Y109939000D01*
X-208211000Y112819000D02*
X-208211000Y117361000D01*
X-208171000Y105372000D02*
X-208171000Y109939000D01*
X-208011000Y105276000D02*
X-208011000Y109939000D01*
X-207691000Y112819000D02*
X-207691000Y117659000D01*
X-207691000Y105099000D02*
X-207691000Y109939000D01*
X-208291000Y112819000D02*
X-208291000Y117309000D01*
X-208371000Y105501000D02*
X-208371000Y109939000D01*
X-208771000Y112819000D02*
X-208771000Y116968000D01*
X-208171000Y112819000D02*
X-208171000Y117386000D01*
X-208091000Y105323000D02*
X-208091000Y109939000D01*
X-208331000Y112819000D02*
X-208331000Y117283000D01*
X-207811000Y105163000D02*
X-207811000Y109939000D01*
X-207771000Y112819000D02*
X-207771000Y117617000D01*
X-207931000Y105229000D02*
X-207931000Y109939000D01*
X-208691000Y112819000D02*
X-208691000Y117029000D01*
X-208131000Y112819000D02*
X-208131000Y117410000D01*
X-207611000Y105058000D02*
X-207611000Y109939000D01*
X-207571000Y105038000D02*
X-207571000Y109939000D01*
X-207531000Y112819000D02*
X-207531000Y117739000D01*
X-207851000Y112819000D02*
X-207851000Y117573000D01*
X-207571000Y112819000D02*
X-207571000Y117720000D01*
X-208491000Y112819000D02*
X-208491000Y117175000D01*
X-208131000Y105348000D02*
X-208131000Y109939000D01*
X-207491000Y112819000D02*
X-207491000Y117759000D01*
X-207451000Y104980000D02*
X-207451000Y109939000D01*
X-207411000Y112819000D02*
X-207411000Y117797000D01*
X-207371000Y112819000D02*
X-207371000Y117815000D01*
X-207371000Y104943000D02*
X-207371000Y109939000D01*
X-207491000Y104999000D02*
X-207491000Y109939000D01*
X-207331000Y112819000D02*
X-207331000Y117833000D01*
X-207331000Y104925000D02*
X-207331000Y109939000D01*
X-207451000Y112819000D02*
X-207451000Y117778000D01*
X-207291000Y104907000D02*
X-207291000Y109939000D01*
X-207251000Y112819000D02*
X-207251000Y117869000D01*
X-207251000Y104889000D02*
X-207251000Y109939000D01*
X-207211000Y112819000D02*
X-207211000Y117886000D01*
X-207211000Y104872000D02*
X-207211000Y109939000D01*
X-207171000Y112819000D02*
X-207171000Y117903000D01*
X-207411000Y104961000D02*
X-207411000Y109939000D01*
X-207291000Y112819000D02*
X-207291000Y117851000D01*
X-205731000Y104422000D02*
X-205731000Y118336000D01*
X-205651000Y104407000D02*
X-205651000Y118351000D01*
X-206291000Y104551000D02*
X-206291000Y118207000D01*
X-206731000Y104687000D02*
X-206731000Y109939000D01*
X-205931000Y104463000D02*
X-205931000Y118295000D01*
X-206731000Y112819000D02*
X-206731000Y118071000D01*
X-206611000Y104647000D02*
X-206611000Y118111000D01*
X-205571000Y104394000D02*
X-205571000Y118364000D01*
X-207011000Y104790000D02*
X-207011000Y109939000D01*
X-206971000Y112819000D02*
X-206971000Y117983000D01*
X-206331000Y104562000D02*
X-206331000Y118196000D01*
X-205491000Y104381000D02*
X-205491000Y118377000D01*
X-205451000Y104375000D02*
X-205451000Y118383000D01*
X-206851000Y104730000D02*
X-206851000Y109939000D01*
X-205331000Y104358000D02*
X-205331000Y118400000D01*
X-205291000Y104353000D02*
X-205291000Y118405000D01*
X-205691000Y104415000D02*
X-205691000Y118343000D01*
X-205371000Y104364000D02*
X-205371000Y118394000D01*
X-205251000Y104348000D02*
X-205251000Y118410000D01*
X-207091000Y104822000D02*
X-207091000Y109939000D01*
X-206211000Y104530000D02*
X-206211000Y118228000D01*
X-205211000Y104344000D02*
X-205211000Y118414000D01*
X-205531000Y104387000D02*
X-205531000Y118371000D01*
X-205131000Y104335000D02*
X-205131000Y118423000D01*
X-205171000Y104339000D02*
X-205171000Y118419000D01*
X-205090000Y104331000D02*
X-205090000Y118427000D01*
X-207171000Y104855000D02*
X-207171000Y109939000D01*
X-206931000Y104759000D02*
X-206931000Y109939000D01*
X-206851000Y112819000D02*
X-206851000Y118028000D01*
X-206251000Y104540000D02*
X-206251000Y118218000D01*
X-206171000Y104519000D02*
X-206171000Y118239000D01*
X-206771000Y112819000D02*
X-206771000Y118057000D01*
X-206091000Y104500000D02*
X-206091000Y118258000D01*
X-207051000Y112819000D02*
X-207051000Y117952000D01*
X-206771000Y104701000D02*
X-206771000Y109939000D01*
X-206691000Y104673000D02*
X-206691000Y118085000D01*
X-206571000Y104634000D02*
X-206571000Y118124000D01*
X-206451000Y104597000D02*
X-206451000Y118161000D01*
X-205611000Y104400000D02*
X-205611000Y118358000D01*
X-205411000Y104369000D02*
X-205411000Y118389000D01*
X-206971000Y104775000D02*
X-206971000Y109939000D01*
X-206891000Y112819000D02*
X-206891000Y118014000D01*
X-206491000Y104609000D02*
X-206491000Y118149000D01*
X-207051000Y104806000D02*
X-207051000Y109939000D01*
X-206411000Y104585000D02*
X-206411000Y118173000D01*
X-207091000Y112819000D02*
X-207091000Y117936000D01*
X-206651000Y104660000D02*
X-206651000Y118098000D01*
X-207131000Y104839000D02*
X-207131000Y109939000D01*
X-207011000Y112819000D02*
X-207011000Y117968000D01*
X-206371000Y104574000D02*
X-206371000Y118184000D01*
X-206051000Y104490000D02*
X-206051000Y118268000D01*
X-206811000Y104715000D02*
X-206811000Y109939000D01*
X-205971000Y104472000D02*
X-205971000Y118286000D01*
X-206931000Y112819000D02*
X-206931000Y117999000D01*
X-206891000Y104744000D02*
X-206891000Y109939000D01*
X-206811000Y112819000D02*
X-206811000Y118043000D01*
X-206531000Y104621000D02*
X-206531000Y118137000D01*
X-205891000Y104454000D02*
X-205891000Y118304000D01*
X-205851000Y104446000D02*
X-205851000Y118312000D01*
X-205811000Y104437000D02*
X-205811000Y118321000D01*
X-207131000Y112819000D02*
X-207131000Y117919000D01*
X-206131000Y104509000D02*
X-206131000Y118249000D01*
X-205771000Y104430000D02*
X-205771000Y118328000D01*
X-204850000Y104312000D02*
X-204850000Y118446000D01*
X-204730000Y104306000D02*
X-204730000Y118452000D01*
X-204930000Y104318000D02*
X-204930000Y118440000D01*
X-204610000Y104301000D02*
X-204610000Y118457000D01*
X-204530000Y104300000D02*
X-204530000Y118458000D01*
X-204810000Y104310000D02*
X-204810000Y118448000D01*
X-204490000Y104299000D02*
X-204490000Y118459000D01*
X-204890000Y104315000D02*
X-204890000Y118443000D01*
X-204650000Y104303000D02*
X-204650000Y118455000D01*
X-204770000Y104308000D02*
X-204770000Y118450000D01*
X-205050000Y104327000D02*
X-205050000Y118431000D01*
X-204410000Y104299000D02*
X-204410000Y118459000D01*
X-204970000Y104321000D02*
X-204970000Y118437000D01*
X-197290000Y111379000D02*
G75*
G03*
X-197290000Y111379000I-7120000J0D01*
G01*
X-204570000Y104300000D02*
X-204570000Y118458000D01*
X-204450000Y104299000D02*
X-204450000Y118459000D01*
X-204690000Y104304000D02*
X-204690000Y118454000D01*
X-210491000Y107713000D02*
X-210491000Y115045000D01*
X-211451000Y110354000D02*
X-211451000Y112404000D01*
X-210331000Y107463000D02*
X-210331000Y115295000D01*
X-211491000Y110665000D02*
X-211491000Y112093000D01*
X-211411000Y110117000D02*
X-211411000Y112641000D01*
X-211291000Y109585000D02*
X-211291000Y113173000D01*
X-210931000Y108558000D02*
X-210931000Y114200000D01*
X-211371000Y109918000D02*
X-211371000Y112840000D01*
X-211251000Y109441000D02*
X-211251000Y113317000D01*
X-211011000Y108747000D02*
X-211011000Y114011000D01*
X-210891000Y108468000D02*
X-210891000Y114290000D01*
X-210811000Y108299000D02*
X-210811000Y114459000D01*
X-210731000Y108139000D02*
X-210731000Y114619000D01*
X-210971000Y108651000D02*
X-210971000Y114107000D01*
X-210451000Y107649000D02*
X-210451000Y115109000D01*
X-210411000Y107585000D02*
X-210411000Y115173000D01*
X-210291000Y107404000D02*
X-210291000Y115354000D01*
X-211131000Y109066000D02*
X-211131000Y113692000D01*
X-211331000Y109743000D02*
X-211331000Y113015000D01*
X-211171000Y109183000D02*
X-211171000Y113575000D01*
X-210211000Y107289000D02*
X-210211000Y115469000D01*
X-210251000Y107346000D02*
X-210251000Y115412000D01*
X-210171000Y107233000D02*
X-210171000Y115525000D01*
X-210131000Y107179000D02*
X-210131000Y115579000D01*
X-197490457Y106684000D02*
X-197490457Y108084000D01*
X-196790457Y107384000D02*
X-198190457Y107384000D01*
X-210531000Y107780000D02*
X-210531000Y114978000D01*
X-210371000Y107523000D02*
X-210371000Y115235000D01*
X-211051000Y108849000D02*
X-211051000Y113909000D01*
X-210851000Y108382000D02*
X-210851000Y114376000D01*
X-210771000Y108218000D02*
X-210771000Y114540000D01*
X-210651000Y107990000D02*
X-210651000Y114768000D01*
X-210091000Y107125000D02*
X-210091000Y115633000D01*
X-211091000Y108954000D02*
X-211091000Y113804000D01*
X-210611000Y107918000D02*
X-210611000Y114840000D01*
X-211211000Y109308000D02*
X-211211000Y113450000D01*
X-210571000Y107848000D02*
X-210571000Y114910000D01*
X-210691000Y108064000D02*
X-210691000Y114694000D01*
X-209291000Y106234000D02*
X-209291000Y109939000D01*
X-209891000Y106873000D02*
X-209891000Y115885000D01*
X-209131000Y112819000D02*
X-209131000Y116670000D01*
X-209611000Y106555000D02*
X-209611000Y116203000D01*
X-209451000Y112819000D02*
X-209451000Y116369000D01*
X-209091000Y106053000D02*
X-209091000Y109939000D01*
X-209971000Y106971000D02*
X-209971000Y115787000D01*
X-209811000Y106778000D02*
X-209811000Y115980000D01*
X-209571000Y112819000D02*
X-209571000Y116245000D01*
X-209371000Y106310000D02*
X-209371000Y109939000D01*
X-209531000Y112819000D02*
X-209531000Y116287000D01*
X-209331000Y112819000D02*
X-209331000Y116486000D01*
X-209171000Y112819000D02*
X-209171000Y116634000D01*
X-209771000Y106732000D02*
X-209771000Y116026000D01*
X-209411000Y106350000D02*
X-209411000Y109939000D01*
X-209211000Y112819000D02*
X-209211000Y116598000D01*
X-209571000Y106513000D02*
X-209571000Y109939000D01*
X-209931000Y106921000D02*
X-209931000Y115837000D01*
X-209171000Y106124000D02*
X-209171000Y109939000D01*
X-209051000Y112819000D02*
X-209051000Y116740000D01*
X-208931000Y105917000D02*
X-208931000Y109939000D01*
X-208891000Y105885000D02*
X-208891000Y109939000D01*
X-208851000Y105852000D02*
X-208851000Y109939000D01*
X-209531000Y106471000D02*
X-209531000Y109939000D01*
X-209451000Y106389000D02*
X-209451000Y109939000D01*
X-209011000Y112819000D02*
X-209011000Y116774000D01*
X-209371000Y112819000D02*
X-209371000Y116448000D01*
X-209091000Y112819000D02*
X-209091000Y116705000D01*
X-208811000Y112819000D02*
X-208811000Y116937000D01*
X-208811000Y105821000D02*
X-208811000Y109939000D01*
X-208971000Y112819000D02*
X-208971000Y116808000D01*
X-208971000Y105950000D02*
X-208971000Y109939000D01*
X-209011000Y105984000D02*
X-209011000Y109939000D01*
X-209851000Y106825000D02*
X-209851000Y115933000D01*
X-210051000Y107073000D02*
X-210051000Y115685000D01*
X-210011000Y107021000D02*
X-210011000Y115737000D01*
X-209211000Y106160000D02*
X-209211000Y109939000D01*
X-209131000Y106088000D02*
X-209131000Y109939000D01*
X-209731000Y106686000D02*
X-209731000Y116072000D01*
X-209491000Y106430000D02*
X-209491000Y109939000D01*
X-209251000Y112819000D02*
X-209251000Y116561000D01*
X-209251000Y106197000D02*
X-209251000Y109939000D01*
X-209691000Y106642000D02*
X-209691000Y116116000D01*
X-209491000Y112819000D02*
X-209491000Y116328000D01*
X-209051000Y106018000D02*
X-209051000Y109939000D01*
X-208931000Y112819000D02*
X-208931000Y116841000D01*
X-208891000Y112819000D02*
X-208891000Y116873000D01*
X-208851000Y112819000D02*
X-208851000Y116906000D01*
X-209291000Y112819000D02*
X-209291000Y116524000D01*
X-209411000Y112819000D02*
X-209411000Y116408000D01*
X-209331000Y106272000D02*
X-209331000Y109939000D01*
X-209651000Y106598000D02*
X-209651000Y116160000D01*
%TO.C,R16*%
X-213993000Y74899733D02*
X-213993000Y75242267D01*
X-215013000Y74899733D02*
X-215013000Y75242267D01*
%TO.C,R15*%
X-213993000Y78568733D02*
X-213993000Y78911267D01*
X-215013000Y78568733D02*
X-215013000Y78911267D01*
D12*
%TO.C,INDUCTOR*%
X-175768000Y126492000D02*
X-175768000Y93980000D01*
X-192278000Y126492000D02*
X-175768000Y126492000D01*
X-192278000Y93980000D02*
X-192278000Y126492000D01*
X-175768000Y93980000D02*
X-192278000Y93980000D01*
D11*
%TO.C,R10*%
X-199664064Y98620000D02*
X-195559936Y98620000D01*
X-199664064Y102040000D02*
X-195559936Y102040000D01*
%TO.C,U2*%
X-209234000Y72751000D02*
X-205784000Y72751000D01*
X-209234000Y72751000D02*
X-211184000Y72751000D01*
X-209234000Y77871000D02*
X-207284000Y77871000D01*
X-209234000Y77871000D02*
X-211184000Y77871000D01*
%TO.C,D3*%
X-169218000Y101762000D02*
X-172158000Y101762000D01*
X-169218000Y101522000D02*
X-172158000Y101522000D01*
X-169218000Y101642000D02*
X-172158000Y101642000D01*
X-172158000Y97102000D02*
X-171828000Y97102000D01*
X-172158000Y102542000D02*
X-172158000Y97102000D01*
X-171828000Y102542000D02*
X-172158000Y102542000D01*
X-169218000Y97102000D02*
X-169548000Y97102000D01*
X-169218000Y102542000D02*
X-169218000Y97102000D01*
X-169548000Y102542000D02*
X-169218000Y102542000D01*
%TO.C,D2*%
X-153578000Y98498000D02*
X-153578000Y95558000D01*
X-153338000Y98498000D02*
X-153338000Y95558000D01*
X-153458000Y98498000D02*
X-153458000Y95558000D01*
X-148918000Y95558000D02*
X-148918000Y95888000D01*
X-154358000Y95558000D02*
X-148918000Y95558000D01*
X-154358000Y95888000D02*
X-154358000Y95558000D01*
X-148918000Y98498000D02*
X-148918000Y98168000D01*
X-154358000Y98498000D02*
X-148918000Y98498000D01*
X-154358000Y98168000D02*
X-154358000Y98498000D01*
%TO.C,RV1*%
X-201283000Y73042500D02*
X-203247000Y73042500D01*
X-198507000Y73042500D02*
X-200293000Y73042500D01*
X-201283000Y79992500D02*
X-203247000Y79992500D01*
X-198507000Y79992500D02*
X-200293000Y79992500D01*
X-203247000Y79992500D02*
X-203247000Y73042500D01*
X-198507000Y79992500D02*
X-198507000Y73042500D01*
%TO.C,D1*%
X-200762500Y69809500D02*
X-200762500Y72049500D01*
X-200762500Y72049500D02*
X-205002500Y72049500D01*
X-205002500Y72049500D02*
X-205002500Y69809500D01*
X-205002500Y69809500D02*
X-200762500Y69809500D01*
X-200112500Y70929500D02*
X-200762500Y70929500D01*
X-205652500Y70929500D02*
X-205002500Y70929500D01*
X-201482500Y69809500D02*
X-201482500Y72049500D01*
X-201602500Y69809500D02*
X-201602500Y72049500D01*
X-201362500Y69809500D02*
X-201362500Y72049500D01*
%TO.C,U8*%
X-190182500Y65808500D02*
X-193107500Y65808500D01*
X-190182500Y65808500D02*
X-188682500Y65808500D01*
X-190182500Y62588500D02*
X-191682500Y62588500D01*
X-190182500Y62588500D02*
X-188682500Y62588500D01*
%TO.C,U7*%
X-154288000Y100524000D02*
X-152638000Y100524000D01*
X-154288000Y110804000D02*
X-154288000Y100524000D01*
X-148988000Y110804000D02*
X-154288000Y110804000D01*
X-148988000Y100524000D02*
X-148988000Y110804000D01*
X-150638000Y100524000D02*
X-148988000Y100524000D01*
X-152638000Y100524000D02*
G75*
G02*
X-150638000Y100524000I1000000J0D01*
G01*
%TO.C,U3*%
X-206672500Y82994500D02*
X-206672500Y86444500D01*
X-206672500Y82994500D02*
X-206672500Y81044500D01*
X-211792500Y82994500D02*
X-211792500Y84944500D01*
X-211792500Y82994500D02*
X-211792500Y81044500D01*
%TO.C,U4*%
X-147164400Y85363300D02*
X-147164400Y86873300D01*
X-143463400Y85363300D02*
X-143463400Y86873300D01*
X-140193400Y86873300D02*
X-150433400Y86873300D01*
X-150433400Y85363300D02*
X-150433400Y90004300D01*
X-140193400Y85363300D02*
X-140193400Y90004300D01*
X-140193400Y90004300D02*
X-150433400Y90004300D01*
X-140193400Y85363300D02*
X-150433400Y85363300D01*
%TO.C,R12*%
X-204865500Y96139724D02*
X-204865500Y95630276D01*
X-203820500Y96139724D02*
X-203820500Y95630276D01*
%TO.C,R11*%
X-204865500Y99672224D02*
X-204865500Y99162776D01*
X-203820500Y99672224D02*
X-203820500Y99162776D01*
%TO.C,R14*%
X-184593776Y68531000D02*
X-185103224Y68531000D01*
X-184593776Y67486000D02*
X-185103224Y67486000D01*
%TO.C,R8*%
X-169340000Y60284276D02*
X-169340000Y60793724D01*
X-170385000Y60284276D02*
X-170385000Y60793724D01*
%TO.C,R7*%
X-172163000Y60770224D02*
X-172163000Y60260776D01*
X-171118000Y60770224D02*
X-171118000Y60260776D01*
%TO.C,R9*%
X-191403500Y60920724D02*
X-191403500Y60411276D01*
X-190358500Y60920724D02*
X-190358500Y60411276D01*
%TO.C,R6*%
X-160274724Y109713500D02*
X-159765276Y109713500D01*
X-160274724Y110758500D02*
X-159765276Y110758500D01*
%TO.C,R4*%
X-194168500Y75350276D02*
X-194168500Y75859724D01*
X-195213500Y75350276D02*
X-195213500Y75859724D01*
%TO.C,R3*%
X-205310000Y64580224D02*
X-205310000Y64070776D01*
X-204265000Y64580224D02*
X-204265000Y64070776D01*
%TO.C,R2*%
X-196940700Y80963224D02*
X-196940700Y80453776D01*
X-195895700Y80963224D02*
X-195895700Y80453776D01*
%TO.C,R1*%
X-194193900Y80453776D02*
X-194193900Y80963224D01*
X-195238900Y80453776D02*
X-195238900Y80963224D01*
%TO.C,Q1*%
X-169999000Y106966000D02*
X-169999000Y108476000D01*
X-166298000Y106966000D02*
X-166298000Y108476000D01*
X-163028000Y108476000D02*
X-173268000Y108476000D01*
X-173268000Y106966000D02*
X-173268000Y111607000D01*
X-163028000Y106966000D02*
X-163028000Y111607000D01*
X-163028000Y111607000D02*
X-173268000Y111607000D01*
X-163028000Y106966000D02*
X-173268000Y106966000D01*
%TO.C,C18*%
X-174681267Y56195500D02*
X-174388733Y56195500D01*
X-174681267Y57215500D02*
X-174388733Y57215500D01*
%TO.C,C19*%
X-184469500Y65588267D02*
X-184469500Y65295733D01*
X-183449500Y65588267D02*
X-183449500Y65295733D01*
%TO.C,C17*%
X-186247500Y65588267D02*
X-186247500Y65295733D01*
X-185227500Y65588267D02*
X-185227500Y65295733D01*
%TO.C,C15*%
X-170897767Y56195500D02*
X-170605233Y56195500D01*
X-170897767Y57215500D02*
X-170605233Y57215500D01*
%TO.C,C14*%
X-192085500Y60469733D02*
X-192085500Y60762267D01*
X-193105500Y60469733D02*
X-193105500Y60762267D01*
%TO.C,C13*%
X-168086500Y57587267D02*
X-168086500Y57294733D01*
X-167066500Y57587267D02*
X-167066500Y57294733D01*
%TO.C,C12*%
X-159989225Y100129000D02*
X-159989225Y100629000D01*
X-159739225Y100379000D02*
X-160239225Y100379000D01*
X-165145000Y101570000D02*
X-165145000Y102138000D01*
X-165105000Y101336000D02*
X-165105000Y102372000D01*
X-165065000Y101177000D02*
X-165065000Y102531000D01*
X-165025000Y101049000D02*
X-165025000Y102659000D01*
X-164985000Y100939000D02*
X-164985000Y102769000D01*
X-164945000Y100843000D02*
X-164945000Y102865000D01*
X-164905000Y100756000D02*
X-164905000Y102952000D01*
X-164865000Y100676000D02*
X-164865000Y103032000D01*
X-164825000Y100603000D02*
X-164825000Y103105000D01*
X-164785000Y100535000D02*
X-164785000Y103173000D01*
X-164745000Y100471000D02*
X-164745000Y103237000D01*
X-164705000Y100411000D02*
X-164705000Y103297000D01*
X-164665000Y100354000D02*
X-164665000Y103354000D01*
X-164625000Y100300000D02*
X-164625000Y103408000D01*
X-164585000Y100249000D02*
X-164585000Y103459000D01*
X-164545000Y102894000D02*
X-164545000Y103507000D01*
X-164545000Y100201000D02*
X-164545000Y100814000D01*
X-164505000Y102894000D02*
X-164505000Y103553000D01*
X-164505000Y100155000D02*
X-164505000Y100814000D01*
X-164465000Y102894000D02*
X-164465000Y103597000D01*
X-164465000Y100111000D02*
X-164465000Y100814000D01*
X-164425000Y102894000D02*
X-164425000Y103639000D01*
X-164425000Y100069000D02*
X-164425000Y100814000D01*
X-164385000Y102894000D02*
X-164385000Y103680000D01*
X-164385000Y100028000D02*
X-164385000Y100814000D01*
X-164345000Y102894000D02*
X-164345000Y103718000D01*
X-164345000Y99990000D02*
X-164345000Y100814000D01*
X-164305000Y102894000D02*
X-164305000Y103755000D01*
X-164305000Y99953000D02*
X-164305000Y100814000D01*
X-164265000Y102894000D02*
X-164265000Y103791000D01*
X-164265000Y99917000D02*
X-164265000Y100814000D01*
X-164225000Y102894000D02*
X-164225000Y103825000D01*
X-164225000Y99883000D02*
X-164225000Y100814000D01*
X-164185000Y102894000D02*
X-164185000Y103858000D01*
X-164185000Y99850000D02*
X-164185000Y100814000D01*
X-164145000Y102894000D02*
X-164145000Y103889000D01*
X-164145000Y99819000D02*
X-164145000Y100814000D01*
X-164105000Y102894000D02*
X-164105000Y103919000D01*
X-164105000Y99789000D02*
X-164105000Y100814000D01*
X-164065000Y102894000D02*
X-164065000Y103949000D01*
X-164065000Y99759000D02*
X-164065000Y100814000D01*
X-164025000Y102894000D02*
X-164025000Y103976000D01*
X-164025000Y99732000D02*
X-164025000Y100814000D01*
X-163985000Y102894000D02*
X-163985000Y104003000D01*
X-163985000Y99705000D02*
X-163985000Y100814000D01*
X-163945000Y102894000D02*
X-163945000Y104029000D01*
X-163945000Y99679000D02*
X-163945000Y100814000D01*
X-163905000Y102894000D02*
X-163905000Y104054000D01*
X-163905000Y99654000D02*
X-163905000Y100814000D01*
X-163865000Y102894000D02*
X-163865000Y104078000D01*
X-163865000Y99630000D02*
X-163865000Y100814000D01*
X-163825000Y102894000D02*
X-163825000Y104101000D01*
X-163825000Y99607000D02*
X-163825000Y100814000D01*
X-163785000Y102894000D02*
X-163785000Y104122000D01*
X-163785000Y99586000D02*
X-163785000Y100814000D01*
X-163745000Y102894000D02*
X-163745000Y104144000D01*
X-163745000Y99564000D02*
X-163745000Y100814000D01*
X-163705000Y102894000D02*
X-163705000Y104164000D01*
X-163705000Y99544000D02*
X-163705000Y100814000D01*
X-163665000Y102894000D02*
X-163665000Y104183000D01*
X-163665000Y99525000D02*
X-163665000Y100814000D01*
X-163625000Y102894000D02*
X-163625000Y104202000D01*
X-163625000Y99506000D02*
X-163625000Y100814000D01*
X-163585000Y102894000D02*
X-163585000Y104219000D01*
X-163585000Y99489000D02*
X-163585000Y100814000D01*
X-163545000Y102894000D02*
X-163545000Y104236000D01*
X-163545000Y99472000D02*
X-163545000Y100814000D01*
X-163505000Y102894000D02*
X-163505000Y104252000D01*
X-163505000Y99456000D02*
X-163505000Y100814000D01*
X-163465000Y102894000D02*
X-163465000Y104268000D01*
X-163465000Y99440000D02*
X-163465000Y100814000D01*
X-163425000Y102894000D02*
X-163425000Y104282000D01*
X-163425000Y99426000D02*
X-163425000Y100814000D01*
X-163385000Y102894000D02*
X-163385000Y104296000D01*
X-163385000Y99412000D02*
X-163385000Y100814000D01*
X-163345000Y102894000D02*
X-163345000Y104309000D01*
X-163345000Y99399000D02*
X-163345000Y100814000D01*
X-163305000Y102894000D02*
X-163305000Y104322000D01*
X-163305000Y99386000D02*
X-163305000Y100814000D01*
X-163265000Y102894000D02*
X-163265000Y104334000D01*
X-163265000Y99374000D02*
X-163265000Y100814000D01*
X-163224000Y102894000D02*
X-163224000Y104345000D01*
X-163224000Y99363000D02*
X-163224000Y100814000D01*
X-163184000Y102894000D02*
X-163184000Y104355000D01*
X-163184000Y99353000D02*
X-163184000Y100814000D01*
X-163144000Y102894000D02*
X-163144000Y104365000D01*
X-163144000Y99343000D02*
X-163144000Y100814000D01*
X-163104000Y102894000D02*
X-163104000Y104374000D01*
X-163104000Y99334000D02*
X-163104000Y100814000D01*
X-163064000Y102894000D02*
X-163064000Y104382000D01*
X-163064000Y99326000D02*
X-163064000Y100814000D01*
X-163024000Y102894000D02*
X-163024000Y104390000D01*
X-163024000Y99318000D02*
X-163024000Y100814000D01*
X-162984000Y102894000D02*
X-162984000Y104397000D01*
X-162984000Y99311000D02*
X-162984000Y100814000D01*
X-162944000Y102894000D02*
X-162944000Y104404000D01*
X-162944000Y99304000D02*
X-162944000Y100814000D01*
X-162904000Y102894000D02*
X-162904000Y104410000D01*
X-162904000Y99298000D02*
X-162904000Y100814000D01*
X-162864000Y102894000D02*
X-162864000Y104415000D01*
X-162864000Y99293000D02*
X-162864000Y100814000D01*
X-162824000Y102894000D02*
X-162824000Y104419000D01*
X-162824000Y99289000D02*
X-162824000Y100814000D01*
X-162784000Y102894000D02*
X-162784000Y104423000D01*
X-162784000Y99285000D02*
X-162784000Y100814000D01*
X-162744000Y102894000D02*
X-162744000Y104427000D01*
X-162744000Y99281000D02*
X-162744000Y100814000D01*
X-162704000Y102894000D02*
X-162704000Y104430000D01*
X-162704000Y99278000D02*
X-162704000Y100814000D01*
X-162664000Y102894000D02*
X-162664000Y104432000D01*
X-162664000Y99276000D02*
X-162664000Y100814000D01*
X-162624000Y102894000D02*
X-162624000Y104433000D01*
X-162624000Y99275000D02*
X-162624000Y100814000D01*
X-162584000Y99274000D02*
X-162584000Y100814000D01*
X-162584000Y102894000D02*
X-162584000Y104434000D01*
X-162544000Y99274000D02*
X-162544000Y100814000D01*
X-162544000Y102894000D02*
X-162544000Y104434000D01*
X-159924000Y101854000D02*
G75*
G03*
X-159924000Y101854000I-2620000J0D01*
G01*
%TO.C,C11*%
X-144302775Y103579000D02*
X-144302775Y103079000D01*
X-144552775Y103329000D02*
X-144052775Y103329000D01*
X-139147000Y102138000D02*
X-139147000Y101570000D01*
X-139187000Y102372000D02*
X-139187000Y101336000D01*
X-139227000Y102531000D02*
X-139227000Y101177000D01*
X-139267000Y102659000D02*
X-139267000Y101049000D01*
X-139307000Y102769000D02*
X-139307000Y100939000D01*
X-139347000Y102865000D02*
X-139347000Y100843000D01*
X-139387000Y102952000D02*
X-139387000Y100756000D01*
X-139427000Y103032000D02*
X-139427000Y100676000D01*
X-139467000Y103105000D02*
X-139467000Y100603000D01*
X-139507000Y103173000D02*
X-139507000Y100535000D01*
X-139547000Y103237000D02*
X-139547000Y100471000D01*
X-139587000Y103297000D02*
X-139587000Y100411000D01*
X-139627000Y103354000D02*
X-139627000Y100354000D01*
X-139667000Y103408000D02*
X-139667000Y100300000D01*
X-139707000Y103459000D02*
X-139707000Y100249000D01*
X-139747000Y100814000D02*
X-139747000Y100201000D01*
X-139747000Y103507000D02*
X-139747000Y102894000D01*
X-139787000Y100814000D02*
X-139787000Y100155000D01*
X-139787000Y103553000D02*
X-139787000Y102894000D01*
X-139827000Y100814000D02*
X-139827000Y100111000D01*
X-139827000Y103597000D02*
X-139827000Y102894000D01*
X-139867000Y100814000D02*
X-139867000Y100069000D01*
X-139867000Y103639000D02*
X-139867000Y102894000D01*
X-139907000Y100814000D02*
X-139907000Y100028000D01*
X-139907000Y103680000D02*
X-139907000Y102894000D01*
X-139947000Y100814000D02*
X-139947000Y99990000D01*
X-139947000Y103718000D02*
X-139947000Y102894000D01*
X-139987000Y100814000D02*
X-139987000Y99953000D01*
X-139987000Y103755000D02*
X-139987000Y102894000D01*
X-140027000Y100814000D02*
X-140027000Y99917000D01*
X-140027000Y103791000D02*
X-140027000Y102894000D01*
X-140067000Y100814000D02*
X-140067000Y99883000D01*
X-140067000Y103825000D02*
X-140067000Y102894000D01*
X-140107000Y100814000D02*
X-140107000Y99850000D01*
X-140107000Y103858000D02*
X-140107000Y102894000D01*
X-140147000Y100814000D02*
X-140147000Y99819000D01*
X-140147000Y103889000D02*
X-140147000Y102894000D01*
X-140187000Y100814000D02*
X-140187000Y99789000D01*
X-140187000Y103919000D02*
X-140187000Y102894000D01*
X-140227000Y100814000D02*
X-140227000Y99759000D01*
X-140227000Y103949000D02*
X-140227000Y102894000D01*
X-140267000Y100814000D02*
X-140267000Y99732000D01*
X-140267000Y103976000D02*
X-140267000Y102894000D01*
X-140307000Y100814000D02*
X-140307000Y99705000D01*
X-140307000Y104003000D02*
X-140307000Y102894000D01*
X-140347000Y100814000D02*
X-140347000Y99679000D01*
X-140347000Y104029000D02*
X-140347000Y102894000D01*
X-140387000Y100814000D02*
X-140387000Y99654000D01*
X-140387000Y104054000D02*
X-140387000Y102894000D01*
X-140427000Y100814000D02*
X-140427000Y99630000D01*
X-140427000Y104078000D02*
X-140427000Y102894000D01*
X-140467000Y100814000D02*
X-140467000Y99607000D01*
X-140467000Y104101000D02*
X-140467000Y102894000D01*
X-140507000Y100814000D02*
X-140507000Y99586000D01*
X-140507000Y104122000D02*
X-140507000Y102894000D01*
X-140547000Y100814000D02*
X-140547000Y99564000D01*
X-140547000Y104144000D02*
X-140547000Y102894000D01*
X-140587000Y100814000D02*
X-140587000Y99544000D01*
X-140587000Y104164000D02*
X-140587000Y102894000D01*
X-140627000Y100814000D02*
X-140627000Y99525000D01*
X-140627000Y104183000D02*
X-140627000Y102894000D01*
X-140667000Y100814000D02*
X-140667000Y99506000D01*
X-140667000Y104202000D02*
X-140667000Y102894000D01*
X-140707000Y100814000D02*
X-140707000Y99489000D01*
X-140707000Y104219000D02*
X-140707000Y102894000D01*
X-140747000Y100814000D02*
X-140747000Y99472000D01*
X-140747000Y104236000D02*
X-140747000Y102894000D01*
X-140787000Y100814000D02*
X-140787000Y99456000D01*
X-140787000Y104252000D02*
X-140787000Y102894000D01*
X-140827000Y100814000D02*
X-140827000Y99440000D01*
X-140827000Y104268000D02*
X-140827000Y102894000D01*
X-140867000Y100814000D02*
X-140867000Y99426000D01*
X-140867000Y104282000D02*
X-140867000Y102894000D01*
X-140907000Y100814000D02*
X-140907000Y99412000D01*
X-140907000Y104296000D02*
X-140907000Y102894000D01*
X-140947000Y100814000D02*
X-140947000Y99399000D01*
X-140947000Y104309000D02*
X-140947000Y102894000D01*
X-140987000Y100814000D02*
X-140987000Y99386000D01*
X-140987000Y104322000D02*
X-140987000Y102894000D01*
X-141027000Y100814000D02*
X-141027000Y99374000D01*
X-141027000Y104334000D02*
X-141027000Y102894000D01*
X-141068000Y100814000D02*
X-141068000Y99363000D01*
X-141068000Y104345000D02*
X-141068000Y102894000D01*
X-141108000Y100814000D02*
X-141108000Y99353000D01*
X-141108000Y104355000D02*
X-141108000Y102894000D01*
X-141148000Y100814000D02*
X-141148000Y99343000D01*
X-141148000Y104365000D02*
X-141148000Y102894000D01*
X-141188000Y100814000D02*
X-141188000Y99334000D01*
X-141188000Y104374000D02*
X-141188000Y102894000D01*
X-141228000Y100814000D02*
X-141228000Y99326000D01*
X-141228000Y104382000D02*
X-141228000Y102894000D01*
X-141268000Y100814000D02*
X-141268000Y99318000D01*
X-141268000Y104390000D02*
X-141268000Y102894000D01*
X-141308000Y100814000D02*
X-141308000Y99311000D01*
X-141308000Y104397000D02*
X-141308000Y102894000D01*
X-141348000Y100814000D02*
X-141348000Y99304000D01*
X-141348000Y104404000D02*
X-141348000Y102894000D01*
X-141388000Y100814000D02*
X-141388000Y99298000D01*
X-141388000Y104410000D02*
X-141388000Y102894000D01*
X-141428000Y100814000D02*
X-141428000Y99293000D01*
X-141428000Y104415000D02*
X-141428000Y102894000D01*
X-141468000Y100814000D02*
X-141468000Y99289000D01*
X-141468000Y104419000D02*
X-141468000Y102894000D01*
X-141508000Y100814000D02*
X-141508000Y99285000D01*
X-141508000Y104423000D02*
X-141508000Y102894000D01*
X-141548000Y100814000D02*
X-141548000Y99281000D01*
X-141548000Y104427000D02*
X-141548000Y102894000D01*
X-141588000Y100814000D02*
X-141588000Y99278000D01*
X-141588000Y104430000D02*
X-141588000Y102894000D01*
X-141628000Y100814000D02*
X-141628000Y99276000D01*
X-141628000Y104432000D02*
X-141628000Y102894000D01*
X-141668000Y100814000D02*
X-141668000Y99275000D01*
X-141668000Y104433000D02*
X-141668000Y102894000D01*
X-141708000Y104434000D02*
X-141708000Y102894000D01*
X-141708000Y100814000D02*
X-141708000Y99274000D01*
X-141748000Y104434000D02*
X-141748000Y102894000D01*
X-141748000Y100814000D02*
X-141748000Y99274000D01*
X-139128000Y101854000D02*
G75*
G03*
X-139128000Y101854000I-2620000J0D01*
G01*
%TO.C,C10*%
X-199261000Y83673733D02*
X-199261000Y83966267D01*
X-200281000Y83673733D02*
X-200281000Y83966267D01*
%TO.C,C9*%
X-196022500Y75482233D02*
X-196022500Y75774767D01*
X-197042500Y75482233D02*
X-197042500Y75774767D01*
%TO.C,C8*%
X-195324000Y87510233D02*
X-195324000Y87802767D01*
X-196344000Y87510233D02*
X-196344000Y87802767D01*
%TO.C,C7*%
X-214222698Y66151500D02*
X-214222698Y65351500D01*
X-214622698Y65751500D02*
X-213822698Y65751500D01*
X-206132000Y63969500D02*
X-206132000Y62903500D01*
X-206172000Y64204500D02*
X-206172000Y62668500D01*
X-206212000Y64384500D02*
X-206212000Y62488500D01*
X-206252000Y64534500D02*
X-206252000Y62338500D01*
X-206292000Y64665500D02*
X-206292000Y62207500D01*
X-206332000Y64782500D02*
X-206332000Y62090500D01*
X-206372000Y64889500D02*
X-206372000Y61983500D01*
X-206412000Y64988500D02*
X-206412000Y61884500D01*
X-206452000Y65081500D02*
X-206452000Y61791500D01*
X-206492000Y65167500D02*
X-206492000Y61705500D01*
X-206532000Y65249500D02*
X-206532000Y61623500D01*
X-206572000Y65326500D02*
X-206572000Y61546500D01*
X-206612000Y65400500D02*
X-206612000Y61472500D01*
X-206652000Y65470500D02*
X-206652000Y61402500D01*
X-206692000Y65538500D02*
X-206692000Y61334500D01*
X-206732000Y65602500D02*
X-206732000Y61270500D01*
X-206772000Y65664500D02*
X-206772000Y61208500D01*
X-206812000Y65723500D02*
X-206812000Y61149500D01*
X-206852000Y65781500D02*
X-206852000Y61091500D01*
X-206892000Y65836500D02*
X-206892000Y61036500D01*
X-206932000Y65890500D02*
X-206932000Y60982500D01*
X-206972000Y65941500D02*
X-206972000Y60931500D01*
X-207012000Y65992500D02*
X-207012000Y60880500D01*
X-207052000Y66040500D02*
X-207052000Y60832500D01*
X-207092000Y66087500D02*
X-207092000Y60785500D01*
X-207132000Y66133500D02*
X-207132000Y60739500D01*
X-207172000Y66177500D02*
X-207172000Y60695500D01*
X-207212000Y66220500D02*
X-207212000Y60652500D01*
X-207252000Y66262500D02*
X-207252000Y60610500D01*
X-207292000Y66303500D02*
X-207292000Y60569500D01*
X-207332000Y66343500D02*
X-207332000Y60529500D01*
X-207372000Y66381500D02*
X-207372000Y60491500D01*
X-207412000Y66419500D02*
X-207412000Y60453500D01*
X-207452000Y62396500D02*
X-207452000Y60417500D01*
X-207452000Y66455500D02*
X-207452000Y64476500D01*
X-207492000Y62396500D02*
X-207492000Y60381500D01*
X-207492000Y66491500D02*
X-207492000Y64476500D01*
X-207532000Y62396500D02*
X-207532000Y60346500D01*
X-207532000Y66526500D02*
X-207532000Y64476500D01*
X-207572000Y62396500D02*
X-207572000Y60312500D01*
X-207572000Y66560500D02*
X-207572000Y64476500D01*
X-207612000Y62396500D02*
X-207612000Y60280500D01*
X-207612000Y66592500D02*
X-207612000Y64476500D01*
X-207652000Y62396500D02*
X-207652000Y60247500D01*
X-207652000Y66625500D02*
X-207652000Y64476500D01*
X-207692000Y62396500D02*
X-207692000Y60216500D01*
X-207692000Y66656500D02*
X-207692000Y64476500D01*
X-207732000Y62396500D02*
X-207732000Y60186500D01*
X-207732000Y66686500D02*
X-207732000Y64476500D01*
X-207772000Y62396500D02*
X-207772000Y60156500D01*
X-207772000Y66716500D02*
X-207772000Y64476500D01*
X-207812000Y62396500D02*
X-207812000Y60127500D01*
X-207812000Y66745500D02*
X-207812000Y64476500D01*
X-207852000Y62396500D02*
X-207852000Y60098500D01*
X-207852000Y66774500D02*
X-207852000Y64476500D01*
X-207892000Y62396500D02*
X-207892000Y60071500D01*
X-207892000Y66801500D02*
X-207892000Y64476500D01*
X-207932000Y62396500D02*
X-207932000Y60044500D01*
X-207932000Y66828500D02*
X-207932000Y64476500D01*
X-207972000Y62396500D02*
X-207972000Y60018500D01*
X-207972000Y66854500D02*
X-207972000Y64476500D01*
X-208012000Y62396500D02*
X-208012000Y59992500D01*
X-208012000Y66880500D02*
X-208012000Y64476500D01*
X-208052000Y62396500D02*
X-208052000Y59967500D01*
X-208052000Y66905500D02*
X-208052000Y64476500D01*
X-208092000Y62396500D02*
X-208092000Y59943500D01*
X-208092000Y66929500D02*
X-208092000Y64476500D01*
X-208132000Y62396500D02*
X-208132000Y59919500D01*
X-208132000Y66953500D02*
X-208132000Y64476500D01*
X-208172000Y62396500D02*
X-208172000Y59896500D01*
X-208172000Y66976500D02*
X-208172000Y64476500D01*
X-208212000Y62396500D02*
X-208212000Y59874500D01*
X-208212000Y66998500D02*
X-208212000Y64476500D01*
X-208252000Y62396500D02*
X-208252000Y59852500D01*
X-208252000Y67020500D02*
X-208252000Y64476500D01*
X-208292000Y62396500D02*
X-208292000Y59830500D01*
X-208292000Y67042500D02*
X-208292000Y64476500D01*
X-208332000Y62396500D02*
X-208332000Y59809500D01*
X-208332000Y67063500D02*
X-208332000Y64476500D01*
X-208372000Y62396500D02*
X-208372000Y59789500D01*
X-208372000Y67083500D02*
X-208372000Y64476500D01*
X-208412000Y62396500D02*
X-208412000Y59770500D01*
X-208412000Y67102500D02*
X-208412000Y64476500D01*
X-208452000Y62396500D02*
X-208452000Y59750500D01*
X-208452000Y67122500D02*
X-208452000Y64476500D01*
X-208492000Y62396500D02*
X-208492000Y59732500D01*
X-208492000Y67140500D02*
X-208492000Y64476500D01*
X-208532000Y62396500D02*
X-208532000Y59714500D01*
X-208532000Y67158500D02*
X-208532000Y64476500D01*
X-208572000Y62396500D02*
X-208572000Y59696500D01*
X-208572000Y67176500D02*
X-208572000Y64476500D01*
X-208612000Y62396500D02*
X-208612000Y59679500D01*
X-208612000Y67193500D02*
X-208612000Y64476500D01*
X-208652000Y62396500D02*
X-208652000Y59662500D01*
X-208652000Y67210500D02*
X-208652000Y64476500D01*
X-208692000Y62396500D02*
X-208692000Y59646500D01*
X-208692000Y67226500D02*
X-208692000Y64476500D01*
X-208732000Y62396500D02*
X-208732000Y59631500D01*
X-208732000Y67241500D02*
X-208732000Y64476500D01*
X-208772000Y62396500D02*
X-208772000Y59615500D01*
X-208772000Y67257500D02*
X-208772000Y64476500D01*
X-208812000Y62396500D02*
X-208812000Y59601500D01*
X-208812000Y67271500D02*
X-208812000Y64476500D01*
X-208852000Y62396500D02*
X-208852000Y59586500D01*
X-208852000Y67286500D02*
X-208852000Y64476500D01*
X-208892000Y62396500D02*
X-208892000Y59573500D01*
X-208892000Y67299500D02*
X-208892000Y64476500D01*
X-208932000Y62396500D02*
X-208932000Y59559500D01*
X-208932000Y67313500D02*
X-208932000Y64476500D01*
X-208972000Y62396500D02*
X-208972000Y59547500D01*
X-208972000Y67325500D02*
X-208972000Y64476500D01*
X-209012000Y62396500D02*
X-209012000Y59534500D01*
X-209012000Y67338500D02*
X-209012000Y64476500D01*
X-209052000Y62396500D02*
X-209052000Y59522500D01*
X-209052000Y67350500D02*
X-209052000Y64476500D01*
X-209092000Y62396500D02*
X-209092000Y59511500D01*
X-209092000Y67361500D02*
X-209092000Y64476500D01*
X-209132000Y62396500D02*
X-209132000Y59500500D01*
X-209132000Y67372500D02*
X-209132000Y64476500D01*
X-209172000Y62396500D02*
X-209172000Y59489500D01*
X-209172000Y67383500D02*
X-209172000Y64476500D01*
X-209212000Y62396500D02*
X-209212000Y59479500D01*
X-209212000Y67393500D02*
X-209212000Y64476500D01*
X-209252000Y62396500D02*
X-209252000Y59469500D01*
X-209252000Y67403500D02*
X-209252000Y64476500D01*
X-209292000Y62396500D02*
X-209292000Y59460500D01*
X-209292000Y67412500D02*
X-209292000Y64476500D01*
X-209332000Y62396500D02*
X-209332000Y59451500D01*
X-209332000Y67421500D02*
X-209332000Y64476500D01*
X-209372000Y62396500D02*
X-209372000Y59442500D01*
X-209372000Y67430500D02*
X-209372000Y64476500D01*
X-209412000Y62396500D02*
X-209412000Y59434500D01*
X-209412000Y67438500D02*
X-209412000Y64476500D01*
X-209452000Y62396500D02*
X-209452000Y59426500D01*
X-209452000Y67446500D02*
X-209452000Y64476500D01*
X-209492000Y62396500D02*
X-209492000Y59419500D01*
X-209492000Y67453500D02*
X-209492000Y64476500D01*
X-209533000Y67460500D02*
X-209533000Y59412500D01*
X-209573000Y67466500D02*
X-209573000Y59406500D01*
X-209613000Y67473500D02*
X-209613000Y59399500D01*
X-209653000Y67478500D02*
X-209653000Y59394500D01*
X-209693000Y67484500D02*
X-209693000Y59388500D01*
X-209733000Y67488500D02*
X-209733000Y59384500D01*
X-209773000Y67493500D02*
X-209773000Y59379500D01*
X-209813000Y67497500D02*
X-209813000Y59375500D01*
X-209853000Y67501500D02*
X-209853000Y59371500D01*
X-209893000Y67504500D02*
X-209893000Y59368500D01*
X-209933000Y67507500D02*
X-209933000Y59365500D01*
X-209973000Y67510500D02*
X-209973000Y59362500D01*
X-210013000Y67512500D02*
X-210013000Y59360500D01*
X-210053000Y67513500D02*
X-210053000Y59359500D01*
X-210093000Y67515500D02*
X-210093000Y59357500D01*
X-210133000Y67516500D02*
X-210133000Y59356500D01*
X-210173000Y67516500D02*
X-210173000Y59356500D01*
X-210213000Y67516500D02*
X-210213000Y59356500D01*
X-206093000Y63436500D02*
G75*
G03*
X-206093000Y63436500I-4120000J0D01*
G01*
%TO.C,C6*%
X-144580152Y83072300D02*
X-144057648Y83072300D01*
X-144580152Y84542300D02*
X-144057648Y84542300D01*
%TO.C,C5*%
X-148620433Y84266500D02*
X-148912967Y84266500D01*
X-148620433Y83246500D02*
X-148912967Y83246500D01*
%TO.C,C2*%
X-206186500Y85199267D02*
X-206186500Y84906733D01*
X-205166500Y85199267D02*
X-205166500Y84906733D01*
%TO.C,C3*%
X-166737646Y121993000D02*
X-166737646Y120993000D01*
X-167237646Y121493000D02*
X-166237646Y121493000D01*
X-156677000Y119217000D02*
X-156677000Y118019000D01*
X-156717000Y119480000D02*
X-156717000Y117756000D01*
X-156757000Y119680000D02*
X-156757000Y117556000D01*
X-156797000Y119848000D02*
X-156797000Y117388000D01*
X-156837000Y119996000D02*
X-156837000Y117240000D01*
X-156877000Y120128000D02*
X-156877000Y117108000D01*
X-156917000Y120248000D02*
X-156917000Y116988000D01*
X-156957000Y120360000D02*
X-156957000Y116876000D01*
X-156997000Y120464000D02*
X-156997000Y116772000D01*
X-157037000Y120562000D02*
X-157037000Y116674000D01*
X-157077000Y120655000D02*
X-157077000Y116581000D01*
X-157117000Y120743000D02*
X-157117000Y116493000D01*
X-157157000Y120827000D02*
X-157157000Y116409000D01*
X-157197000Y120907000D02*
X-157197000Y116329000D01*
X-157237000Y120983000D02*
X-157237000Y116253000D01*
X-157277000Y121057000D02*
X-157277000Y116179000D01*
X-157317000Y121128000D02*
X-157317000Y116108000D01*
X-157357000Y121197000D02*
X-157357000Y116039000D01*
X-157397000Y121263000D02*
X-157397000Y115973000D01*
X-157437000Y121327000D02*
X-157437000Y115909000D01*
X-157477000Y121388000D02*
X-157477000Y115848000D01*
X-157517000Y121448000D02*
X-157517000Y115788000D01*
X-157557000Y121507000D02*
X-157557000Y115729000D01*
X-157597000Y121563000D02*
X-157597000Y115673000D01*
X-157637000Y121618000D02*
X-157637000Y115618000D01*
X-157677000Y121672000D02*
X-157677000Y115564000D01*
X-157717000Y121724000D02*
X-157717000Y115512000D01*
X-157757000Y121774000D02*
X-157757000Y115462000D01*
X-157797000Y121824000D02*
X-157797000Y115412000D01*
X-157837000Y121872000D02*
X-157837000Y115364000D01*
X-157877000Y121919000D02*
X-157877000Y115317000D01*
X-157917000Y121965000D02*
X-157917000Y115271000D01*
X-157957000Y122010000D02*
X-157957000Y115226000D01*
X-157997000Y122054000D02*
X-157997000Y115182000D01*
X-158037000Y117377000D02*
X-158037000Y115140000D01*
X-158037000Y122096000D02*
X-158037000Y119859000D01*
X-158077000Y117377000D02*
X-158077000Y115098000D01*
X-158077000Y122138000D02*
X-158077000Y119859000D01*
X-158117000Y117377000D02*
X-158117000Y115057000D01*
X-158117000Y122179000D02*
X-158117000Y119859000D01*
X-158157000Y117377000D02*
X-158157000Y115017000D01*
X-158157000Y122219000D02*
X-158157000Y119859000D01*
X-158197000Y117377000D02*
X-158197000Y114978000D01*
X-158197000Y122258000D02*
X-158197000Y119859000D01*
X-158237000Y117377000D02*
X-158237000Y114939000D01*
X-158237000Y122297000D02*
X-158237000Y119859000D01*
X-158277000Y117377000D02*
X-158277000Y114902000D01*
X-158277000Y122334000D02*
X-158277000Y119859000D01*
X-158317000Y117377000D02*
X-158317000Y114865000D01*
X-158317000Y122371000D02*
X-158317000Y119859000D01*
X-158357000Y117377000D02*
X-158357000Y114829000D01*
X-158357000Y122407000D02*
X-158357000Y119859000D01*
X-158397000Y117377000D02*
X-158397000Y114794000D01*
X-158397000Y122442000D02*
X-158397000Y119859000D01*
X-158437000Y117377000D02*
X-158437000Y114760000D01*
X-158437000Y122476000D02*
X-158437000Y119859000D01*
X-158477000Y117377000D02*
X-158477000Y114726000D01*
X-158477000Y122510000D02*
X-158477000Y119859000D01*
X-158517000Y117377000D02*
X-158517000Y114693000D01*
X-158517000Y122543000D02*
X-158517000Y119859000D01*
X-158557000Y117377000D02*
X-158557000Y114661000D01*
X-158557000Y122575000D02*
X-158557000Y119859000D01*
X-158597000Y117377000D02*
X-158597000Y114629000D01*
X-158597000Y122607000D02*
X-158597000Y119859000D01*
X-158637000Y117377000D02*
X-158637000Y114598000D01*
X-158637000Y122638000D02*
X-158637000Y119859000D01*
X-158677000Y117377000D02*
X-158677000Y114568000D01*
X-158677000Y122668000D02*
X-158677000Y119859000D01*
X-158717000Y117377000D02*
X-158717000Y114538000D01*
X-158717000Y122698000D02*
X-158717000Y119859000D01*
X-158757000Y117377000D02*
X-158757000Y114508000D01*
X-158757000Y122728000D02*
X-158757000Y119859000D01*
X-158797000Y117377000D02*
X-158797000Y114480000D01*
X-158797000Y122756000D02*
X-158797000Y119859000D01*
X-158837000Y117377000D02*
X-158837000Y114452000D01*
X-158837000Y122784000D02*
X-158837000Y119859000D01*
X-158877000Y117377000D02*
X-158877000Y114424000D01*
X-158877000Y122812000D02*
X-158877000Y119859000D01*
X-158917000Y117377000D02*
X-158917000Y114397000D01*
X-158917000Y122839000D02*
X-158917000Y119859000D01*
X-158957000Y117377000D02*
X-158957000Y114371000D01*
X-158957000Y122865000D02*
X-158957000Y119859000D01*
X-158997000Y117377000D02*
X-158997000Y114345000D01*
X-158997000Y122891000D02*
X-158997000Y119859000D01*
X-159037000Y117377000D02*
X-159037000Y114320000D01*
X-159037000Y122916000D02*
X-159037000Y119859000D01*
X-159077000Y117377000D02*
X-159077000Y114295000D01*
X-159077000Y122941000D02*
X-159077000Y119859000D01*
X-159117000Y117377000D02*
X-159117000Y114271000D01*
X-159117000Y122965000D02*
X-159117000Y119859000D01*
X-159157000Y117377000D02*
X-159157000Y114247000D01*
X-159157000Y122989000D02*
X-159157000Y119859000D01*
X-159197000Y117377000D02*
X-159197000Y114223000D01*
X-159197000Y123013000D02*
X-159197000Y119859000D01*
X-159237000Y117377000D02*
X-159237000Y114201000D01*
X-159237000Y123035000D02*
X-159237000Y119859000D01*
X-159277000Y117377000D02*
X-159277000Y114178000D01*
X-159277000Y123058000D02*
X-159277000Y119859000D01*
X-159317000Y117377000D02*
X-159317000Y114156000D01*
X-159317000Y123080000D02*
X-159317000Y119859000D01*
X-159357000Y117377000D02*
X-159357000Y114135000D01*
X-159357000Y123101000D02*
X-159357000Y119859000D01*
X-159397000Y117377000D02*
X-159397000Y114114000D01*
X-159397000Y123122000D02*
X-159397000Y119859000D01*
X-159437000Y117377000D02*
X-159437000Y114093000D01*
X-159437000Y123143000D02*
X-159437000Y119859000D01*
X-159477000Y117377000D02*
X-159477000Y114073000D01*
X-159477000Y123163000D02*
X-159477000Y119859000D01*
X-159517000Y117377000D02*
X-159517000Y114054000D01*
X-159517000Y123182000D02*
X-159517000Y119859000D01*
X-159557000Y117377000D02*
X-159557000Y114034000D01*
X-159557000Y123202000D02*
X-159557000Y119859000D01*
X-159597000Y117377000D02*
X-159597000Y114015000D01*
X-159597000Y123221000D02*
X-159597000Y119859000D01*
X-159637000Y117377000D02*
X-159637000Y113997000D01*
X-159637000Y123239000D02*
X-159637000Y119859000D01*
X-159677000Y117377000D02*
X-159677000Y113979000D01*
X-159677000Y123257000D02*
X-159677000Y119859000D01*
X-159717000Y117377000D02*
X-159717000Y113961000D01*
X-159717000Y123275000D02*
X-159717000Y119859000D01*
X-159757000Y117377000D02*
X-159757000Y113944000D01*
X-159757000Y123292000D02*
X-159757000Y119859000D01*
X-159797000Y117377000D02*
X-159797000Y113928000D01*
X-159797000Y123308000D02*
X-159797000Y119859000D01*
X-159837000Y117377000D02*
X-159837000Y113911000D01*
X-159837000Y123325000D02*
X-159837000Y119859000D01*
X-159877000Y117377000D02*
X-159877000Y113895000D01*
X-159877000Y123341000D02*
X-159877000Y119859000D01*
X-159917000Y117377000D02*
X-159917000Y113880000D01*
X-159917000Y123356000D02*
X-159917000Y119859000D01*
X-159957000Y117377000D02*
X-159957000Y113864000D01*
X-159957000Y123372000D02*
X-159957000Y119859000D01*
X-159997000Y117377000D02*
X-159997000Y113850000D01*
X-159997000Y123386000D02*
X-159997000Y119859000D01*
X-160037000Y117377000D02*
X-160037000Y113835000D01*
X-160037000Y123401000D02*
X-160037000Y119859000D01*
X-160077000Y117377000D02*
X-160077000Y113821000D01*
X-160077000Y123415000D02*
X-160077000Y119859000D01*
X-160117000Y117377000D02*
X-160117000Y113807000D01*
X-160117000Y123429000D02*
X-160117000Y119859000D01*
X-160157000Y117377000D02*
X-160157000Y113794000D01*
X-160157000Y123442000D02*
X-160157000Y119859000D01*
X-160197000Y117377000D02*
X-160197000Y113781000D01*
X-160197000Y123455000D02*
X-160197000Y119859000D01*
X-160237000Y117377000D02*
X-160237000Y113768000D01*
X-160237000Y123468000D02*
X-160237000Y119859000D01*
X-160277000Y117377000D02*
X-160277000Y113756000D01*
X-160277000Y123480000D02*
X-160277000Y119859000D01*
X-160317000Y117377000D02*
X-160317000Y113744000D01*
X-160317000Y123492000D02*
X-160317000Y119859000D01*
X-160357000Y117377000D02*
X-160357000Y113733000D01*
X-160357000Y123503000D02*
X-160357000Y119859000D01*
X-160397000Y117377000D02*
X-160397000Y113721000D01*
X-160397000Y123515000D02*
X-160397000Y119859000D01*
X-160437000Y117377000D02*
X-160437000Y113711000D01*
X-160437000Y123525000D02*
X-160437000Y119859000D01*
X-160477000Y117377000D02*
X-160477000Y113700000D01*
X-160477000Y123536000D02*
X-160477000Y119859000D01*
X-160517000Y123546000D02*
X-160517000Y113690000D01*
X-160557000Y123556000D02*
X-160557000Y113680000D01*
X-160597000Y123565000D02*
X-160597000Y113671000D01*
X-160637000Y123574000D02*
X-160637000Y113662000D01*
X-160677000Y123583000D02*
X-160677000Y113653000D01*
X-160717000Y123592000D02*
X-160717000Y113644000D01*
X-160757000Y123600000D02*
X-160757000Y113636000D01*
X-160797000Y123608000D02*
X-160797000Y113628000D01*
X-160837000Y123615000D02*
X-160837000Y113621000D01*
X-160877000Y123622000D02*
X-160877000Y113614000D01*
X-160917000Y123629000D02*
X-160917000Y113607000D01*
X-160957000Y123636000D02*
X-160957000Y113600000D01*
X-160997000Y123642000D02*
X-160997000Y113594000D01*
X-161037000Y123648000D02*
X-161037000Y113588000D01*
X-161078000Y123653000D02*
X-161078000Y113583000D01*
X-161118000Y123658000D02*
X-161118000Y113578000D01*
X-161158000Y123663000D02*
X-161158000Y113573000D01*
X-161198000Y123668000D02*
X-161198000Y113568000D01*
X-161238000Y123672000D02*
X-161238000Y113564000D01*
X-161278000Y123676000D02*
X-161278000Y113560000D01*
X-161318000Y123680000D02*
X-161318000Y113556000D01*
X-161358000Y123683000D02*
X-161358000Y113553000D01*
X-161398000Y123686000D02*
X-161398000Y113550000D01*
X-161438000Y123688000D02*
X-161438000Y113548000D01*
X-161478000Y123691000D02*
X-161478000Y113545000D01*
X-161518000Y123693000D02*
X-161518000Y113543000D01*
X-161558000Y123695000D02*
X-161558000Y113541000D01*
X-161598000Y123696000D02*
X-161598000Y113540000D01*
X-161638000Y123697000D02*
X-161638000Y113539000D01*
X-161678000Y123698000D02*
X-161678000Y113538000D01*
X-161718000Y123698000D02*
X-161718000Y113538000D01*
X-161758000Y123698000D02*
X-161758000Y113538000D01*
X-156638000Y118618000D02*
G75*
G03*
X-156638000Y118618000I-5120000J0D01*
G01*
%TO.C,C4*%
X-212717767Y70864000D02*
X-212425233Y70864000D01*
X-212717767Y71884000D02*
X-212425233Y71884000D01*
%TO.C,R5*%
X-202262000Y84011224D02*
X-202262000Y83501776D01*
X-201217000Y84011224D02*
X-201217000Y83501776D01*
%TO.C,R13*%
D13*
X-193603619Y90162142D02*
X-194079809Y89828809D01*
X-193603619Y89590714D02*
X-194603619Y89590714D01*
X-194603619Y89971666D01*
X-194556000Y90066904D01*
X-194508380Y90114523D01*
X-194413142Y90162142D01*
X-194270285Y90162142D01*
X-194175047Y90114523D01*
X-194127428Y90066904D01*
X-194079809Y89971666D01*
X-194079809Y89590714D01*
X-193603619Y91114523D02*
X-193603619Y90543095D01*
X-193603619Y90828809D02*
X-194603619Y90828809D01*
X-194460761Y90733571D01*
X-194365523Y90638333D01*
X-194317904Y90543095D01*
X-194603619Y91447857D02*
X-194603619Y92066904D01*
X-194222666Y91733571D01*
X-194222666Y91876428D01*
X-194175047Y91971666D01*
X-194127428Y92019285D01*
X-194032190Y92066904D01*
X-193794095Y92066904D01*
X-193698857Y92019285D01*
X-193651238Y91971666D01*
X-193603619Y91876428D01*
X-193603619Y91590714D01*
X-193651238Y91495476D01*
X-193698857Y91447857D01*
%TO.C,U6*%
X-161572330Y66484301D02*
X-160762494Y66484301D01*
X-160667219Y66531938D01*
X-160619581Y66579576D01*
X-160571944Y66674850D01*
X-160571944Y66865400D01*
X-160619581Y66960675D01*
X-160667219Y67008312D01*
X-160762494Y67055950D01*
X-161572330Y67055950D01*
X-161572330Y67961061D02*
X-161572330Y67770511D01*
X-161524693Y67675236D01*
X-161477055Y67627599D01*
X-161334143Y67532324D01*
X-161143593Y67484687D01*
X-160762494Y67484687D01*
X-160667219Y67532324D01*
X-160619581Y67579962D01*
X-160571944Y67675236D01*
X-160571944Y67865786D01*
X-160619581Y67961061D01*
X-160667219Y68008698D01*
X-160762494Y68056336D01*
X-161000681Y68056336D01*
X-161095956Y68008698D01*
X-161143593Y67961061D01*
X-161191231Y67865786D01*
X-161191231Y67675236D01*
X-161143593Y67579962D01*
X-161095956Y67532324D01*
X-161000681Y67484687D01*
%TO.C,C1*%
X-182345057Y82573833D02*
X-182297438Y82526214D01*
X-182249819Y82383357D01*
X-182249819Y82288119D01*
X-182297438Y82145261D01*
X-182392676Y82050023D01*
X-182487914Y82002404D01*
X-182678390Y81954785D01*
X-182821247Y81954785D01*
X-183011723Y82002404D01*
X-183106961Y82050023D01*
X-183202200Y82145261D01*
X-183249819Y82288119D01*
X-183249819Y82383357D01*
X-183202200Y82526214D01*
X-183154580Y82573833D01*
X-182249819Y83526214D02*
X-182249819Y82954785D01*
X-182249819Y83240500D02*
X-183249819Y83240500D01*
X-183106961Y83145261D01*
X-183011723Y83050023D01*
X-182964104Y82954785D01*
%TO.C,U1*%
X-189179104Y89580519D02*
X-189179104Y88770995D01*
X-189131485Y88675757D01*
X-189083866Y88628138D01*
X-188988628Y88580519D01*
X-188798152Y88580519D01*
X-188702914Y88628138D01*
X-188655295Y88675757D01*
X-188607676Y88770995D01*
X-188607676Y89580519D01*
X-187607676Y88580519D02*
X-188179104Y88580519D01*
X-187893390Y88580519D02*
X-187893390Y89580519D01*
X-187988628Y89437661D01*
X-188083866Y89342423D01*
X-188179104Y89294804D01*
%TO.C,NT1*%
X-132167619Y91821142D02*
X-133167619Y91821142D01*
X-132167619Y92392571D01*
X-133167619Y92392571D01*
X-133167619Y92725904D02*
X-133167619Y93297333D01*
X-132167619Y93011619D02*
X-133167619Y93011619D01*
X-132167619Y94154476D02*
X-132167619Y93583047D01*
X-132167619Y93868761D02*
X-133167619Y93868761D01*
X-133024761Y93773523D01*
X-132929523Y93678285D01*
X-132881904Y93583047D01*
%TO.C,C16*%
X-204985857Y102893857D02*
X-205033476Y102846238D01*
X-205176333Y102798619D01*
X-205271571Y102798619D01*
X-205414428Y102846238D01*
X-205509666Y102941476D01*
X-205557285Y103036714D01*
X-205604904Y103227190D01*
X-205604904Y103370047D01*
X-205557285Y103560523D01*
X-205509666Y103655761D01*
X-205414428Y103751000D01*
X-205271571Y103798619D01*
X-205176333Y103798619D01*
X-205033476Y103751000D01*
X-204985857Y103703380D01*
X-204033476Y102798619D02*
X-204604904Y102798619D01*
X-204319190Y102798619D02*
X-204319190Y103798619D01*
X-204414428Y103655761D01*
X-204509666Y103560523D01*
X-204604904Y103512904D01*
X-203176333Y103798619D02*
X-203366809Y103798619D01*
X-203462047Y103751000D01*
X-203509666Y103703380D01*
X-203604904Y103560523D01*
X-203652523Y103370047D01*
X-203652523Y102989095D01*
X-203604904Y102893857D01*
X-203557285Y102846238D01*
X-203462047Y102798619D01*
X-203271571Y102798619D01*
X-203176333Y102846238D01*
X-203128714Y102893857D01*
X-203081095Y102989095D01*
X-203081095Y103227190D01*
X-203128714Y103322428D01*
X-203176333Y103370047D01*
X-203271571Y103417666D01*
X-203462047Y103417666D01*
X-203557285Y103370047D01*
X-203604904Y103322428D01*
X-203652523Y103227190D01*
%TO.C,OUT  -*%
X-215486952Y132809619D02*
X-215296476Y132809619D01*
X-215201238Y132762000D01*
X-215106000Y132666761D01*
X-215058380Y132476285D01*
X-215058380Y132142952D01*
X-215106000Y131952476D01*
X-215201238Y131857238D01*
X-215296476Y131809619D01*
X-215486952Y131809619D01*
X-215582190Y131857238D01*
X-215677428Y131952476D01*
X-215725047Y132142952D01*
X-215725047Y132476285D01*
X-215677428Y132666761D01*
X-215582190Y132762000D01*
X-215486952Y132809619D01*
X-214629809Y132809619D02*
X-214629809Y132000095D01*
X-214582190Y131904857D01*
X-214534571Y131857238D01*
X-214439333Y131809619D01*
X-214248857Y131809619D01*
X-214153619Y131857238D01*
X-214106000Y131904857D01*
X-214058380Y132000095D01*
X-214058380Y132809619D01*
X-213725047Y132809619D02*
X-213153619Y132809619D01*
X-213439333Y131809619D02*
X-213439333Y132809619D01*
X-211296476Y132190571D02*
X-210534571Y132190571D01*
%TO.C,OUT +*%
X-202660000Y132809619D02*
X-202469523Y132809619D01*
X-202374285Y132762000D01*
X-202279047Y132666761D01*
X-202231428Y132476285D01*
X-202231428Y132142952D01*
X-202279047Y131952476D01*
X-202374285Y131857238D01*
X-202469523Y131809619D01*
X-202660000Y131809619D01*
X-202755238Y131857238D01*
X-202850476Y131952476D01*
X-202898095Y132142952D01*
X-202898095Y132476285D01*
X-202850476Y132666761D01*
X-202755238Y132762000D01*
X-202660000Y132809619D01*
X-201802857Y132809619D02*
X-201802857Y132000095D01*
X-201755238Y131904857D01*
X-201707619Y131857238D01*
X-201612380Y131809619D01*
X-201421904Y131809619D01*
X-201326666Y131857238D01*
X-201279047Y131904857D01*
X-201231428Y132000095D01*
X-201231428Y132809619D01*
X-200898095Y132809619D02*
X-200326666Y132809619D01*
X-200612380Y131809619D02*
X-200612380Y132809619D01*
X-199231428Y132190571D02*
X-198469523Y132190571D01*
X-198850476Y131809619D02*
X-198850476Y132571523D01*
%TO.C,IN +*%
X-169671809Y132063619D02*
X-169671809Y133063619D01*
X-169195619Y132063619D02*
X-169195619Y133063619D01*
X-168624190Y132063619D01*
X-168624190Y133063619D01*
X-167386095Y132444571D02*
X-166624190Y132444571D01*
X-167005142Y132063619D02*
X-167005142Y132825523D01*
%TO.C,IN -*%
X-156463809Y132063619D02*
X-156463809Y133063619D01*
X-155987619Y132063619D02*
X-155987619Y133063619D01*
X-155416190Y132063619D01*
X-155416190Y133063619D01*
X-154178095Y132444571D02*
X-153416190Y132444571D01*
%TO.C,R16*%
X-215480619Y74428142D02*
X-215956809Y74094809D01*
X-215480619Y73856714D02*
X-216480619Y73856714D01*
X-216480619Y74237666D01*
X-216433000Y74332904D01*
X-216385380Y74380523D01*
X-216290142Y74428142D01*
X-216147285Y74428142D01*
X-216052047Y74380523D01*
X-216004428Y74332904D01*
X-215956809Y74237666D01*
X-215956809Y73856714D01*
X-215480619Y75380523D02*
X-215480619Y74809095D01*
X-215480619Y75094809D02*
X-216480619Y75094809D01*
X-216337761Y74999571D01*
X-216242523Y74904333D01*
X-216194904Y74809095D01*
X-216480619Y76237666D02*
X-216480619Y76047190D01*
X-216433000Y75951952D01*
X-216385380Y75904333D01*
X-216242523Y75809095D01*
X-216052047Y75761476D01*
X-215671095Y75761476D01*
X-215575857Y75809095D01*
X-215528238Y75856714D01*
X-215480619Y75951952D01*
X-215480619Y76142428D01*
X-215528238Y76237666D01*
X-215575857Y76285285D01*
X-215671095Y76332904D01*
X-215909190Y76332904D01*
X-216004428Y76285285D01*
X-216052047Y76237666D01*
X-216099666Y76142428D01*
X-216099666Y75951952D01*
X-216052047Y75856714D01*
X-216004428Y75809095D01*
X-215909190Y75761476D01*
%TO.C,R15*%
X-214063319Y81259442D02*
X-214539509Y80926109D01*
X-214063319Y80688014D02*
X-215063319Y80688014D01*
X-215063319Y81068966D01*
X-215015700Y81164204D01*
X-214968080Y81211823D01*
X-214872842Y81259442D01*
X-214729985Y81259442D01*
X-214634747Y81211823D01*
X-214587128Y81164204D01*
X-214539509Y81068966D01*
X-214539509Y80688014D01*
X-214063319Y82211823D02*
X-214063319Y81640395D01*
X-214063319Y81926109D02*
X-215063319Y81926109D01*
X-214920461Y81830871D01*
X-214825223Y81735633D01*
X-214777604Y81640395D01*
X-215063319Y83116585D02*
X-215063319Y82640395D01*
X-214587128Y82592776D01*
X-214634747Y82640395D01*
X-214682366Y82735633D01*
X-214682366Y82973728D01*
X-214634747Y83068966D01*
X-214587128Y83116585D01*
X-214491890Y83164204D01*
X-214253795Y83164204D01*
X-214158557Y83116585D01*
X-214110938Y83068966D01*
X-214063319Y82973728D01*
X-214063319Y82735633D01*
X-214110938Y82640395D01*
X-214158557Y82592776D01*
%TO.C,INDUCTOR*%
X-187348380Y109783619D02*
X-187348380Y110783619D01*
X-186872190Y109783619D02*
X-186872190Y110783619D01*
X-186300761Y109783619D01*
X-186300761Y110783619D01*
X-185824571Y109783619D02*
X-185824571Y110783619D01*
X-185586476Y110783619D01*
X-185443619Y110736000D01*
X-185348380Y110640761D01*
X-185300761Y110545523D01*
X-185253142Y110355047D01*
X-185253142Y110212190D01*
X-185300761Y110021714D01*
X-185348380Y109926476D01*
X-185443619Y109831238D01*
X-185586476Y109783619D01*
X-185824571Y109783619D01*
X-184824571Y110783619D02*
X-184824571Y109974095D01*
X-184776952Y109878857D01*
X-184729333Y109831238D01*
X-184634095Y109783619D01*
X-184443619Y109783619D01*
X-184348380Y109831238D01*
X-184300761Y109878857D01*
X-184253142Y109974095D01*
X-184253142Y110783619D01*
X-183205523Y109878857D02*
X-183253142Y109831238D01*
X-183396000Y109783619D01*
X-183491238Y109783619D01*
X-183634095Y109831238D01*
X-183729333Y109926476D01*
X-183776952Y110021714D01*
X-183824571Y110212190D01*
X-183824571Y110355047D01*
X-183776952Y110545523D01*
X-183729333Y110640761D01*
X-183634095Y110736000D01*
X-183491238Y110783619D01*
X-183396000Y110783619D01*
X-183253142Y110736000D01*
X-183205523Y110688380D01*
X-182919809Y110783619D02*
X-182348380Y110783619D01*
X-182634095Y109783619D02*
X-182634095Y110783619D01*
X-181824571Y110783619D02*
X-181634095Y110783619D01*
X-181538857Y110736000D01*
X-181443619Y110640761D01*
X-181396000Y110450285D01*
X-181396000Y110116952D01*
X-181443619Y109926476D01*
X-181538857Y109831238D01*
X-181634095Y109783619D01*
X-181824571Y109783619D01*
X-181919809Y109831238D01*
X-182015047Y109926476D01*
X-182062666Y110116952D01*
X-182062666Y110450285D01*
X-182015047Y110640761D01*
X-181919809Y110736000D01*
X-181824571Y110783619D01*
X-180396000Y109783619D02*
X-180729333Y110259809D01*
X-180967428Y109783619D02*
X-180967428Y110783619D01*
X-180586476Y110783619D01*
X-180491238Y110736000D01*
X-180443619Y110688380D01*
X-180396000Y110593142D01*
X-180396000Y110450285D01*
X-180443619Y110355047D01*
X-180491238Y110307428D01*
X-180586476Y110259809D01*
X-180967428Y110259809D01*
%TO.C,R10*%
X-198254857Y102497619D02*
X-198588190Y102973809D01*
X-198826285Y102497619D02*
X-198826285Y103497619D01*
X-198445333Y103497619D01*
X-198350095Y103450000D01*
X-198302476Y103402380D01*
X-198254857Y103307142D01*
X-198254857Y103164285D01*
X-198302476Y103069047D01*
X-198350095Y103021428D01*
X-198445333Y102973809D01*
X-198826285Y102973809D01*
X-197302476Y102497619D02*
X-197873904Y102497619D01*
X-197588190Y102497619D02*
X-197588190Y103497619D01*
X-197683428Y103354761D01*
X-197778666Y103259523D01*
X-197873904Y103211904D01*
X-196683428Y103497619D02*
X-196588190Y103497619D01*
X-196492952Y103450000D01*
X-196445333Y103402380D01*
X-196397714Y103307142D01*
X-196350095Y103116666D01*
X-196350095Y102878571D01*
X-196397714Y102688095D01*
X-196445333Y102592857D01*
X-196492952Y102545238D01*
X-196588190Y102497619D01*
X-196683428Y102497619D01*
X-196778666Y102545238D01*
X-196826285Y102592857D01*
X-196873904Y102688095D01*
X-196921523Y102878571D01*
X-196921523Y103116666D01*
X-196873904Y103307142D01*
X-196826285Y103402380D01*
X-196778666Y103450000D01*
X-196683428Y103497619D01*
%TO.C,U2*%
X-209995904Y79160619D02*
X-209995904Y78351095D01*
X-209948285Y78255857D01*
X-209900666Y78208238D01*
X-209805428Y78160619D01*
X-209614952Y78160619D01*
X-209519714Y78208238D01*
X-209472095Y78255857D01*
X-209424476Y78351095D01*
X-209424476Y79160619D01*
X-208995904Y79065380D02*
X-208948285Y79113000D01*
X-208853047Y79160619D01*
X-208614952Y79160619D01*
X-208519714Y79113000D01*
X-208472095Y79065380D01*
X-208424476Y78970142D01*
X-208424476Y78874904D01*
X-208472095Y78732047D01*
X-209043523Y78160619D01*
X-208424476Y78160619D01*
%TO.C,D3*%
X-167765619Y99083904D02*
X-168765619Y99083904D01*
X-168765619Y99322000D01*
X-168718000Y99464857D01*
X-168622761Y99560095D01*
X-168527523Y99607714D01*
X-168337047Y99655333D01*
X-168194190Y99655333D01*
X-168003714Y99607714D01*
X-167908476Y99560095D01*
X-167813238Y99464857D01*
X-167765619Y99322000D01*
X-167765619Y99083904D01*
X-168765619Y99988666D02*
X-168765619Y100607714D01*
X-168384666Y100274380D01*
X-168384666Y100417238D01*
X-168337047Y100512476D01*
X-168289428Y100560095D01*
X-168194190Y100607714D01*
X-167956095Y100607714D01*
X-167860857Y100560095D01*
X-167813238Y100512476D01*
X-167765619Y100417238D01*
X-167765619Y100131523D01*
X-167813238Y100036285D01*
X-167860857Y99988666D01*
X-172775619Y102735095D02*
X-173775619Y102735095D01*
X-172775619Y103306523D02*
X-173347047Y102877952D01*
X-173775619Y103306523D02*
X-173204190Y102735095D01*
%TO.C,D2*%
X-152376095Y96575619D02*
X-152376095Y97575619D01*
X-152138000Y97575619D01*
X-151995142Y97528000D01*
X-151899904Y97432761D01*
X-151852285Y97337523D01*
X-151804666Y97147047D01*
X-151804666Y97004190D01*
X-151852285Y96813714D01*
X-151899904Y96718476D01*
X-151995142Y96623238D01*
X-152138000Y96575619D01*
X-152376095Y96575619D01*
X-151423714Y97480380D02*
X-151376095Y97528000D01*
X-151280857Y97575619D01*
X-151042761Y97575619D01*
X-150947523Y97528000D01*
X-150899904Y97480380D01*
X-150852285Y97385142D01*
X-150852285Y97289904D01*
X-150899904Y97147047D01*
X-151471333Y96575619D01*
X-150852285Y96575619D01*
X-155709904Y98475619D02*
X-155709904Y99475619D01*
X-155138476Y98475619D02*
X-155567047Y99047047D01*
X-155138476Y99475619D02*
X-155709904Y98904190D01*
%TO.C,RV1*%
X-203738219Y75922261D02*
X-204214409Y75588928D01*
X-203738219Y75350833D02*
X-204738219Y75350833D01*
X-204738219Y75731785D01*
X-204690600Y75827023D01*
X-204642980Y75874642D01*
X-204547742Y75922261D01*
X-204404885Y75922261D01*
X-204309647Y75874642D01*
X-204262028Y75827023D01*
X-204214409Y75731785D01*
X-204214409Y75350833D01*
X-204738219Y76207976D02*
X-203738219Y76541309D01*
X-204738219Y76874642D01*
X-203738219Y77731785D02*
X-203738219Y77160357D01*
X-203738219Y77446071D02*
X-204738219Y77446071D01*
X-204595361Y77350833D01*
X-204500123Y77255595D01*
X-204452504Y77160357D01*
%TO.C,D1*%
X-203620595Y70350119D02*
X-203620595Y71350119D01*
X-203382500Y71350119D01*
X-203239642Y71302500D01*
X-203144404Y71207261D01*
X-203096785Y71112023D01*
X-203049166Y70921547D01*
X-203049166Y70778690D01*
X-203096785Y70588214D01*
X-203144404Y70492976D01*
X-203239642Y70397738D01*
X-203382500Y70350119D01*
X-203620595Y70350119D01*
X-202096785Y70350119D02*
X-202668214Y70350119D01*
X-202382500Y70350119D02*
X-202382500Y71350119D01*
X-202477738Y71207261D01*
X-202572976Y71112023D01*
X-202668214Y71064404D01*
%TO.C,U8*%
X-190944404Y67196119D02*
X-190944404Y66386595D01*
X-190896785Y66291357D01*
X-190849166Y66243738D01*
X-190753928Y66196119D01*
X-190563452Y66196119D01*
X-190468214Y66243738D01*
X-190420595Y66291357D01*
X-190372976Y66386595D01*
X-190372976Y67196119D01*
X-189753928Y66767547D02*
X-189849166Y66815166D01*
X-189896785Y66862785D01*
X-189944404Y66958023D01*
X-189944404Y67005642D01*
X-189896785Y67100880D01*
X-189849166Y67148500D01*
X-189753928Y67196119D01*
X-189563452Y67196119D01*
X-189468214Y67148500D01*
X-189420595Y67100880D01*
X-189372976Y67005642D01*
X-189372976Y66958023D01*
X-189420595Y66862785D01*
X-189468214Y66815166D01*
X-189563452Y66767547D01*
X-189753928Y66767547D01*
X-189849166Y66719928D01*
X-189896785Y66672309D01*
X-189944404Y66577071D01*
X-189944404Y66386595D01*
X-189896785Y66291357D01*
X-189849166Y66243738D01*
X-189753928Y66196119D01*
X-189563452Y66196119D01*
X-189468214Y66243738D01*
X-189420595Y66291357D01*
X-189372976Y66386595D01*
X-189372976Y66577071D01*
X-189420595Y66672309D01*
X-189468214Y66719928D01*
X-189563452Y66767547D01*
%TO.C,U7*%
X-152399904Y106211619D02*
X-152399904Y105402095D01*
X-152352285Y105306857D01*
X-152304666Y105259238D01*
X-152209428Y105211619D01*
X-152018952Y105211619D01*
X-151923714Y105259238D01*
X-151876095Y105306857D01*
X-151828476Y105402095D01*
X-151828476Y106211619D01*
X-151447523Y106211619D02*
X-150780857Y106211619D01*
X-151209428Y105211619D01*
%TO.C,U3*%
X-211899404Y87987119D02*
X-211899404Y87177595D01*
X-211851785Y87082357D01*
X-211804166Y87034738D01*
X-211708928Y86987119D01*
X-211518452Y86987119D01*
X-211423214Y87034738D01*
X-211375595Y87082357D01*
X-211327976Y87177595D01*
X-211327976Y87987119D01*
X-210947023Y87987119D02*
X-210327976Y87987119D01*
X-210661309Y87606166D01*
X-210518452Y87606166D01*
X-210423214Y87558547D01*
X-210375595Y87510928D01*
X-210327976Y87415690D01*
X-210327976Y87177595D01*
X-210375595Y87082357D01*
X-210423214Y87034738D01*
X-210518452Y86987119D01*
X-210804166Y86987119D01*
X-210899404Y87034738D01*
X-210947023Y87082357D01*
%TO.C,U4*%
X-146126104Y91568519D02*
X-146126104Y90758995D01*
X-146078485Y90663757D01*
X-146030866Y90616138D01*
X-145935628Y90568519D01*
X-145745152Y90568519D01*
X-145649914Y90616138D01*
X-145602295Y90663757D01*
X-145554676Y90758995D01*
X-145554676Y91568519D01*
X-144649914Y91235185D02*
X-144649914Y90568519D01*
X-144888009Y91616138D02*
X-145126104Y90901852D01*
X-144507057Y90901852D01*
%TO.C,R12*%
X-205414619Y95242142D02*
X-205890809Y94908809D01*
X-205414619Y94670714D02*
X-206414619Y94670714D01*
X-206414619Y95051666D01*
X-206367000Y95146904D01*
X-206319380Y95194523D01*
X-206224142Y95242142D01*
X-206081285Y95242142D01*
X-205986047Y95194523D01*
X-205938428Y95146904D01*
X-205890809Y95051666D01*
X-205890809Y94670714D01*
X-205414619Y96194523D02*
X-205414619Y95623095D01*
X-205414619Y95908809D02*
X-206414619Y95908809D01*
X-206271761Y95813571D01*
X-206176523Y95718333D01*
X-206128904Y95623095D01*
X-206319380Y96575476D02*
X-206367000Y96623095D01*
X-206414619Y96718333D01*
X-206414619Y96956428D01*
X-206367000Y97051666D01*
X-206319380Y97099285D01*
X-206224142Y97146904D01*
X-206128904Y97146904D01*
X-205986047Y97099285D01*
X-205414619Y96527857D01*
X-205414619Y97146904D01*
%TO.C,R11*%
X-205414619Y98798142D02*
X-205890809Y98464809D01*
X-205414619Y98226714D02*
X-206414619Y98226714D01*
X-206414619Y98607666D01*
X-206367000Y98702904D01*
X-206319380Y98750523D01*
X-206224142Y98798142D01*
X-206081285Y98798142D01*
X-205986047Y98750523D01*
X-205938428Y98702904D01*
X-205890809Y98607666D01*
X-205890809Y98226714D01*
X-205414619Y99750523D02*
X-205414619Y99179095D01*
X-205414619Y99464809D02*
X-206414619Y99464809D01*
X-206271761Y99369571D01*
X-206176523Y99274333D01*
X-206128904Y99179095D01*
X-205414619Y100702904D02*
X-205414619Y100131476D01*
X-205414619Y100417190D02*
X-206414619Y100417190D01*
X-206271761Y100321952D01*
X-206176523Y100226714D01*
X-206128904Y100131476D01*
%TO.C,R14*%
X-185491357Y66126119D02*
X-185824690Y66602309D01*
X-186062785Y66126119D02*
X-186062785Y67126119D01*
X-185681833Y67126119D01*
X-185586595Y67078500D01*
X-185538976Y67030880D01*
X-185491357Y66935642D01*
X-185491357Y66792785D01*
X-185538976Y66697547D01*
X-185586595Y66649928D01*
X-185681833Y66602309D01*
X-186062785Y66602309D01*
X-184538976Y66126119D02*
X-185110404Y66126119D01*
X-184824690Y66126119D02*
X-184824690Y67126119D01*
X-184919928Y66983261D01*
X-185015166Y66888023D01*
X-185110404Y66840404D01*
X-183681833Y66792785D02*
X-183681833Y66126119D01*
X-183919928Y67173738D02*
X-184158023Y66459452D01*
X-183538976Y66459452D01*
%TO.C,R8*%
X-169410119Y63039333D02*
X-169886309Y62706000D01*
X-169410119Y62467904D02*
X-170410119Y62467904D01*
X-170410119Y62848857D01*
X-170362500Y62944095D01*
X-170314880Y62991714D01*
X-170219642Y63039333D01*
X-170076785Y63039333D01*
X-169981547Y62991714D01*
X-169933928Y62944095D01*
X-169886309Y62848857D01*
X-169886309Y62467904D01*
X-169981547Y63610761D02*
X-170029166Y63515523D01*
X-170076785Y63467904D01*
X-170172023Y63420285D01*
X-170219642Y63420285D01*
X-170314880Y63467904D01*
X-170362500Y63515523D01*
X-170410119Y63610761D01*
X-170410119Y63801238D01*
X-170362500Y63896476D01*
X-170314880Y63944095D01*
X-170219642Y63991714D01*
X-170172023Y63991714D01*
X-170076785Y63944095D01*
X-170029166Y63896476D01*
X-169981547Y63801238D01*
X-169981547Y63610761D01*
X-169933928Y63515523D01*
X-169886309Y63467904D01*
X-169791071Y63420285D01*
X-169600595Y63420285D01*
X-169505357Y63467904D01*
X-169457738Y63515523D01*
X-169410119Y63610761D01*
X-169410119Y63801238D01*
X-169457738Y63896476D01*
X-169505357Y63944095D01*
X-169600595Y63991714D01*
X-169791071Y63991714D01*
X-169886309Y63944095D01*
X-169933928Y63896476D01*
X-169981547Y63801238D01*
%TO.C,R7*%
X-171211619Y63142833D02*
X-171687809Y62809500D01*
X-171211619Y62571404D02*
X-172211619Y62571404D01*
X-172211619Y62952357D01*
X-172164000Y63047595D01*
X-172116380Y63095214D01*
X-172021142Y63142833D01*
X-171878285Y63142833D01*
X-171783047Y63095214D01*
X-171735428Y63047595D01*
X-171687809Y62952357D01*
X-171687809Y62571404D01*
X-172211619Y63476166D02*
X-172211619Y64142833D01*
X-171211619Y63714261D01*
%TO.C,R9*%
X-188998619Y60499333D02*
X-189474809Y60166000D01*
X-188998619Y59927904D02*
X-189998619Y59927904D01*
X-189998619Y60308857D01*
X-189951000Y60404095D01*
X-189903380Y60451714D01*
X-189808142Y60499333D01*
X-189665285Y60499333D01*
X-189570047Y60451714D01*
X-189522428Y60404095D01*
X-189474809Y60308857D01*
X-189474809Y59927904D01*
X-188998619Y60975523D02*
X-188998619Y61166000D01*
X-189046238Y61261238D01*
X-189093857Y61308857D01*
X-189236714Y61404095D01*
X-189427190Y61451714D01*
X-189808142Y61451714D01*
X-189903380Y61404095D01*
X-189951000Y61356476D01*
X-189998619Y61261238D01*
X-189998619Y61070761D01*
X-189951000Y60975523D01*
X-189903380Y60927904D01*
X-189808142Y60880285D01*
X-189570047Y60880285D01*
X-189474809Y60927904D01*
X-189427190Y60975523D01*
X-189379571Y61070761D01*
X-189379571Y61261238D01*
X-189427190Y61356476D01*
X-189474809Y61404095D01*
X-189570047Y61451714D01*
%TO.C,R6*%
X-160186666Y111213619D02*
X-160520000Y111689809D01*
X-160758095Y111213619D02*
X-160758095Y112213619D01*
X-160377142Y112213619D01*
X-160281904Y112166000D01*
X-160234285Y112118380D01*
X-160186666Y112023142D01*
X-160186666Y111880285D01*
X-160234285Y111785047D01*
X-160281904Y111737428D01*
X-160377142Y111689809D01*
X-160758095Y111689809D01*
X-159329523Y112213619D02*
X-159520000Y112213619D01*
X-159615238Y112166000D01*
X-159662857Y112118380D01*
X-159758095Y111975523D01*
X-159805714Y111785047D01*
X-159805714Y111404095D01*
X-159758095Y111308857D01*
X-159710476Y111261238D01*
X-159615238Y111213619D01*
X-159424761Y111213619D01*
X-159329523Y111261238D01*
X-159281904Y111308857D01*
X-159234285Y111404095D01*
X-159234285Y111642190D01*
X-159281904Y111737428D01*
X-159329523Y111785047D01*
X-159424761Y111832666D01*
X-159615238Y111832666D01*
X-159710476Y111785047D01*
X-159758095Y111737428D01*
X-159805714Y111642190D01*
%TO.C,R4*%
X-194238619Y72731333D02*
X-194714809Y72398000D01*
X-194238619Y72159904D02*
X-195238619Y72159904D01*
X-195238619Y72540857D01*
X-195191000Y72636095D01*
X-195143380Y72683714D01*
X-195048142Y72731333D01*
X-194905285Y72731333D01*
X-194810047Y72683714D01*
X-194762428Y72636095D01*
X-194714809Y72540857D01*
X-194714809Y72159904D01*
X-194905285Y73588476D02*
X-194238619Y73588476D01*
X-195286238Y73350380D02*
X-194571952Y73112285D01*
X-194571952Y73731333D01*
%TO.C,R3*%
X-202905119Y64158833D02*
X-203381309Y63825500D01*
X-202905119Y63587404D02*
X-203905119Y63587404D01*
X-203905119Y63968357D01*
X-203857500Y64063595D01*
X-203809880Y64111214D01*
X-203714642Y64158833D01*
X-203571785Y64158833D01*
X-203476547Y64111214D01*
X-203428928Y64063595D01*
X-203381309Y63968357D01*
X-203381309Y63587404D01*
X-203905119Y64492166D02*
X-203905119Y65111214D01*
X-203524166Y64777880D01*
X-203524166Y64920738D01*
X-203476547Y65015976D01*
X-203428928Y65063595D01*
X-203333690Y65111214D01*
X-203095595Y65111214D01*
X-203000357Y65063595D01*
X-202952738Y65015976D01*
X-202905119Y64920738D01*
X-202905119Y64635023D01*
X-202952738Y64539785D01*
X-203000357Y64492166D01*
%TO.C,R2*%
X-195915019Y83158033D02*
X-196391209Y82824700D01*
X-195915019Y82586604D02*
X-196915019Y82586604D01*
X-196915019Y82967557D01*
X-196867400Y83062795D01*
X-196819780Y83110414D01*
X-196724542Y83158033D01*
X-196581685Y83158033D01*
X-196486447Y83110414D01*
X-196438828Y83062795D01*
X-196391209Y82967557D01*
X-196391209Y82586604D01*
X-196819780Y83538985D02*
X-196867400Y83586604D01*
X-196915019Y83681842D01*
X-196915019Y83919938D01*
X-196867400Y84015176D01*
X-196819780Y84062795D01*
X-196724542Y84110414D01*
X-196629304Y84110414D01*
X-196486447Y84062795D01*
X-195915019Y83491366D01*
X-195915019Y84110414D01*
%TO.C,R1*%
X-194289419Y83183433D02*
X-194765609Y82850100D01*
X-194289419Y82612004D02*
X-195289419Y82612004D01*
X-195289419Y82992957D01*
X-195241800Y83088195D01*
X-195194180Y83135814D01*
X-195098942Y83183433D01*
X-194956085Y83183433D01*
X-194860847Y83135814D01*
X-194813228Y83088195D01*
X-194765609Y82992957D01*
X-194765609Y82612004D01*
X-194289419Y84135814D02*
X-194289419Y83564385D01*
X-194289419Y83850100D02*
X-195289419Y83850100D01*
X-195146561Y83754861D01*
X-195051323Y83659623D01*
X-195003704Y83564385D01*
%TO.C,Q1*%
X-168243238Y105418380D02*
X-168338476Y105466000D01*
X-168433714Y105561238D01*
X-168576571Y105704095D01*
X-168671809Y105751714D01*
X-168767047Y105751714D01*
X-168719428Y105513619D02*
X-168814666Y105561238D01*
X-168909904Y105656476D01*
X-168957523Y105846952D01*
X-168957523Y106180285D01*
X-168909904Y106370761D01*
X-168814666Y106466000D01*
X-168719428Y106513619D01*
X-168528952Y106513619D01*
X-168433714Y106466000D01*
X-168338476Y106370761D01*
X-168290857Y106180285D01*
X-168290857Y105846952D01*
X-168338476Y105656476D01*
X-168433714Y105561238D01*
X-168528952Y105513619D01*
X-168719428Y105513619D01*
X-167338476Y105513619D02*
X-167909904Y105513619D01*
X-167624190Y105513619D02*
X-167624190Y106513619D01*
X-167719428Y106370761D01*
X-167814666Y106275523D01*
X-167909904Y106227904D01*
%TO.C,C18*%
X-175204357Y57745357D02*
X-175251976Y57697738D01*
X-175394833Y57650119D01*
X-175490071Y57650119D01*
X-175632928Y57697738D01*
X-175728166Y57792976D01*
X-175775785Y57888214D01*
X-175823404Y58078690D01*
X-175823404Y58221547D01*
X-175775785Y58412023D01*
X-175728166Y58507261D01*
X-175632928Y58602500D01*
X-175490071Y58650119D01*
X-175394833Y58650119D01*
X-175251976Y58602500D01*
X-175204357Y58554880D01*
X-174251976Y57650119D02*
X-174823404Y57650119D01*
X-174537690Y57650119D02*
X-174537690Y58650119D01*
X-174632928Y58507261D01*
X-174728166Y58412023D01*
X-174823404Y58364404D01*
X-173680547Y58221547D02*
X-173775785Y58269166D01*
X-173823404Y58316785D01*
X-173871023Y58412023D01*
X-173871023Y58459642D01*
X-173823404Y58554880D01*
X-173775785Y58602500D01*
X-173680547Y58650119D01*
X-173490071Y58650119D01*
X-173394833Y58602500D01*
X-173347214Y58554880D01*
X-173299595Y58459642D01*
X-173299595Y58412023D01*
X-173347214Y58316785D01*
X-173394833Y58269166D01*
X-173490071Y58221547D01*
X-173680547Y58221547D01*
X-173775785Y58173928D01*
X-173823404Y58126309D01*
X-173871023Y58031071D01*
X-173871023Y57840595D01*
X-173823404Y57745357D01*
X-173775785Y57697738D01*
X-173680547Y57650119D01*
X-173490071Y57650119D01*
X-173394833Y57697738D01*
X-173347214Y57745357D01*
X-173299595Y57840595D01*
X-173299595Y58031071D01*
X-173347214Y58126309D01*
X-173394833Y58173928D01*
X-173490071Y58221547D01*
%TO.C,C19*%
X-183602357Y61650642D02*
X-183554738Y61603023D01*
X-183507119Y61460166D01*
X-183507119Y61364928D01*
X-183554738Y61222071D01*
X-183649976Y61126833D01*
X-183745214Y61079214D01*
X-183935690Y61031595D01*
X-184078547Y61031595D01*
X-184269023Y61079214D01*
X-184364261Y61126833D01*
X-184459500Y61222071D01*
X-184507119Y61364928D01*
X-184507119Y61460166D01*
X-184459500Y61603023D01*
X-184411880Y61650642D01*
X-183507119Y62603023D02*
X-183507119Y62031595D01*
X-183507119Y62317309D02*
X-184507119Y62317309D01*
X-184364261Y62222071D01*
X-184269023Y62126833D01*
X-184221404Y62031595D01*
X-183507119Y63079214D02*
X-183507119Y63269690D01*
X-183554738Y63364928D01*
X-183602357Y63412547D01*
X-183745214Y63507785D01*
X-183935690Y63555404D01*
X-184316642Y63555404D01*
X-184411880Y63507785D01*
X-184459500Y63460166D01*
X-184507119Y63364928D01*
X-184507119Y63174452D01*
X-184459500Y63079214D01*
X-184411880Y63031595D01*
X-184316642Y62983976D01*
X-184078547Y62983976D01*
X-183983309Y63031595D01*
X-183935690Y63079214D01*
X-183888071Y63174452D01*
X-183888071Y63364928D01*
X-183935690Y63460166D01*
X-183983309Y63507785D01*
X-184078547Y63555404D01*
%TO.C,C17*%
X-185380357Y61650642D02*
X-185332738Y61603023D01*
X-185285119Y61460166D01*
X-185285119Y61364928D01*
X-185332738Y61222071D01*
X-185427976Y61126833D01*
X-185523214Y61079214D01*
X-185713690Y61031595D01*
X-185856547Y61031595D01*
X-186047023Y61079214D01*
X-186142261Y61126833D01*
X-186237500Y61222071D01*
X-186285119Y61364928D01*
X-186285119Y61460166D01*
X-186237500Y61603023D01*
X-186189880Y61650642D01*
X-185285119Y62603023D02*
X-185285119Y62031595D01*
X-185285119Y62317309D02*
X-186285119Y62317309D01*
X-186142261Y62222071D01*
X-186047023Y62126833D01*
X-185999404Y62031595D01*
X-186285119Y62936357D02*
X-186285119Y63603023D01*
X-185285119Y63174452D01*
%TO.C,C15*%
X-171394357Y57872357D02*
X-171441976Y57824738D01*
X-171584833Y57777119D01*
X-171680071Y57777119D01*
X-171822928Y57824738D01*
X-171918166Y57919976D01*
X-171965785Y58015214D01*
X-172013404Y58205690D01*
X-172013404Y58348547D01*
X-171965785Y58539023D01*
X-171918166Y58634261D01*
X-171822928Y58729500D01*
X-171680071Y58777119D01*
X-171584833Y58777119D01*
X-171441976Y58729500D01*
X-171394357Y58681880D01*
X-170441976Y57777119D02*
X-171013404Y57777119D01*
X-170727690Y57777119D02*
X-170727690Y58777119D01*
X-170822928Y58634261D01*
X-170918166Y58539023D01*
X-171013404Y58491404D01*
X-169537214Y58777119D02*
X-170013404Y58777119D01*
X-170061023Y58300928D01*
X-170013404Y58348547D01*
X-169918166Y58396166D01*
X-169680071Y58396166D01*
X-169584833Y58348547D01*
X-169537214Y58300928D01*
X-169489595Y58205690D01*
X-169489595Y57967595D01*
X-169537214Y57872357D01*
X-169584833Y57824738D01*
X-169680071Y57777119D01*
X-169918166Y57777119D01*
X-170013404Y57824738D01*
X-170061023Y57872357D01*
%TO.C,C14*%
X-193668357Y59973142D02*
X-193620738Y59925523D01*
X-193573119Y59782666D01*
X-193573119Y59687428D01*
X-193620738Y59544571D01*
X-193715976Y59449333D01*
X-193811214Y59401714D01*
X-194001690Y59354095D01*
X-194144547Y59354095D01*
X-194335023Y59401714D01*
X-194430261Y59449333D01*
X-194525500Y59544571D01*
X-194573119Y59687428D01*
X-194573119Y59782666D01*
X-194525500Y59925523D01*
X-194477880Y59973142D01*
X-193573119Y60925523D02*
X-193573119Y60354095D01*
X-193573119Y60639809D02*
X-194573119Y60639809D01*
X-194430261Y60544571D01*
X-194335023Y60449333D01*
X-194287404Y60354095D01*
X-194239785Y61782666D02*
X-193573119Y61782666D01*
X-194620738Y61544571D02*
X-193906452Y61306476D01*
X-193906452Y61925523D01*
%TO.C,C13*%
X-167219357Y60137142D02*
X-167171738Y60089523D01*
X-167124119Y59946666D01*
X-167124119Y59851428D01*
X-167171738Y59708571D01*
X-167266976Y59613333D01*
X-167362214Y59565714D01*
X-167552690Y59518095D01*
X-167695547Y59518095D01*
X-167886023Y59565714D01*
X-167981261Y59613333D01*
X-168076500Y59708571D01*
X-168124119Y59851428D01*
X-168124119Y59946666D01*
X-168076500Y60089523D01*
X-168028880Y60137142D01*
X-167124119Y61089523D02*
X-167124119Y60518095D01*
X-167124119Y60803809D02*
X-168124119Y60803809D01*
X-167981261Y60708571D01*
X-167886023Y60613333D01*
X-167838404Y60518095D01*
X-168124119Y61422857D02*
X-168124119Y62041904D01*
X-167743166Y61708571D01*
X-167743166Y61851428D01*
X-167695547Y61946666D01*
X-167647928Y61994285D01*
X-167552690Y62041904D01*
X-167314595Y62041904D01*
X-167219357Y61994285D01*
X-167171738Y61946666D01*
X-167124119Y61851428D01*
X-167124119Y61565714D01*
X-167171738Y61470476D01*
X-167219357Y61422857D01*
%TO.C,C12*%
X-163186857Y97746857D02*
X-163234476Y97699238D01*
X-163377333Y97651619D01*
X-163472571Y97651619D01*
X-163615428Y97699238D01*
X-163710666Y97794476D01*
X-163758285Y97889714D01*
X-163805904Y98080190D01*
X-163805904Y98223047D01*
X-163758285Y98413523D01*
X-163710666Y98508761D01*
X-163615428Y98604000D01*
X-163472571Y98651619D01*
X-163377333Y98651619D01*
X-163234476Y98604000D01*
X-163186857Y98556380D01*
X-162234476Y97651619D02*
X-162805904Y97651619D01*
X-162520190Y97651619D02*
X-162520190Y98651619D01*
X-162615428Y98508761D01*
X-162710666Y98413523D01*
X-162805904Y98365904D01*
X-161853523Y98556380D02*
X-161805904Y98604000D01*
X-161710666Y98651619D01*
X-161472571Y98651619D01*
X-161377333Y98604000D01*
X-161329714Y98556380D01*
X-161282095Y98461142D01*
X-161282095Y98365904D01*
X-161329714Y98223047D01*
X-161901142Y97651619D01*
X-161282095Y97651619D01*
%TO.C,C11*%
X-142390857Y105246857D02*
X-142438476Y105199238D01*
X-142581333Y105151619D01*
X-142676571Y105151619D01*
X-142819428Y105199238D01*
X-142914666Y105294476D01*
X-142962285Y105389714D01*
X-143009904Y105580190D01*
X-143009904Y105723047D01*
X-142962285Y105913523D01*
X-142914666Y106008761D01*
X-142819428Y106104000D01*
X-142676571Y106151619D01*
X-142581333Y106151619D01*
X-142438476Y106104000D01*
X-142390857Y106056380D01*
X-141438476Y105151619D02*
X-142009904Y105151619D01*
X-141724190Y105151619D02*
X-141724190Y106151619D01*
X-141819428Y106008761D01*
X-141914666Y105913523D01*
X-142009904Y105865904D01*
X-140486095Y105151619D02*
X-141057523Y105151619D01*
X-140771809Y105151619D02*
X-140771809Y106151619D01*
X-140867047Y106008761D01*
X-140962285Y105913523D01*
X-141057523Y105865904D01*
%TO.C,C10*%
X-199413857Y86352142D02*
X-199366238Y86304523D01*
X-199318619Y86161666D01*
X-199318619Y86066428D01*
X-199366238Y85923571D01*
X-199461476Y85828333D01*
X-199556714Y85780714D01*
X-199747190Y85733095D01*
X-199890047Y85733095D01*
X-200080523Y85780714D01*
X-200175761Y85828333D01*
X-200271000Y85923571D01*
X-200318619Y86066428D01*
X-200318619Y86161666D01*
X-200271000Y86304523D01*
X-200223380Y86352142D01*
X-199318619Y87304523D02*
X-199318619Y86733095D01*
X-199318619Y87018809D02*
X-200318619Y87018809D01*
X-200175761Y86923571D01*
X-200080523Y86828333D01*
X-200032904Y86733095D01*
X-200318619Y87923571D02*
X-200318619Y88018809D01*
X-200271000Y88114047D01*
X-200223380Y88161666D01*
X-200128142Y88209285D01*
X-199937666Y88256904D01*
X-199699571Y88256904D01*
X-199509095Y88209285D01*
X-199413857Y88161666D01*
X-199366238Y88114047D01*
X-199318619Y88018809D01*
X-199318619Y87923571D01*
X-199366238Y87828333D01*
X-199413857Y87780714D01*
X-199509095Y87733095D01*
X-199699571Y87685476D01*
X-199937666Y87685476D01*
X-200128142Y87733095D01*
X-200223380Y87780714D01*
X-200271000Y87828333D01*
X-200318619Y87923571D01*
%TO.C,C9*%
X-196175357Y72794833D02*
X-196127738Y72747214D01*
X-196080119Y72604357D01*
X-196080119Y72509119D01*
X-196127738Y72366261D01*
X-196222976Y72271023D01*
X-196318214Y72223404D01*
X-196508690Y72175785D01*
X-196651547Y72175785D01*
X-196842023Y72223404D01*
X-196937261Y72271023D01*
X-197032500Y72366261D01*
X-197080119Y72509119D01*
X-197080119Y72604357D01*
X-197032500Y72747214D01*
X-196984880Y72794833D01*
X-196080119Y73271023D02*
X-196080119Y73461500D01*
X-196127738Y73556738D01*
X-196175357Y73604357D01*
X-196318214Y73699595D01*
X-196508690Y73747214D01*
X-196889642Y73747214D01*
X-196984880Y73699595D01*
X-197032500Y73651976D01*
X-197080119Y73556738D01*
X-197080119Y73366261D01*
X-197032500Y73271023D01*
X-196984880Y73223404D01*
X-196889642Y73175785D01*
X-196651547Y73175785D01*
X-196556309Y73223404D01*
X-196508690Y73271023D01*
X-196461071Y73366261D01*
X-196461071Y73556738D01*
X-196508690Y73651976D01*
X-196556309Y73699595D01*
X-196651547Y73747214D01*
%TO.C,C8*%
X-195603857Y90257333D02*
X-195556238Y90209714D01*
X-195508619Y90066857D01*
X-195508619Y89971619D01*
X-195556238Y89828761D01*
X-195651476Y89733523D01*
X-195746714Y89685904D01*
X-195937190Y89638285D01*
X-196080047Y89638285D01*
X-196270523Y89685904D01*
X-196365761Y89733523D01*
X-196461000Y89828761D01*
X-196508619Y89971619D01*
X-196508619Y90066857D01*
X-196461000Y90209714D01*
X-196413380Y90257333D01*
X-196080047Y90828761D02*
X-196127666Y90733523D01*
X-196175285Y90685904D01*
X-196270523Y90638285D01*
X-196318142Y90638285D01*
X-196413380Y90685904D01*
X-196461000Y90733523D01*
X-196508619Y90828761D01*
X-196508619Y91019238D01*
X-196461000Y91114476D01*
X-196413380Y91162095D01*
X-196318142Y91209714D01*
X-196270523Y91209714D01*
X-196175285Y91162095D01*
X-196127666Y91114476D01*
X-196080047Y91019238D01*
X-196080047Y90828761D01*
X-196032428Y90733523D01*
X-195984809Y90685904D01*
X-195889571Y90638285D01*
X-195699095Y90638285D01*
X-195603857Y90685904D01*
X-195556238Y90733523D01*
X-195508619Y90828761D01*
X-195508619Y91019238D01*
X-195556238Y91114476D01*
X-195603857Y91162095D01*
X-195699095Y91209714D01*
X-195889571Y91209714D01*
X-195984809Y91162095D01*
X-196032428Y91114476D01*
X-196080047Y91019238D01*
%TO.C,C7*%
X-210351666Y58253357D02*
X-210399285Y58205738D01*
X-210542142Y58158119D01*
X-210637380Y58158119D01*
X-210780238Y58205738D01*
X-210875476Y58300976D01*
X-210923095Y58396214D01*
X-210970714Y58586690D01*
X-210970714Y58729547D01*
X-210923095Y58920023D01*
X-210875476Y59015261D01*
X-210780238Y59110500D01*
X-210637380Y59158119D01*
X-210542142Y59158119D01*
X-210399285Y59110500D01*
X-210351666Y59062880D01*
X-210018333Y59158119D02*
X-209351666Y59158119D01*
X-209780238Y58158119D01*
%TO.C,C6*%
X-141644666Y83335857D02*
X-141692285Y83288238D01*
X-141835142Y83240619D01*
X-141930380Y83240619D01*
X-142073238Y83288238D01*
X-142168476Y83383476D01*
X-142216095Y83478714D01*
X-142263714Y83669190D01*
X-142263714Y83812047D01*
X-142216095Y84002523D01*
X-142168476Y84097761D01*
X-142073238Y84193000D01*
X-141930380Y84240619D01*
X-141835142Y84240619D01*
X-141692285Y84193000D01*
X-141644666Y84145380D01*
X-140787523Y84240619D02*
X-140978000Y84240619D01*
X-141073238Y84193000D01*
X-141120857Y84145380D01*
X-141216095Y84002523D01*
X-141263714Y83812047D01*
X-141263714Y83431095D01*
X-141216095Y83335857D01*
X-141168476Y83288238D01*
X-141073238Y83240619D01*
X-140882761Y83240619D01*
X-140787523Y83288238D01*
X-140739904Y83335857D01*
X-140692285Y83431095D01*
X-140692285Y83669190D01*
X-140739904Y83764428D01*
X-140787523Y83812047D01*
X-140882761Y83859666D01*
X-141073238Y83859666D01*
X-141168476Y83812047D01*
X-141216095Y83764428D01*
X-141263714Y83669190D01*
%TO.C,C5*%
X-148883666Y81811857D02*
X-148931285Y81764238D01*
X-149074142Y81716619D01*
X-149169380Y81716619D01*
X-149312238Y81764238D01*
X-149407476Y81859476D01*
X-149455095Y81954714D01*
X-149502714Y82145190D01*
X-149502714Y82288047D01*
X-149455095Y82478523D01*
X-149407476Y82573761D01*
X-149312238Y82669000D01*
X-149169380Y82716619D01*
X-149074142Y82716619D01*
X-148931285Y82669000D01*
X-148883666Y82621380D01*
X-147978904Y82716619D02*
X-148455095Y82716619D01*
X-148502714Y82240428D01*
X-148455095Y82288047D01*
X-148359857Y82335666D01*
X-148121761Y82335666D01*
X-148026523Y82288047D01*
X-147978904Y82240428D01*
X-147931285Y82145190D01*
X-147931285Y81907095D01*
X-147978904Y81811857D01*
X-148026523Y81764238D01*
X-148121761Y81716619D01*
X-148359857Y81716619D01*
X-148455095Y81764238D01*
X-148502714Y81811857D01*
%TO.C,C2*%
X-206843357Y84886333D02*
X-206795738Y84838714D01*
X-206748119Y84695857D01*
X-206748119Y84600619D01*
X-206795738Y84457761D01*
X-206890976Y84362523D01*
X-206986214Y84314904D01*
X-207176690Y84267285D01*
X-207319547Y84267285D01*
X-207510023Y84314904D01*
X-207605261Y84362523D01*
X-207700500Y84457761D01*
X-207748119Y84600619D01*
X-207748119Y84695857D01*
X-207700500Y84838714D01*
X-207652880Y84886333D01*
X-207652880Y85267285D02*
X-207700500Y85314904D01*
X-207748119Y85410142D01*
X-207748119Y85648238D01*
X-207700500Y85743476D01*
X-207652880Y85791095D01*
X-207557642Y85838714D01*
X-207462404Y85838714D01*
X-207319547Y85791095D01*
X-206748119Y85219666D01*
X-206748119Y85838714D01*
%TO.C,C3*%
X-161924666Y124510857D02*
X-161972285Y124463238D01*
X-162115142Y124415619D01*
X-162210380Y124415619D01*
X-162353238Y124463238D01*
X-162448476Y124558476D01*
X-162496095Y124653714D01*
X-162543714Y124844190D01*
X-162543714Y124987047D01*
X-162496095Y125177523D01*
X-162448476Y125272761D01*
X-162353238Y125368000D01*
X-162210380Y125415619D01*
X-162115142Y125415619D01*
X-161972285Y125368000D01*
X-161924666Y125320380D01*
X-161591333Y125415619D02*
X-160972285Y125415619D01*
X-161305619Y125034666D01*
X-161162761Y125034666D01*
X-161067523Y124987047D01*
X-161019904Y124939428D01*
X-160972285Y124844190D01*
X-160972285Y124606095D01*
X-161019904Y124510857D01*
X-161067523Y124463238D01*
X-161162761Y124415619D01*
X-161448476Y124415619D01*
X-161543714Y124463238D01*
X-161591333Y124510857D01*
%TO.C,C4*%
X-212738166Y69492857D02*
X-212785785Y69445238D01*
X-212928642Y69397619D01*
X-213023880Y69397619D01*
X-213166738Y69445238D01*
X-213261976Y69540476D01*
X-213309595Y69635714D01*
X-213357214Y69826190D01*
X-213357214Y69969047D01*
X-213309595Y70159523D01*
X-213261976Y70254761D01*
X-213166738Y70350000D01*
X-213023880Y70397619D01*
X-212928642Y70397619D01*
X-212785785Y70350000D01*
X-212738166Y70302380D01*
X-211881023Y70064285D02*
X-211881023Y69397619D01*
X-212119119Y70445238D02*
X-212357214Y69730952D01*
X-211738166Y69730952D01*
%TO.C,R5*%
X-201287119Y86360333D02*
X-201763309Y86027000D01*
X-201287119Y85788904D02*
X-202287119Y85788904D01*
X-202287119Y86169857D01*
X-202239500Y86265095D01*
X-202191880Y86312714D01*
X-202096642Y86360333D01*
X-201953785Y86360333D01*
X-201858547Y86312714D01*
X-201810928Y86265095D01*
X-201763309Y86169857D01*
X-201763309Y85788904D01*
X-202287119Y87265095D02*
X-202287119Y86788904D01*
X-201810928Y86741285D01*
X-201858547Y86788904D01*
X-201906166Y86884142D01*
X-201906166Y87122238D01*
X-201858547Y87217476D01*
X-201810928Y87265095D01*
X-201715690Y87312714D01*
X-201477595Y87312714D01*
X-201382357Y87265095D01*
X-201334738Y87217476D01*
X-201287119Y87122238D01*
X-201287119Y86884142D01*
X-201334738Y86788904D01*
X-201382357Y86741285D01*
%TD*%
M02*
