M48
; DRILL file {KiCad 5.1.10} date Wed Nov 24 03:02:19 2021
; FORMAT={-:-/ absolute / inch / decimal}
; #@! TF.CreationDate,2021-11-24T03:02:19+13:00
; #@! TF.GenerationSoftware,Kicad,Pcbnew,5.1.10
FMAT,2
INCH
T1C0.0157
T2C0.0197
T3C0.0315
T4C0.0354
T5C0.0394
T6C0.0409
T7C0.0417
T8C0.0433
T9C0.0472
T10C0.1378
%
G90
G05
T1
X-8.5Y3.135
X-8.49Y4.75
X-8.49Y4.5531
X-8.49Y4.3563
X-8.49Y4.1594
X-8.49Y3.9626
X-8.405Y2.865
X-8.37Y3.165
X-8.335Y2.89
X-8.2931Y4.75
X-8.2931Y4.5531
X-8.2931Y4.1594
X-8.2931Y3.9626
X-8.14Y3.095
X-8.065Y3.105
X-8.045Y3.38
X-7.99Y3.82
X-7.95Y2.49
X-7.94Y3.495
X-7.865Y3.215
X-7.815Y3.33
X-7.795Y2.945
X-7.785Y2.57
X-7.77Y3.28
X-7.73Y3.09
X-7.71Y3.365
X-7.665Y2.81
X-7.635Y2.49
X-7.505Y3.11
X-7.18Y2.815
X-7.0Y3.49
X-7.0Y3.3325
X-7.0Y3.02
X-7.0Y2.8625
X-7.0Y2.705
X-6.805Y2.42
X-6.8031Y3.49
X-6.8031Y3.3325
X-6.8031Y3.02
X-6.8031Y2.8625
X-6.8031Y2.705
X-6.8031Y2.5476
X-6.635Y2.42
X-6.6063Y3.49
X-6.6063Y3.3325
X-6.6063Y3.02
X-6.6063Y2.8625
X-6.6063Y2.705
X-6.545Y2.295
X-6.4094Y3.49
X-6.4094Y3.3325
X-6.4094Y3.02
X-6.4094Y2.8625
X-6.4094Y2.705
X-6.4094Y2.5476
X-6.2126Y3.49
X-6.2126Y3.3325
X-6.2126Y3.02
X-6.2126Y2.8625
X-6.2126Y2.705
X-6.2126Y2.5476
X-6.0157Y3.02
X-6.0157Y2.8625
X-6.0157Y2.705
X-6.0157Y2.5476
X-5.82Y5.14
X-5.82Y4.9431
X-5.82Y4.7463
X-5.82Y4.5494
X-5.8189Y3.02
X-5.8189Y2.8625
X-5.8189Y2.705
X-5.8189Y2.5476
X-5.6231Y5.14
X-5.6231Y4.9431
X-5.6231Y4.7463
X-5.6231Y4.5494
X-5.6231Y4.3526
X-5.622Y3.02
X-5.622Y2.8625
X-5.622Y2.705
X-5.4263Y5.14
X-5.4263Y4.9431
X-5.4263Y4.7463
X-5.4263Y4.5494
X-5.4263Y4.3526
X-5.4252Y3.02
X-5.4252Y2.8625
X-5.4252Y2.705
X-5.4252Y2.5476
X-5.38Y3.49
X-5.38Y3.3325
X-5.2294Y5.14
X-5.2294Y4.9431
X-5.2294Y4.7463
X-5.2294Y4.5494
X-5.2294Y4.3526
X-5.2294Y4.1557
X-5.2294Y3.9589
X-5.1831Y3.49
X-5.1831Y3.3325
T2
X-8.4933Y5.03
X-8.4631Y5.1031
X-8.4631Y4.9569
X-8.39Y5.1333
X-8.39Y4.9267
X-8.3169Y5.1031
X-8.3169Y4.9569
X-8.2867Y5.03
X-8.0033Y5.03
X-7.9731Y5.1031
X-7.9731Y4.9569
X-7.9Y5.1333
X-7.9Y4.9267
X-7.8269Y5.1031
X-7.8269Y4.9569
X-7.7967Y5.03
X-6.7233Y5.04
X-6.6931Y5.1131
X-6.6931Y4.9669
X-6.62Y5.1433
X-6.62Y4.9367
X-6.5469Y5.1131
X-6.5469Y4.9669
X-6.5167Y5.04
X-6.2033Y5.04
X-6.1731Y5.1131
X-6.1731Y4.9669
X-6.1Y5.1433
X-6.1Y4.9367
X-6.0269Y5.1131
X-6.0269Y4.9669
X-5.9967Y5.04
T3
X-8.345Y2.4975
X-8.2072Y2.4975
X-8.1375Y2.7925
X-7.905Y3.1125
X-7.905Y3.0125
X-7.905Y2.9125
X-7.8375Y2.7925
X-7.568Y3.4135
X-7.568Y3.3135
X-7.568Y3.2135
X-7.568Y3.1135
X-7.568Y3.0135
X-7.568Y2.9135
X-7.568Y2.8135
X-7.268Y3.4135
X-7.268Y3.3135
X-7.268Y3.2135
X-7.268Y3.1135
X-7.268Y3.0135
X-7.268Y2.9135
X-7.268Y2.8135
X-6.4387Y4.01
X-6.36Y4.01
X-6.12Y4.31
X-6.12Y4.21
X-6.12Y4.11
X-6.12Y4.01
X-5.82Y4.31
X-5.82Y4.21
X-5.82Y4.11
X-5.82Y4.01
X-5.62Y4.01
X-5.5413Y4.01
T4
X-6.72Y4.08
X-6.72Y3.78
X-6.12Y3.82
X-5.82Y3.82
T5
X-6.4669Y4.67
X-6.27Y4.67
T6
X-6.9975Y3.1475
X-6.9975Y2.1475
X-6.8975Y3.1475
X-6.8975Y2.1475
X-6.7975Y3.1475
X-6.7975Y2.1475
X-6.6975Y3.1475
X-6.6975Y2.1475
X-6.5975Y3.1475
X-6.5975Y2.1475
X-6.4975Y3.1475
X-6.4975Y2.1475
X-6.3975Y3.1475
X-6.3975Y2.1475
X-6.2975Y3.1475
X-6.2975Y2.1475
X-6.1975Y3.1475
X-6.1975Y2.1475
X-6.0975Y3.1475
X-6.0975Y2.1475
X-5.9975Y3.1475
X-5.9975Y2.1475
X-5.8975Y3.1475
X-5.8975Y2.1475
X-5.7975Y3.1475
X-5.7975Y2.1475
X-5.6975Y3.1475
X-5.6975Y2.1475
X-5.5975Y3.1475
X-5.5975Y2.1475
X-5.4975Y3.1475
X-5.4975Y2.1475
X-5.3975Y3.1475
X-5.3975Y2.1475
X-5.2975Y3.1475
X-5.2975Y2.1475
X-5.1975Y3.1475
X-5.1975Y2.1475
T7
X-7.5Y4.34
X-6.99Y4.34
T8
X-6.72Y4.34
X-6.62Y4.34
X-6.52Y4.34
X-5.821Y3.4895
X-5.721Y3.4895
X-5.621Y3.4895
T9
X-8.2925Y4.385
X-8.1953Y4.385
X-8.0984Y4.385
X-8.0Y4.385
X-7.9Y4.385
X-7.8Y4.385
T10
X-8.39Y5.03
X-7.9Y5.03
X-6.62Y5.04
X-6.1Y5.04
T0
M30
