%TF.GenerationSoftware,KiCad,Pcbnew,(5.1.6)-1*%
%TF.CreationDate,2021-09-06T17:33:44+12:00*%
%TF.ProjectId,60mOhm_Shunt,36306d4f-686d-45f5-9368-756e742e6b69,rev?*%
%TF.SameCoordinates,Original*%
%TF.FileFunction,Copper,L1,Top*%
%TF.FilePolarity,Positive*%
%FSLAX46Y46*%
G04 Gerber Fmt 4.6, Leading zero omitted, Abs format (unit mm)*
G04 Created by KiCad (PCBNEW (5.1.6)-1) date 2021-09-06 17:33:44*
%MOMM*%
%LPD*%
G01*
G04 APERTURE LIST*
%TA.AperFunction,NonConductor*%
%ADD10C,0.325000*%
%TD*%
%TA.AperFunction,ComponentPad*%
%ADD11R,1.700000X1.700000*%
%TD*%
%TA.AperFunction,Conductor*%
%ADD12C,0.400000*%
%TD*%
%TA.AperFunction,Conductor*%
%ADD13C,0.254000*%
%TD*%
G04 APERTURE END LIST*
D10*
X50831904Y-46405095D02*
X50584285Y-46405095D01*
X50460476Y-46467000D01*
X50398571Y-46528904D01*
X50274761Y-46714619D01*
X50212857Y-46962238D01*
X50212857Y-47457476D01*
X50274761Y-47581285D01*
X50336666Y-47643190D01*
X50460476Y-47705095D01*
X50708095Y-47705095D01*
X50831904Y-47643190D01*
X50893809Y-47581285D01*
X50955714Y-47457476D01*
X50955714Y-47147952D01*
X50893809Y-47024142D01*
X50831904Y-46962238D01*
X50708095Y-46900333D01*
X50460476Y-46900333D01*
X50336666Y-46962238D01*
X50274761Y-47024142D01*
X50212857Y-47147952D01*
X51760476Y-46405095D02*
X51884285Y-46405095D01*
X52008095Y-46467000D01*
X52070000Y-46528904D01*
X52131904Y-46652714D01*
X52193809Y-46900333D01*
X52193809Y-47209857D01*
X52131904Y-47457476D01*
X52070000Y-47581285D01*
X52008095Y-47643190D01*
X51884285Y-47705095D01*
X51760476Y-47705095D01*
X51636666Y-47643190D01*
X51574761Y-47581285D01*
X51512857Y-47457476D01*
X51450952Y-47209857D01*
X51450952Y-46900333D01*
X51512857Y-46652714D01*
X51574761Y-46528904D01*
X51636666Y-46467000D01*
X51760476Y-46405095D01*
X52750952Y-47705095D02*
X52750952Y-46838428D01*
X52750952Y-46962238D02*
X52812857Y-46900333D01*
X52936666Y-46838428D01*
X53122380Y-46838428D01*
X53246190Y-46900333D01*
X53308095Y-47024142D01*
X53308095Y-47705095D01*
X53308095Y-47024142D02*
X53370000Y-46900333D01*
X53493809Y-46838428D01*
X53679523Y-46838428D01*
X53803333Y-46900333D01*
X53865238Y-47024142D01*
X53865238Y-47705095D01*
D11*
%TO.P,J4,1*%
%TO.N,Net-(J3-Pad1)*%
X45720000Y-45720000D03*
%TD*%
%TO.P,J3,1*%
%TO.N,Net-(J3-Pad1)*%
X45720000Y-43180000D03*
%TD*%
%TO.P,J2,1*%
%TO.N,Net-(J1-Pad1)*%
X58420000Y-45720000D03*
%TD*%
%TO.P,J1,1*%
%TO.N,Net-(J1-Pad1)*%
X58420000Y-43180000D03*
%TD*%
%TO.P,R1,2*%
%TO.N,Net-(J1-Pad1)*%
%TA.AperFunction,SMDPad,CuDef*%
G36*
G01*
X54295000Y-44605001D02*
X54295000Y-41754999D01*
G75*
G02*
X54544999Y-41505000I249999J0D01*
G01*
X55570001Y-41505000D01*
G75*
G02*
X55820000Y-41754999I0J-249999D01*
G01*
X55820000Y-44605001D01*
G75*
G02*
X55570001Y-44855000I-249999J0D01*
G01*
X54544999Y-44855000D01*
G75*
G02*
X54295000Y-44605001I0J249999D01*
G01*
G37*
%TD.AperFunction*%
%TO.P,R1,1*%
%TO.N,Net-(J3-Pad1)*%
%TA.AperFunction,SMDPad,CuDef*%
G36*
G01*
X48320000Y-44605001D02*
X48320000Y-41754999D01*
G75*
G02*
X48569999Y-41505000I249999J0D01*
G01*
X49595001Y-41505000D01*
G75*
G02*
X49845000Y-41754999I0J-249999D01*
G01*
X49845000Y-44605001D01*
G75*
G02*
X49595001Y-44855000I-249999J0D01*
G01*
X48569999Y-44855000D01*
G75*
G02*
X48320000Y-44605001I0J249999D01*
G01*
G37*
%TD.AperFunction*%
%TD*%
D12*
%TO.N,Net-(J1-Pad1)*%
X55057500Y-43180000D02*
X53340000Y-43180000D01*
X53340000Y-43180000D02*
X52832000Y-43688000D01*
X52832000Y-43688000D02*
X52832000Y-45212000D01*
X53340000Y-45720000D02*
X58420000Y-45720000D01*
X52832000Y-45212000D02*
X53340000Y-45720000D01*
%TO.N,Net-(J3-Pad1)*%
X50800000Y-45720000D02*
X45720000Y-45720000D01*
X51308000Y-45212000D02*
X50800000Y-45720000D01*
X51308000Y-43688000D02*
X51308000Y-45212000D01*
X49082500Y-43180000D02*
X50800000Y-43180000D01*
X50800000Y-43180000D02*
X51308000Y-43688000D01*
%TD*%
D13*
%TO.N,Net-(J3-Pad1)*%
G36*
X49737984Y-41536856D02*
G01*
X49760859Y-41552141D01*
X49776144Y-41575016D01*
X49784000Y-41614509D01*
X49784000Y-44745491D01*
X49776144Y-44784984D01*
X49760859Y-44807859D01*
X49737984Y-44823144D01*
X49698491Y-44831000D01*
X48449003Y-44831000D01*
X48388338Y-44816679D01*
X46708025Y-43976523D01*
X46680408Y-43966512D01*
X46590965Y-43945397D01*
X46561786Y-43942000D01*
X45043509Y-43942000D01*
X45004016Y-43934144D01*
X44981141Y-43918859D01*
X44965856Y-43895984D01*
X44958000Y-43856491D01*
X44958000Y-42503509D01*
X44965856Y-42464016D01*
X44981141Y-42441141D01*
X45004016Y-42425856D01*
X45043509Y-42418000D01*
X46561786Y-42418000D01*
X46590965Y-42414603D01*
X46680408Y-42393488D01*
X46708025Y-42383477D01*
X48388338Y-41543321D01*
X48449003Y-41529000D01*
X49698491Y-41529000D01*
X49737984Y-41536856D01*
G37*
X49737984Y-41536856D02*
X49760859Y-41552141D01*
X49776144Y-41575016D01*
X49784000Y-41614509D01*
X49784000Y-44745491D01*
X49776144Y-44784984D01*
X49760859Y-44807859D01*
X49737984Y-44823144D01*
X49698491Y-44831000D01*
X48449003Y-44831000D01*
X48388338Y-44816679D01*
X46708025Y-43976523D01*
X46680408Y-43966512D01*
X46590965Y-43945397D01*
X46561786Y-43942000D01*
X45043509Y-43942000D01*
X45004016Y-43934144D01*
X44981141Y-43918859D01*
X44965856Y-43895984D01*
X44958000Y-43856491D01*
X44958000Y-42503509D01*
X44965856Y-42464016D01*
X44981141Y-42441141D01*
X45004016Y-42425856D01*
X45043509Y-42418000D01*
X46561786Y-42418000D01*
X46590965Y-42414603D01*
X46680408Y-42393488D01*
X46708025Y-42383477D01*
X48388338Y-41543321D01*
X48449003Y-41529000D01*
X49698491Y-41529000D01*
X49737984Y-41536856D01*
%TO.N,Net-(J1-Pad1)*%
G36*
X55751662Y-41543321D02*
G01*
X57431975Y-42383477D01*
X57459592Y-42393488D01*
X57549035Y-42414603D01*
X57578214Y-42418000D01*
X59096491Y-42418000D01*
X59135984Y-42425856D01*
X59158859Y-42441141D01*
X59174144Y-42464016D01*
X59182000Y-42503509D01*
X59182000Y-43856491D01*
X59174144Y-43895984D01*
X59158859Y-43918859D01*
X59135984Y-43934144D01*
X59096491Y-43942000D01*
X57578214Y-43942000D01*
X57549035Y-43945397D01*
X57459592Y-43966512D01*
X57431975Y-43976523D01*
X55751662Y-44816679D01*
X55690997Y-44831000D01*
X54441509Y-44831000D01*
X54402016Y-44823144D01*
X54379141Y-44807859D01*
X54363856Y-44784984D01*
X54356000Y-44745491D01*
X54356000Y-41614509D01*
X54363856Y-41575016D01*
X54379141Y-41552141D01*
X54402016Y-41536856D01*
X54441509Y-41529000D01*
X55690997Y-41529000D01*
X55751662Y-41543321D01*
G37*
X55751662Y-41543321D02*
X57431975Y-42383477D01*
X57459592Y-42393488D01*
X57549035Y-42414603D01*
X57578214Y-42418000D01*
X59096491Y-42418000D01*
X59135984Y-42425856D01*
X59158859Y-42441141D01*
X59174144Y-42464016D01*
X59182000Y-42503509D01*
X59182000Y-43856491D01*
X59174144Y-43895984D01*
X59158859Y-43918859D01*
X59135984Y-43934144D01*
X59096491Y-43942000D01*
X57578214Y-43942000D01*
X57549035Y-43945397D01*
X57459592Y-43966512D01*
X57431975Y-43976523D01*
X55751662Y-44816679D01*
X55690997Y-44831000D01*
X54441509Y-44831000D01*
X54402016Y-44823144D01*
X54379141Y-44807859D01*
X54363856Y-44784984D01*
X54356000Y-44745491D01*
X54356000Y-41614509D01*
X54363856Y-41575016D01*
X54379141Y-41552141D01*
X54402016Y-41536856D01*
X54441509Y-41529000D01*
X55690997Y-41529000D01*
X55751662Y-41543321D01*
%TD*%
M02*
