%TF.GenerationSoftware,KiCad,Pcbnew,(5.1.6)-1*%
%TF.CreationDate,2021-09-06T17:33:44+12:00*%
%TF.ProjectId,60mOhm_Shunt,36306d4f-686d-45f5-9368-756e742e6b69,rev?*%
%TF.SameCoordinates,Original*%
%TF.FileFunction,Legend,Top*%
%TF.FilePolarity,Positive*%
%FSLAX46Y46*%
G04 Gerber Fmt 4.6, Leading zero omitted, Abs format (unit mm)*
G04 Created by KiCad (PCBNEW (5.1.6)-1) date 2021-09-06 17:33:44*
%MOMM*%
%LPD*%
G01*
G04 APERTURE LIST*
%ADD10C,0.120000*%
%ADD11C,0.150000*%
G04 APERTURE END LIST*
D10*
%TO.C,J4*%
X44390000Y-47050000D02*
X47050000Y-47050000D01*
X44390000Y-46990000D02*
X44390000Y-47050000D01*
X47050000Y-46990000D02*
X47050000Y-47050000D01*
X44390000Y-46990000D02*
X47050000Y-46990000D01*
X44390000Y-45720000D02*
X44390000Y-44390000D01*
X44390000Y-44390000D02*
X45720000Y-44390000D01*
%TO.C,J3*%
X44390000Y-44510000D02*
X47050000Y-44510000D01*
X44390000Y-44450000D02*
X44390000Y-44510000D01*
X47050000Y-44450000D02*
X47050000Y-44510000D01*
X44390000Y-44450000D02*
X47050000Y-44450000D01*
X44390000Y-43180000D02*
X44390000Y-41850000D01*
X44390000Y-41850000D02*
X45720000Y-41850000D01*
%TO.C,J2*%
X57090000Y-47050000D02*
X59750000Y-47050000D01*
X57090000Y-46990000D02*
X57090000Y-47050000D01*
X59750000Y-46990000D02*
X59750000Y-47050000D01*
X57090000Y-46990000D02*
X59750000Y-46990000D01*
X57090000Y-45720000D02*
X57090000Y-44390000D01*
X57090000Y-44390000D02*
X58420000Y-44390000D01*
%TO.C,J1*%
X57090000Y-44510000D02*
X59750000Y-44510000D01*
X57090000Y-44450000D02*
X57090000Y-44510000D01*
X59750000Y-44450000D02*
X59750000Y-44510000D01*
X57090000Y-44450000D02*
X59750000Y-44450000D01*
X57090000Y-43180000D02*
X57090000Y-41850000D01*
X57090000Y-41850000D02*
X58420000Y-41850000D01*
%TO.C,R1*%
X50017936Y-41470000D02*
X54122064Y-41470000D01*
X50017936Y-44890000D02*
X54122064Y-44890000D01*
%TO.C,J4*%
D11*
X45386666Y-42842380D02*
X45386666Y-43556666D01*
X45339047Y-43699523D01*
X45243809Y-43794761D01*
X45100952Y-43842380D01*
X45005714Y-43842380D01*
X46291428Y-43175714D02*
X46291428Y-43842380D01*
X46053333Y-42794761D02*
X45815238Y-43509047D01*
X46434285Y-43509047D01*
%TO.C,J3*%
X45386666Y-40302380D02*
X45386666Y-41016666D01*
X45339047Y-41159523D01*
X45243809Y-41254761D01*
X45100952Y-41302380D01*
X45005714Y-41302380D01*
X45767619Y-40302380D02*
X46386666Y-40302380D01*
X46053333Y-40683333D01*
X46196190Y-40683333D01*
X46291428Y-40730952D01*
X46339047Y-40778571D01*
X46386666Y-40873809D01*
X46386666Y-41111904D01*
X46339047Y-41207142D01*
X46291428Y-41254761D01*
X46196190Y-41302380D01*
X45910476Y-41302380D01*
X45815238Y-41254761D01*
X45767619Y-41207142D01*
%TO.C,J2*%
X58086666Y-42842380D02*
X58086666Y-43556666D01*
X58039047Y-43699523D01*
X57943809Y-43794761D01*
X57800952Y-43842380D01*
X57705714Y-43842380D01*
X58515238Y-42937619D02*
X58562857Y-42890000D01*
X58658095Y-42842380D01*
X58896190Y-42842380D01*
X58991428Y-42890000D01*
X59039047Y-42937619D01*
X59086666Y-43032857D01*
X59086666Y-43128095D01*
X59039047Y-43270952D01*
X58467619Y-43842380D01*
X59086666Y-43842380D01*
%TO.C,J1*%
X58086666Y-40302380D02*
X58086666Y-41016666D01*
X58039047Y-41159523D01*
X57943809Y-41254761D01*
X57800952Y-41302380D01*
X57705714Y-41302380D01*
X59086666Y-41302380D02*
X58515238Y-41302380D01*
X58800952Y-41302380D02*
X58800952Y-40302380D01*
X58705714Y-40445238D01*
X58610476Y-40540476D01*
X58515238Y-40588095D01*
%TO.C,R1*%
X51903333Y-43632380D02*
X51570000Y-43156190D01*
X51331904Y-43632380D02*
X51331904Y-42632380D01*
X51712857Y-42632380D01*
X51808095Y-42680000D01*
X51855714Y-42727619D01*
X51903333Y-42822857D01*
X51903333Y-42965714D01*
X51855714Y-43060952D01*
X51808095Y-43108571D01*
X51712857Y-43156190D01*
X51331904Y-43156190D01*
X52855714Y-43632380D02*
X52284285Y-43632380D01*
X52570000Y-43632380D02*
X52570000Y-42632380D01*
X52474761Y-42775238D01*
X52379523Y-42870476D01*
X52284285Y-42918095D01*
%TD*%
M02*
