%TF.GenerationSoftware,KiCad,Pcbnew,(5.1.6)-1*%
%TF.CreationDate,2021-09-06T17:26:13+12:00*%
%TF.ProjectId,50mOhm_Shunt,35306d4f-686d-45f5-9368-756e742e6b69,rev?*%
%TF.SameCoordinates,Original*%
%TF.FileFunction,Copper,L1,Top*%
%TF.FilePolarity,Positive*%
%FSLAX46Y46*%
G04 Gerber Fmt 4.6, Leading zero omitted, Abs format (unit mm)*
G04 Created by KiCad (PCBNEW (5.1.6)-1) date 2021-09-06 17:26:13*
%MOMM*%
%LPD*%
G01*
G04 APERTURE LIST*
%TA.AperFunction,NonConductor*%
%ADD10C,0.325000*%
%TD*%
%TA.AperFunction,ComponentPad*%
%ADD11R,1.700000X1.700000*%
%TD*%
%TA.AperFunction,Conductor*%
%ADD12C,0.385000*%
%TD*%
%TA.AperFunction,Conductor*%
%ADD13C,0.254000*%
%TD*%
G04 APERTURE END LIST*
D10*
X50893809Y-46532095D02*
X50274761Y-46532095D01*
X50212857Y-47151142D01*
X50274761Y-47089238D01*
X50398571Y-47027333D01*
X50708095Y-47027333D01*
X50831904Y-47089238D01*
X50893809Y-47151142D01*
X50955714Y-47274952D01*
X50955714Y-47584476D01*
X50893809Y-47708285D01*
X50831904Y-47770190D01*
X50708095Y-47832095D01*
X50398571Y-47832095D01*
X50274761Y-47770190D01*
X50212857Y-47708285D01*
X51760476Y-46532095D02*
X51884285Y-46532095D01*
X52008095Y-46594000D01*
X52070000Y-46655904D01*
X52131904Y-46779714D01*
X52193809Y-47027333D01*
X52193809Y-47336857D01*
X52131904Y-47584476D01*
X52070000Y-47708285D01*
X52008095Y-47770190D01*
X51884285Y-47832095D01*
X51760476Y-47832095D01*
X51636666Y-47770190D01*
X51574761Y-47708285D01*
X51512857Y-47584476D01*
X51450952Y-47336857D01*
X51450952Y-47027333D01*
X51512857Y-46779714D01*
X51574761Y-46655904D01*
X51636666Y-46594000D01*
X51760476Y-46532095D01*
X52750952Y-47832095D02*
X52750952Y-46965428D01*
X52750952Y-47089238D02*
X52812857Y-47027333D01*
X52936666Y-46965428D01*
X53122380Y-46965428D01*
X53246190Y-47027333D01*
X53308095Y-47151142D01*
X53308095Y-47832095D01*
X53308095Y-47151142D02*
X53370000Y-47027333D01*
X53493809Y-46965428D01*
X53679523Y-46965428D01*
X53803333Y-47027333D01*
X53865238Y-47151142D01*
X53865238Y-47832095D01*
D11*
%TO.P,J4,1*%
%TO.N,Net-(J3-Pad1)*%
X45720000Y-45720000D03*
%TD*%
%TO.P,J3,1*%
%TO.N,Net-(J3-Pad1)*%
X45720000Y-43180000D03*
%TD*%
%TO.P,J2,1*%
%TO.N,Net-(J1-Pad1)*%
X58420000Y-45720000D03*
%TD*%
%TO.P,J1,1*%
%TO.N,Net-(J1-Pad1)*%
X58420000Y-43180000D03*
%TD*%
%TO.P,R1,1*%
%TO.N,Net-(J3-Pad1)*%
%TA.AperFunction,SMDPad,CuDef*%
G36*
G01*
X49870000Y-43805000D02*
X49870000Y-42555000D01*
G75*
G02*
X50120000Y-42305000I250000J0D01*
G01*
X51045000Y-42305000D01*
G75*
G02*
X51295000Y-42555000I0J-250000D01*
G01*
X51295000Y-43805000D01*
G75*
G02*
X51045000Y-44055000I-250000J0D01*
G01*
X50120000Y-44055000D01*
G75*
G02*
X49870000Y-43805000I0J250000D01*
G01*
G37*
%TD.AperFunction*%
%TO.P,R1,2*%
%TO.N,Net-(J1-Pad1)*%
%TA.AperFunction,SMDPad,CuDef*%
G36*
G01*
X52845000Y-43805000D02*
X52845000Y-42555000D01*
G75*
G02*
X53095000Y-42305000I250000J0D01*
G01*
X54020000Y-42305000D01*
G75*
G02*
X54270000Y-42555000I0J-250000D01*
G01*
X54270000Y-43805000D01*
G75*
G02*
X54020000Y-44055000I-250000J0D01*
G01*
X53095000Y-44055000D01*
G75*
G02*
X52845000Y-43805000I0J250000D01*
G01*
G37*
%TD.AperFunction*%
%TD*%
D12*
%TO.N,Net-(J1-Pad1)*%
X53557500Y-43180000D02*
X52705000Y-43180000D01*
X52705000Y-43180000D02*
X52451010Y-43433990D01*
X52451010Y-43433990D02*
X52451010Y-45339010D01*
X52832000Y-45720000D02*
X58420000Y-45720000D01*
X52451010Y-45339010D02*
X52832000Y-45720000D01*
%TO.N,Net-(J3-Pad1)*%
X50582500Y-43180000D02*
X51435000Y-43180000D01*
X51435000Y-43180000D02*
X51689000Y-43434000D01*
X51689000Y-43434000D02*
X51689000Y-45212000D01*
X51181000Y-45720000D02*
X45720000Y-45720000D01*
X51689000Y-45212000D02*
X51181000Y-45720000D01*
%TD*%
D13*
%TO.N,Net-(J3-Pad1)*%
G36*
X51181000Y-43942000D02*
G01*
X44958000Y-43942000D01*
X44958000Y-42418000D01*
X51181000Y-42418000D01*
X51181000Y-43942000D01*
G37*
X51181000Y-43942000D02*
X44958000Y-43942000D01*
X44958000Y-42418000D01*
X51181000Y-42418000D01*
X51181000Y-43942000D01*
%TO.N,Net-(J1-Pad1)*%
G36*
X59135984Y-42425856D02*
G01*
X59158859Y-42441141D01*
X59174144Y-42464016D01*
X59182000Y-42503509D01*
X59182000Y-43856491D01*
X59174144Y-43895984D01*
X59158859Y-43918859D01*
X59135984Y-43934144D01*
X59096491Y-43942000D01*
X53044509Y-43942000D01*
X53005016Y-43934144D01*
X52982141Y-43918859D01*
X52966856Y-43895984D01*
X52959000Y-43856491D01*
X52959000Y-42503509D01*
X52966856Y-42464016D01*
X52982141Y-42441141D01*
X53005016Y-42425856D01*
X53044509Y-42418000D01*
X59096491Y-42418000D01*
X59135984Y-42425856D01*
G37*
X59135984Y-42425856D02*
X59158859Y-42441141D01*
X59174144Y-42464016D01*
X59182000Y-42503509D01*
X59182000Y-43856491D01*
X59174144Y-43895984D01*
X59158859Y-43918859D01*
X59135984Y-43934144D01*
X59096491Y-43942000D01*
X53044509Y-43942000D01*
X53005016Y-43934144D01*
X52982141Y-43918859D01*
X52966856Y-43895984D01*
X52959000Y-43856491D01*
X52959000Y-42503509D01*
X52966856Y-42464016D01*
X52982141Y-42441141D01*
X53005016Y-42425856D01*
X53044509Y-42418000D01*
X59096491Y-42418000D01*
X59135984Y-42425856D01*
%TD*%
M02*
